<svg width="33" height="32" viewBox="0 0 33 32" fill="none" xmlns="http://www.w3.org/2000/svg">
<g clip-path="url(#clip0_110_1077)">
<mask id="mask0_110_1077" style="mask-type:alpha" maskUnits="userSpaceOnUse" x="0" y="0" width="17" height="32">
<rect x="0.199951" width="16.4" height="32" fill="#C4C4C4"/>
</mask>
<g mask="url(#mask0_110_1077)">
<path d="M13.5397 28.8446C13.2889 28.8446 13.0366 28.812 12.7881 28.7453C11.9506 28.5209 11.2639 27.9391 10.9042 27.1491C10.6045 26.4906 9.91821 26.0961 9.20142 26.1649C8.33579 26.2467 7.49126 25.9438 6.87837 25.3302C6.26509 24.7163 5.96157 23.8688 6.04478 23.0049C6.05889 22.858 6.04902 22.7137 6.02622 22.5727L2.6604 24.5178C5.3959 28.8586 10.1532 31.7977 15.5999 32V28.1056C15.4665 28.1564 15.3367 28.22 15.2167 28.3056C14.7202 28.6603 14.1346 28.8446 13.5397 28.8446Z" fill="#FF7010"/>
<path d="M13.0987 4.41478C12.6085 4.54635 12.2069 4.88671 11.9964 5.34907C11.4847 6.47377 10.3085 7.15019 9.08662 7.03074C8.58076 6.98206 8.08584 7.15977 7.72725 7.5191C7.36826 7.87823 7.19053 8.37421 7.23936 8.87976C7.27827 9.28423 7.22393 9.67952 7.10352 10.0498L15.5999 14.9599V5.13944C15.2193 5.05868 14.8502 4.90817 14.5198 4.67225C14.1069 4.37705 13.5886 4.28379 13.0987 4.41478ZM13.2669 10.915C12.3612 11.4384 11.2031 11.1278 10.6803 10.2213C10.1574 9.31475 10.4677 8.15559 11.3733 7.63222C12.279 7.10884 13.4371 7.41944 13.96 8.32594C14.4828 9.23247 14.1725 10.3916 13.2669 10.915Z" fill="#FF7010"/>
<path d="M5.06167 21.3004C4.27261 20.9408 3.69136 20.2537 3.46675 19.4154C3.24214 18.5769 3.4023 17.6907 3.9062 16.9841C4.32573 16.3955 4.32573 15.6045 3.9062 15.0161C3.4023 14.3093 3.24214 13.4231 3.46675 12.5846C3.69136 11.7463 4.27261 11.0592 5.06167 10.6995C5.19585 10.6383 5.31577 10.5576 5.42632 10.4674L2.05796 8.5208C0.873828 10.7549 0.199951 13.2997 0.199951 16C0.199951 18.7003 0.873828 21.2451 2.05796 23.4792L5.42642 21.5326C5.31582 21.4423 5.19585 21.3616 5.06167 21.3004Z" fill="#FF7010"/>
<path d="M4.62566 19.1043C4.75691 19.5948 5.09715 19.997 5.55926 20.2073C5.92855 20.3758 6.24334 20.6206 6.50355 20.9101L15 16L6.5035 11.0899C6.24334 11.3794 5.9285 11.6241 5.55926 11.7925C5.09715 12.003 4.75691 12.4052 4.62566 12.8957C4.49441 13.3862 4.58816 13.9048 4.8827 14.3183C5.60027 15.3242 5.60027 16.6758 4.8827 17.6819C4.58816 18.0952 4.49441 18.6138 4.62566 19.1043ZM8.44031 14.1047C9.48607 14.1047 10.3338 14.9532 10.3338 16C10.3338 17.0467 9.48607 17.8953 8.44031 17.8953C7.39451 17.8953 6.54676 17.0467 6.54676 16C6.54676 14.9532 7.39451 14.1047 8.44031 14.1047Z" fill="#FF7010"/>
<path d="M2.6604 7.48218L6.02622 9.42727C6.04907 9.28622 6.05889 9.14184 6.04478 8.9949C5.96157 8.13119 6.26509 7.28371 6.87837 6.66984C7.49165 6.05598 8.33696 5.75237 9.20181 5.83506C9.91704 5.90564 10.6049 5.50897 10.9042 4.85132C11.2639 4.06111 11.9506 3.47931 12.7881 3.25468C13.626 3.03005 14.5108 3.19017 15.2167 3.69436C15.3367 3.78003 15.4665 3.84364 15.5999 3.89438V0C10.1532 0.202316 5.3959 3.14139 2.6604 7.48218Z" fill="#FF7010"/>
<path d="M7.23936 23.12C7.19053 23.6258 7.36826 24.1218 7.72725 24.4809C8.08584 24.84 8.58506 25.0164 9.08623 24.9693C10.319 24.8496 11.4851 25.5268 11.9964 26.6509C12.2069 27.1131 12.6085 27.4537 13.0987 27.5852C13.5882 27.7166 14.1069 27.623 14.5198 27.3277C14.8501 27.0919 15.2193 26.9413 15.5999 26.8605V17.0401L7.10352 21.9502C7.22393 22.3204 7.27827 22.7157 7.23936 23.12ZM10.6803 21.7787C11.2031 20.8722 12.3612 20.5616 13.2669 21.085C14.1725 21.6084 14.4828 22.7675 13.96 23.674C13.4371 24.5806 12.279 24.8912 11.3733 24.3678C10.4677 23.8444 10.1574 22.6852 10.6803 21.7787Z" fill="#FF7010"/>
</g>
<path d="M30.1172 26.2613C29.4072 24.896 29.3299 23.292 29.9072 21.8607C30.5345 20.3027 30.8665 18.506 30.8665 16.6667C30.8665 13.522 29.9892 11.5913 29.1399 9.72399C28.3805 8.05332 27.6679 6.45665 27.5559 3.99532C27.9132 3.98265 28.1999 3.69332 28.1999 3.33332C28.1999 2.96532 27.9019 2.66665 27.5332 2.66665V0.666651C27.5332 0.298651 27.2352 -1.52588e-05 26.8665 -1.52588e-05H21.5332C21.1645 -1.52588e-05 20.8665 0.298651 20.8665 0.666651V2.66665C20.4979 2.66665 20.1999 2.96532 20.1999 3.33332C20.1999 3.69332 20.4865 3.98265 20.8439 3.99532C20.7319 6.45665 20.0192 8.05399 19.2599 9.72399C18.4112 11.5913 17.5332 13.522 17.5332 16.6667C17.5332 18.506 17.8652 20.3027 18.4925 21.8613C19.0692 23.2933 18.9925 24.8973 18.2825 26.262C17.7925 27.2033 17.5332 28.2653 17.5332 29.3333C17.5332 30.0827 17.6632 30.83 17.9199 31.5553C18.0139 31.822 18.2659 32 18.5479 32H29.8505C30.1332 32 30.3845 31.822 30.4785 31.556C30.7365 30.8313 30.8665 30.0833 30.8665 29.3333C30.8665 28.2653 30.6079 27.2033 30.1172 26.2613C30.1172 26.262 30.1172 26.262 30.1172 26.2613ZM26.2139 3.99998C26.2332 4.47465 26.2799 4.91132 26.3372 5.33332H22.0632C22.1205 4.91132 22.1672 4.47465 22.1865 3.99998H26.2139ZM28.6652 12C28.8292 12.424 28.9772 12.8653 29.1045 13.3333H19.2952C19.4225 12.8653 19.5705 12.424 19.7345 12H28.6652ZM29.1072 20C28.9872 20.46 28.8499 20.9087 28.6805 21.3333H19.7199C19.5505 20.9087 19.4132 20.46 19.2932 20H29.1072Z" fill="#FF7010"/>
</g>
<defs>
<clipPath id="clip0_110_1077">
<rect width="32" height="32" fill="white" transform="translate(0.199951)"/>
</clipPath>
</defs>
</svg>
