<svg width="33" height="32" viewBox="0 0 33 32" fill="none" xmlns="http://www.w3.org/2000/svg">
<path d="M9.66512 0C9.36966 0 9.14912 0.238377 9.13179 0.533342V8.62814C9.66802 8.82165 10.0839 9.29421 10.1776 9.87918C10.1814 9.89954 10.3942 11.0933 11.2651 12.35V0.533342C11.2651 0.237873 11.0273 0 10.7318 0H9.66512ZM22.4651 0C22.1697 0 21.9491 0.238377 21.9318 0.533342V12.3448C22.8081 11.078 23.0224 9.86873 23.0224 9.86873C23.1194 9.28922 23.5327 8.82078 24.0651 8.62814V0.533342C24.0651 0.237873 23.8273 0 23.5318 0H22.4651ZM12.8651 2.13337C12.5697 2.13337 12.3318 2.3712 12.3318 2.66665V13.5511C12.8779 14.0255 13.5586 14.4281 14.4651 14.6729V2.66665C14.4651 2.3712 14.2273 2.13337 13.9318 2.13337H12.8651ZM19.2651 2.13337C18.9697 2.13337 18.7318 2.3712 18.7318 2.66665V14.6729C19.6386 14.4277 20.3192 14.024 20.8651 13.549V2.66665C20.8651 2.3712 20.6273 2.13337 20.3318 2.13337H19.2651ZM6.46512 4.26667C6.16966 4.26667 5.93179 4.50454 5.93179 4.80001V8.5323H8.06512V4.80001C8.06512 4.50454 7.82725 4.26667 7.53179 4.26667H6.46512ZM16.0651 4.26667C15.7697 4.26667 15.5318 4.50454 15.5318 4.80001V14.875C15.8627 14.9125 16.217 14.9333 16.5974 14.9333C16.979 14.9333 17.3333 14.9127 17.6651 14.875V4.80001C17.6651 4.50454 17.4273 4.26667 17.1318 4.26667H16.0651ZM25.6651 4.26667C25.3697 4.26667 25.1318 4.50454 25.1318 4.80001V8.5323H27.2651V4.80001C27.2651 4.50454 27.0273 4.26667 26.7318 4.26667H25.6651ZM3.79845 9.59898C3.47735 9.60011 3.23001 9.88259 3.27137 10.201L5.937 30.4646C6.03134 31.2584 6.65107 32 7.53075 32H25.6651C26.5426 32 27.1619 31.2601 27.2589 30.4688L29.9287 10.201C29.9702 9.88093 29.7202 9.59759 29.3974 9.59898H24.5985C24.3375 9.60031 24.1158 9.79025 24.0745 10.0479C24.0745 10.0479 23.8223 11.5286 22.763 13.0239C21.7038 14.5193 19.901 16 16.5985 16C13.2959 16 11.492 14.5193 10.4328 13.0239C9.37363 11.5286 9.12554 10.0479 9.12554 10.0479C9.08404 9.78906 8.8606 9.59878 8.59846 9.59898H3.79845ZM16.5985 19.7344C18.9486 19.7344 20.8651 21.6478 20.8651 23.9979C20.8651 26.348 18.9486 28.2656 16.5985 28.2656C14.2483 28.2656 12.3297 26.348 12.3297 23.9979C12.3297 21.6478 14.2483 19.7344 16.5985 19.7344Z" fill="#FF7010"/>
</svg>
