<svg width="14" height="20" viewBox="0 0 14 20" fill="none" xmlns="http://www.w3.org/2000/svg">
<path d="M6.51463 19.7391C6.62282 19.9021 6.80497 20 7 20C7.19503 20 7.37718 19.9021 7.48537 19.7391C8.86589 17.6591 10.8993 15.0903 12.3162 12.4778C13.4492 10.3889 14 8.60727 14 7.03125C14 3.15422 10.8598 0 7 0C3.1402 0 0 3.15422 0 7.03125C0 8.60727 0.550783 10.3889 1.68377 12.4778C3.09968 15.0883 5.13695 17.6634 6.51463 19.7391ZM7 1.17188C10.2165 1.17188 12.8333 3.80039 12.8333 7.03125C12.8333 8.40641 12.3291 10.0046 11.2917 11.9171C10.0704 14.1691 8.32743 16.4534 7 18.3738C5.67276 16.4537 3.92972 14.1692 2.70826 11.9171C1.67094 10.0046 1.16667 8.40641 1.16667 7.03125C1.16667 3.80039 3.7835 1.17188 7 1.17188Z" fill="#FF7010"/>
<path d="M7 10.5469C8.9299 10.5469 10.5 8.96977 10.5 7.03125C10.5 5.09273 8.9299 3.51562 7 3.51562C5.0701 3.51562 3.5 5.09273 3.5 7.03125C3.5 8.96977 5.0701 10.5469 7 10.5469ZM7 4.6875C8.2866 4.6875 9.33333 5.73891 9.33333 7.03125C9.33333 8.32359 8.2866 9.375 7 9.375C5.7134 9.375 4.66667 8.32359 4.66667 7.03125C4.66667 5.73891 5.7134 4.6875 7 4.6875Z" fill="#FF7010"/>
</svg>
