<svg width="20" height="20" viewBox="0 0 20 20" fill="none" xmlns="http://www.w3.org/2000/svg">
<path d="M12.5584 1.66699H7.44175C2.77508 1.66699 1.66675 2.77533 1.66675 7.44199V12.5587C1.66675 17.2253 2.77508 18.3337 7.44175 18.3337H12.5584C17.2251 18.3337 18.3334 17.2253 18.3334 12.5587V7.44199C18.3334 2.77533 17.2251 1.66699 12.5584 1.66699ZM15.1251 13.5587H13.9084C13.4501 13.5587 13.3084 13.1837 12.5001 12.3587C11.7667 11.667 11.4501 11.567 11.2751 11.567C11.0334 11.567 10.9584 11.6337 10.9584 11.9837V13.0753C10.9584 13.367 10.8667 13.5503 10.0917 13.5503C8.80841 13.5503 7.38341 12.767 6.38341 11.3253C4.87508 9.20866 4.46675 7.60866 4.46675 7.29199C4.46675 7.11699 4.52508 6.95033 4.87508 6.95033H6.10008C6.40841 6.95033 6.52508 7.08366 6.64175 7.41699C7.24175 9.16699 8.24175 10.667 8.65008 10.667C8.80841 10.667 8.87508 10.592 8.87508 10.2087V8.41699C8.83341 7.60033 8.39175 7.52533 8.39175 7.23366C8.39175 7.08366 8.50841 6.95033 8.70008 6.95033H10.6084C10.8667 6.95033 10.9584 7.08366 10.9584 7.40033V9.80866C10.9584 10.067 11.0667 10.1587 11.1501 10.1587C11.3001 10.1587 11.4334 10.067 11.7084 9.78366C12.5834 8.80866 13.2084 7.30033 13.2084 7.30033C13.2917 7.12533 13.4251 6.95866 13.7501 6.95866H14.9417C15.3084 6.95866 15.3917 7.15033 15.3084 7.40866C15.1584 8.11699 13.6751 10.2087 13.6917 10.2087C13.5584 10.417 13.5084 10.5087 13.6917 10.7503C13.8167 10.9253 14.2417 11.292 14.5251 11.617C15.0417 12.2087 15.4417 12.7003 15.5501 13.042C15.6417 13.3837 15.4751 13.5587 15.1251 13.5587Z" fill="#FF7010"/>
</svg>
