<svg width="20" height="20" viewBox="0 0 20 20" fill="none" xmlns="http://www.w3.org/2000/svg">
<path d="M17.0711 2.92891C15.1823 1.04021 12.6711 0 10 0C7.32891 0 4.81769 1.04021 2.92891 2.92891C1.04021 4.81769 0 7.32891 0 10C0 12.6711 1.04021 15.1823 2.92891 17.0711C4.81769 18.9598 7.32891 20 10 20C11.3497 20 12.6594 19.7355 13.8927 19.2139L13.4107 18.0745C12.3308 18.5313 11.1833 18.7629 10 18.7629C5.16812 18.7629 1.23711 14.8319 1.23711 10C1.23711 5.16812 5.16812 1.23711 10 1.23711C14.8319 1.23711 18.7629 5.16812 18.7629 10C18.7629 12.1164 17.4625 13.0804 16.2543 13.0804C15.0461 13.0804 13.7457 12.1165 13.7457 10C13.7457 7.9346 12.0654 6.25431 10 6.25431C7.9346 6.25431 6.25431 7.93464 6.25431 10C6.25431 12.0654 7.9346 13.7457 10 13.7457C11.2229 13.7457 12.3107 13.1566 12.9947 12.2473C13.1699 12.601 13.3903 12.921 13.6562 13.2005C14.3412 13.9208 15.2639 14.3174 16.2543 14.3174C17.2447 14.3174 18.1673 13.9207 18.8524 13.2005C19.6032 12.4111 20 11.3044 20 10C20 7.32891 18.9598 4.81769 17.0711 2.92891ZM10 12.5086C8.61678 12.5086 7.49142 11.3832 7.49142 10C7.49142 8.61678 8.61678 7.49142 10 7.49142C11.3832 7.49142 12.5086 8.61678 12.5086 10C12.5086 11.3832 11.3832 12.5086 10 12.5086Z" fill="#FF7010"/>
</svg>
