<svg width="20" height="20" viewBox="0 0 20 20" fill="none" xmlns="http://www.w3.org/2000/svg">
<path d="M10.02 3.90641C8.54374 3.89571 7.33473 5.11247 7.32356 6.62025C7.31244 8.12794 8.50406 9.36373 9.97987 9.37509C9.98672 9.37513 9.99352 9.37517 10.0004 9.37517C11.4668 9.37517 12.6652 8.16205 12.6763 6.66126C12.6875 5.15364 11.4959 3.91778 10.02 3.90641ZM10.0003 8.59396C9.99547 8.59396 9.99042 8.59392 9.98561 8.59388C8.93144 8.58576 8.08026 7.70302 8.08822 6.6261C8.09613 5.55403 8.95213 4.68755 9.9996 4.68755C10.0044 4.68755 10.0095 4.68759 10.0143 4.68762C11.0684 4.69575 11.9196 5.57849 11.9117 6.6554C11.9037 7.72747 11.0478 8.59396 10.0003 8.59396Z" fill="#FF7010"/>
<path d="M12.346 14.7048C14.8891 11.3605 16.4784 9.6165 16.4998 6.69056C16.5267 3.00919 13.6025 0 9.99941 0C6.43839 0 3.52729 2.94641 3.50022 6.59095C3.47835 9.59623 5.09716 11.3378 7.65781 14.7042C5.11043 15.0932 3.50022 16.0704 3.50022 17.2657C3.50022 18.0663 4.22461 18.7848 5.53999 19.2887C6.73723 19.7474 8.32118 20 10 20C11.6789 20 13.2628 19.7474 14.46 19.2887C15.7754 18.7848 16.4998 18.0663 16.4998 17.2656C16.4998 16.071 14.8911 15.094 12.346 14.7048ZM4.26487 6.59685C4.28873 3.38087 6.85714 0.781252 9.99948 0.781252C13.179 0.781252 15.7589 3.43704 15.7352 6.68474C15.7148 9.46342 14.0294 11.1758 11.3385 14.7595C10.8586 15.3984 10.4178 16.0025 10.0006 16.5934C9.5846 16.0021 9.15262 15.4089 8.66548 14.7593C5.86342 11.0255 4.24415 9.44256 4.26487 6.59685ZM10 19.2188C6.71754 19.2188 4.26487 18.1877 4.26487 17.2657C4.26487 16.5819 5.73109 15.7182 8.19638 15.4191C8.74134 16.1496 9.21911 16.8132 9.68772 17.4911C9.75929 17.5946 9.8756 17.6562 9.99967 17.6563C9.99979 17.6563 9.9999 17.6563 10 17.6563C10.124 17.6563 10.2402 17.5949 10.3119 17.4916C10.7761 16.8226 11.267 16.1425 11.8072 15.4195C14.2702 15.7189 15.7352 16.5824 15.7352 17.2657C15.7351 18.1877 13.2825 19.2188 10 19.2188Z" fill="#FF7010"/>
</svg>
