<svg width="48" height="48" viewBox="0 0 48 48" fill="none" xmlns="http://www.w3.org/2000/svg">
<path d="M18.4439 48C17.7047 48 17.0099 47.7122 16.4872 47.1895L9.42463 40.127C8.90193 39.6043 8.61414 38.9094 8.61414 38.1703V32.6094C8.61414 32.0996 8.20152 31.687 7.69174 31.687C5.76699 31.687 4.92453 29.6663 4.92453 25.2302C4.92453 23.3718 4.51314 20.9256 6.1544 20.9256C6.88679 20.9256 8.61414 20.6034 8.61414 20.3107V11.4114C8.61414 3.57093 16.5831 0 23.9875 0C29.9315 0 39.3609 3.09804 39.3609 11.4114V20.3107C39.3609 20.604 41.1743 20.9256 41.9067 20.9256C43.5486 20.9256 43.0505 23.3718 43.0505 25.2302C43.0505 29.6663 42.2081 31.687 40.2833 31.687C39.7735 31.687 39.3609 32.0996 39.3609 32.6094V38.1703C39.3609 38.9094 39.0731 39.6043 38.5504 40.127L31.4879 47.1895C30.9652 47.7122 30.2703 48 29.5312 48H18.4439Z" fill="#FFC7A3"/>
<path d="M23.9876 0.000617981C16.3508 0.000617981 8.61426 3.57155 8.61426 11.412V17.236V21.848V32.6094V34.4542V38.1703C8.61426 38.9094 8.90205 39.6043 9.42474 40.127L12.9188 43.6204V33.2243C18.4532 31.9945 23.9876 28.9198 23.9876 28.9198C23.9876 28.9198 29.5221 31.9945 35.0565 33.2243V43.621L38.5505 40.127C39.0732 39.6043 39.361 38.9094 39.361 38.1703V35.0691V32.6094V21.848V17.851V11.4114C39.361 3.09866 30.4358 0.000617981 23.9876 0.000617981ZM12.3039 28.3049C11.074 25.8451 10.4591 21.5406 12.3039 17.851C22.7578 17.851 22.7578 25.8451 22.7578 25.8451C22.7578 25.8451 16.6084 28.3049 12.3039 28.3049ZM25.271 25.8451C25.271 25.8451 25.271 17.851 35.7249 17.851C37.5697 21.5406 36.9548 25.8451 35.7249 28.3049C31.4204 28.3049 25.271 25.8451 25.271 25.8451Z" fill="#FF7010"/>
<path opacity="0.35" d="M25.8323 41.2185H22.1427L20.2979 39.3737H27.6771L25.8323 41.2185Z" fill="#40396E"/>
<path opacity="0.35" d="M21.5277 35.6841H26.4472L30.7517 37.5289H17.2231L21.5277 35.6841Z" fill="#40396E"/>
<path d="M26.7228 15.1188L26.0525 12.7458H21.941L21.1625 15.1188H18.1924L22.3758 3.09251H25.6356L29.7833 15.1188H26.7228ZM23.9875 6.08048L22.647 10.4459H25.2365L23.9875 6.08048Z" fill="#D9EEFF"/>
<path d="M19.6828 24.895C19.6828 24.895 17.4364 24.895 15.7694 24.895C14.1023 24.895 13.5334 23.3854 13.5334 23.3854C13.5334 23.3854 14.0924 21.8757 16.3283 21.8757C17.9954 21.8757 19.6828 24.895 19.6828 24.895Z" fill="#F2F2F2"/>
<path d="M16.5524 24.895C17.3862 24.895 18.0621 24.2191 18.0621 23.3854C18.0621 22.5516 17.3862 21.8757 16.5524 21.8757C15.7186 21.8757 15.0427 22.5516 15.0427 23.3854C15.0427 24.2191 15.7186 24.895 16.5524 24.895Z" fill="#2B59A1"/>
<path d="M20.2979 24.0003C21.1176 24.0003 21.5308 23.001 20.9417 22.431C20.5906 22.0915 20.1687 21.7675 19.6829 21.5406C17.6051 20.5013 16.3322 19.844 15.2935 19.844C13.215 19.844 12.3037 21.5406 12.3037 21.5406C12.3037 21.5406 12.3117 21.5381 12.3265 21.5338C13.7408 21.1292 15.2591 21.3395 16.5148 22.1045C17.8953 22.9457 19.6891 24.0003 20.2979 24.0003Z" fill="#40396E"/>
<path d="M31.649 21.8757C33.8831 21.8757 34.4414 23.3835 34.4414 23.3835C34.4414 23.3835 33.8726 24.8913 32.2074 24.8913C30.5421 24.8913 28.2976 24.8913 28.2976 24.8913C28.2976 24.8913 29.9831 21.8757 31.649 21.8757Z" fill="#F2F2F2"/>
<path d="M31.4258 24.892C32.2585 24.892 32.9336 24.2169 32.9336 23.3841C32.9336 22.5514 32.2585 21.8763 31.4258 21.8763C30.593 21.8763 29.918 22.5514 29.918 23.3841C29.918 24.2169 30.593 24.892 31.4258 24.892Z" fill="#2B59A1"/>
<path d="M27.6825 24.0003C28.2913 24.0003 30.0851 22.9457 31.4656 22.1045C32.7213 21.3395 34.2396 21.1292 35.6539 21.5338C35.6687 21.5381 35.6767 21.5406 35.6767 21.5406C35.6767 21.5406 34.7654 19.844 32.6869 19.844C31.6482 19.844 30.3753 20.5013 28.2975 21.5406C27.8117 21.7675 27.3898 22.0915 27.0387 22.431C26.4496 23.001 26.8628 24.0003 27.6825 24.0003Z" fill="#40396E"/>
</svg>
