<svg xmlns="http://www.w3.org/2000/svg" viewBox="0 0 500 500"><g id="freepik--background-complete--inject-41"><circle cx="81.1" cy="355.38" r="12.69" transform="translate(-227.54 161.44) rotate(-45)" style="fill:#e0e0e0"></circle><path d="M118.54,355.17a12.69,12.69,0,1,1-12.69-12.68A12.69,12.69,0,0,1,118.54,355.17Z" style="fill:#ebebeb"></path><circle cx="56.35" cy="355.17" r="12.69" style="fill:#ebebeb"></circle><path d="M39.49,357.9h82.86s-.85,34.17-23.1,38.35l-.35,7.25H61.59v-7.38S39.49,390.46,39.49,357.9Z" style="fill:#e0e0e0"></path><path d="M99.25,396.25c0,.12-8.46.21-18.89.21s-18.89-.09-18.89-.21,8.46-.22,18.89-.22S99.25,396.13,99.25,396.25Z" style="fill:#fff"></path><path d="M119.14,375.51l-.53.06-1.56.14a21.27,21.27,0,0,1-6-.3,11.81,11.81,0,0,1-4-1.62,9.15,9.15,0,0,1-3.43-3.86,6.66,6.66,0,0,1-.58-2.86,5.09,5.09,0,0,1,1-2.92,3.46,3.46,0,0,1,1.3-1,3.13,3.13,0,0,1,1.69-.23,4.07,4.07,0,0,1,2.77,2,5.43,5.43,0,0,1,.48,3.6,10.17,10.17,0,0,1-1.43,3.51,12.45,12.45,0,0,1-6.17,5,11.92,11.92,0,0,1-8.46-.09,12.44,12.44,0,0,1-3.85-2.34,8.56,8.56,0,0,1-2.61-3.83,4.3,4.3,0,0,1,0-2.41,3.25,3.25,0,0,1,1.52-1.93,4,4,0,0,1,4.61,1.05A8.74,8.74,0,0,1,95.8,372a13.85,13.85,0,0,1-.15,5.05,14.77,14.77,0,0,1-5.36,8.68,13.47,13.47,0,0,1-4.76,2.33,15,15,0,0,1-5.35.36,14.21,14.21,0,0,1-9.31-4.82,10,10,0,0,1-2.28-4.7,6.7,6.7,0,0,1,1.06-5A5.09,5.09,0,0,1,74,371.51a4.79,4.79,0,0,1,4.07,2.7,3.6,3.6,0,0,1,.17,2.5A4.8,4.8,0,0,1,77,378.8a9.44,9.44,0,0,1-4.2,2.21,17.33,17.33,0,0,1-16.48-4.12A9.37,9.37,0,0,1,54,373.46a6.74,6.74,0,0,1-.23-3.94,5.56,5.56,0,0,1,2-3.19,4.8,4.8,0,0,1,3.51-.86,4.73,4.73,0,0,1,3,1.66,5.08,5.08,0,0,1,1.12,3.09,4.85,4.85,0,0,1-1,2.94,7.37,7.37,0,0,1-2.18,1.93,17.23,17.23,0,0,1-4.86,1.83,30.83,30.83,0,0,1-4.31.71,29.83,29.83,0,0,1-6,0,18.14,18.14,0,0,1-2.08-.32l.53.06c.35.05.87.11,1.55.17a30.86,30.86,0,0,0,6,0,32.4,32.4,0,0,0,4.27-.75,17,17,0,0,0,4.78-1.84,7,7,0,0,0,2.1-1.87,4.54,4.54,0,0,0,.9-2.79,4.66,4.66,0,0,0-1.07-2.9,4.4,4.4,0,0,0-2.84-1.55,4.5,4.5,0,0,0-3.28.81,5.2,5.2,0,0,0-1.9,3,6.39,6.39,0,0,0,.22,3.74,9.11,9.11,0,0,0,2.17,3.3,16.93,16.93,0,0,0,16.12,4,9,9,0,0,0,4-2.11,4.53,4.53,0,0,0,1.2-1.91,3.15,3.15,0,0,0-.16-2.22A4.4,4.4,0,0,0,74,371.92a4.25,4.25,0,0,0-2.27.58A5.34,5.34,0,0,0,70,374.15a6.35,6.35,0,0,0-1,4.71,9.63,9.63,0,0,0,2.19,4.5,13.75,13.75,0,0,0,9,4.66,14.64,14.64,0,0,0,5.2-.35A13,13,0,0,0,90,385.42,14.4,14.4,0,0,0,95.24,377a13.48,13.48,0,0,0,.15-4.9,8.33,8.33,0,0,0-1.82-4.35,3.55,3.55,0,0,0-4.12-1,2.83,2.83,0,0,0-1.33,1.69,3.88,3.88,0,0,0,0,2.19,8.24,8.24,0,0,0,2.49,3.64,12.36,12.36,0,0,0,3.72,2.28,11.68,11.68,0,0,0,8.21.11,12.21,12.21,0,0,0,6-4.83,9.85,9.85,0,0,0,1.39-3.39,5.09,5.09,0,0,0-.42-3.39,3.78,3.78,0,0,0-2.56-1.9,2.77,2.77,0,0,0-1.53.2,3.32,3.32,0,0,0-1.19.94,4.84,4.84,0,0,0-1,2.76,6.5,6.5,0,0,0,.55,2.75,9,9,0,0,0,3.32,3.79,11.77,11.77,0,0,0,4,1.63,21.46,21.46,0,0,0,6,.37l1.57-.09Z" style="fill:#fff"></path><polygon points="289.02 292.76 315.93 335.38 446.88 335.38 461.88 296.81 366.4 287.53 289.02 292.76" style="fill:#e0e0e0"></polygon><rect x="296.79" y="383.17" width="157.19" height="20.34" style="fill:#e0e0e0"></rect><path d="M361.93,383.17a11.71,11.71,0,0,0,23.41,0Z" style="fill:#ebebeb"></path><rect x="276.43" y="362.82" width="157.19" height="20.34" style="fill:#f5f5f5"></rect><path d="M341.56,362.82a11.71,11.71,0,0,0,23.42,0Z" style="fill:#ebebeb"></path><rect x="283.33" y="343.12" width="157.19" height="20.34" style="fill:#e0e0e0"></rect><path d="M348.47,343.12a11.71,11.71,0,1,0,23.41,0Z" style="fill:#ebebeb"></path><path d="M299.8,323.42v19.49H456.25v-16H388.58s-.54,7.85-10.55,7.85-11.64-9.74-11.64-9.74Z" style="fill:#ebebeb"></path><polygon points="291.64 276.34 289.02 292.76 465.21 298.72 462.83 283.24 291.64 276.34" style="fill:#ebebeb"></polygon><path d="M158,208.74c-.58.45-32.29,14.69-32.29,14.69s8.73,18.54,25.67,10.28C166.8,226.17,158,208.74,158,208.74Z" style="fill:#ebebeb"></path><path d="M157.6,106.33c.72,0,1.3,24.62,1.3,55s-.58,55-1.3,55-1.3-24.62-1.3-55S156.88,106.33,157.6,106.33Z" style="fill:#ebebeb"></path><path d="M135,180.6c-.59.46-32.3,14.69-32.3,14.69s8.73,18.55,25.68,10.29C143.89,198,135,180.6,135,180.6Z" style="fill:#ebebeb"></path><path d="M134.68,104.47c.72,0,1.3,18.73,1.3,41.84s-.58,41.85-1.3,41.85-1.3-18.73-1.3-41.85S134,104.47,134.68,104.47Z" style="fill:#ebebeb"></path><path d="M107.28,152.84c-.59.46-32.29,14.7-32.29,14.7s8.73,18.54,25.67,10.28C116.13,170.28,107.28,152.84,107.28,152.84Z" style="fill:#ebebeb"></path><path d="M106.92,107.3c.72,0,1.31,11.89,1.31,26.55s-.59,26.55-1.31,26.55-1.3-11.88-1.3-26.55S106.2,107.3,106.92,107.3Z" style="fill:#ebebeb"></path><circle cx="195.32" cy="181.39" r="32.4" style="fill:#ebebeb"></circle><polygon points="194.11 152.61 191.57 110.95 203.51 110.95 200.2 152.61 194.11 152.61" style="fill:#ebebeb"></polygon><path d="M209,204.12s-.07.06-.21.14l-.66.39c-.29.16-.64.38-1.08.6l-1.54.69a26.8,26.8,0,0,1-10.52,1.94,27.5,27.5,0,0,1-15-4.78,24.48,24.48,0,0,1-6.55-6.77,27.79,27.79,0,0,1-4.14-19.46,24.23,24.23,0,0,1,3.22-8.85,27.49,27.49,0,0,1,11.78-10.49,26.73,26.73,0,0,1,10.4-2.52h1.69c.49,0,.9.08,1.23.11l.75.08a.82.82,0,0,1,.26.05h-.26l-.76,0c-.33,0-.74-.05-1.22-.05l-1.68,0a27.42,27.42,0,0,0-21.78,13.06,23.89,23.89,0,0,0-3.13,8.68,27.45,27.45,0,0,0,4.07,19.1,23.9,23.9,0,0,0,6.39,6.65,27.42,27.42,0,0,0,25.22,3.05l1.54-.64c.45-.2.8-.41,1.1-.55l.68-.34Z" style="fill:#ebebeb"></path><polygon points="65.42 57.04 76.89 98.55 125.48 98.55 136.96 57.04 65.42 57.04" style="fill:#ebebeb"></polygon><path d="M134.68,65.27c0,.14-15,.26-33.49.26s-33.49-.12-33.49-.26,15-.26,33.49-.26S134.68,65.13,134.68,65.27Z" style="fill:#e0e0e0"></path><path d="M143.59,67.75h-9.94l1.59-4.34h8.35a2.17,2.17,0,0,1,2.17,2.17h0A2.17,2.17,0,0,1,143.59,67.75Z" style="fill:#ebebeb"></path><path d="M58.71,67.75h9.95l-1.59-4.34H58.71a2.17,2.17,0,0,0-2.17,2.17h0A2.17,2.17,0,0,0,58.71,67.75Z" style="fill:#ebebeb"></path><rect x="53.14" y="97.98" width="181.47" height="12.97" style="fill:#e0e0e0"></rect></g><g id="freepik--Oil--inject-41"><path d="M379.25,306.48c-.46.11,3,17.32,3,17.32H391l3.88-16.63S388.36,304.43,379.25,306.48Z" style="fill:#455a64"></path><path d="M374,403.39s-12.9-36.14-11.1-46,5.68-11.87,8.78-15,5.68-5.68,6.46-8.78,0-15.49,0-15.49-2.33-3.61-1.55-4.9,19.87,0,19.87,0a8.75,8.75,0,0,1-1.54,4.39s-.52,14.45.25,16,12.65,14.72,14.46,21.43-7.13,48.28-7.13,48.28Z" style="fill:#f5f5f5"></path><path d="M374,403.39l.51,0,1.45,0,5.6,0,20.94-.09-.16.13c1.1-5.25,2.29-11.21,3.5-17.76s2.47-13.7,3.35-21.37c.2-1.92.39-3.87.43-5.85a14.39,14.39,0,0,0-.17-2.94A12.78,12.78,0,0,0,409,354c-.17-.46-.4-.92-.6-1.38a69,69,0,0,0-6.89-10.42c-1.3-1.7-2.65-3.39-4-5.09-.69-.86-1.38-1.7-2.05-2.6a7,7,0,0,1-.49-.72,3.4,3.4,0,0,1-.21-.88,15.9,15.9,0,0,1-.16-1.68c-.19-4.47-.06-9,.08-13.58v-.07l0-.07a9.78,9.78,0,0,0,.59-1,8.08,8.08,0,0,0,.91-3.22l.25.26c-4.36-.28-8.66-.5-12.88-.57a40.9,40.9,0,0,0-6.2.25,1.51,1.51,0,0,0-.55.19,1,1,0,0,0-.13.57,4.77,4.77,0,0,0,.31,1.41,15.46,15.46,0,0,0,1.35,2.66l0,.06v.06c.19,3.3.32,6.55.33,9.74a44.36,44.36,0,0,1-.18,4.76,9.37,9.37,0,0,1-1.72,4.38,27,27,0,0,1-2.94,3.5c-1,1.08-2.08,2.14-3.17,3.14a33.48,33.48,0,0,0-3.05,3,16.58,16.58,0,0,0-2.27,3.47,27.78,27.78,0,0,0-2.33,7.64,17.79,17.79,0,0,0,0,3.79c.08,1.25.25,2.48.43,3.68.76,4.79,1.87,9.16,2.9,13.12,2.12,7.9,4.12,14.12,5.5,18.39.7,2.11,1.24,3.75,1.61,4.88l.42,1.26c.09.29.12.44.12.44l-.17-.42-.46-1.25c-.39-1.1-1-2.73-1.69-4.86-1.42-4.25-3.48-10.46-5.64-18.36a130,130,0,0,1-3-13.14c-.18-1.21-.36-2.44-.45-3.71a18.67,18.67,0,0,1,0-3.88A28.4,28.4,0,0,1,365,350a17.11,17.11,0,0,1,2.33-3.57,34.33,34.33,0,0,1,3.08-3.07c1.07-1,2.1-2.05,3.14-3.12a26.47,26.47,0,0,0,2.88-3.45,8.91,8.91,0,0,0,1.64-4.17,45.52,45.52,0,0,0,.17-4.7c0-3.18-.16-6.42-.35-9.71l0,.12a15.5,15.5,0,0,1-1.39-2.76,4.74,4.74,0,0,1-.35-1.57,1.44,1.44,0,0,1,.23-.89,1.55,1.55,0,0,1,.86-.38,40.33,40.33,0,0,1,6.31-.26c4.23.06,8.54.28,12.9.56l.26,0v.24a9,9,0,0,1-1,3.46,12.07,12.07,0,0,1-.63,1.07l.05-.13c-.14,4.57-.27,9.11-.08,13.53,0,.55.07,1.11.15,1.63a3,3,0,0,0,.16.73,7.66,7.66,0,0,0,.45.65c.65.87,1.35,1.72,2,2.58,1.36,1.7,2.72,3.39,4,5.1a68.18,68.18,0,0,1,6.93,10.52c.2.47.44.93.62,1.42a12.11,12.11,0,0,1,.46,1.48,14.36,14.36,0,0,1,.18,3.05c-.05,2-.23,4-.45,5.89-.89,7.69-2.2,14.84-3.41,21.39s-2.44,12.51-3.57,17.76l0,.14h-.14l-21-.09-5.57,0-1.43,0Z" style="fill:#263238"></path><path d="M399.56,399.64a206.3,206.3,0,0,0,6.47-36.9c.11-1.42.11-3.07-1-4-1.32-1.15-3.33-.53-5,0a30.13,30.13,0,0,1-15.14.8c-4.89-1-9.75-3.25-14.67-2.43a4.72,4.72,0,0,0-3.24,1.71c-.8,1.19-.61,2.76-.38,4.17,1.93,12.13,5.89,26.08,9.11,36.66Z" style="fill:#FF7010"></path><path d="M403.23,360.22a6.2,6.2,0,0,1-.93,1,23.52,23.52,0,0,1-2.92,2.35,26.07,26.07,0,0,1-23.74,3,22.59,22.59,0,0,1-3.41-1.56,6.23,6.23,0,0,1-1.16-.75c.05-.1,1.72.94,4.7,1.94a27.07,27.07,0,0,0,23.39-2.94C401.8,361.56,403.16,360.14,403.23,360.22Z" style="fill:#263238"></path></g><g id="freepik--Tomato--inject-41"><path d="M425.94,449.69a2.91,2.91,0,0,1-.55.12l-1.61.27-1.17.18c-.43.06-.89.09-1.39.14-1,.09-2.15.23-3.42.25l-2,.07c-.7,0-1.42,0-2.16,0-1.49,0-3.08-.15-4.75-.28a69.08,69.08,0,0,1-10.73-2A70.34,70.34,0,0,1,388,444.67c-1.51-.74-2.95-1.42-4.23-2.19-.65-.37-1.29-.7-1.87-1.07l-1.68-1.07c-1.08-.66-2-1.37-2.81-2-.4-.3-.79-.56-1.13-.83l-.91-.75-1.24-1.05a2.34,2.34,0,0,1-.42-.39,2.81,2.81,0,0,1,.47.33l1.29,1,.93.73,1.15.8c.82.56,1.74,1.25,2.83,1.89l1.68,1.05c.58.36,1.23.68,1.87,1.05,1.28.74,2.73,1.41,4.23,2.14A66.21,66.21,0,0,0,408.94,450c1.67.13,3.24.3,4.73.31.74,0,1.46.06,2.14,0l2,0c1.27,0,2.4-.12,3.41-.19l1.39-.1,1.17-.15,1.61-.19A3.46,3.46,0,0,1,425.94,449.69Z" style="fill:#455a64"></path><path d="M392.5,446.59c-5.9-.79-13.59,1.5-18,5.49a58.3,58.3,0,0,0,18-5.49" style="fill:#455a64"></path><path d="M392.8,446.66c2.15-5.54-1-13.35-1-13.35-.62-1.05-.34,7.2,1,13.35" style="fill:#455a64"></path><path d="M383.5,442.26c1.57-4.06-.72-9.78-.72-9.78-.44-.77-.26,5.28.72,9.78" style="fill:#455a64"></path><path d="M401.12,448.6c1.57-4.07-.71-9.79-.71-9.79-.45-.77-.27,5.28.71,9.79" style="fill:#455a64"></path><path d="M383.67,442.35a18.26,18.26,0,0,0-13.39,4.09,43.4,43.4,0,0,0,13.39-4.09" style="fill:#455a64"></path><path d="M402,449.26c-6.23.08-13.86,3.61-17.82,8.42A61.08,61.08,0,0,0,402,449.26" style="fill:#455a64"></path><path d="M421.4,416.45a12.7,12.7,0,0,0-22.26,2.08,14.6,14.6,0,0,0,.18,11.2,20,20,0,0,0,7.33,8.66c8.31,5.66,20.35,5.4,28.07-1a15.45,15.45,0,0,0,5.69-9.34,11.63,11.63,0,0,0-17.21-11.79" style="fill:#FF7010"></path><path d="M421.43,416.43a4.44,4.44,0,0,0-4.7-3.24l2.78,3.31a4.33,4.33,0,0,0-3.42,2.68c-.13.34-.17.82.16,1a.81.81,0,0,0,.69-.08l3.38-1.4a11.72,11.72,0,0,0,2,5.25,13.78,13.78,0,0,0,1.27-5.28l3.73,1.66a5.61,5.61,0,0,0-1.75-2.77,9.21,9.21,0,0,0,3.12-1.21c.29-.18.6-.49.47-.8s-.4-.31-.66-.33a12.3,12.3,0,0,0-7.11,1.47" style="fill:#455a64"></path><path d="M421.18,417.83a24.29,24.29,0,0,0-.93-11.26c.89-.2,2-.34,2.56.37a2.43,2.43,0,0,1,.38,1.5,26.44,26.44,0,0,1-2,10.39" style="fill:#455a64"></path><path d="M403.07,431.35a2.84,2.84,0,0,1-.59-.59,10.82,10.82,0,0,1-1.25-1.87,11.51,11.51,0,0,1,2.28-13.76,10.31,10.31,0,0,1,1.79-1.38,2.45,2.45,0,0,1,.74-.36,23.26,23.26,0,0,0-2.33,1.94,11.72,11.72,0,0,0-2.22,13.43A21.8,21.8,0,0,0,403.07,431.35Z" style="fill:#fff"></path><path d="M406.81,434.18c0,.1-.63,0-1.22-.45s-.91-.94-.82-1,.51.29,1.06.68S406.85,434.07,406.81,434.18Z" style="fill:#fff"></path></g><g id="freepik--Character--inject-41"><path d="M229.81,156.77a20.55,20.55,0,0,0,19.64-12.54,40.52,40.52,0,0,1,2.27-5.68,33.9,33.9,0,0,1,2.29-3.1,25.84,25.84,0,0,0,5.23-15.57c0-5-1.46-9.83-2.89-14.59-1.51-5-3-10.05-5.64-14.57s-6.34-8.57-10-12.46c-2.76-2.94-5.73-6-9.62-7.05-1.41-.38-2.89-.47-4.32-.8a32.36,32.36,0,0,1-4.56-1.58,71.65,71.65,0,0,0-20.1-4.62c-3.77-.31-7.74-.28-11.11,1.44A14.17,14.17,0,0,1,188.13,67a11.17,11.17,0,0,1-3.65,0,23,23,0,0,0-22.83,15,8.75,8.75,0,0,1-1.3,2.86,11.73,11.73,0,0,1-2.08,1.69c-3.59,2.71-5.09,7.39-5.53,11.86a36.49,36.49,0,0,0,15.71,33.25s10.1,13.24,21.76,18.3,38.31,7,38.31,7" style="fill:#FF7010"></path><path d="M232.56,123.8a32.16,32.16,0,0,0-32-29.64H198.9c-18,1-27.13,16.82-25.63,34.75l3.1,71.85h0l41.06,16.1-.14-32.1s17.27-2.65,17.52-19.91C234.93,156.52,233.78,139.33,232.56,123.8Z" style="fill:#ffbe9d"></path><path d="M217.43,184.73a41.78,41.78,0,0,1-22.6-6.66s5.3,12.43,22.52,10.91Z" style="fill:#eb996e"></path><path d="M229.23,134.15a2.46,2.46,0,0,1-2.38,2.48,2.36,2.36,0,0,1-2.53-2.23,2.46,2.46,0,0,1,2.38-2.48A2.36,2.36,0,0,1,229.23,134.15Z" style="fill:#263238"></path><path d="M229.17,130.21c-.31.32-2.17-1.06-4.83-1.06s-4.6,1.32-4.88,1c-.14-.15.17-.73,1-1.34a6.77,6.77,0,0,1,3.91-1.2,6.46,6.46,0,0,1,3.84,1.25C229,129.49,229.32,130.07,229.17,130.21Z" style="fill:#263238"></path><path d="M203.2,135.06a2.47,2.47,0,0,1-2.39,2.48,2.36,2.36,0,0,1-2.53-2.23,2.46,2.46,0,0,1,2.38-2.48A2.37,2.37,0,0,1,203.2,135.06Z" style="fill:#263238"></path><path d="M202.76,131.54c-.31.32-2.17-1.07-4.82-1.07s-4.6,1.33-4.89,1c-.14-.14.17-.72,1-1.34a6.8,6.8,0,0,1,3.91-1.19,6.52,6.52,0,0,1,3.84,1.24C202.63,130.81,202.91,131.39,202.76,131.54Z" style="fill:#263238"></path><path d="M212.34,152.36c0-.15,1.64-.43,4.31-.77.68-.07,1.32-.2,1.44-.66a3.44,3.44,0,0,0-.45-2c-.63-1.64-1.3-3.36-2-5.16-2.77-7.35-4.77-13.39-4.47-13.5s2.78,5.76,5.54,13.11c.67,1.81,1.3,3.54,1.91,5.19a4,4,0,0,1,.35,2.66,1.76,1.76,0,0,1-1.12,1,4.6,4.6,0,0,1-1.15.15C214,152.5,212.35,152.51,212.34,152.36Z" style="fill:#263238"></path><path d="M204.54,154.18c.43,0,.43,2.85,2.89,4.9s5.52,1.74,5.54,2.14c0,.18-.68.56-2,.59a7.19,7.19,0,0,1-4.63-1.62,6.28,6.28,0,0,1-2.24-4.11C204,154.87,204.34,154.16,204.54,154.18Z" style="fill:#263238"></path><path d="M203.47,122.28c-.27.72-2.92.37-6,.74s-5.63,1.21-6,.57c-.18-.31.26-1,1.27-1.69a10.59,10.59,0,0,1,9.19-1C203,121.37,203.58,121.94,203.47,122.28Z" style="fill:#263238"></path><path d="M227.87,122.63c-.47.6-2.29,0-4.49-.06s-4.06.39-4.49-.24c-.18-.31.11-.91.93-1.48a6.49,6.49,0,0,1,7.23.24C227.82,121.71,228.08,122.33,227.87,122.63Z" style="fill:#263238"></path><path d="M183.59,106.61l49.21,1.09a22.55,22.55,0,0,0-7.23-8.36,38.46,38.46,0,0,0-22.28-8c-8-.14-23.27,8.64-29.08,14.18-4.65,4.43-1.6,7-1.6,7-.74,6.38-1.29,15.9.13,22.16.74,3.23,1.73,13,1.73,13,2.71,0,4.14-2.16,3.73-4.84l-.51-10.52s9.22-6.55,4.85-18.55C181.84,112.78,180.34,108.4,183.59,106.61Z" style="fill:#263238"></path><path d="M193.92,143.93a.32.32,0,0,1-.12-.63.32.32,0,0,1,.35.26A.31.31,0,0,1,193.92,143.93Z" style="fill:#eb996e"></path><path d="M199,142.79a.33.33,0,0,1-.35-.3.33.33,0,0,1,.21-.42.34.34,0,0,1,.36.3A.34.34,0,0,1,199,142.79Z" style="fill:#eb996e"></path><path d="M202.41,142.71c-.16,0-.32-.17-.35-.43s.07-.5.23-.52.31.18.35.44S202.57,142.69,202.41,142.71Z" style="fill:#eb996e"></path><path d="M196.41,147.12c-.16,0-.29-.09-.29-.19s.13-.19.29-.19.29.09.29.19S196.57,147.12,196.41,147.12Z" style="fill:#eb996e"></path><path d="M201.06,146.05a.32.32,0,0,1-.32-.31.29.29,0,1,1,.58-.05A.32.32,0,0,1,201.06,146.05Z" style="fill:#eb996e"></path><path d="M225.25,143.21a.31.31,0,0,1-.35-.27.3.3,0,0,1,.22-.38.31.31,0,0,1,.35.27A.3.3,0,0,1,225.25,143.21Z" style="fill:#eb996e"></path><path d="M228.7,142.9c-.16,0-.3-.14-.32-.34a.33.33,0,0,1,.25-.39c.16,0,.31.13.33.34A.33.33,0,0,1,228.7,142.9Z" style="fill:#eb996e"></path><path d="M222.2,143.29a.28.28,0,0,1-.34-.2.27.27,0,0,1,.24-.3.27.27,0,0,1,.34.19A.28.28,0,0,1,222.2,143.29Z" style="fill:#eb996e"></path><path d="M224.75,146.75a.32.32,0,0,1-.4-.19.31.31,0,0,1,.13-.43.31.31,0,0,1,.4.19A.32.32,0,0,1,224.75,146.75Z" style="fill:#eb996e"></path><path d="M227.7,146.16a.26.26,0,0,1-.21-.31.27.27,0,0,1,.34-.16.25.25,0,1,1-.13.47Z" style="fill:#eb996e"></path><path d="M175.86,141.69c-.3-.13-11.85-3.53-11.5,8.27s12.13,9,12.14,8.67S175.86,141.69,175.86,141.69Z" style="fill:#ffbe9d"></path><path d="M173.8,154.27c-.06,0-.21.15-.55.32a2,2,0,0,1-1.53.07c-1.26-.42-2.37-2.36-2.49-4.49a6.76,6.76,0,0,1,.48-3,2.4,2.4,0,0,1,1.5-1.62,1,1,0,0,1,1.23.52c.17.33.1.57.17.58s.24-.2.13-.69a1.29,1.29,0,0,0-.48-.72,1.57,1.57,0,0,0-1.15-.27,2.88,2.88,0,0,0-2.09,1.9,7,7,0,0,0-.62,3.31c.15,2.37,1.43,4.56,3.16,5a2.21,2.21,0,0,0,1.87-.37C173.78,154.55,173.84,154.29,173.8,154.27Z" style="fill:#eb996e"></path><path d="M233.09,131l-.47-31.12s-5.44-14.65-28.2-15-34.12,19.73-34.12,19.73l.22,13.55a29.3,29.3,0,0,0,.35,4.08c-.25,3.27.93,8.71,2.24,14.34,0,0,3.45-24.57,35.43-27C235.15,107.65,233.09,131,233.09,131Z" style="fill:#FF7010"></path><path d="M202.69,73.29a17.74,17.74,0,0,0-.2,5.44,18.07,18.07,0,0,0,1.93,5.08s-.51-.39-1.06-1.26A10.54,10.54,0,0,1,202,78.81a10.42,10.42,0,0,1,.12-4A3.6,3.6,0,0,1,202.69,73.29Z" style="fill:#263238"></path><path d="M198.5,73.75a13.91,13.91,0,0,1-.12,1.59,8.75,8.75,0,0,0,2.76,6.72c.7.66,1.23,1,1.19,1s-.62-.14-1.43-.76a7.66,7.66,0,0,1-2.35-3.14,7.85,7.85,0,0,1-.54-3.9A3.19,3.19,0,0,1,198.5,73.75Z" style="fill:#263238"></path><path d="M161.8,88.94a14.76,14.76,0,0,0,.61,2.36A11,11,0,0,0,166,95.8c.9.71,1.83,1.32,2.67,1.86a17.32,17.32,0,0,0,2.37,1.18,12.29,12.29,0,0,0,1.68.6,5.12,5.12,0,0,1,.64.17,4.3,4.3,0,0,1-2.46-.43,15.35,15.35,0,0,1-2.48-1.11,26.09,26.09,0,0,1-2.74-1.86,12.85,12.85,0,0,1-2.36-2.36,8.78,8.78,0,0,1-1.28-2.42,5.89,5.89,0,0,1-.33-1.81A1.45,1.45,0,0,1,161.8,88.94Z" style="fill:#263238"></path><path d="M158.14,97.85c.07,0,.56.77,1.64,1.8a10.3,10.3,0,0,0,5,2.75,5.12,5.12,0,0,0,1.61,0l1.55-.2a13.76,13.76,0,0,0,2.57-.53,7.66,7.66,0,0,0,1.59-.76c.36-.21.57-.33.59-.3s-.14.2-.48.47a6.11,6.11,0,0,1-1.57.94,12.15,12.15,0,0,1-2.63.66l-1.56.23a5.78,5.78,0,0,1-1.76,0,9.84,9.84,0,0,1-5.18-3A5.52,5.52,0,0,1,158.14,97.85Z" style="fill:#263238"></path><path d="M161.8,106.48a20.29,20.29,0,0,0,4.11.27,19.59,19.59,0,0,0,3.94-1.2,7.13,7.13,0,0,1-8,.93Z" style="fill:#263238"></path><path d="M235.86,118.14c.08,0,.32,1.24.91,3.21a23.15,23.15,0,0,0,3.46,7.16,14.85,14.85,0,0,0,6.16,4.86,22.69,22.69,0,0,0,3.18.9,2.37,2.37,0,0,1-.91,0,10.07,10.07,0,0,1-2.41-.56,14.14,14.14,0,0,1-6.44-4.89,21.09,21.09,0,0,1-3.39-7.37,21.81,21.81,0,0,1-.49-2.41A3.21,3.21,0,0,1,235.86,118.14Z" style="fill:#263238"></path><path d="M233.7,126.25a10.64,10.64,0,0,1,1.44,2.77c.78,1.75,1.49,4.36,3.1,6.74a10.52,10.52,0,0,0,5.9,4.1c1.83.5,3,.45,3,.55a2.19,2.19,0,0,1-.84.07,10.16,10.16,0,0,1-2.29-.27,11,11,0,0,1-3.18-1.27,10,10,0,0,1-3.06-2.88,17.65,17.65,0,0,1-1.88-3.73c-.45-1.2-.81-2.28-1.13-3.18C234.16,127.34,233.63,126.29,233.7,126.25Z" style="fill:#263238"></path><path d="M224.56,91.53a15.72,15.72,0,0,0,2.82.27,10,10,0,0,0,6.15-2.6,15.54,15.54,0,0,0,3.85-5.59c.69-1.63.93-2.71,1-2.69a8.27,8.27,0,0,1-.66,2.82,14.58,14.58,0,0,1-3.86,5.85,9.73,9.73,0,0,1-6.48,2.58,7.45,7.45,0,0,1-2.12-.32A1.9,1.9,0,0,1,224.56,91.53Z" style="fill:#263238"></path><path d="M170.55,103.42a4.25,4.25,0,0,1,0,1.07c0,.8-.06,1.76-.09,2.9-.07,2.44-.09,5.83.13,9.55a86.33,86.33,0,0,0,1.09,9.48c.42,2.41.76,3.89.68,3.91a3.8,3.8,0,0,1-.35-1c-.19-.66-.43-1.62-.69-2.83A65.74,65.74,0,0,1,170.1,117a79.52,79.52,0,0,1,0-9.6c.08-1.22.17-2.21.25-2.9A4.47,4.47,0,0,1,170.55,103.42Z" style="fill:#263238"></path><path d="M232.8,125.91a1.48,1.48,0,0,1,0-.45c0-.33,0-.75,0-1.29,0-1.18,0-2.82-.07-4.9,0-4.26,0-10.28-.09-17.46v.07c-1.13-3.18-3.72-6-6.71-8.43a36.5,36.5,0,0,0-10.6-6,35.5,35.5,0,0,0-18.07-1.73,37,37,0,0,0-13.85,5.48,37.94,37.94,0,0,0-7.62,6.63c-.78.91-1.37,1.63-1.74,2.14l-.45.57a1.23,1.23,0,0,1-.16.18.66.66,0,0,1,.12-.21l.4-.6c.35-.53.91-1.27,1.67-2.21a36.6,36.6,0,0,1,21.55-12.45,36.48,36.48,0,0,1,29.07,7.84c3,2.49,5.66,5.36,6.82,8.67v.08c0,7.18-.07,13.2-.09,17.46,0,2.08-.05,3.72-.06,4.9,0,.54,0,1,0,1.29A2.71,2.71,0,0,1,232.8,125.91Z" style="fill:#263238"></path><path d="M244.32,88.51s0,.26-.18.69a10.14,10.14,0,0,1-.86,1.76,12.54,12.54,0,0,1-10.88,6,9.81,9.81,0,0,1-2-.2,1.87,1.87,0,0,1-.69-.21c0-.09,1,.11,2.63,0a13.55,13.55,0,0,0,6-1.65A13.74,13.74,0,0,0,243,90.76C243.88,89.43,244.24,88.47,244.32,88.51Z" style="fill:#263238"></path><path d="M250,114.28a2.94,2.94,0,0,1-.88.26,12.52,12.52,0,0,1-2.49.23,14.32,14.32,0,0,1-7.83-2.4,14.16,14.16,0,0,1-5.16-6.36,12.75,12.75,0,0,1-.73-2.39,2.43,2.43,0,0,1-.08-.91c.09,0,.28,1.27,1.14,3.16a15.09,15.09,0,0,0,5.12,6.07,14.89,14.89,0,0,0,7.55,2.46C248.68,114.49,250,114.18,250,114.28Z" style="fill:#263238"></path><path d="M247.9,101.14a6,6,0,0,1-1.87,1.58,12.49,12.49,0,0,1-5.61,1.78,11.38,11.38,0,0,1-5.79-1.08c-1.38-.71-1.89-1.58-1.83-1.6a10.11,10.11,0,0,0,2,1.27,12.46,12.46,0,0,0,5.6.89,13.82,13.82,0,0,0,5.46-1.58C247.14,101.69,247.84,101.08,247.9,101.14Z" style="fill:#263238"></path><g style="opacity:0.30000000000000004"><path d="M233.11,103.24a7.18,7.18,0,0,0,7.47,3.46,11,11,0,0,0,7.06-4.85,25.08,25.08,0,0,1-7.79,2.22,10.37,10.37,0,0,1-7.6-2.22"></path></g><g style="opacity:0.30000000000000004"><path d="M233,103.17a14.29,14.29,0,0,0,14.22,10.72,7.8,7.8,0,0,1-4.75,2.14,13,13,0,0,1-5.23-.67c-.17,8.17-.22,17.56-3.49,25-.42-6.14-1.25-13-1.15-19.1l.33-18.62"></path></g><g style="opacity:0.30000000000000004"><path d="M237.61,81a11.66,11.66,0,0,1-4.79,8.63,10.52,10.52,0,0,1-9.18,1.72l5.24,4.5a11.06,11.06,0,0,0,8.77-5.18A10,10,0,0,0,237.61,81Z"></path></g><g style="opacity:0.30000000000000004"><path d="M172,101.22a11.91,11.91,0,0,1-13.9-1.78,8.24,8.24,0,0,0,4.43,5.08,11.93,11.93,0,0,0,7.34,1c-2.12,2-6.08,2.15-8.76.93a7,7,0,0,0,7.56,3.59A18.47,18.47,0,0,0,171,124.34c-.71-7.73-1.88-20.92,1-23.12"></path></g><path d="M131.06,220.4l14.65,79.81,2.52,103.15,128.41-.44-20.58-192a4.59,4.59,0,0,0-6.16-3.9,16.59,16.59,0,0,0-2.61,1.24l-21.64-3.63-6.75-10.51-43.55-2.5-6.94,12.61S136.91,216.47,131.06,220.4Z" style="fill:#FF7010"></path><path d="M255.68,209.54s54.32-2.9,55.2-3.76,16.15-26.62,17.68-28.36,3.49-2.62,4.59-2.41,21.39,7.65,23.57,12,2.84,7.26.88,11.6-23.14,46.91-26.2,48.88S262,266,262,266L260,272l-10-49.78Z" style="fill:#FF7010"></path><path d="M135.67,218.56c-1.33.83-7.07,2.5-13.66,9.46s-54.25,58.27-56.45,69.64S98.92,382,98.92,382L140.7,361.8s-16.86-28.59-19.43-29-3.66-3.3-3.66-3.3,1.83-5.13.73-7.69-4.4-8.8-4.4-8.8,2.31-4.93.37-7.33l31.11-26.93s7-30.25,3-43.81S135.67,218.56,135.67,218.56Z" style="fill:#FF7010"></path><path d="M189.64,403.36s0-.21-.07-.62-.08-1-.15-1.83c-.13-1.63-.31-4-.54-7-.44-6.13-1.07-15-1.86-25.89-1.53-21.87-3.58-52.08-5.63-85.46-1-16.7-1.95-32.61-2.66-47.09-.35-7.23-.66-14.11-.85-20.56-.09-3.22-.17-6.33-.1-9.33a13.48,13.48,0,0,1,.21-2.26l.07-.17c0-.08.14-.17.17-.16l.26-.11.53-.22c.35-.13.69-.22,1-.33,1.38-.41,2.74-.75,4.08-1.08,10.67-2.54,19.37-4.22,25.38-5.42,3-.59,5.35-1,6.94-1.31l1.81-.3c.41-.05.63-.06.63-.06s-3.33.63-9.34,1.87-14.69,3-25.34,5.58c-1.32.33-2.68.68-4.05,1.09-.34.11-.69.2-1,.32l-.48.2-.24.1,0,0s-.1-.14,0,0,0,0,0,0l0,.09a12.34,12.34,0,0,0-.18,2.16c-.07,3,0,6.09.12,9.31.21,6.44.53,13.31.9,20.55.74,14.47,1.68,30.38,2.7,47.07,2.05,33.38,4.05,63.6,5.48,85.47.71,10.92,1.29,19.77,1.69,25.9.19,3,.34,5.42.44,7,0,.79.08,1.4.11,1.83S189.64,403.36,189.64,403.36Z" style="fill:#263238"></path><path d="M145.42,278.79a4.31,4.31,0,0,1-.49.49l-1.45,1.32-5.42,4.8-18,15.68-5.59,4.83-.21.18-.17-.22a21.67,21.67,0,0,0-7.83-6.65,21.9,21.9,0,0,0-7.91-2.29,25.85,25.85,0,0,0-7.44.47,2.55,2.55,0,0,1,.49-.16,14.08,14.08,0,0,1,1.45-.34,21,21,0,0,1,5.53-.3,22.15,22.15,0,0,1,16.13,9l-.38,0,5.58-4.84,18.1-15.57,5.52-4.67,1.52-1.25A3.2,3.2,0,0,1,145.42,278.79Z" style="fill:#263238"></path><path d="M113.94,313.05a13.19,13.19,0,0,1-2.31-.41,54.68,54.68,0,0,0-5.6-.75c-4.4-.31-8-.29-8-.47a10.43,10.43,0,0,1,2.35-.18c1.46,0,3.47,0,5.7.13a34.11,34.11,0,0,1,5.63.91A8.45,8.45,0,0,1,113.94,313.05Z" style="fill:#263238"></path><path d="M258.46,218.85a1.69,1.69,0,0,1,.06.51c0,.39,0,.87.05,1.45,0,1.35.08,3.16.14,5.37.12,4.52.35,10.78.77,17.67s1,13.13,1.39,17.64c.21,2.2.38,4,.51,5.34.05.59.09,1.07.13,1.46a1.67,1.67,0,0,1,0,.51,3,3,0,0,1-.11-.5c-.06-.39-.13-.87-.22-1.44-.18-1.26-.42-3.08-.68-5.33-.52-4.5-1.12-10.74-1.54-17.65s-.59-13.16-.62-17.7c0-2.26,0-4.1,0-5.37,0-.58,0-1.06,0-1.45A2.85,2.85,0,0,1,258.46,218.85Z" style="fill:#263238"></path><path d="M253.16,221.73a5.33,5.33,0,0,1-.32-1.82,17.63,17.63,0,0,1,.26-4.46,18.26,18.26,0,0,1,1.34-4.25,5.3,5.3,0,0,1,.95-1.59,46.1,46.1,0,0,0-1.78,5.94A45.43,45.43,0,0,0,253.16,221.73Z" style="fill:#263238"></path><path d="M191.29,211.15a3,3,0,1,1-3-3A3,3,0,0,1,191.29,211.15Z" style="fill:#263238"></path><path d="M191.29,247a3,3,0,1,1-3-3A3,3,0,0,1,191.29,247Z" style="fill:#263238"></path><circle cx="191.29" cy="286.75" r="3.01" style="fill:#263238"></circle><path d="M195.51,334a3,3,0,1,1-3-3A3,3,0,0,1,195.51,334Z" style="fill:#263238"></path><path d="M197.18,372.87a3,3,0,1,1-3-3A3,3,0,0,1,197.18,372.87Z" style="fill:#263238"></path><path d="M208.65,328.65a19.12,19.12,0,0,1-2.19.06,15.76,15.76,0,0,0-9.53,3.82c-1,.88-1.56,1.53-1.63,1.48a6,6,0,0,1,1.38-1.75,13.91,13.91,0,0,1,9.78-3.92A6,6,0,0,1,208.65,328.65Z" style="fill:#263238"></path><path d="M204.07,334.93c-.07.14-1.75-.63-4-.88s-4.05.09-4.08-.07a9.39,9.39,0,0,1,8.06.95Z" style="fill:#263238"></path><path d="M321.86,232.59a5.18,5.18,0,0,1-.86-.79c-.54-.53-1.28-1.34-2.14-2.38a36.94,36.94,0,0,1-5.45-9,35,35,0,0,1-2.49-10.24,28.48,28.48,0,0,1-.12-3.2,5,5,0,0,1,.08-1.17c.09,0,.09,1.67.41,4.33a38.5,38.5,0,0,0,2.6,10.08,41.11,41.11,0,0,0,5.26,9C320.78,231.32,321.93,232.53,321.86,232.59Z" style="fill:#263238"></path><path d="M337.3,237.31a36.41,36.41,0,0,0-4.07-.13A17.44,17.44,0,0,0,318,247.79a36.69,36.69,0,0,0-1.27,3.87,3.33,3.33,0,0,1,.1-1.11,15.52,15.52,0,0,1,.83-2.9,17,17,0,0,1,15.52-10.84,15.55,15.55,0,0,1,3,.22A3.79,3.79,0,0,1,337.3,237.31Z" style="fill:#FF7010"></path><path d="M263.29,304.08l-.33.28c-.22.18-.55.46-1,.79a23.13,23.13,0,0,1-4.26,2.41,25.28,25.28,0,0,1-17.69.73,25.76,25.76,0,0,1-10.41-6.72,27.89,27.89,0,0,1-6.87-12.43,29.52,29.52,0,0,1,.47-15.68,31.27,31.27,0,0,1,3.45-7.63,26.64,26.64,0,0,1,5.61-6.54,19,19,0,0,1,7.66-4,13.56,13.56,0,0,1,4.25-.32,8.72,8.72,0,0,1,4,1.3,4.86,4.86,0,0,1,2.33,3.43,4.72,4.72,0,0,1-1.43,3.8,6.11,6.11,0,0,1-3.56,1.79,7.36,7.36,0,0,1-3.84-.68,13.29,13.29,0,0,1-5.41-5,18.41,18.41,0,0,1-2.56-6.47,19,19,0,0,1,1.68-12.2,17.87,17.87,0,0,1,7.16-7.26,19.08,19.08,0,0,1,7.38-2.31,17.59,17.59,0,0,1,4.89.17,14.85,14.85,0,0,1,1.65.41,2,2,0,0,1-.43-.07c-.28,0-.69-.16-1.24-.23a17.63,17.63,0,0,0-4.85-.08,19.3,19.3,0,0,0-7.26,2.36,17.73,17.73,0,0,0-7,7.17,18.71,18.71,0,0,0-1.59,12,18.11,18.11,0,0,0,2.53,6.3,12.71,12.71,0,0,0,5.22,4.81,6.89,6.89,0,0,0,3.58.64,5.69,5.69,0,0,0,3.26-1.66,4.19,4.19,0,0,0,1.29-3.39,4.38,4.38,0,0,0-2.1-3.06,10.52,10.52,0,0,0-7.87-.91,18.42,18.42,0,0,0-7.44,3.85,26.3,26.3,0,0,0-5.51,6.42,31,31,0,0,0-3.4,7.5,29.14,29.14,0,0,0-.5,15.41,27.44,27.44,0,0,0,6.73,12.25,25.43,25.43,0,0,0,10.21,6.67,25.22,25.22,0,0,0,17.49-.57,25.44,25.44,0,0,0,4.28-2.3l1-.75A2.48,2.48,0,0,1,263.29,304.08Z" style="fill:#fff"></path><path d="M281,260.84l-.22-.16-.61-.49a15.46,15.46,0,0,1-2-2.22,16.51,16.51,0,0,1-2.29-4.17,16.88,16.88,0,0,1-1.09-6.2,16.21,16.21,0,0,1,2-7.37,17,17,0,0,1,6-6.35,14.77,14.77,0,0,1,4.41-1.85,7.36,7.36,0,0,1,5,.44,4.71,4.71,0,0,1,1.91,1.82,5.2,5.2,0,0,1,.66,2.59,7.07,7.07,0,0,1-2,4.92,7.64,7.64,0,0,1-4.91,2.06,12.38,12.38,0,0,1-5.11-.83,18.74,18.74,0,0,1-7.77-5.74,20.36,20.36,0,0,1-3.91-7.84,18.52,18.52,0,0,1-.27-7.62,20,20,0,0,1,4.71-9.89,18.78,18.78,0,0,1,2.17-2.07l.63-.47a1,1,0,0,1,.22-.14s-.06.07-.19.19l-.59.5a20.45,20.45,0,0,0-2.08,2.13,20,20,0,0,0-4.51,9.8,18.37,18.37,0,0,0,.33,7.47,19.84,19.84,0,0,0,3.86,7.63,18.42,18.42,0,0,0,7.58,5.58,11.94,11.94,0,0,0,4.89.78,7.16,7.16,0,0,0,4.58-1.91,6.56,6.56,0,0,0,1.87-4.55,4.7,4.7,0,0,0-.59-2.34,4.27,4.27,0,0,0-1.7-1.62,7,7,0,0,0-4.63-.41,14.38,14.38,0,0,0-4.27,1.77,16.69,16.69,0,0,0-5.88,6.16,16,16,0,0,0-2,7.17,17,17,0,0,0,3.18,10.24,16.64,16.64,0,0,0,1.94,2.26l.56.53A1.09,1.09,0,0,1,281,260.84Z" style="fill:#fff"></path><path d="M348.72,218.15a1.19,1.19,0,0,1-.45,0c-.3,0-.74,0-1.3,0a34,34,0,0,1-24.72-14,16.56,16.56,0,0,1-2.89-6.49,11.73,11.73,0,0,1,.07-4.78,8.91,8.91,0,0,1,.35-1.26,2.42,2.42,0,0,1,.17-.42c.06,0-.14.61-.32,1.72a12.34,12.34,0,0,0,.09,4.67,16.71,16.71,0,0,0,2.92,6.28,34.79,34.79,0,0,0,5.88,6.23,35.74,35.74,0,0,0,13.81,7,40.42,40.42,0,0,0,4.66.87A13,13,0,0,1,348.72,218.15Z" style="fill:#fff"></path><path d="M179.18,229.59a14.38,14.38,0,0,0,3.45,1.66,17.09,17.09,0,0,0,10.27-.34,39.43,39.43,0,0,0,6.61-2.91c2.26-1.26,4.86-2.45,6.81-4.59a7.3,7.3,0,0,0,1.87-3.87,4.54,4.54,0,0,0-1.39-4,5.18,5.18,0,0,0-4.28-1.33,4.43,4.43,0,0,0-3.38,3,4.81,4.81,0,0,0,.6,4.52,7.16,7.16,0,0,0,4,2.32,27.92,27.92,0,0,0,9.07.44,32.58,32.58,0,0,0,14.41-5.3,31.6,31.6,0,0,0,7.61-7.12c.37-.5.71-.93,1-1.32l.65-1,.41-.62a1.07,1.07,0,0,1,.15-.21s0,.09-.11.23-.21.39-.36.65l-.61,1c-.26.41-.59.85-.95,1.36a30.77,30.77,0,0,1-7.56,7.31,32.77,32.77,0,0,1-14.57,5.47,28.51,28.51,0,0,1-9.25-.42,7.67,7.67,0,0,1-4.28-2.5,5.29,5.29,0,0,1-.68-5,5,5,0,0,1,3.78-3.34,5.65,5.65,0,0,1,4.71,1.46,4.94,4.94,0,0,1,1.35,2.08,5.35,5.35,0,0,1,.19,2.41,7.87,7.87,0,0,1-2,4.13,14.85,14.85,0,0,1-3.41,2.69c-1.21.72-2.4,1.35-3.56,2a39.19,39.19,0,0,1-6.7,2.88,16.93,16.93,0,0,1-10.44.18,10.58,10.58,0,0,1-2.59-1.25c-.28-.17-.47-.33-.61-.43Z" style="fill:#fff"></path><path d="M180.41,265.65c0,.1-1.92-.6-5.1-1.23a41.27,41.27,0,0,0-5.62-.72,45.61,45.61,0,0,0-6.94.17,41.51,41.51,0,0,0-12.16,3.21c-3,1.3-4.67,2.39-4.72,2.3a7,7,0,0,1,1.17-.8,15.64,15.64,0,0,1,1.43-.84c.58-.3,1.22-.67,2-1a38,38,0,0,1,5.36-2,39.58,39.58,0,0,1,13.92-1.5,39.1,39.1,0,0,1,5.67.83c.8.16,1.51.38,2.13.56a12.33,12.33,0,0,1,1.58.51A7.21,7.21,0,0,1,180.41,265.65Z" style="fill:#fff"></path><path d="M184.55,335.43s-.09.05-.29.12l-.89.3a9.93,9.93,0,0,1-1.48.37,14.52,14.52,0,0,1-2,.3,20,20,0,0,1-5.69-.34,23.11,23.11,0,0,1-7-2.73,24.06,24.06,0,0,1-6.84-6.05,25.77,25.77,0,0,1-2.63-4.39,29.72,29.72,0,0,1-1.78-5.12,32.69,32.69,0,0,1-.61-11.57,35.64,35.64,0,0,1,1.26-6,23.73,23.73,0,0,1,2.51-5.83,10.23,10.23,0,0,1,4.7-4.27,6.94,6.94,0,0,1,6.11.53,10.35,10.35,0,0,1,4,4.44,9.26,9.26,0,0,1,.87,2.78,8.58,8.58,0,0,1,.16,1.43,11.06,11.06,0,0,1,0,1.41,14.66,14.66,0,0,1-4.48,9.39,14.46,14.46,0,0,1-8.16,4,17.14,17.14,0,0,1-7.49-.72,18.75,18.75,0,0,1-7.81-4.92l-.61-.71a1.67,1.67,0,0,1-.19-.25l.23.22.65.67a20.37,20.37,0,0,0,2.76,2.26,19.16,19.16,0,0,0,5.05,2.45,17.3,17.3,0,0,0,7.36.64,14.46,14.46,0,0,0,12.21-13.06,8.82,8.82,0,0,0,0-1.36,8,8,0,0,0-.15-1.37,8.8,8.8,0,0,0-.84-2.65,9.74,9.74,0,0,0-3.8-4.2,6.41,6.41,0,0,0-5.66-.5,9.74,9.74,0,0,0-4.45,4.06,23.41,23.41,0,0,0-2.46,5.71,35.56,35.56,0,0,0-1.24,5.93,32.46,32.46,0,0,0,.56,11.4,29.93,29.93,0,0,0,1.74,5,25.89,25.89,0,0,0,2.56,4.32,23.81,23.81,0,0,0,6.68,6,23.18,23.18,0,0,0,6.9,2.76,20.51,20.51,0,0,0,5.61.42,15.16,15.16,0,0,0,2-.25,12.26,12.26,0,0,0,1.48-.32l.9-.25Z" style="fill:#fff"></path><path d="M186,361a7.87,7.87,0,0,1-1.38-.54c-.43-.19-1-.42-1.6-.65s-1.33-.54-2.14-.78a43.51,43.51,0,0,0-5.75-1.53,44.69,44.69,0,0,0-14.47-.46,44.87,44.87,0,0,0-5.83,1.15c-.83.2-1.55.45-2.2.65s-1.19.38-1.63.55a8.92,8.92,0,0,1-1.41.45,7.9,7.9,0,0,1,1.33-.64c.44-.2,1-.42,1.62-.64s1.36-.5,2.19-.72a41.71,41.71,0,0,1,5.86-1.28,46.25,46.25,0,0,1,7.34-.4,45.78,45.78,0,0,1,7.3.87,40.88,40.88,0,0,1,5.77,1.65c.81.27,1.51.6,2.14.86a14.86,14.86,0,0,1,1.57.74A7.47,7.47,0,0,1,186,361Z" style="fill:#fff"></path><path d="M266.48,362.13s-.07.14-.21.39-.39.63-.67,1.1a17.49,17.49,0,0,1-1.2,1.72,26.53,26.53,0,0,1-1.82,2.19,31.29,31.29,0,0,1-15.57,9,29.54,29.54,0,0,1-12.53.36,31.28,31.28,0,0,1-6.67-2.22,33.26,33.26,0,0,1-6.29-4,32.07,32.07,0,0,1-9.4-12.78,29.85,29.85,0,0,1-1.93-8.24,19.73,19.73,0,0,1,1.2-8.63,11.36,11.36,0,0,1,5.9-6.31,11.17,11.17,0,0,1,8.4-.22,11.1,11.1,0,0,1,6.82,9.52,11,11,0,0,1-.52,3.89,14.88,14.88,0,0,1-4.14,6.19A22,22,0,0,1,222,358a29.76,29.76,0,0,1-12.27,2.58,32.25,32.25,0,0,1-10.22-1.67,31.89,31.89,0,0,1-7-3.41,24.26,24.26,0,0,1-2.3-1.69,19.77,19.77,0,0,1-1.58-1.37l-.91-.91-.3-.32a2.35,2.35,0,0,1,.34.28l.94.87a20.8,20.8,0,0,0,1.6,1.33,28.14,28.14,0,0,0,2.32,1.64,31.74,31.74,0,0,0,17.15,4.88,29.74,29.74,0,0,0,12.09-2.6,21.9,21.9,0,0,0,5.74-3.81,14.44,14.44,0,0,0,4-6,10.53,10.53,0,0,0,.49-3.71,10.57,10.57,0,0,0-6.51-9.07,10.64,10.64,0,0,0-8,.21,10.8,10.8,0,0,0-5.62,6,19.13,19.13,0,0,0-1.17,8.39,29.19,29.19,0,0,0,1.88,8.09,31.59,31.59,0,0,0,9.24,12.6,32.77,32.77,0,0,0,6.18,3.95,30.8,30.8,0,0,0,6.55,2.2,29.14,29.14,0,0,0,12.36-.28,31.59,31.59,0,0,0,15.51-8.81,24.26,24.26,0,0,0,1.85-2.15,17.28,17.28,0,0,0,1.23-1.68l.71-1.07A2.69,2.69,0,0,1,266.48,362.13Z" style="fill:#fff"></path><path d="M178.87,220a10.68,10.68,0,0,1-1.42.88,14.51,14.51,0,0,1-1.74.89,23.36,23.36,0,0,1-2.38,1l-1.43.51c-.49.17-1,.29-1.57.45a35,35,0,0,1-3.53.77,40,40,0,0,1-8.25.39,39.17,39.17,0,0,1-8.13-1.5,31.91,31.91,0,0,1-3.4-1.24c-.51-.22-1-.41-1.49-.65l-1.34-.7a22.33,22.33,0,0,1-2.23-1.32,13.27,13.27,0,0,1-1.61-1.12,9.81,9.81,0,0,1-1.28-1.05c.07-.11,1.9,1.43,5.29,3.16.43.22.87.44,1.34.66s1,.41,1.49.62a34.54,34.54,0,0,0,3.36,1.18,41.46,41.46,0,0,0,8,1.44,42.16,42.16,0,0,0,8.15-.34c1.24-.23,2.42-.41,3.49-.72.54-.15,1.07-.25,1.57-.42l1.41-.47C176.79,221.13,178.81,219.85,178.87,220Z" style="fill:#fff"></path><path d="M134.06,288.08a1.32,1.32,0,0,1,.07-.26c.07-.2.15-.44.26-.74a16.86,16.86,0,0,0,.63-2.93,16.21,16.21,0,0,0-.11-4.72,15.84,15.84,0,0,0-2.2-5.82,15,15,0,0,0-5.45-5.13,15.86,15.86,0,0,0-8.32-2,13.53,13.53,0,0,0-4.56.92,9.89,9.89,0,0,0-3.94,2.72,7.18,7.18,0,0,0-1.75,4.54,5.67,5.67,0,0,0,1.87,4.53,6.21,6.21,0,0,0,4.78,1.25,7.45,7.45,0,0,0,4.39-2.13c2.35-2.35,3.16-5.71,3.22-8.72a19.88,19.88,0,0,0-1.77-8.45,23.12,23.12,0,0,0-4.18-6.3,22.14,22.14,0,0,0-4.86-3.94,21.31,21.31,0,0,0-4.29-2,20.56,20.56,0,0,0-2.91-.73l-.77-.15a.76.76,0,0,1-.26-.07,1.1,1.1,0,0,1,.27,0l.78.09a18.5,18.5,0,0,1,3,.64,21.29,21.29,0,0,1,4.38,2,21.7,21.7,0,0,1,5,3.94,23,23,0,0,1,4.31,6.38,20.12,20.12,0,0,1,1.86,8.63,16.08,16.08,0,0,1-.76,4.75,10.72,10.72,0,0,1-2.58,4.33,8,8,0,0,1-4.69,2.27,6.68,6.68,0,0,1-5.18-1.36,6.19,6.19,0,0,1-2-4.94,7.69,7.69,0,0,1,1.88-4.86,10.29,10.29,0,0,1,4.15-2.85,13.77,13.77,0,0,1,4.72-.94,16.22,16.22,0,0,1,8.55,2.14,15.38,15.38,0,0,1,5.55,5.32,16,16,0,0,1,2.18,6,15.72,15.72,0,0,1,0,4.8A12.16,12.16,0,0,1,134.06,288.08Z" style="fill:#fff"></path><path d="M114.41,310.26s-.55-.46-1.53-1.27a25.87,25.87,0,0,0-4.49-3,26.2,26.2,0,0,0-7.5-2.6,24.74,24.74,0,0,0-18.6,3.81,26.65,26.65,0,0,0-8.84,9.83c-.58,1.13-.86,1.79-.9,1.77a1.48,1.48,0,0,1,.15-.49,13.9,13.9,0,0,1,.57-1.37,24,24,0,0,1,2.85-4.63,26.16,26.16,0,0,1,5.9-5.5A24.69,24.69,0,0,1,101,303a26,26,0,0,1,7.59,2.74,23.44,23.44,0,0,1,4.44,3.14,13.62,13.62,0,0,1,1.06,1C114.3,310.11,114.42,310.24,114.41,310.26Z" style="fill:#fff"></path><path d="M136,354.49a.9.9,0,0,1-.16.23l-.5.66a10.37,10.37,0,0,1-.87,1,17,17,0,0,1-1.28,1.31A25.81,25.81,0,0,1,115,364.67a23.33,23.33,0,0,1-9.08-2,26.06,26.06,0,0,1-14-15.47l-.4-1.36c-.12-.46-.21-.93-.31-1.39a13.81,13.81,0,0,1-.33-2.79,12.86,12.86,0,0,1,1-5.41,6.8,6.8,0,0,1,3.72-3.76,5.84,5.84,0,0,1,2.61-.34,6.75,6.75,0,0,1,2.43.79,8,8,0,0,1,4.12,8,11.65,11.65,0,0,1-4,7,16.72,16.72,0,0,1-5.86,3.22,31.19,31.19,0,0,1-4.92,1.15c-1.37.22-2.44.34-3.16.41l-.82.08a.91.91,0,0,1-.29,0l.28-.06.82-.13c.72-.11,1.78-.26,3.14-.51a32.21,32.21,0,0,0,4.85-1.23,16.5,16.5,0,0,0,5.72-3.22,11.29,11.29,0,0,0,3.81-6.77,7.51,7.51,0,0,0-3.92-7.51,6.38,6.38,0,0,0-2.26-.73,5.36,5.36,0,0,0-2.37.33,6.26,6.26,0,0,0-3.43,3.49,12.44,12.44,0,0,0-.91,5.2,13.09,13.09,0,0,0,.32,2.7c.1.45.18.91.3,1.35l.4,1.34a25.6,25.6,0,0,0,13.7,15.19,22.92,22.92,0,0,0,8.89,2.05,24.79,24.79,0,0,0,7.92-1A25.75,25.75,0,0,0,133,357.59a18,18,0,0,0,1.31-1.28,11.73,11.73,0,0,0,.9-1l.54-.63C135.89,354.55,136,354.48,136,354.49Z" style="fill:#fff"></path><path d="M225.9,205.31a6.11,6.11,0,0,1-1.39,1.65,15.49,15.49,0,0,1-4.38,2.85,15.71,15.71,0,0,1-5.07,1.24,5.92,5.92,0,0,1-2.16-.11,24.3,24.3,0,0,0,7-1.61A24.58,24.58,0,0,0,225.9,205.31Z" style="fill:#263238"></path><path d="M140.7,361.8l-.73.38c-.51.26-1.23.62-2.18,1.08l-8.34,4.09L99,382.14l-.18.09-.09-.19c-4.48-9.22-9.48-19.84-14.71-31.48-2.6-5.83-5.27-11.91-7.9-18.23s-5.25-12.86-7.58-19.66a70.64,70.64,0,0,1-3.21-12.1L65.21,299a10.31,10.31,0,0,1,.15-1.58,13.43,13.43,0,0,1,1.12-2.89,48.66,48.66,0,0,1,3.07-5.2c4.44-6.62,9.27-12.59,13.91-18.23,9.32-11.26,18.1-21.06,25.52-29.24,3.72-4.08,7.11-7.75,10.11-11,1.5-1.6,2.89-3.1,4.25-4.41a37.81,37.81,0,0,1,3.94-3.32,33.91,33.91,0,0,1,6.13-3.61c1.49-.66,2.26-1,2.26-1a2.88,2.88,0,0,1-.55.32l-1.67.8a36.23,36.23,0,0,0-6,3.67,37.93,37.93,0,0,0-3.89,3.34c-1.34,1.31-2.71,2.82-4.21,4.43-3,3.22-6.35,6.9-10,11-7.39,8.21-16.14,18-25.43,29.29C79.21,277.06,74.39,283,70,289.62a49,49,0,0,0-3,5.15,13,13,0,0,0-1.07,2.77,10.16,10.16,0,0,0-.14,1.46l.11,1.5a71.67,71.67,0,0,0,3.19,12c2.33,6.79,4.94,13.32,7.56,19.64s5.29,12.39,7.88,18.22C89.68,362,94.65,372.63,99.1,381.87l-.27-.1,30.52-14.63,8.39-4,2.2-1C140.44,361.9,140.7,361.8,140.7,361.8Z" style="fill:#263238"></path><path d="M143.79,267a11.76,11.76,0,0,1,.37-1.72c.15-.55.31-1.22.46-2s.36-1.67.49-2.67.32-2.09.41-3.27.18-2.44.25-3.77a59.46,59.46,0,0,0-.44-8.64,58.68,58.68,0,0,0-1.81-8.46c-.4-1.27-.77-2.48-1.21-3.58s-.84-2.13-1.25-3.05-.81-1.73-1.16-2.46-.68-1.32-1-1.82a11.47,11.47,0,0,1-.8-1.56,12.22,12.22,0,0,1,1,1.46c.3.48.67,1.07,1,1.79s.84,1.51,1.25,2.44.9,1.93,1.31,3.05.85,2.32,1.27,3.59a51.43,51.43,0,0,1,2.27,17.25c-.08,1.34-.13,2.62-.3,3.8s-.3,2.29-.48,3.29-.39,1.89-.57,2.68-.37,1.45-.54,2A11.74,11.74,0,0,1,143.79,267Z" style="fill:#263238"></path><path d="M439.94,84.82a4.73,4.73,0,0,1-.22,1.12,10.27,10.27,0,0,1-.37,1.28,15.68,15.68,0,0,1-.6,1.66A27.6,27.6,0,0,1,436.69,93a31.48,31.48,0,0,1-3.4,4.5,31.14,31.14,0,0,1-4.2,3.76,27.56,27.56,0,0,1-3.93,2.4c-.57.32-1.13.53-1.6.74a12.34,12.34,0,0,1-1.25.47,5.16,5.16,0,0,1-1.09.31c0-.1,1.5-.61,3.77-1.85a30.92,30.92,0,0,0,3.81-2.45,34.76,34.76,0,0,0,4.11-3.73,33.34,33.34,0,0,0,3.37-4.4,31.39,31.39,0,0,0,2.13-4C439.46,86.37,439.84,84.8,439.94,84.82Z" style="fill:#263238"></path><path d="M443.71,88.45a4.16,4.16,0,0,1-.22,1.12,11.38,11.38,0,0,1-.36,1.28c-.17.49-.34,1.06-.6,1.66a28.24,28.24,0,0,1-2.07,4.11,31.57,31.57,0,0,1-3.39,4.5,31.12,31.12,0,0,1-4.21,3.76,26.67,26.67,0,0,1-3.93,2.4c-.57.32-1.13.53-1.6.74a12.34,12.34,0,0,1-1.25.47,5.16,5.16,0,0,1-1.09.31c0-.1,1.5-.61,3.77-1.84a31.1,31.1,0,0,0,3.81-2.46,32.41,32.41,0,0,0,4.11-3.73,33.34,33.34,0,0,0,3.37-4.4,30.91,30.91,0,0,0,2.14-4C443.23,90,443.61,88.43,443.71,88.45Z" style="fill:#263238"></path><path d="M330.63,180.44l19.31-45.5s-2.65-5.68-2.21-10a38.08,38.08,0,0,1,2.21-8.42s-2.73,3-3.55,3.17c-3,.62-2.93-1.66-1.9-5a98.45,98.45,0,0,1,5.45-12.25l17.47-5s3-20.88,4.54-21.56,2.95-.46,3.18,0,3.9,30,3.45,32.45-8,28.13-8,28.13l-14.18,56.42s-4.47,7.83-12.56,4.41C339.89,195.69,329.27,186.89,330.63,180.44Z" style="fill:#ffbe9d"></path><path d="M352.73,109.09a25.87,25.87,0,0,1-1.57,4.87,24.84,24.84,0,0,1-2.06,4.68,25.87,25.87,0,0,1,1.57-4.87A25.63,25.63,0,0,1,352.73,109.09Z" style="fill:#eb996e"></path><path d="M308.89,106.34c-1.19,1.3-.85,3.51.36,4.8a7.84,7.84,0,0,0,4.76,2.09A19.91,19.91,0,0,0,326.44,111c4.23-2.35,7.87-6.33,12.7-6.64,6-.38,11.25,5.13,17.18,4.36,3.56-.47,6.38-3.09,9.2-5.32s6.37-4.27,9.83-3.29c1.85.52,3.48,1.88,5.4,2s3.89-1.34,5.19-2.94,2.3-3.47,3.84-4.84c2.57-2.3,6.27-2.89,9.72-2.7s6.83,1.07,10.27,1.27,7.15-.37,9.74-2.65,3.51-6.64,1.24-9.25-6.14-2.4-9.52-2.33a60.36,60.36,0,0,1-18.36-2.47c-6.14-1.81-12.21-4.65-18.61-4.36-7.65.35-14.37,5.09-20,10.23s-11,11-17.82,14.36c-5.68,2.81-12.07,3.76-18.27,5.08-4.14.89-9,2.64-9.94,6.76" style="fill:#FF7010"></path><g style="opacity:0.7000000000000001"><path d="M308.89,106.34c-1.19,1.3-.85,3.51.36,4.8a7.84,7.84,0,0,0,4.76,2.09A19.91,19.91,0,0,0,326.44,111c4.23-2.35,7.87-6.33,12.7-6.64,6-.38,11.25,5.13,17.18,4.36,3.56-.47,6.38-3.09,9.2-5.32s6.37-4.27,9.83-3.29c1.85.52,3.48,1.88,5.4,2s3.89-1.34,5.19-2.94,2.3-3.47,3.84-4.84c2.57-2.3,6.27-2.89,9.72-2.7s6.83,1.07,10.27,1.27,7.15-.37,9.74-2.65,3.51-6.64,1.24-9.25-6.14-2.4-9.52-2.33a60.36,60.36,0,0,1-18.36-2.47c-6.14-1.81-12.21-4.65-18.61-4.36-7.65.35-14.37,5.09-20,10.23s-11,11-17.82,14.36c-5.68,2.81-12.07,3.76-18.27,5.08-4.14.89-9,2.64-9.94,6.76" style="fill:#fff"></path></g><path d="M387.84,81.89a8.7,8.7,0,0,1-4.7-1.12,8.8,8.8,0,0,1-3.74-3.06,37.51,37.51,0,0,0,4,2.6A37.82,37.82,0,0,0,387.84,81.89Z" style="fill:#FF7010"></path><path d="M392.36,80.44a5.14,5.14,0,0,1-1.85.06,16.72,16.72,0,0,1-8.32-3.06,5.11,5.11,0,0,1-1.37-1.24,39.84,39.84,0,0,0,5.5,2.84A37.42,37.42,0,0,0,392.36,80.44Z" style="fill:#FF7010"></path><path d="M382.09,95.76a2.66,2.66,0,0,1-.65.38,5.4,5.4,0,0,1-2.11.42A11.25,11.25,0,0,1,376,96a30.59,30.59,0,0,0-4.3-1.14A8.23,8.23,0,0,0,366.58,96a25.67,25.67,0,0,0-4.89,3.74,21.9,21.9,0,0,1-5.63,4,8.3,8.3,0,0,1-3.64.78,9.17,9.17,0,0,1-3.69-1c-2.31-1.09-4.36-2.54-6.7-2.85a13.82,13.82,0,0,0-6.64.8c-4.12,1.42-7.42,3.69-10.53,4.92a16.9,16.9,0,0,1-7.69,1.58,8.2,8.2,0,0,1-2.81-.66,16.79,16.79,0,0,0,2.82.46,17.41,17.41,0,0,0,7.53-1.72c3.05-1.26,6.33-3.55,10.52-5a14.2,14.2,0,0,1,6.88-.84c2.47.32,4.6,1.83,6.84,2.88a8.77,8.77,0,0,0,3.49.93,7.87,7.87,0,0,0,3.42-.72,22.09,22.09,0,0,0,5.51-3.93,25.34,25.34,0,0,1,5-3.77,8.57,8.57,0,0,1,5.35-1,27.84,27.84,0,0,1,4.33,1.22,11.87,11.87,0,0,0,3.28.62A6.14,6.14,0,0,0,382.09,95.76Z" style="fill:#FF7010"></path><path d="M416.23,86.46s0,.1-.16.25a4.57,4.57,0,0,1-.62.59,6.33,6.33,0,0,1-2.91,1.14,14.09,14.09,0,0,1-4.61-.28,33.94,33.94,0,0,0-5.51-.7,30.49,30.49,0,0,0-10,1.28c-2.48.75-3.92,1.49-4,1.4a4.77,4.77,0,0,1,1-.57,23.88,23.88,0,0,1,2.87-1.18,28.16,28.16,0,0,1,10.1-1.45c4,.09,7.5,1.52,10.06,1.14a6.51,6.51,0,0,0,2.83-1C415.94,86.75,416.2,86.43,416.23,86.46Z" style="fill:#FF7010"></path><path d="M318.43,125.84a4.9,4.9,0,0,1-1.24.16,18.42,18.42,0,0,1-3.4-.13,20.73,20.73,0,0,1-16.87-13.29,18.67,18.67,0,0,1-.93-3.27,5.2,5.2,0,0,1-.13-1.24,43.89,43.89,0,0,0,1.4,4.38,21.29,21.29,0,0,0,16.58,13.06C316.65,125.94,318.43,125.73,318.43,125.84Z" style="fill:#263238"></path><path d="M309.7,131.67s-.27,0-.75-.1a16,16,0,0,1-2-.58,21.8,21.8,0,0,1-10.56-8.18,13.66,13.66,0,0,1-1.05-1.76c-.22-.44-.32-.68-.29-.7s.6.88,1.63,2.24a25.61,25.61,0,0,0,4.67,4.72,26,26,0,0,0,5.73,3.34C308.7,131.3,309.72,131.59,309.7,131.67Z" style="fill:#263238"></path><circle cx="328.36" cy="130.26" r="1.32" style="fill:#ebebeb"></circle><circle cx="386.59" cy="144.54" r="1.32" style="fill:#ebebeb"></circle><circle cx="390.69" cy="176.75" r="1.32" style="fill:#ebebeb"></circle><path d="M332.56,140.84a.84.84,0,0,1-.83.84.85.85,0,0,1-.84-.84.84.84,0,0,1,.84-.83A.83.83,0,0,1,332.56,140.84Z" style="fill:#ebebeb"></path><circle cx="313.53" cy="155.29" r="0.83" style="fill:#ebebeb"></circle><path d="M392.36,119.48a.84.84,0,0,1-.84.83.83.83,0,0,1-.83-.83.84.84,0,0,1,.83-.84A.85.85,0,0,1,392.36,119.48Z" style="fill:#ebebeb"></path><path d="M417.07,145.6a.85.85,0,0,1-.84.84.84.84,0,0,1-.83-.84.83.83,0,0,1,.83-.83A.84.84,0,0,1,417.07,145.6Z" style="fill:#ebebeb"></path><path d="M405.17,107.06a.83.83,0,0,1-.83.84.84.84,0,1,1,0-1.67A.83.83,0,0,1,405.17,107.06Z" style="fill:#ebebeb"></path><path d="M140.7,361.8l15.8,4.25,18.94,6.46,10,7.8s-1.11,3.79-4.23,2.67-9.8-5.56-9.8-5.56L165,376.3l10.91,6.89,7.36,12.21s-2.45,3.06-5.57,0-6.69-6.85-6.69-6.85L163,383.21l7.73,7.13,5.12,8.68s-4,2.46-7.35-1.78A60.61,60.61,0,0,0,163,391l-7-5.12,4.23,7.35,4.23,8.25s-1.33,4.23-4.68,0-9.58-11.81-9.58-11.81-11.58-5.61-14.26-7.6-13.31-11.58-13.31-11.58Z" style="fill:#ffbe9d"></path></g><g id="freepik--Table--inject-41"><path d="M462.3,403.36c0,.14-95.06.26-212.29.26S37.7,403.5,37.7,403.36s95-.26,212.31-.26S462.3,403.21,462.3,403.36Z" style="fill:#263238"></path></g><g id="freepik--Pizza--inject-41"><polygon points="188.91 410.54 171.97 416.93 130.23 469.14 139.17 480.06 356.6 478.5 321.59 415.29 188.91 410.54" style="fill:#263238"></polygon><path d="M143.88,460.36A63.79,63.79,0,0,1,137.2,465a60.35,60.35,0,0,1-7,4.17,66,66,0,0,1,6.69-4.61A63.41,63.41,0,0,1,143.88,460.36Z" style="fill:#455a64"></path><path d="M149.14,471.71a25,25,0,0,1-4.51,4.83,25.6,25.6,0,0,1-5.31,3.92c-.09-.12,2.26-1.89,5-4.3S149,471.61,149.14,471.71Z" style="fill:#455a64"></path><polygon points="189.35 410.98 144.33 461.23 369.23 461.23 327.26 410.98 189.35 410.98" style="fill:#455a64"></polygon><polygon points="143.88 460.79 148.94 474.87 367.08 471.84 368.79 460.79 143.88 460.79" style="fill:#455a64"></polygon><polygon points="187.6 409.08 189.89 416.55 148.94 474.87 143.88 460.79 187.6 409.08" style="fill:#455a64"></polygon><polygon points="326.82 408.8 326.82 416.22 189.89 416.55 187.26 409.08 326.82 408.8" style="fill:#455a64"></polygon><polygon points="326.82 416.22 367.08 471.84 368.79 460.79 326.82 408.8 326.82 416.22" style="fill:#455a64"></polygon><path d="M368.79,460.78l-.58,0H360l-24.1,0-79.51-.16c-31.06,0-59.18,0-79.53.06l-24.09.1-6.56,0h-1.7l-.58,0,.58,0,1.7,0,6.55-.12,24.1-.27c20.35-.17,48.47-.25,79.53-.21s59.16.17,79.51.32l24.1.2,6.55.09,1.71,0Z" style="fill:#263238"></path><path d="M158.85,461.09a2.76,2.76,0,0,1,.34-.55c.26-.39.61-.88,1-1.5l3.9-5.45,13-17.86,12.6-17.07,0,.17-1.83-7.12c-.2-.8-.36-1.44-.48-1.94a4.74,4.74,0,0,1-.13-.69,3.35,3.35,0,0,1,.24.66q.23.74.57,1.92l2,7.07,0,.08-.06.08c-3.28,4.5-7.67,10.52-12.49,17.15l-13.13,17.77c-1.68,2.22-3,4-4,5.35l-1.12,1.44A2.74,2.74,0,0,1,158.85,461.09Z" style="fill:#263238"></path><path d="M326.82,408.8a2.91,2.91,0,0,1,0,.48c0,.34,0,.81,0,1.42,0,1.28,0,3.13.05,5.52v.11h-.11c-11.45.3-36.13.82-64.68,1.36l-51,.88-15.45.2-4.21,0h-1.09l-.37,0,.37,0,1.09,0,4.2-.13,15.45-.37,51-1c28.55-.54,53.23-.94,64.69-1.06l-.11.11c0-2.39,0-4.24.05-5.52,0-.61,0-1.08,0-1.42A2.91,2.91,0,0,1,326.82,408.8Z" style="fill:#263238"></path><path d="M360.37,460.79c-.11.09-7.72-9.82-17-22.13s-16.69-22.35-16.57-22.44,7.72,9.82,17,22.13S360.49,460.7,360.37,460.79Z" style="fill:#263238"></path><path d="M190.33,448.19a5.43,5.43,0,0,1-2.9-4.34,16,16,0,0,1,.53-5.41c.53-2.48,1.2-5.18,3.23-6.71s4.87-1.42,7.27-2.34c3.25-1.23,5.56-4.3,8.85-5.41s6.71-.15,10-.72c3.74-.65,6.94-3.15,10.65-3.94,4.22-.89,8.53.51,12.8,1.11,5.57.78,11.23.18,16.85,0A108.56,108.56,0,0,1,284,422.9s6.27-1.49,10.26.5,5.42,3,9.41,4.32,13.51,4.13,14.95,8.27.77,4.66.77,4.66l-20.15-9.16-16.94-4.43-27-2.33-26.85.33L212,429.83l-10.08,5.58-6,6,.34,5.32Z" style="fill:#FF7010"></path><path d="M254.62,443.51,192.26,450a7.21,7.21,0,0,1-3-6.44c0-11.78,29.51-21.48,65.36-21.48S320,431.73,320,443.51Z" style="fill:#FF7010"></path><g style="opacity:0.30000000000000004"><path d="M309.34,440.5c.66-1.61-.55-3.48-2.12-4.22a11.81,11.81,0,0,0-5.13-.66,8.5,8.5,0,0,1-5-1.12c-1.78-1.28-2.6-3.82-4.69-4.5-2.68-.88-5.46,2-8.21,1.32-1.88-.44-3-2.35-4.8-3.14-3.33-1.5-7,1.45-10.67,1.21s-6.6-3.6-10.24-3.48c-2.51.09-4.76,1.85-7.27,1.79s-4.81-2-7.37-2c-3.79,0-6.79,4.3-10.53,3.71-2.69-.42-4.82-3.31-7.5-2.84-2.38.43-3.6,3.31-5.9,4.06-1.89.62-4.05-.34-5.89.39-3,1.18-3.55,6.13-6.75,6.52-1.92.24-4.07-1.4-5.63-.27-1,.74-1.08,2.25-.77,3.48a10,10,0,0,1,.68,3.7c-.18,1.25-4.93,1.82-1,1.63l54.1-5.46Z"></path></g><path d="M254.62,440.65a5.7,5.7,0,0,1-.68.12l-2,.24-7.25.82-23.93,2.48-22.11,2.16-.13,0-.07-.12a4.72,4.72,0,0,0-3.84-2.41,4.49,4.49,0,0,0-3.3,1.2,5,5,0,0,0-1.3,1.89c-.19.5-.22.78-.25.78s0-.07,0-.21a4,4,0,0,1,.13-.61,5,5,0,0,1,1.26-2,4.76,4.76,0,0,1,3.47-1.36,5.09,5.09,0,0,1,4.17,2.54l-.19-.1,22.1-2.29,23.95-2.33,7.26-.65,2-.15A2.79,2.79,0,0,1,254.62,440.65Z" style="fill:#263238"></path><path d="M208.08,433.81c.06,0-.35.8-1.53,1.41a11,11,0,0,1-2.12.77,13.86,13.86,0,0,0-2.52.85c-1.7.79-2.24,2.63-3.13,3.58s-1.75,1.19-1.75,1.12a5.74,5.74,0,0,0,1.46-1.34c.37-.5.7-1.16,1.15-1.88a4.86,4.86,0,0,1,2-1.94,12.19,12.19,0,0,1,2.63-.86,12,12,0,0,0,2.08-.64A7.76,7.76,0,0,0,208.08,433.81Z" style="fill:#263238"></path><path d="M290.43,435a4.8,4.8,0,0,0-2.08-1.13,26.31,26.31,0,0,0-9.15-1.29,56,56,0,0,1-7.32.3,34.8,34.8,0,0,1-5.5-1.19c-2.72-.69-5.48-1.18-8.24-1.67a22.51,22.51,0,0,0-7.79-.45c-1.72.31-3.38,1-5.13,1.05a36.51,36.51,0,0,1-4.13-.55,39.13,39.13,0,0,0-6,.32c-2,.11-4.54.08-6.09-1.2h0c-1.2-1.06-3.13-.31-4.24.84s-1.89,2.66-3.27,3.46c-2.19,1.28-5.38.42-7.16,2.23s-.73,5,1.38,6.28,4.79,1.08,7.2.55c3.9-.86,7.81-2.47,11.76-1.87,2.36.36,4.74,1.5,7,.83s4-3.21,6.49-3.51c2-.24,3.82,1,5.8,1.4,2.34.43,4.69-.48,7-.7,3.75-.34,7.41,1.06,11.15,1.53,5.63.72,11.3-.67,16.81-2a2.81,2.81,0,0,0,1.81-1A1.88,1.88,0,0,0,290.43,435Z" style="fill:#FF7010"></path><g style="opacity:0.4"><path d="M290.43,435a4.8,4.8,0,0,0-2.08-1.13,26.31,26.31,0,0,0-9.15-1.29,56,56,0,0,1-7.32.3,34.8,34.8,0,0,1-5.5-1.19c-2.72-.69-5.48-1.18-8.24-1.67a22.51,22.51,0,0,0-7.79-.45c-1.72.31-3.38,1-5.13,1.05a36.51,36.51,0,0,1-4.13-.55,39.13,39.13,0,0,0-6,.32c-2,.11-4.54.08-6.09-1.2h0c-1.2-1.06-3.13-.31-4.24.84s-1.89,2.66-3.27,3.46c-2.19,1.28-5.38.42-7.16,2.23s-.73,5,1.38,6.28,4.79,1.08,7.2.55c3.9-.86,7.81-2.47,11.76-1.87,2.36.36,4.74,1.5,7,.83s4-3.21,6.49-3.51c2-.24,3.82,1,5.8,1.4,2.34.43,4.69-.48,7-.7,3.75-.34,7.41,1.06,11.15,1.53,5.63.72,11.3-.67,16.81-2a2.81,2.81,0,0,0,1.81-1A1.88,1.88,0,0,0,290.43,435Z" style="fill:#fff"></path></g><path d="M217.34,423.26a11,11,0,0,1,1.61.64l4.3,1.91c3.63,1.65,8.63,3.94,14.14,6.51,7.49,3.49,14,6.58,17.29,8.21l.07,0v.08q0,1.29-.06,2.13a2.47,2.47,0,0,1-.07.73,3.47,3.47,0,0,1-.06-.73q0-.84-.06-2.13l.07.11c-3.37-1.48-9.91-4.47-17.4-8-5.51-2.56-10.48-4.92-14.07-6.64l-4.24-2.07A10.76,10.76,0,0,1,217.34,423.26Z" style="fill:#263238"></path><path d="M278.11,421.6c.09.11-5,4.52-11.35,9.85s-11.6,9.56-11.69,9.45,5-4.52,11.35-9.85S278,421.49,278.11,421.6Z" style="fill:#263238"></path><path d="M245,424.58a14.58,14.58,0,0,1-11.43,1.31,40.56,40.56,0,0,0,5.79,0A40.81,40.81,0,0,0,245,424.58Z" style="fill:#263238"></path><path d="M261.78,425.8a331790573174340.44,331790573174340.44,0,0,0-4.94-.64,4.23,4.23,0,0,1,2.54-.19A4.31,4.31,0,0,1,261.78,425.8Z" style="fill:#263238"></path><path d="M295.9,430.7a6.85,6.85,0,0,0-6.62-2c0-.05.33-.31,1-.49a5.27,5.27,0,0,1,5,1.5C295.79,430.26,296,430.67,295.9,430.7Z" style="fill:#263238"></path><path d="M318.7,440s-.11-.32-.41-.85a5.26,5.26,0,0,0-1.84-1.89,4.71,4.71,0,0,0-4-.5,5,5,0,0,0-3.34,3.88l0,.18h-.18c-5.63-.06-12.77-.12-20.51-.14-9.4,0-17.9,0-24.06.09l-7.29.05h-2a3.38,3.38,0,0,1-.69,0,3.33,3.33,0,0,1,.69-.07l2-.09,7.29-.22c6.15-.14,14.66-.26,24.06-.24,7.74,0,14.88.12,20.52.25l-.21.18a5.39,5.39,0,0,1,3.65-4.14,5,5,0,0,1,4.19.62,5.21,5.21,0,0,1,1.83,2A3,3,0,0,1,318.7,440Z" style="fill:#263238"></path><path d="M220.37,439.89c0,1.87-2.43,3.38-5.43,3.38s-5.43-1.51-5.43-3.38,2.43-3.37,5.43-3.37S220.37,438,220.37,439.89Z" style="fill:#FF7010"></path><path d="M216.71,441.68c.06.13,0,.31-.23.39A.33.33,0,0,1,216,442c-.06-.13,0-.3.23-.39A.33.33,0,0,1,216.71,441.68Z" style="fill:#e0e0e0"></path><path d="M217.05,440.14a.28.28,0,0,1-.12.37.26.26,0,1,1-.27-.45A.28.28,0,0,1,217.05,440.14Z" style="fill:#e0e0e0"></path><path d="M218.82,440.2a.27.27,0,1,1-.37,0A.27.27,0,0,1,218.82,440.2Z" style="fill:#e0e0e0"></path><path d="M213.24,439.3a.28.28,0,0,1-.5.23.26.26,0,0,1,.14-.35A.26.26,0,0,1,213.24,439.3Z" style="fill:#e0e0e0"></path><path d="M216.21,438.49a.29.29,0,0,1-.18.37.28.28,0,0,1-.39-.1.29.29,0,0,1,.17-.37A.3.3,0,0,1,216.21,438.49Z" style="fill:#e0e0e0"></path><path d="M218.42,438.76c.05.14,0,.28-.09.31a.23.23,0,0,1-.28-.17.21.21,0,1,1,.37-.14Z" style="fill:#e0e0e0"></path><path d="M214.32,437.54c.07.13-.09.33-.34.45s-.5.11-.56,0,.09-.33.34-.45S214.26,437.41,214.32,437.54Z" style="fill:#e0e0e0"></path><path d="M211,438.79a.29.29,0,0,1-.19.34.28.28,0,0,1-.35-.17.27.27,0,0,1,.19-.33A.28.28,0,0,1,211,438.79Z" style="fill:#e0e0e0"></path><path d="M211.17,440.6a.26.26,0,0,1-.1.36.27.27,0,0,1-.37-.09.27.27,0,0,1,.11-.36A.26.26,0,0,1,211.17,440.6Z" style="fill:#e0e0e0"></path><path d="M214,441.83c.06.13,0,.3-.21.39a.32.32,0,0,1-.43-.09.37.37,0,0,1,.64-.3Z" style="fill:#e0e0e0"></path><path d="M215.37,440.31c0,.13-.13.33-.4.44s-.55.1-.6,0,.12-.33.4-.45S215.32,440.17,215.37,440.31Z" style="fill:#e0e0e0"></path><path d="M212.58,440.87a.24.24,0,0,1-.07.35.25.25,0,0,1-.33-.11.25.25,0,0,1,.07-.34A.24.24,0,0,1,212.58,440.87Z" style="fill:#e0e0e0"></path><path d="M216.71,437.55a.24.24,0,0,1-.14.31.24.24,0,0,1-.3-.18.24.24,0,0,1,.15-.31A.24.24,0,0,1,216.71,437.55Z" style="fill:#e0e0e0"></path><ellipse cx="290.58" cy="436.1" rx="5.43" ry="3.37" style="fill:#FF7010"></ellipse><path d="M292.35,437.89c.06.13,0,.31-.23.39a.33.33,0,0,1-.44-.09c-.06-.13,0-.3.23-.39A.33.33,0,0,1,292.35,437.89Z" style="fill:#e0e0e0"></path><path d="M292.69,436.35a.28.28,0,0,1-.12.37.28.28,0,0,1-.39-.07.28.28,0,0,1,.12-.37A.27.27,0,0,1,292.69,436.35Z" style="fill:#e0e0e0"></path><path d="M294.46,436.41a.27.27,0,0,1,0,.38.28.28,0,0,1-.38,0,.28.28,0,0,1,.37-.41Z" style="fill:#e0e0e0"></path><path d="M288.88,435.51a.26.26,0,0,1-.14.35.28.28,0,0,1-.37-.12.27.27,0,0,1,.15-.35A.28.28,0,0,1,288.88,435.51Z" style="fill:#e0e0e0"></path><path d="M291.85,434.7a.29.29,0,0,1-.18.37.28.28,0,0,1-.39-.1.29.29,0,0,1,.17-.37A.3.3,0,0,1,291.85,434.7Z" style="fill:#e0e0e0"></path><path d="M294.06,435c.05.14,0,.28-.09.31a.23.23,0,0,1-.28-.17.21.21,0,1,1,.37-.14Z" style="fill:#e0e0e0"></path><path d="M290,433.75c.06.13-.09.33-.34.45s-.5.11-.56,0,.09-.33.34-.45S289.9,433.62,290,433.75Z" style="fill:#e0e0e0"></path><path d="M286.65,435a.29.29,0,0,1-.19.34.28.28,0,0,1-.35-.17.27.27,0,0,1,.19-.33A.28.28,0,0,1,286.65,435Z" style="fill:#e0e0e0"></path><path d="M286.81,436.81a.26.26,0,0,1-.1.36.27.27,0,0,1-.37-.09.27.27,0,0,1,.47-.27Z" style="fill:#e0e0e0"></path><path d="M289.6,438c.06.13,0,.3-.21.39a.32.32,0,0,1-.43-.09.31.31,0,0,1,.21-.38A.31.31,0,0,1,289.6,438Z" style="fill:#e0e0e0"></path><path d="M291,436.52c.05.13-.13.33-.4.45s-.55.09-.6,0,.12-.33.4-.45S291,436.39,291,436.52Z" style="fill:#e0e0e0"></path><path d="M288.22,437.09a.24.24,0,0,1-.07.34.25.25,0,0,1-.33-.11.25.25,0,0,1,.07-.34A.24.24,0,0,1,288.22,437.09Z" style="fill:#e0e0e0"></path><path d="M292.35,433.76a.25.25,0,0,1-.14.32.26.26,0,0,1-.3-.19.24.24,0,0,1,.14-.31A.24.24,0,0,1,292.35,433.76Z" style="fill:#e0e0e0"></path><ellipse cx="227.71" cy="434.06" rx="4.86" ry="2.46" style="fill:#FF7010"></ellipse><path d="M229.3,435.36a.31.31,0,0,1-.22.36.28.28,0,0,1-.38-.14.29.29,0,0,1,.21-.35A.3.3,0,0,1,229.3,435.36Z" style="fill:#e0e0e0"></path><path d="M229.59,434.24a.24.24,0,0,1-.11.34.25.25,0,0,1-.34-.12.25.25,0,0,1,.12-.34A.24.24,0,0,1,229.59,434.24Z" style="fill:#e0e0e0"></path><path d="M231.18,434.29a.24.24,0,0,1,0,.34.25.25,0,0,1-.34-.05.25.25,0,0,1,0-.34A.23.23,0,0,1,231.18,434.29Z" style="fill:#e0e0e0"></path><path d="M226.19,433.63a.26.26,0,0,1-.13.33.25.25,0,0,1-.32-.16.26.26,0,0,1,.13-.33A.26.26,0,0,1,226.19,433.63Z" style="fill:#e0e0e0"></path><path d="M228.85,433a.28.28,0,0,1-.17.35.27.27,0,0,1-.34-.15.26.26,0,0,1,.16-.34A.28.28,0,0,1,228.85,433Z" style="fill:#e0e0e0"></path><path d="M230.82,433.24a.22.22,0,0,1-.09.3c-.09,0-.19-.06-.24-.2s0-.27.1-.3S230.78,433.1,230.82,433.24Z" style="fill:#e0e0e0"></path><path d="M227.16,432.35c.05.13-.09.31-.31.4s-.45.05-.5-.08.09-.32.31-.4S227.11,432.22,227.16,432.35Z" style="fill:#e0e0e0"></path><path d="M224.2,433.26a.27.27,0,0,1-.18.32.26.26,0,0,1-.3-.2.25.25,0,0,1,.17-.31A.27.27,0,0,1,224.2,433.26Z" style="fill:#e0e0e0"></path><path d="M224.34,434.58a.24.24,0,0,1-.1.33.26.26,0,0,1-.22-.47A.25.25,0,0,1,224.34,434.58Z" style="fill:#e0e0e0"></path><path d="M226.83,435.47a.29.29,0,0,1-.19.36.28.28,0,0,1-.38-.14.31.31,0,0,1,.57-.22Z" style="fill:#e0e0e0"></path><path d="M228.1,434.37c0,.13-.12.31-.37.39s-.48,0-.53-.1.12-.31.37-.39S228.05,434.23,228.1,434.37Z" style="fill:#e0e0e0"></path><path d="M225.61,434.78a.24.24,0,0,1-.07.32.23.23,0,0,1-.29-.15.23.23,0,0,1,.06-.32C225.41,434.58,225.54,434.65,225.61,434.78Z" style="fill:#e0e0e0"></path><path d="M229.29,432.36a.23.23,0,0,1-.13.3c-.11,0-.22-.07-.26-.21a.25.25,0,0,1,.14-.3A.24.24,0,0,1,229.29,432.36Z" style="fill:#e0e0e0"></path><path d="M249.79,430.84c0,1.36-2.18,2.46-4.86,2.46s-4.86-1.1-4.86-2.46,2.18-2.45,4.86-2.45S249.79,429.49,249.79,430.84Z" style="fill:#FF7010"></path><path d="M246.52,432.14a.31.31,0,0,1-.22.36.28.28,0,0,1-.38-.14.29.29,0,0,1,.21-.35A.3.3,0,0,1,246.52,432.14Z" style="fill:#e0e0e0"></path><path d="M246.82,431a.27.27,0,0,1-.12.35.25.25,0,0,1-.33-.13.24.24,0,0,1,.11-.34A.26.26,0,0,1,246.82,431Z" style="fill:#e0e0e0"></path><path d="M248.4,431.07a.24.24,0,0,1,0,.34.25.25,0,0,1-.34-.05.25.25,0,0,1,0-.34A.23.23,0,0,1,248.4,431.07Z" style="fill:#e0e0e0"></path><path d="M243.41,430.41a.25.25,0,0,1-.13.33.25.25,0,0,1-.32-.16.26.26,0,0,1,.13-.33A.26.26,0,0,1,243.41,430.41Z" style="fill:#e0e0e0"></path><path d="M246.07,429.83a.28.28,0,0,1-.17.34.26.26,0,1,1-.18-.49A.27.27,0,0,1,246.07,429.83Z" style="fill:#e0e0e0"></path><path d="M248,430a.22.22,0,0,1-.09.3c-.09,0-.19-.06-.24-.2s0-.27.1-.3S248,429.88,248,430Z" style="fill:#e0e0e0"></path><path d="M244.38,429.13c.05.13-.09.31-.31.4s-.45.05-.5-.08.09-.32.31-.4S244.33,429,244.38,429.13Z" style="fill:#e0e0e0"></path><path d="M241.42,430a.27.27,0,0,1-.18.32.26.26,0,0,1-.13-.51A.27.27,0,0,1,241.42,430Z" style="fill:#e0e0e0"></path><path d="M241.56,431.36a.24.24,0,0,1-.1.33.26.26,0,0,1-.22-.47A.25.25,0,0,1,241.56,431.36Z" style="fill:#e0e0e0"></path><path d="M244.05,432.25a.29.29,0,0,1-.19.36.28.28,0,0,1-.38-.14.31.31,0,0,1,.57-.22Z" style="fill:#e0e0e0"></path><path d="M245.32,431.15c0,.13-.12.31-.37.39s-.48,0-.53-.1.12-.31.37-.39S245.27,431,245.32,431.15Z" style="fill:#e0e0e0"></path><path d="M242.83,431.56a.24.24,0,0,1-.07.32.23.23,0,0,1-.29-.15.24.24,0,0,1,.06-.32C242.63,431.36,242.76,431.43,242.83,431.56Z" style="fill:#e0e0e0"></path><path d="M246.51,429.14a.23.23,0,0,1-.13.3c-.11,0-.22-.06-.26-.2a.25.25,0,0,1,.14-.31A.24.24,0,0,1,246.51,429.14Z" style="fill:#e0e0e0"></path><path d="M241.52,438.89c0,1.35-2.17,2.45-4.86,2.45s-4.86-1.1-4.86-2.45,2.18-2.46,4.86-2.46S241.52,437.53,241.52,438.89Z" style="fill:#FF7010"></path><path d="M238.25,440.19a.32.32,0,1,1-.39-.14A.3.3,0,0,1,238.25,440.19Z" style="fill:#e0e0e0"></path><path d="M238.55,439.06a.27.27,0,0,1-.11.35.26.26,0,0,1-.34-.13.24.24,0,0,1,.11-.34A.26.26,0,0,1,238.55,439.06Z" style="fill:#e0e0e0"></path><path d="M240.14,439.11a.22.22,0,1,1-.33.3.25.25,0,0,1,0-.35A.25.25,0,0,1,240.14,439.11Z" style="fill:#e0e0e0"></path><path d="M235.14,438.45a.25.25,0,0,1-.13.33.25.25,0,0,1-.32-.16.24.24,0,1,1,.45-.17Z" style="fill:#e0e0e0"></path><path d="M237.8,437.87a.27.27,0,0,1-.16.34.27.27,0,0,1-.35-.15.27.27,0,0,1,.51-.19Z" style="fill:#e0e0e0"></path><path d="M239.78,438.06c0,.14,0,.27-.09.3s-.2-.06-.24-.2,0-.27.09-.3S239.74,437.92,239.78,438.06Z" style="fill:#e0e0e0"></path><path d="M236.11,437.17c0,.14-.08.32-.31.4s-.45.05-.5-.08.09-.31.31-.4S236.06,437,236.11,437.17Z" style="fill:#e0e0e0"></path><path d="M233.15,438.09a.26.26,0,0,1-.18.31.25.25,0,0,1-.3-.19.26.26,0,0,1,.17-.32A.27.27,0,0,1,233.15,438.09Z" style="fill:#e0e0e0"></path><path d="M233.3,439.4a.26.26,0,0,1-.11.34.26.26,0,0,1-.21-.48A.25.25,0,0,1,233.3,439.4Z" style="fill:#e0e0e0"></path><path d="M235.78,440.3a.27.27,0,0,1-.19.35.27.27,0,1,1-.18-.49A.28.28,0,0,1,235.78,440.3Z" style="fill:#e0e0e0"></path><path d="M237.05,439.19c0,.13-.12.31-.37.39s-.48,0-.53-.09.12-.32.37-.4S237,439.05,237.05,439.19Z" style="fill:#e0e0e0"></path><path d="M234.56,439.6a.24.24,0,0,1-.07.32.23.23,0,0,1-.29-.15.24.24,0,0,1,.07-.32A.23.23,0,0,1,234.56,439.6Z" style="fill:#e0e0e0"></path><path d="M238.25,437.18c0,.14,0,.28-.14.3s-.22-.06-.25-.2a.23.23,0,0,1,.13-.3C238.1,437,238.21,437,238.25,437.18Z" style="fill:#e0e0e0"></path><ellipse cx="268.3" cy="437.13" rx="4.86" ry="2.46" style="fill:#FF7010"></ellipse><path d="M269.88,438.43a.32.32,0,1,1-.39-.14A.29.29,0,0,1,269.88,438.43Z" style="fill:#e0e0e0"></path><path d="M270.18,437.3a.27.27,0,0,1-.11.35.26.26,0,0,1-.34-.13.26.26,0,0,1,.11-.34A.26.26,0,0,1,270.18,437.3Z" style="fill:#e0e0e0"></path><path d="M271.77,437.35a.25.25,0,0,1,0,.34.24.24,0,0,1-.34,0,.24.24,0,0,1,0-.34A.24.24,0,0,1,271.77,437.35Z" style="fill:#e0e0e0"></path><path d="M266.78,436.69a.25.25,0,0,1-.14.33.24.24,0,0,1-.31-.15.24.24,0,0,1,.13-.33A.26.26,0,0,1,266.78,436.69Z" style="fill:#e0e0e0"></path><path d="M269.43,436.11a.27.27,0,0,1-.51.19.27.27,0,0,1,.51-.19Z" style="fill:#e0e0e0"></path><path d="M271.41,436.3c0,.14,0,.28-.09.3s-.2-.06-.24-.2,0-.27.09-.3S271.37,436.17,271.41,436.3Z" style="fill:#e0e0e0"></path><path d="M267.74,435.41c.06.14-.08.32-.31.4s-.44.05-.5-.08.09-.31.31-.4S267.69,435.28,267.74,435.41Z" style="fill:#e0e0e0"></path><path d="M264.78,436.33a.24.24,0,0,1-.18.31.25.25,0,0,1-.3-.19.25.25,0,0,1,.18-.31A.24.24,0,0,1,264.78,436.33Z" style="fill:#e0e0e0"></path><path d="M264.93,437.64a.26.26,0,0,1-.1.34.25.25,0,0,1-.32-.14.25.25,0,0,1,.1-.34A.25.25,0,0,1,264.93,437.64Z" style="fill:#e0e0e0"></path><path d="M267.42,438.54a.31.31,0,1,1-.38-.14A.28.28,0,0,1,267.42,438.54Z" style="fill:#e0e0e0"></path><path d="M268.68,437.43c.05.14-.12.31-.37.4s-.48,0-.53-.1.12-.32.37-.4S268.64,437.29,268.68,437.43Z" style="fill:#e0e0e0"></path><path d="M266.19,437.84c.06.13,0,.28-.07.32a.23.23,0,0,1-.29-.15.24.24,0,0,1,.07-.32A.23.23,0,0,1,266.19,437.84Z" style="fill:#e0e0e0"></path><path d="M269.88,435.42c0,.14,0,.28-.13.3a.23.23,0,0,1-.26-.2.23.23,0,0,1,.13-.3C269.73,435.19,269.84,435.28,269.88,435.42Z" style="fill:#e0e0e0"></path><ellipse cx="276.67" cy="431.75" rx="4.86" ry="2.46" style="fill:#FF7010"></ellipse><path d="M278.26,433.05a.32.32,0,1,1-.39-.14A.3.3,0,0,1,278.26,433.05Z" style="fill:#e0e0e0"></path><path d="M278.56,431.92a.27.27,0,0,1-.11.35.26.26,0,0,1-.34-.13.24.24,0,0,1,.11-.34A.27.27,0,0,1,278.56,431.92Z" style="fill:#e0e0e0"></path><path d="M280.15,432a.24.24,0,0,1,0,.34.23.23,0,0,1-.33,0,.24.24,0,0,1,0-.34A.24.24,0,0,1,280.15,432Z" style="fill:#e0e0e0"></path><path d="M275.15,431.31a.24.24,0,1,1-.45.18.25.25,0,0,1,.14-.33A.24.24,0,0,1,275.15,431.31Z" style="fill:#e0e0e0"></path><path d="M277.81,430.73a.27.27,0,0,1-.51.19.27.27,0,0,1,.51-.19Z" style="fill:#e0e0e0"></path><path d="M279.79,430.92c0,.14,0,.28-.09.3s-.2-.06-.24-.2,0-.27.09-.3S279.75,430.79,279.79,430.92Z" style="fill:#e0e0e0"></path><path d="M276.12,430c.05.14-.08.32-.31.4s-.44.05-.5-.08.09-.31.31-.4S276.07,429.9,276.12,430Z" style="fill:#e0e0e0"></path><path d="M273.16,431a.26.26,0,0,1-.18.31.25.25,0,0,1-.3-.19.24.24,0,0,1,.17-.31A.25.25,0,0,1,273.16,431Z" style="fill:#e0e0e0"></path><path d="M273.31,432.26a.26.26,0,0,1-.11.34.24.24,0,0,1-.31-.14.23.23,0,1,1,.42-.2Z" style="fill:#e0e0e0"></path><path d="M275.8,433.16a.29.29,0,0,1-.2.35.26.26,0,1,1-.18-.49A.29.29,0,0,1,275.8,433.16Z" style="fill:#e0e0e0"></path><path d="M277.06,432.05c0,.14-.12.31-.37.4s-.48,0-.53-.1.12-.32.37-.4S277,431.91,277.06,432.05Z" style="fill:#e0e0e0"></path><path d="M274.57,432.46c.06.13,0,.28-.07.32a.23.23,0,0,1-.29-.15.24.24,0,0,1,.07-.32A.23.23,0,0,1,274.57,432.46Z" style="fill:#e0e0e0"></path><path d="M278.26,430c0,.14,0,.28-.14.3s-.22-.06-.25-.2a.23.23,0,0,1,.13-.3C278.11,429.81,278.22,429.9,278.26,430Z" style="fill:#e0e0e0"></path><ellipse cx="256.49" cy="434.69" rx="4.86" ry="2.46" style="fill:#FF7010"></ellipse><path d="M258.07,436a.29.29,0,0,1-.21.35.27.27,0,1,1-.18-.49A.29.29,0,0,1,258.07,436Z" style="fill:#e0e0e0"></path><path d="M258.37,434.86a.25.25,0,0,1-.11.35.26.26,0,0,1-.34-.13.26.26,0,0,1,.11-.34A.25.25,0,0,1,258.37,434.86Z" style="fill:#e0e0e0"></path><path d="M260,434.91a.24.24,0,0,1,0,.34.25.25,0,0,1-.34-.05.24.24,0,0,1,0-.34A.23.23,0,0,1,260,434.91Z" style="fill:#e0e0e0"></path><path d="M255,434.25a.25.25,0,0,1-.13.33.26.26,0,1,1,.13-.33Z" style="fill:#e0e0e0"></path><path d="M257.62,433.67a.26.26,0,0,1-.16.34.27.27,0,0,1-.35-.15.27.27,0,0,1,.17-.34A.26.26,0,0,1,257.62,433.67Z" style="fill:#e0e0e0"></path><path d="M259.6,433.86c0,.14,0,.27-.09.3s-.2-.06-.24-.2,0-.27.09-.3S259.56,433.72,259.6,433.86Z" style="fill:#e0e0e0"></path><path d="M255.94,433c.05.14-.09.31-.31.4s-.45.05-.5-.08.08-.31.31-.4S255.89,432.84,255.94,433Z" style="fill:#e0e0e0"></path><path d="M253,433.89a.25.25,0,0,1-.17.31.27.27,0,0,1-.31-.19.27.27,0,0,1,.18-.32A.26.26,0,0,1,253,433.89Z" style="fill:#e0e0e0"></path><path d="M253.12,435.2a.23.23,0,1,1-.42.2.26.26,0,0,1,.1-.34A.25.25,0,0,1,253.12,435.2Z" style="fill:#e0e0e0"></path><path d="M255.61,436.1a.28.28,0,0,1-.19.35.29.29,0,0,1-.38-.13.3.3,0,0,1,.19-.36A.28.28,0,0,1,255.61,436.1Z" style="fill:#e0e0e0"></path><path d="M256.88,435c0,.13-.12.31-.37.39s-.49,0-.53-.09.12-.32.36-.4S256.83,434.85,256.88,435Z" style="fill:#e0e0e0"></path><path d="M254.38,435.4a.23.23,0,0,1-.06.32c-.1,0-.23,0-.3-.15a.24.24,0,0,1,.07-.32A.23.23,0,0,1,254.38,435.4Z" style="fill:#e0e0e0"></path><path d="M258.07,433a.23.23,0,0,1-.13.3c-.11,0-.22-.06-.26-.2s0-.28.13-.3A.23.23,0,0,1,258.07,433Z" style="fill:#e0e0e0"></path><path d="M256,442.65l62.38-6.25a7.18,7.18,0,0,1,3,6.44c0,11.79-29.57,21.41-65.42,21.3s-65.33-9.89-65.3-21.68Z" style="fill:#FF7010"></path><g style="opacity:0.30000000000000004"><path d="M201.22,445.51c-.66,1.61.54,3.48,2.12,4.23a11.79,11.79,0,0,0,5.13.67,8.41,8.41,0,0,1,5,1.14c1.78,1.28,2.59,3.82,4.67,4.51,2.69.89,5.47-1.95,8.22-1.3,1.87.44,3,2.36,4.79,3.16,3.32,1.51,7-1.43,10.68-1.19s6.59,3.63,10.23,3.51c2.5-.07,4.76-1.83,7.27-1.77s4.8,2,7.36,2c3.79,0,6.8-4.28,10.55-3.68,2.68.43,4.8,3.33,7.48,2.86,2.39-.42,3.62-3.3,5.92-4,1.89-.61,4,.36,5.89-.36,3-1.18,3.57-6.13,6.77-6.51,1.92-.23,4.06,1.42,5.63.3,1-.74,1.08-2.26.78-3.49a10,10,0,0,1-.67-3.7c.18-1.25,4.93-1.81,1-1.62l-54.13,5.3Z"></path></g><path d="M255.94,445.52a3.13,3.13,0,0,1,.68-.12l2-.24,7.25-.79,24-2.41,22.12-2.1H312l.06.11a4.74,4.74,0,0,0,3.83,2.43,4.5,4.5,0,0,0,3.3-1.2,4.81,4.81,0,0,0,1.31-1.89c.19-.49.23-.78.26-.77a.83.83,0,0,1,0,.21,4,4,0,0,1-.14.6,4.73,4.73,0,0,1-1.27,2,4.65,4.65,0,0,1-3.46,1.35,5.08,5.08,0,0,1-4.17-2.55l.19.1-22.1,2.22-24,2.27-7.27.62-2,.15A3.62,3.62,0,0,1,255.94,445.52Z" style="fill:#263238"></path><path d="M302.47,452.49c-.06,0,.35-.8,1.53-1.4a10.41,10.41,0,0,1,2.12-.76,13.6,13.6,0,0,0,2.52-.85c1.71-.79,2.25-2.62,3.14-3.57s1.76-1.18,1.75-1.11a5.46,5.46,0,0,0-1.46,1.34c-.37.49-.7,1.15-1.15,1.87a4.92,4.92,0,0,1-2,1.94,12.32,12.32,0,0,1-2.64.84,13.51,13.51,0,0,0-2.09.63A8.47,8.47,0,0,0,302.47,452.49Z" style="fill:#263238"></path><path d="M220.11,451a4.81,4.81,0,0,0,2.09,1.14,26.27,26.27,0,0,0,9.14,1.31,57.93,57.93,0,0,1,7.32-.27,34.83,34.83,0,0,1,5.5,1.2c2.72.7,5.48,1.2,8.24,1.7a22.22,22.22,0,0,0,7.78.47c1.72-.31,3.39-1,5.14-1a36.1,36.1,0,0,1,4.12.57,39.25,39.25,0,0,0,6-.31c2-.1,4.54-.06,6.08,1.23h0c1.2,1.05,3.14.31,4.25-.83s1.89-2.66,3.27-3.45c2.2-1.27,5.38-.41,7.17-2.22s.75-5-1.36-6.28-4.79-1.09-7.2-.57c-3.9.85-7.81,2.45-11.76,1.84-2.36-.37-4.74-1.52-7-.85s-4,3.19-6.49,3.49c-2,.24-3.82-1.06-5.8-1.42-2.33-.43-4.69.47-7,.68-3.75.33-7.41-1.08-11.14-1.57-5.64-.73-11.31.64-16.83,2a2.82,2.82,0,0,0-1.8,1A1.89,1.89,0,0,0,220.11,451Z" style="fill:#FF7010"></path><g style="opacity:0.4"><path d="M220.11,451a4.81,4.81,0,0,0,2.09,1.14,26.27,26.27,0,0,0,9.14,1.31,57.93,57.93,0,0,1,7.32-.27,34.83,34.83,0,0,1,5.5,1.2c2.72.7,5.48,1.2,8.24,1.7a22.22,22.22,0,0,0,7.78.47c1.72-.31,3.39-1,5.14-1a36.1,36.1,0,0,1,4.12.57,39.25,39.25,0,0,0,6-.31c2-.1,4.54-.06,6.08,1.23h0c1.2,1.05,3.14.31,4.25-.83s1.89-2.66,3.27-3.45c2.2-1.27,5.38-.41,7.17-2.22s.75-5-1.36-6.28-4.79-1.09-7.2-.57c-3.9.85-7.81,2.45-11.76,1.84-2.36-.37-4.74-1.52-7-.85s-4,3.19-6.49,3.49c-2,.24-3.82-1.06-5.8-1.42-2.33-.43-4.69.47-7,.68-3.75.33-7.41-1.08-11.14-1.57-5.64-.73-11.31.64-16.83,2a2.82,2.82,0,0,0-1.8,1A1.89,1.89,0,0,0,220.11,451Z" style="fill:#fff"></path></g><path d="M293.18,463a11.49,11.49,0,0,1-1.61-.64l-4.3-1.94c-3.63-1.65-8.62-4-14.12-6.54-7.48-3.52-14-6.63-17.26-8.26l-.08,0v-.08c0-.87.05-1.57.07-2.13a3.14,3.14,0,0,1,.07-.74,3.64,3.64,0,0,1,.06.74c0,.56,0,1.26.06,2.13l-.07-.11c3.36,1.49,9.89,4.5,17.37,8,5.5,2.58,10.47,4.95,14.05,6.68l4.24,2.08A11.58,11.58,0,0,1,293.18,463Z" style="fill:#263238"></path><path d="M232.4,464.5c-.09-.11,5-4.51,11.38-9.82s11.62-9.52,11.72-9.41-5,4.5-11.38,9.81S232.49,464.61,232.4,464.5Z" style="fill:#263238"></path><path d="M265.5,461.61a14.57,14.57,0,0,1,11.43-1.27,42.23,42.23,0,0,0-5.79,0A42.7,42.7,0,0,0,265.5,461.61Z" style="fill:#263238"></path><path d="M248.74,460.34a104159073282641.2,104159073282641.2,0,0,0,4.94.66,4.23,4.23,0,0,1-2.54.19A4.28,4.28,0,0,1,248.74,460.34Z" style="fill:#263238"></path><path d="M214.64,455.34a9,9,0,0,0,3,1.9,8.94,8.94,0,0,0,3.58.1c0,.05-.33.31-1,.49a5.2,5.2,0,0,1-2.72-.09,5.33,5.33,0,0,1-2.31-1.43C214.74,455.79,214.59,455.37,214.64,455.34Z" style="fill:#263238"></path><path d="M191.86,446s.12.31.41.85a5.25,5.25,0,0,0,1.84,1.89,4.72,4.72,0,0,0,4,.51,5,5,0,0,0,3.36-3.87l0-.18h.18c5.63.07,12.77.16,20.51.2,9.39.05,17.9,0,24,0l7.29,0h2a3.38,3.38,0,0,1,.69,0,3.47,3.47,0,0,1-.69.07l-2,.08-7.29.2c-6.16.12-14.67.22-24.06.17-7.75,0-14.89-.16-20.52-.31l.21-.17a5.38,5.38,0,0,1-3.67,4.12A4.92,4.92,0,0,1,194,449a5,5,0,0,1-1.81-2A3.3,3.3,0,0,1,191.86,446Z" style="fill:#263238"></path><path d="M290.19,446.37c0-1.86,2.44-3.36,5.44-3.35s5.43,1.52,5.43,3.39-2.45,3.36-5.45,3.35S290.18,448.24,290.19,446.37Z" style="fill:#FF7010"></path><path d="M293.86,444.6c-.06-.13,0-.31.23-.39a.33.33,0,0,1,.44.09c.06.13,0,.3-.23.39S293.92,444.73,293.86,444.6Z" style="fill:#e0e0e0"></path><path d="M293.52,446.14a.29.29,0,1,1,.38.07A.27.27,0,0,1,293.52,446.14Z" style="fill:#e0e0e0"></path><path d="M291.74,446.07a.27.27,0,0,1,.37-.4.26.26,0,0,1,0,.37A.26.26,0,0,1,291.74,446.07Z" style="fill:#e0e0e0"></path><path d="M297.32,447a.27.27,0,0,1,.14-.35.27.27,0,0,1,.37.12.27.27,0,0,1-.15.35A.27.27,0,0,1,297.32,447Z" style="fill:#e0e0e0"></path><path d="M294.35,447.79a.29.29,0,0,1,.18-.37.28.28,0,0,1,.39.1.3.3,0,0,1-.17.37A.3.3,0,0,1,294.35,447.79Z" style="fill:#e0e0e0"></path><path d="M292.14,447.51a.24.24,0,0,1,.09-.31c.11,0,.23,0,.28.18a.24.24,0,0,1-.1.31C292.31,447.73,292.19,447.65,292.14,447.51Z" style="fill:#e0e0e0"></path><path d="M296.23,448.75c-.06-.13.09-.33.34-.45s.51-.11.57,0-.09.33-.34.45S296.3,448.88,296.23,448.75Z" style="fill:#e0e0e0"></path><path d="M299.55,447.5a.28.28,0,0,1,.19-.33.27.27,0,0,1,.35.17.27.27,0,0,1-.19.33A.28.28,0,0,1,299.55,447.5Z" style="fill:#e0e0e0"></path><path d="M299.39,445.69a.27.27,0,0,1,.11-.36.26.26,0,0,1,.36.1.27.27,0,0,1-.1.36A.27.27,0,0,1,299.39,445.69Z" style="fill:#e0e0e0"></path><path d="M296.61,444.46a.37.37,0,0,1,.64-.3.31.31,0,0,1-.21.38C296.87,444.62,296.67,444.59,296.61,444.46Z" style="fill:#e0e0e0"></path><path d="M295.19,446c-.05-.13.13-.33.41-.44s.54-.1.6,0-.13.33-.41.44S295.25,446.11,295.19,446Z" style="fill:#e0e0e0"></path><path d="M298,445.42a.26.26,0,0,1,.07-.35.25.25,0,0,1,.33.11.24.24,0,0,1-.07.34A.24.24,0,0,1,298,445.42Z" style="fill:#e0e0e0"></path><path d="M293.85,448.73a.24.24,0,0,1,.14-.32.25.25,0,0,1,.29.19.24.24,0,0,1-.14.31A.24.24,0,0,1,293.85,448.73Z" style="fill:#e0e0e0"></path><path d="M214.54,449.94c0-1.86,2.44-3.36,5.44-3.35s5.43,1.52,5.43,3.39-2.44,3.36-5.45,3.35S214.53,451.81,214.54,449.94Z" style="fill:#FF7010"></path><path d="M218.21,448.17c-.06-.13,0-.31.23-.39a.33.33,0,0,1,.44.09c.06.13,0,.3-.23.39S218.27,448.3,218.21,448.17Z" style="fill:#e0e0e0"></path><path d="M217.87,449.71a.29.29,0,1,1,.38.07A.27.27,0,0,1,217.87,449.71Z" style="fill:#e0e0e0"></path><path d="M216.09,449.64a.27.27,0,0,1,.37-.4.26.26,0,0,1,0,.37A.27.27,0,0,1,216.09,449.64Z" style="fill:#e0e0e0"></path><path d="M221.67,450.56a.28.28,0,0,1,.51-.23.28.28,0,0,1-.51.23Z" style="fill:#e0e0e0"></path><path d="M218.7,451.36a.29.29,0,0,1,.18-.37.28.28,0,0,1,.39.1.29.29,0,0,1-.17.37A.3.3,0,0,1,218.7,451.36Z" style="fill:#e0e0e0"></path><path d="M216.49,451.08a.24.24,0,0,1,.09-.31c.11,0,.23,0,.28.18a.24.24,0,0,1-.1.31C216.66,451.3,216.54,451.22,216.49,451.08Z" style="fill:#e0e0e0"></path><path d="M220.58,452.32c-.06-.13.09-.33.34-.45s.51-.12.57,0-.09.34-.34.46S220.65,452.45,220.58,452.32Z" style="fill:#e0e0e0"></path><path d="M223.9,451.07a.28.28,0,0,1,.19-.33.27.27,0,0,1,.35.17.27.27,0,0,1-.19.33A.28.28,0,0,1,223.9,451.07Z" style="fill:#e0e0e0"></path><path d="M223.74,449.26a.27.27,0,0,1,.11-.36.26.26,0,0,1,.36.1.27.27,0,0,1-.1.36A.27.27,0,0,1,223.74,449.26Z" style="fill:#e0e0e0"></path><path d="M221,448a.31.31,0,0,1,.21-.38c.18-.08.37-.05.43.08a.37.37,0,0,1-.64.3Z" style="fill:#e0e0e0"></path><path d="M219.54,449.54c0-.13.13-.33.41-.44s.54-.1.6,0-.13.33-.41.44S219.6,449.68,219.54,449.54Z" style="fill:#e0e0e0"></path><path d="M222.33,449a.25.25,0,0,1,.07-.34.25.25,0,0,1,.33.11.23.23,0,1,1-.4.23Z" style="fill:#e0e0e0"></path><path d="M218.2,452.3a.25.25,0,0,1,.14-.32.25.25,0,0,1,.29.19.23.23,0,1,1-.43.13Z" style="fill:#e0e0e0"></path><path d="M278,452.17c0-1.36,2.18-2.45,4.86-2.44s4.86,1.11,4.85,2.47-2.18,2.45-4.86,2.44S278,453.52,278,452.17Z" style="fill:#FF7010"></path><path d="M281.25,450.88a.31.31,0,0,1,.22-.36.3.3,0,0,1,.39.14.33.33,0,0,1-.61.22Z" style="fill:#e0e0e0"></path><path d="M281,452a.26.26,0,0,1,.11-.34.25.25,0,0,1,.34.12.27.27,0,0,1-.11.35A.26.26,0,0,1,281,452Z" style="fill:#e0e0e0"></path><path d="M279.36,452a.24.24,0,0,1,0-.34.23.23,0,0,1,.33,0,.25.25,0,0,1,0,.35A.25.25,0,0,1,279.36,452Z" style="fill:#e0e0e0"></path><path d="M284.35,452.62a.24.24,0,1,1,.45-.17.24.24,0,0,1-.13.33A.25.25,0,0,1,284.35,452.62Z" style="fill:#e0e0e0"></path><path d="M281.7,453.2a.27.27,0,0,1,.51-.2.28.28,0,0,1-.16.35A.27.27,0,0,1,281.7,453.2Z" style="fill:#e0e0e0"></path><path d="M279.72,453c0-.14,0-.27.09-.3s.2.06.24.2,0,.27-.09.3S279.76,453.14,279.72,453Z" style="fill:#e0e0e0"></path><path d="M283.38,453.9c-.05-.14.09-.31.31-.4s.45-.05.5.08-.09.32-.31.4S283.43,454,283.38,453.9Z" style="fill:#e0e0e0"></path><path d="M286.35,453a.24.24,0,0,1,.17-.31.26.26,0,0,1,.31.19.27.27,0,0,1-.18.32A.26.26,0,0,1,286.35,453Z" style="fill:#e0e0e0"></path><path d="M286.2,451.68a.26.26,0,0,1,.11-.34.24.24,0,0,1,.31.14.25.25,0,0,1-.1.34A.25.25,0,0,1,286.2,451.68Z" style="fill:#e0e0e0"></path><path d="M283.72,450.78a.29.29,0,0,1,.19-.36.28.28,0,0,1,.38.14.31.31,0,0,1-.57.22Z" style="fill:#e0e0e0"></path><path d="M282.45,451.88c0-.14.12-.31.37-.4s.48,0,.53.1-.12.32-.37.4S282.5,452,282.45,451.88Z" style="fill:#e0e0e0"></path><path d="M284.94,451.47a.24.24,0,0,1,.07-.32.25.25,0,0,1,.29.16.24.24,0,0,1-.07.32A.25.25,0,0,1,284.94,451.47Z" style="fill:#e0e0e0"></path><path d="M281.25,453.88a.23.23,0,0,1,.13-.3.25.25,0,0,1,.26.21.24.24,0,0,1-.14.3C281.4,454.12,281.28,454,281.25,453.88Z" style="fill:#e0e0e0"></path><path d="M260.75,455.34c0-1.36,2.18-2.45,4.86-2.44s4.86,1.11,4.85,2.47-2.18,2.45-4.86,2.44S260.74,456.69,260.75,455.34Z" style="fill:#FF7010"></path><path d="M264,454.05a.32.32,0,0,1,.6-.22.3.3,0,0,1-.22.35A.29.29,0,0,1,264,454.05Z" style="fill:#e0e0e0"></path><path d="M263.72,455.17a.26.26,0,0,1,.11-.34.25.25,0,0,1,.34.12.24.24,0,0,1-.11.34A.25.25,0,0,1,263.72,455.17Z" style="fill:#e0e0e0"></path><path d="M262.13,455.12a.25.25,0,0,1,0-.35.24.24,0,0,1,.33.05.25.25,0,0,1,0,.35A.25.25,0,0,1,262.13,455.12Z" style="fill:#e0e0e0"></path><path d="M267.12,455.79a.25.25,0,0,1,.14-.33.25.25,0,0,1,.31.16.24.24,0,0,1-.13.33A.26.26,0,0,1,267.12,455.79Z" style="fill:#e0e0e0"></path><path d="M264.47,456.37a.27.27,0,1,1,.35.14A.26.26,0,0,1,264.47,456.37Z" style="fill:#e0e0e0"></path><path d="M262.49,456.17c0-.14,0-.27.09-.3s.2.06.24.2,0,.27-.09.3S262.53,456.3,262.49,456.17Z" style="fill:#e0e0e0"></path><path d="M266.15,457.07c0-.14.09-.31.31-.4s.45-.05.5.08-.08.32-.31.4S266.2,457.2,266.15,457.07Z" style="fill:#e0e0e0"></path><path d="M269.12,456.16a.24.24,0,0,1,.18-.31.25.25,0,0,1,.3.19.27.27,0,0,1-.18.32A.26.26,0,0,1,269.12,456.16Z" style="fill:#e0e0e0"></path><path d="M269,454.85a.26.26,0,0,1,.11-.34.25.25,0,0,1,.32.14.26.26,0,0,1-.11.34A.25.25,0,0,1,269,454.85Z" style="fill:#e0e0e0"></path><path d="M266.49,453.94a.31.31,0,0,1,.57-.21.29.29,0,0,1-.19.35A.28.28,0,0,1,266.49,453.94Z" style="fill:#e0e0e0"></path><path d="M265.22,455.05c0-.14.12-.31.37-.4s.48,0,.53.1-.12.32-.37.4S265.27,455.19,265.22,455.05Z" style="fill:#e0e0e0"></path><path d="M267.71,454.64a.24.24,0,0,1,.07-.32.24.24,0,0,1,.29.15c.06.13,0,.28-.07.32A.23.23,0,0,1,267.71,454.64Z" style="fill:#e0e0e0"></path><path d="M264,457.05a.23.23,0,0,1,.13-.3.25.25,0,0,1,.26.21.21.21,0,1,1-.39.09Z" style="fill:#e0e0e0"></path><path d="M269,447.32c0-1.36,2.18-2.45,4.86-2.44s4.86,1.11,4.86,2.47-2.19,2.45-4.87,2.44S269,448.68,269,447.32Z" style="fill:#FF7010"></path><path d="M272.32,446a.28.28,0,0,1,.21-.35.27.27,0,1,1-.21.35Z" style="fill:#e0e0e0"></path><path d="M272,447.15a.25.25,0,0,1,.12-.34.24.24,0,0,1,.33.12.25.25,0,0,1-.11.35A.26.26,0,0,1,272,447.15Z" style="fill:#e0e0e0"></path><path d="M270.42,447.1a.23.23,0,1,1,.34,0A.25.25,0,0,1,270.42,447.1Z" style="fill:#e0e0e0"></path><path d="M275.42,447.77a.26.26,0,0,1,.13-.33.27.27,0,0,1,.32.16.25.25,0,0,1-.14.33A.24.24,0,0,1,275.42,447.77Z" style="fill:#e0e0e0"></path><path d="M272.76,448.35a.27.27,0,0,1,.51-.19.27.27,0,0,1-.16.34A.28.28,0,0,1,272.76,448.35Z" style="fill:#e0e0e0"></path><path d="M270.78,448.15c0-.14,0-.27.09-.3s.2.06.24.2,0,.27-.09.3S270.82,448.29,270.78,448.15Z" style="fill:#e0e0e0"></path><path d="M274.44,449.05c-.05-.13.09-.31.31-.4s.45,0,.5.09-.08.31-.31.4S274.5,449.18,274.44,449.05Z" style="fill:#e0e0e0"></path><path d="M277.41,448.15a.26.26,0,0,1,.18-.32.26.26,0,1,1-.18.32Z" style="fill:#e0e0e0"></path><path d="M277.27,446.83a.23.23,0,1,1,.42-.19.23.23,0,1,1-.42.19Z" style="fill:#e0e0e0"></path><path d="M274.78,445.93a.29.29,0,0,1,.19-.36.27.27,0,1,1,.19.49A.29.29,0,0,1,274.78,445.93Z" style="fill:#e0e0e0"></path><path d="M273.51,447c0-.14.12-.31.37-.39s.49,0,.53.1-.12.31-.37.39S273.56,447.17,273.51,447Z" style="fill:#e0e0e0"></path><path d="M276,446.63c-.06-.13,0-.28.07-.32a.23.23,0,0,1,.29.15.23.23,0,0,1-.06.32A.26.26,0,0,1,276,446.63Z" style="fill:#e0e0e0"></path><path d="M272.31,449a.25.25,0,0,1,.13-.31.27.27,0,0,1,.13.51A.24.24,0,0,1,272.31,449Z" style="fill:#e0e0e0"></path><path d="M237.4,449c0-1.36,2.18-2.45,4.87-2.44s4.85,1.11,4.85,2.47-2.18,2.44-4.87,2.44S237.4,450.34,237.4,449Z" style="fill:#FF7010"></path><path d="M240.68,447.7a.33.33,0,1,1,.39.13A.3.3,0,0,1,240.68,447.7Z" style="fill:#e0e0e0"></path><path d="M240.38,448.82a.25.25,0,0,1,.11-.35.26.26,0,0,1,.34.13.25.25,0,0,1-.12.34A.24.24,0,0,1,240.38,448.82Z" style="fill:#e0e0e0"></path><path d="M238.79,448.76a.24.24,0,0,1,0-.34.25.25,0,0,1,.34.05.24.24,0,0,1,0,.34A.23.23,0,0,1,238.79,448.76Z" style="fill:#e0e0e0"></path><path d="M243.78,449.44a.25.25,0,0,1,.13-.33.25.25,0,0,1,.32.16.26.26,0,0,1-.13.33A.26.26,0,0,1,243.78,449.44Z" style="fill:#e0e0e0"></path><path d="M241.12,450a.26.26,0,0,1,.17-.34.25.25,0,0,1,.34.14.27.27,0,0,1-.51.2Z" style="fill:#e0e0e0"></path><path d="M239.14,449.82c0-.14,0-.28.1-.3s.19.06.23.2,0,.27-.09.3S239.18,450,239.14,449.82Z" style="fill:#e0e0e0"></path><path d="M242.81,450.72c-.06-.14.08-.32.31-.4s.44-.05.5.08-.09.32-.31.4S242.86,450.85,242.81,450.72Z" style="fill:#e0e0e0"></path><path d="M245.77,449.81a.26.26,0,0,1,.18-.31.25.25,0,0,1,.3.19.24.24,0,0,1-.17.31A.25.25,0,0,1,245.77,449.81Z" style="fill:#e0e0e0"></path><path d="M245.63,448.5a.23.23,0,1,1,.42-.2.26.26,0,0,1-.1.34A.25.25,0,0,1,245.63,448.5Z" style="fill:#e0e0e0"></path><path d="M243.14,447.59a.29.29,0,0,1,.19-.35.27.27,0,1,1-.19.35Z" style="fill:#e0e0e0"></path><path d="M241.87,448.7c0-.14.12-.32.37-.4s.49,0,.53.1-.12.32-.36.4S241.92,448.83,241.87,448.7Z" style="fill:#e0e0e0"></path><path d="M244.37,448.29a.24.24,0,0,1,.07-.32.24.24,0,0,1,.29.15c.06.13,0,.28-.07.32A.23.23,0,0,1,244.37,448.29Z" style="fill:#e0e0e0"></path><path d="M240.67,450.7a.25.25,0,0,1,.13-.3c.11,0,.23.07.26.21a.23.23,0,0,1-.13.3A.25.25,0,0,1,240.67,450.7Z" style="fill:#e0e0e0"></path><path d="M229,454.34c0-1.35,2.18-2.45,4.86-2.44s4.86,1.11,4.85,2.47-2.18,2.45-4.86,2.44S229,455.7,229,454.34Z" style="fill:#FF7010"></path><path d="M232.29,453.05a.29.29,0,0,1,.21-.35.27.27,0,1,1,.17.49A.28.28,0,0,1,232.29,453.05Z" style="fill:#e0e0e0"></path><path d="M232,454.17a.25.25,0,1,1,.45-.21.24.24,0,0,1-.11.34A.26.26,0,0,1,232,454.17Z" style="fill:#e0e0e0"></path><path d="M230.39,454.12a.24.24,0,0,1,0-.34.23.23,0,0,1,.33.05.24.24,0,0,1,0,.34A.25.25,0,0,1,230.39,454.12Z" style="fill:#e0e0e0"></path><path d="M235.38,454.79a.24.24,0,0,1,.14-.32.26.26,0,0,1,.32.15.25.25,0,0,1-.14.33A.25.25,0,0,1,235.38,454.79Z" style="fill:#e0e0e0"></path><path d="M232.73,455.37a.27.27,0,0,1,.51-.19.27.27,0,0,1-.51.19Z" style="fill:#e0e0e0"></path><path d="M230.75,455.17c0-.14,0-.27.09-.3s.2.07.24.2,0,.28-.09.3S230.79,455.31,230.75,455.17Z" style="fill:#e0e0e0"></path><path d="M234.41,456.07c0-.13.09-.31.31-.4s.45-.05.5.09-.08.31-.31.4S234.46,456.21,234.41,456.07Z" style="fill:#e0e0e0"></path><path d="M237.38,455.17a.26.26,0,0,1,.18-.32.26.26,0,0,1,.3.2.26.26,0,0,1-.18.31A.25.25,0,0,1,237.38,455.17Z" style="fill:#e0e0e0"></path><path d="M237.23,453.85a.24.24,0,0,1,.11-.33.25.25,0,0,1,.32.14.24.24,0,0,1-.11.33A.25.25,0,0,1,237.23,453.85Z" style="fill:#e0e0e0"></path><path d="M234.75,453a.28.28,0,0,1,.19-.35.26.26,0,1,1-.19.35Z" style="fill:#e0e0e0"></path><path d="M233.48,454.05c0-.13.12-.31.37-.39s.48,0,.53.1-.12.31-.37.39S233.53,454.19,233.48,454.05Z" style="fill:#e0e0e0"></path><path d="M236,453.65a.24.24,0,0,1,.07-.32.23.23,0,0,1,.29.15.24.24,0,0,1-.07.32A.23.23,0,0,1,236,453.65Z" style="fill:#e0e0e0"></path><path d="M232.28,456.06a.23.23,0,0,1,.13-.3c.11,0,.22.06.26.2s0,.28-.13.3A.23.23,0,0,1,232.28,456.06Z" style="fill:#e0e0e0"></path><path d="M249.2,451.46c0-1.35,2.18-2.45,4.87-2.44s4.85,1.11,4.85,2.47-2.19,2.45-4.87,2.44S249.2,452.82,249.2,451.46Z" style="fill:#FF7010"></path><path d="M252.48,450.17a.29.29,0,0,1,.21-.35.3.3,0,0,1,.39.13.3.3,0,0,1-.21.36A.29.29,0,0,1,252.48,450.17Z" style="fill:#e0e0e0"></path><path d="M252.17,451.29a.25.25,0,0,1,.12-.34.26.26,0,0,1,.34.13.25.25,0,0,1-.12.34A.26.26,0,0,1,252.17,451.29Z" style="fill:#e0e0e0"></path><path d="M250.59,451.24a.24.24,0,0,1,0-.34.26.26,0,0,1,.34.39A.23.23,0,0,1,250.59,451.24Z" style="fill:#e0e0e0"></path><path d="M255.58,451.91a.24.24,0,0,1,.13-.32.26.26,0,0,1,.18.48A.24.24,0,0,1,255.58,451.91Z" style="fill:#e0e0e0"></path><path d="M252.92,452.49a.27.27,0,0,1,.51-.19.27.27,0,0,1-.51.19Z" style="fill:#e0e0e0"></path><path d="M250.94,452.29c0-.14,0-.27.09-.3s.2.07.24.2,0,.28-.09.3S251,452.43,250.94,452.29Z" style="fill:#e0e0e0"></path><path d="M254.6,453.19c0-.13.09-.31.32-.4s.44-.05.5.09-.09.31-.32.4S254.66,453.33,254.6,453.19Z" style="fill:#e0e0e0"></path><path d="M257.57,452.29a.27.27,0,0,1,.18-.32.26.26,0,0,1,.3.2.24.24,0,0,1-.18.31A.25.25,0,0,1,257.57,452.29Z" style="fill:#e0e0e0"></path><path d="M257.43,451a.24.24,0,0,1,.1-.33.24.24,0,0,1,.32.14.25.25,0,0,1-.1.33A.25.25,0,0,1,257.43,451Z" style="fill:#e0e0e0"></path><path d="M254.94,450.07a.31.31,0,0,1,.57-.22.28.28,0,0,1-.19.35A.29.29,0,0,1,254.94,450.07Z" style="fill:#e0e0e0"></path><path d="M253.67,451.17c0-.13.12-.31.37-.39s.49,0,.53.1-.12.31-.37.39S253.72,451.31,253.67,451.17Z" style="fill:#e0e0e0"></path><path d="M256.17,450.77a.24.24,0,0,1,.06-.32c.1-.05.23,0,.3.15a.24.24,0,0,1-.07.32A.23.23,0,0,1,256.17,450.77Z" style="fill:#e0e0e0"></path><path d="M252.47,453.18c0-.14,0-.28.13-.3a.23.23,0,0,1,.26.2.23.23,0,0,1-.13.3A.23.23,0,0,1,252.47,453.18Z" style="fill:#e0e0e0"></path></g></svg>