<svg xmlns="http://www.w3.org/2000/svg" viewBox="0 0 500 500"><g id="freepik--background-complete--inject-36"><rect x="25.18" y="317.28" width="26.33" height="26.83" style="fill:#f5f5f5"></rect><rect x="56.08" y="317.28" width="26.33" height="26.83" style="fill:#f5f5f5"></rect><rect x="87.78" y="317.28" width="26.33" height="26.83" style="fill:#f5f5f5"></rect><rect x="119.47" y="317.28" width="26.33" height="26.83" style="fill:#f5f5f5"></rect><rect x="151.16" y="317.28" width="26.33" height="26.83" style="fill:#f5f5f5"></rect><rect x="182.85" y="317.28" width="26.33" height="26.83" style="fill:#f5f5f5"></rect><rect x="214.55" y="317.28" width="26.33" height="26.83" style="fill:#f5f5f5"></rect><rect x="246.24" y="317.28" width="26.33" height="26.83" style="fill:#f5f5f5"></rect><rect x="277.93" y="317.28" width="26.33" height="26.83" style="fill:#f5f5f5"></rect><rect x="309.63" y="317.28" width="26.33" height="26.83" style="fill:#f5f5f5"></rect><rect x="341.32" y="317.28" width="26.33" height="26.83" style="fill:#f5f5f5"></rect><rect x="374.37" y="317.28" width="26.33" height="26.83" style="fill:#f5f5f5"></rect><rect x="405.27" y="317.28" width="26.33" height="26.83" style="fill:#f5f5f5"></rect><rect x="436.96" y="317.28" width="26.33" height="26.83" style="fill:#f5f5f5"></rect><rect x="468.65" y="317.28" width="26.33" height="26.83" style="fill:#f5f5f5"></rect><rect x="25.18" y="284.81" width="26.33" height="26.83" style="fill:#f5f5f5"></rect><rect x="56.08" y="284.81" width="26.33" height="26.83" style="fill:#f5f5f5"></rect><rect x="87.78" y="284.81" width="26.33" height="26.83" style="fill:#f5f5f5"></rect><rect x="119.47" y="284.81" width="26.33" height="26.83" style="fill:#f5f5f5"></rect><rect x="151.16" y="284.81" width="26.33" height="26.83" style="fill:#f5f5f5"></rect><rect x="182.85" y="284.81" width="26.33" height="26.83" style="fill:#f5f5f5"></rect><rect x="214.55" y="284.81" width="26.33" height="26.83" style="fill:#f5f5f5"></rect><rect x="246.24" y="284.81" width="26.33" height="26.83" style="fill:#f5f5f5"></rect><rect x="277.93" y="284.81" width="26.33" height="26.83" style="fill:#f5f5f5"></rect><rect x="309.63" y="284.81" width="26.33" height="26.83" style="fill:#f5f5f5"></rect><rect x="341.32" y="284.81" width="26.33" height="26.83" style="fill:#f5f5f5"></rect><rect x="374.37" y="284.81" width="26.33" height="26.83" style="fill:#f5f5f5"></rect><rect x="405.27" y="284.81" width="26.33" height="26.83" style="fill:#f5f5f5"></rect><rect x="436.96" y="284.81" width="26.33" height="26.83" style="fill:#f5f5f5"></rect><rect x="468.65" y="284.81" width="26.33" height="26.83" style="fill:#f5f5f5"></rect><path d="M162.46,100.22a1.47,1.47,0,0,1-.32-.23l-.9-.72-3.4-2.81L145.36,86,104.31,51.49h.33l-.11.1c-15.91,13.7-30.39,26-40.95,34.83C58.3,90.82,54,94.35,51,96.74s-4.78,3.61-4.85,3.48a3,3,0,0,1,.34-.2c.2-.15.53-.36.92-.68.81-.6,2-1.54,3.46-2.76,3-2.43,7.24-6,12.49-10.45,10.5-8.89,24.94-21.25,40.85-34.95l.11-.09.17-.15.17.15,41,34.66L158,96.3l3.34,2.89.86.76A3.33,3.33,0,0,1,162.46,100.22Z" style="fill:#e0e0e0"></path><rect x="46.13" y="100.22" width="116.33" height="116.33" style="fill:#f5f5f5"></rect><rect x="34.94" y="99.16" width="138.7" height="4.71" rx="1.99" style="fill:#e0e0e0"></rect><rect x="34.94" y="214.42" width="138.7" height="4.71" rx="1.99" style="fill:#e0e0e0"></rect><path d="M62.19,193.93a5.13,5.13,0,0,1,1.29-.22,5.9,5.9,0,0,1,1.27.08,4.05,4.05,0,0,1,1.13.37,17.41,17.41,0,0,0,4.93,1.57,3.43,3.43,0,0,0,2.87-.56.4.4,0,0,0,.07-.62,3.16,3.16,0,0,0-.9-.76c-.43-.26-1-.55-1.59-.85l-2-.95-2.09-1a18.46,18.46,0,0,1-1.93-1.11,9.73,9.73,0,0,1-1.73-1.4,7,7,0,0,1-1.3-1.8,6.71,6.71,0,0,1-.67-2.17,7.39,7.39,0,0,1,.09-2.51,10.93,10.93,0,0,1,.71-2.45,17.84,17.84,0,0,1,1.33-2.61,18.5,18.5,0,0,1,1.79-2.45,15.36,15.36,0,0,1,2.07-2,7.52,7.52,0,0,1,1-.68,5.81,5.81,0,0,1,1.31-.56,7.82,7.82,0,0,1,1.62-.27,8.19,8.19,0,0,1,1.88.13,24.21,24.21,0,0,1,3,.91,10.2,10.2,0,0,1,2.59,1.38A4.93,4.93,0,0,1,80,174.45a4.71,4.71,0,0,1,.61,1.11,4.57,4.57,0,0,1,.29,1.08c0,.35.1.69.14,1,0,.58,0,1.22-.1,1.92s-.17,1.41-.28,2.13-.24,1.4-.4,2.07a15.63,15.63,0,0,1-.51,1.74,1.6,1.6,0,0,1-.68.89,1.68,1.68,0,0,1-1.17,0c-3-.69-4.52-1.93-4.51-3.72a7.45,7.45,0,0,1,.06-1.29l.18-1.48q.09-.73.15-1.41a3.57,3.57,0,0,0,0-1.08q-.09-.41-.36-.45c-.17,0-.45.13-.82.46a6.61,6.61,0,0,0-1,1,12,12,0,0,0-1.08,1.46,9.9,9.9,0,0,0-.87,1.72,6,6,0,0,0-.42,1.8,4.18,4.18,0,0,0,.23,1.69,2.76,2.76,0,0,0,1.1,1.36,16.52,16.52,0,0,0,2.25,1.4c.81.42,1.63.83,2.44,1.22s1.58.78,2.31,1.17a8.88,8.88,0,0,1,1.83,1.26,3.54,3.54,0,0,1,1,1.48,2.5,2.5,0,0,1-.14,1.78,8.4,8.4,0,0,1-.73,1.54,6.25,6.25,0,0,1-1.37,1.6,9.22,9.22,0,0,1-2.2,1.38,11.53,11.53,0,0,1-3.24.86,12.59,12.59,0,0,1-5.1-.33A16.85,16.85,0,0,1,62.16,197c-1-.68-1.55-1.22-1.64-1.6a1.07,1.07,0,0,1,.49-1A5.84,5.84,0,0,1,62.19,193.93Z" style="fill:#e0e0e0"></path><path d="M81.8,192.43a18.71,18.71,0,0,1-.7-3.37,33.26,33.26,0,0,1-.2-4c0-1.4.07-2.84.18-4.3s.26-2.93.45-4.41.39-2.92.61-4.33a1.57,1.57,0,0,1,.62-1.21,2.48,2.48,0,0,1,1.54,0,11.47,11.47,0,0,1,1.93.53,12.56,12.56,0,0,1,1.83.85,2.75,2.75,0,0,1,1.55,3.06c-.21,1.15-.42,2.39-.65,3.73s-.42,2.68-.58,4-.29,2.68-.37,4a28.42,28.42,0,0,0,0,3.44,8.59,8.59,0,0,0,.45,2.47A1.45,1.45,0,0,0,89.52,194c.59.08,1.13-.26,1.6-1a12.08,12.08,0,0,0,1.24-3.11,42.38,42.38,0,0,0,.94-4.5q.4-2.55.69-5.22c.19-1.78.35-3.54.47-5.26s.24-3.26.34-4.61q0-1,.57-1.23a2.87,2.87,0,0,1,1.56-.13,10.17,10.17,0,0,1,2,.54c.73.27,1.41.54,2,.82a4,4,0,0,1,.75.44,1.47,1.47,0,0,1,.39.46,1.12,1.12,0,0,1,.13.55,5.11,5.11,0,0,1,0,.74q-.43,4.68-1,8.62a66.84,66.84,0,0,1-1.28,7,24.92,24.92,0,0,1-1.79,5.2,7,7,0,0,1-4.66,4.22,10.31,10.31,0,0,1-2.55.41,11.28,11.28,0,0,1-4.87-.66,9.51,9.51,0,0,1-1.63-.88A5.64,5.64,0,0,1,83.09,195,8.47,8.47,0,0,1,81.8,192.43Z" style="fill:#e0e0e0"></path><path d="M103,189.07a6.87,6.87,0,0,1,1.27-.21,5.17,5.17,0,0,1,1.25.06,4.05,4.05,0,0,1,1.13.37,17,17,0,0,0,5,1.63,3.37,3.37,0,0,0,2.88-.6.42.42,0,0,0,.1-.64,3.27,3.27,0,0,0-.89-.76c-.44-.27-1-.56-1.6-.88s-1.3-.64-2-1-1.41-.68-2.13-1a18.38,18.38,0,0,1-1.94-1.12,8.67,8.67,0,0,1-1.77-1.43,7.58,7.58,0,0,1-1.3-1.84,7.18,7.18,0,0,1-.68-2.19,7.6,7.6,0,0,1,.1-2.54,10.41,10.41,0,0,1,.69-2.54,17.54,17.54,0,0,1,1.34-2.67,19,19,0,0,1,1.82-2.48,16.88,16.88,0,0,1,2.11-2,5.92,5.92,0,0,1,.93-.67,5.38,5.38,0,0,1,1.33-.56,7.49,7.49,0,0,1,1.65-.27,7.8,7.8,0,0,1,1.9.12,22,22,0,0,1,3,.94,12.07,12.07,0,0,1,2.64,1.38,5.39,5.39,0,0,1,1.13,1.1,4.71,4.71,0,0,1,.63,1.12,6,6,0,0,1,.3,1.12c0,.37.1.72.13,1,0,.56-.06,1.2-.13,1.93s-.16,1.45-.28,2.2-.25,1.47-.4,2.15a11.52,11.52,0,0,1-.49,1.75,2,2,0,0,1-.69.9,1.59,1.59,0,0,1-1.22,0q-4.55-1-4.52-3.76a11.56,11.56,0,0,1,.09-1.34l.18-1.52c.06-.52.1-1,.14-1.46a3.88,3.88,0,0,0,0-1.08c-.06-.27-.19-.41-.37-.45s-.47.13-.84.47a6.63,6.63,0,0,0-1.1,1,11.44,11.44,0,0,0-1.09,1.49,10,10,0,0,0-.85,1.74,6.3,6.3,0,0,0-.41,1.81,4.33,4.33,0,0,0,.24,1.72,2.91,2.91,0,0,0,1.1,1.41,15.66,15.66,0,0,0,2.27,1.44c.83.44,1.65.85,2.47,1.26s1.58.8,2.31,1.2a9.32,9.32,0,0,1,1.83,1.28,3.5,3.5,0,0,1,1,1.49,2.63,2.63,0,0,1-.13,1.83,9.49,9.49,0,0,1-.72,1.56,6.75,6.75,0,0,1-1.37,1.63,9,9,0,0,1-2.21,1.39,11.55,11.55,0,0,1-3.23.86,12.47,12.47,0,0,1-5.15-.34,16.76,16.76,0,0,1-5.43-2.84c-1-.68-1.59-1.23-1.69-1.65a.9.9,0,0,1,.5-1A4.9,4.9,0,0,1,103,189.07Z" style="fill:#e0e0e0"></path><path d="M142.66,172.86c-.37,2-.73,4.16-1.07,6.31s-.67,4.31-1,6.44-.57,4.1-.79,5.92a.62.62,0,0,1-.17.62,1.13,1.13,0,0,1-.64.21,5,5,0,0,1-1-.05l-1.24-.16a6.37,6.37,0,0,1-2.15-.71,1.52,1.52,0,0,1-.65-1.66c0-.78,0-1.68.08-2.7s.12-2.16.21-3.43l-2.59.68c-.85.22-1.72.45-2.59.7-.17,1.52-.29,2.93-.35,4.24s-.13,2.5-.18,3.54a1.05,1.05,0,0,1-.32.75,1.72,1.72,0,0,1-1.1.1l-1.7-.26a5.7,5.7,0,0,1-1.52-.41,2.5,2.5,0,0,1-1.15-.69,1.58,1.58,0,0,1-.28-1.28c.15-1.51.25-3.26.29-5.25s.08-4.07.09-6.24,0-4.31,0-6.46,0-4.14.07-6c.09-.7.29-1.14.6-1.3a2,2,0,0,1,1.42,0,19.22,19.22,0,0,1,2.28.52,13,13,0,0,1,2.16.84,4.75,4.75,0,0,1,.81.46,1.76,1.76,0,0,1,.45.46,1.17,1.17,0,0,1,.14.57,5.17,5.17,0,0,1,0,.75c-.2,1.26-.39,2.72-.57,4.41s-.38,3.49-.59,5.42q1.32-.31,2.61-.57l2.49-.48c.27-2.32.52-4.63.77-6.91s.5-4.37.78-6.24c.11-.7.34-1.12.68-1.26a3,3,0,0,1,1.53,0,12.81,12.81,0,0,1,2,.5,16,16,0,0,1,2,.82,2.91,2.91,0,0,1,1.13.94,2,2,0,0,1,.06,1.28C143.37,169,143,170.81,142.66,172.86Z" style="fill:#e0e0e0"></path><path d="M152.68,165.54a2.18,2.18,0,0,1,.1,1.31c-.18,1-.38,2.13-.59,3.41s-.41,2.63-.6,4-.37,2.87-.55,4.34-.34,2.93-.5,4.34-.3,2.75-.42,4-.23,2.38-.31,3.36a1.2,1.2,0,0,1-.35.76,1.79,1.79,0,0,1-1.11.09c-.57-.08-1.12-.17-1.63-.26a8,8,0,0,1-1.49-.41,2,2,0,0,1-1.07-.7,2.26,2.26,0,0,1-.3-1.28c0-.75-.06-1.73-.06-2.93s0-2.51.06-3.94.09-2.94.17-4.53.16-3.14.25-4.66.2-3,.32-4.34.25-2.56.36-3.59a1.64,1.64,0,0,1,.66-1.22,2.36,2.36,0,0,1,1.49-.1,14.69,14.69,0,0,1,2.23.52,13.55,13.55,0,0,1,2.15.86A2.75,2.75,0,0,1,152.68,165.54Z" style="fill:#e0e0e0"></path><path d="M97.1,151a58.89,58.89,0,0,1,5-6.26,6.37,6.37,0,0,1-.61-.23,9,9,0,0,1-3.09-2.09c-1.46-1.57-1.69-2.93-1.46-3s1,.86,2.44,1.91a9.6,9.6,0,0,0,4.37,1.75c.07-.07.13-.15.21-.22a23.12,23.12,0,0,1,4.4-3.34,16.38,16.38,0,0,1,4.64-1.76c.21-.32.36-.5.49-.47s.12.14.15.35a25,25,0,0,1,8.21,0c1.58.24,2.94.53,4.07.8l-.22-4.59c-1.25-.35-2.77-.75-4.55-1.09-1.08-.21-2.26-.4-3.52-.54a7.66,7.66,0,0,1,1.29,1.58c.83,1.4.9,2.41.65,2.52s-.83-.64-1.81-1.61a6.77,6.77,0,0,0-4.38-2.16,4.27,4.27,0,0,0-2.43.59,6.5,6.5,0,0,0-1.64,1.52c-.84,1.1-1.32,1.93-1.61,1.83s-.29-1.07.34-2.57a6.39,6.39,0,0,1,1-1.57,24.44,24.44,0,0,0-7.54,2.41c.09.14.18.28.25.41.74,1.37.92,2.29.69,2.44s-.92-.55-1.88-1.57q-.22-.24-.48-.48a31,31,0,0,0-8,7.22,53.25,53.25,0,0,0-5.16,7.93c-1,1.76-1.73,3.29-2.34,4.52l0,1.13a4.54,4.54,0,0,0,4.75,4.32l1.9-.09c.37-.68.79-1.42,1.24-2.22C93.71,156.27,95.22,153.73,97.1,151Z" style="fill:#ebebeb"></path><path d="M118.36,152.21a25.36,25.36,0,0,0-5.7,7.09l-.18.34,9.85-.46a4.53,4.53,0,0,0,4.32-4.74l-.28-6A17.15,17.15,0,0,0,118.36,152.21Z" style="fill:#ebebeb"></path><path d="M104.06,143l-.12.13a7.81,7.81,0,0,0,1.87,0,9.34,9.34,0,0,0,5.79-3.34,15.35,15.35,0,0,0,1.27-1.81,15.87,15.87,0,0,0-4.44,1.72A23.4,23.4,0,0,0,104.06,143Z" style="fill:#ebebeb"></path><path d="M106.62,153.51a30.06,30.06,0,0,1,5.22-5.73,20,20,0,0,1,6.75-3.79,22.49,22.49,0,0,1,6.26-1c.44,0,.87,0,1.27,0l-.21-4.42c-1.13-.26-2.5-.55-4.09-.78a25.45,25.45,0,0,0-8.18,0,5.68,5.68,0,0,1-.81,2.79,9,9,0,0,1-2.46,2.81,9.2,9.2,0,0,1-4.29,1.78,9.35,9.35,0,0,1-3.81-.35,59,59,0,0,0-5,6.29c-1.88,2.67-3.39,5.21-4.64,7.34-.45.77-.86,1.49-1.24,2.16l11.33-.53.63-1.19A55.43,55.43,0,0,1,106.62,153.51Z" style="fill:#ebebeb"></path><path d="M118.25,152.09a16.8,16.8,0,0,1,8.12-3.77l-.25-5.23c-.4,0-.82,0-1.27,0a22.19,22.19,0,0,0-6.21,1A20.09,20.09,0,0,0,112,147.9a30.09,30.09,0,0,0-5.2,5.7,53.94,53.94,0,0,0-3.34,5.37c-.22.39-.42.77-.61,1.12l9.55-.44.21-.41A24.57,24.57,0,0,1,118.25,152.09Z" style="fill:#ebebeb"></path><path d="M124.59,119.52a4.55,4.55,0,0,0-4.22-2.41l-2.1.1c1,.32,2,.66,2.92,1C122.47,118.67,123.6,119.12,124.59,119.52Z" style="fill:#ebebeb"></path><path d="M91.91,142.72a31,31,0,0,1,8-7.24,7.29,7.29,0,0,0-1.14-.9,4.23,4.23,0,0,0-2.34-.71,3.31,3.31,0,0,0-2.11,1,8.68,8.68,0,0,0-1.44,1.77c-.71,1.15-1,2-1.31,2s-.5-1,0-2.58A7,7,0,0,1,93,133.52a5.87,5.87,0,0,1,1.41-1.16,4.57,4.57,0,0,1,2-.58A5.45,5.45,0,0,1,99.92,133a6.7,6.7,0,0,1,1.48,1.64,24.39,24.39,0,0,1,7.78-2.45,6.53,6.53,0,0,1,.66-.61,5.49,5.49,0,0,1,3.62-1.09,6.49,6.49,0,0,1,3.49,1.21,4.54,4.54,0,0,1,.48.39c1.34.14,2.59.35,3.74.57,1.76.36,3.28.76,4.52,1.12l-.31-6.69c-1.22-.32-2.68-.69-4.36-1a49.15,49.15,0,0,0-9.49-1.12A27.53,27.53,0,0,0,100.1,127,20.39,20.39,0,0,0,95,130.29a32.09,32.09,0,0,0-3.85,4.12c-2.24,2.82-4,5.57-5.62,7.76-.53.75-1,1.43-1.55,2.05l.51,10.88c.59-1.21,1.32-2.7,2.24-4.41A54.34,54.34,0,0,1,91.91,142.72Z" style="fill:#ebebeb"></path><path d="M91.06,134.31a33,33,0,0,1,3.86-4.14,20.91,20.91,0,0,1,5.11-3.29,27.42,27.42,0,0,1,11.5-2.08,49.3,49.3,0,0,1,9.52,1.15c1.66.36,3.11.74,4.32,1.07l-.26-5.58a4.47,4.47,0,0,0-.46-1.79c-1-.41-2.18-.87-3.5-1.34-1-.36-2.11-.73-3.28-1.08l-20.69,1c-.45.26-.9.52-1.32.8a19.43,19.43,0,0,0-4,3.64c-1.12,1.32-2.08,2.66-3,3.93l-2.45,3.52-2.91,4.17.46,9.81c.46-.6.95-1.25,1.46-2C87.07,139.9,88.82,137.15,91.06,134.31Z" style="fill:#ebebeb"></path><path d="M88.8,126.48c.88-1.27,1.83-2.62,3-4a20.06,20.06,0,0,1,4-3.68c.34-.22.69-.43,1-.64l-9.45.44A4.55,4.55,0,0,0,83,123.4l.5,10.72L86.36,130Z" style="fill:#ebebeb"></path><path d="M118.36,152.21a17.15,17.15,0,0,1,8-3.77v-.12a16.8,16.8,0,0,0-8.12,3.77,24.57,24.57,0,0,0-5.69,7.15l-.21.41h.13l.18-.34A25.36,25.36,0,0,1,118.36,152.21Z" style="fill:#fff"></path><path d="M106.75,153.6a30.09,30.09,0,0,1,5.2-5.7,20.09,20.09,0,0,1,6.69-3.76,22.19,22.19,0,0,1,6.21-1c.45,0,.87,0,1.27,0V143c-.4,0-.83,0-1.27,0a22.49,22.49,0,0,0-6.26,1,20,20,0,0,0-6.75,3.79,30.06,30.06,0,0,0-5.22,5.73,55.43,55.43,0,0,0-3.32,5.4l-.63,1.19h.13c.19-.35.39-.73.61-1.12A53.94,53.94,0,0,1,106.75,153.6Z" style="fill:#fff"></path><path d="M104.06,143a23.4,23.4,0,0,1,4.37-3.31,15.87,15.87,0,0,1,4.44-1.72,1.45,1.45,0,0,0,.12-.19,16.38,16.38,0,0,0-4.64,1.76,23.12,23.12,0,0,0-4.4,3.34c-.08.07-.14.15-.21.22l.2,0Z" style="fill:#fff"></path><path d="M113.63,137.66a.76.76,0,0,1,0,.15,25.45,25.45,0,0,1,8.18,0c1.59.23,3,.52,4.09.78v-.09c-1.13-.27-2.49-.56-4.07-.8A25,25,0,0,0,113.63,137.66Z" style="fill:#fff"></path><path d="M97.22,151.13a59,59,0,0,1,5-6.29l-.18-.06a58.89,58.89,0,0,0-5,6.26c-1.88,2.69-3.39,5.23-4.63,7.37-.45.8-.87,1.54-1.24,2.22h.11c.38-.67.79-1.39,1.24-2.16C93.83,156.34,95.34,153.8,97.22,151.13Z" style="fill:#fff"></path><path d="M92,142.82a31,31,0,0,1,8-7.22l-.13-.12a31,31,0,0,0-8,7.24,54.34,54.34,0,0,0-5.15,8c-.92,1.71-1.65,3.2-2.24,4.41v.17c.61-1.23,1.38-2.76,2.34-4.52A53.25,53.25,0,0,1,92,142.82Z" style="fill:#fff"></path><path d="M117.43,132.11l.19.15c1.26.14,2.44.33,3.52.54,1.78.34,3.3.74,4.55,1.09v-.09c-1.24-.36-2.76-.76-4.52-1.12C120,132.46,118.77,132.25,117.43,132.11Z" style="fill:#fff"></path><path d="M101.4,134.66l.09.14a24.44,24.44,0,0,1,7.54-2.41c0-.06.09-.12.15-.18A24.39,24.39,0,0,0,101.4,134.66Z" style="fill:#fff"></path><path d="M91.18,134.41A32.09,32.09,0,0,1,95,130.29,20.39,20.39,0,0,1,100.1,127,27.53,27.53,0,0,1,111.53,125a49.15,49.15,0,0,1,9.49,1.12c1.68.35,3.14.72,4.36,1V127c-1.21-.33-2.66-.71-4.32-1.07a49.3,49.3,0,0,0-9.52-1.15,27.42,27.42,0,0,0-11.5,2.08,20.91,20.91,0,0,0-5.11,3.29,33,33,0,0,0-3.86,4.14c-2.24,2.84-4,5.59-5.59,7.79-.51.71-1,1.36-1.46,2v.16c.5-.62,1-1.3,1.55-2.05C87.18,140,88.94,137.23,91.18,134.41Z" style="fill:#fff"></path><path d="M88.91,126.56c.88-1.27,1.84-2.61,3-3.93a19.43,19.43,0,0,1,4-3.64c.42-.28.87-.54,1.32-.8l-.36,0c-.36.21-.71.42-1,.64a20.06,20.06,0,0,0-4,3.68c-1.12,1.33-2.07,2.68-3,4L86.36,130l-2.82,4.11v.13l2.91-4.17Z" style="fill:#fff"></path><path d="M124.65,119.65l-.06-.13c-1-.4-2.12-.85-3.4-1.32-.9-.33-1.87-.67-2.92-1l-.4,0c1.17.35,2.28.72,3.28,1.08C122.47,118.78,123.64,119.24,124.65,119.65Z" style="fill:#fff"></path><path d="M99.92,133a5.45,5.45,0,0,0-3.55-1.24,4.57,4.57,0,0,0-2,.58A5.87,5.87,0,0,0,93,133.52,7,7,0,0,0,91.57,136c-.47,1.56-.24,2.56,0,2.58s.6-.83,1.31-2a8.68,8.68,0,0,1,1.44-1.77,3.31,3.31,0,0,1,2.11-1,4.23,4.23,0,0,1,2.34.71,7.29,7.29,0,0,1,1.14.9l.13.12q.25.24.48.48c1,1,1.62,1.73,1.88,1.57s0-1.07-.69-2.44c-.07-.13-.16-.27-.25-.41l-.09-.14A6.7,6.7,0,0,0,99.92,133Z" style="fill:#e0e0e0"></path><path d="M117.43,132.11a4.54,4.54,0,0,0-.48-.39,6.49,6.49,0,0,0-3.49-1.21,5.49,5.49,0,0,0-3.62,1.09,6.53,6.53,0,0,0-.66.61c-.06.06-.1.12-.15.18a6.39,6.39,0,0,0-1,1.57c-.63,1.5-.59,2.48-.34,2.57s.77-.73,1.61-1.83a6.5,6.5,0,0,1,1.64-1.52,4.27,4.27,0,0,1,2.43-.59,6.77,6.77,0,0,1,4.38,2.16c1,1,1.54,1.73,1.81,1.61s.18-1.12-.65-2.52a7.66,7.66,0,0,0-1.29-1.58Z" style="fill:#e0e0e0"></path><path d="M113.48,137.31c-.13,0-.28.15-.49.47a1.45,1.45,0,0,1-.12.19,15.35,15.35,0,0,1-1.27,1.81,9.34,9.34,0,0,1-5.79,3.34,7.81,7.81,0,0,1-1.87,0l-.2,0a9.6,9.6,0,0,1-4.37-1.75c-1.48-1-2.16-2.06-2.44-1.91s0,1.45,1.46,3a9,9,0,0,0,3.09,2.09,6.37,6.37,0,0,0,.61.23l.18.06a9.35,9.35,0,0,0,3.81.35,9.2,9.2,0,0,0,4.29-1.78,9,9,0,0,0,2.46-2.81,5.68,5.68,0,0,0,.81-2.79.76.76,0,0,0,0-.15C113.6,137.45,113.55,137.32,113.48,137.31Z" style="fill:#e0e0e0"></path><path d="M442.48,445.87h20a0,0,0,0,1,0,0V461.6a8.79,8.79,0,0,1-8.79,8.79h-2.42a8.79,8.79,0,0,1-8.79-8.79V445.87A0,0,0,0,1,442.48,445.87Z" style="fill:#f5f5f5"></path><path d="M454,445.87h20a0,0,0,0,1,0,0V461.6a8.79,8.79,0,0,1-8.79,8.79h-2.42A8.79,8.79,0,0,1,454,461.6V445.87a0,0,0,0,1,0,0Z" style="fill:#e0e0e0"></path><path d="M464.18,465.8a11.73,11.73,0,0,0,1.06-9.37c-.14-.42-.36-.89-.79-1s-1,.51-1.24,1.07a10.46,10.46,0,0,0,1,9.29" style="fill:#ebebeb"></path><path d="M461.06,465.1a8.07,8.07,0,0,0-1.4-6.31c-.18-.24-.43-.5-.73-.46s-.55.55-.56,1a7.17,7.17,0,0,0,2.7,5.81" style="fill:#ebebeb"></path><path d="M467.44,465.14a8,8,0,0,0,2.35-6,.89.89,0,0,0-.35-.8c-.36-.18-.76.16-1,.49a7.17,7.17,0,0,0-1,6.33" style="fill:#ebebeb"></path><path d="M392.71,406.09s2.72-11.6,21.48-11.68c18.05-.08,18.94,11.68,18.94,11.68Z" style="fill:#ebebeb"></path><path d="M395.58,406.09c-.16.84,0,14.28,0,14.28s-16.09,4.53-16.6,18.11v16.3s3.19,16.06,27.17,15.89,42.85,0,43.72-25c.82-23.34-19.91-25.83-19.91-25.83l-.51-13.77Z" style="fill:#ebebeb"></path><path d="M383.1,432s-12.77,2.1-15.06-1.71-6.94-22.49-11.67-22.68-7.58,0-7.58,0v6.1s6.48-1.34,7,1.52,5,23.45,10.1,29.54S381,456.22,381,456.22Z" style="fill:#ebebeb"></path><path d="M456.59,434.39c-.12.08-.62-.2-.58-1.14a2.86,2.86,0,0,1,2.76-2.48c2-.06,3.78,1.66,4.33,3.89a7.66,7.66,0,0,1-2,7.21,8,8,0,0,1-9.22,1.36,8.3,8.3,0,0,1-3.76-4.08,11,11,0,0,1-.83-5.45c.34-3.86,2.5-7,4.62-9.66s4.4-5,5.59-7.59a8.56,8.56,0,0,0,.84-3.82,9.7,9.7,0,0,0-6.19-8.69,10.26,10.26,0,0,0-6.81.16,10.92,10.92,0,0,0-5,3.62c-1.17,1.58-2.18,3.75-4,5.14s-4.06,1.85-5.66.86A3.39,3.39,0,0,1,429,410.6c.12-.87.57-1.11.69-1s.14.47.36.95a2.5,2.5,0,0,0,1.58,1.38,3.06,3.06,0,0,0,2.85-1.21c1-1,1.59-2.75,2.85-5a14.18,14.18,0,0,1,6.41-5.6,14.36,14.36,0,0,1,9.9-.74,14,14,0,0,1,8.43,7.28,14.35,14.35,0,0,1,1.5,5.85,13.57,13.57,0,0,1-1.3,6.14c-1.76,3.73-4.41,6.28-6.38,8.66s-3.53,4.71-3.78,6.92.47,4.4,1.87,5.22a4.16,4.16,0,0,0,4.64-.25,4.67,4.67,0,0,0,1.67-4,2.66,2.66,0,0,0-1.56-2.42,1.71,1.71,0,0,0-1.66.72C456.74,433.92,456.76,434.31,456.59,434.39Z" style="fill:#ebebeb"></path><path d="M413.07,394.68c-1.36-.92-2.82-2.14-2.83-3.78a2.89,2.89,0,0,1,3.26-2.71,3.17,3.17,0,0,1,2.45,3.57,3.49,3.49,0,0,1-3.46,2.76" style="fill:#e0e0e0"></path><path d="M381.59,434.28c.2-.16,3.25,4.59,4.29,11.33a13.63,13.63,0,0,1,.08,4.84A6.11,6.11,0,0,1,384,454a4.4,4.4,0,0,1-2.48,1.13c-.65,0-1-.1-1-.16a5.29,5.29,0,0,0,4.46-4.67,14.52,14.52,0,0,0-.17-4.51C383.85,439.25,381.3,434.42,381.59,434.28Z" style="fill:#e0e0e0"></path><path d="M429.08,421c0,.29-7.32.43-16.33.31s-16.33-.44-16.32-.72,7.31-.43,16.33-.32S429.08,420.68,429.08,421Z" style="fill:#e0e0e0"></path><path d="M434.1,405.75c0,.29-9.11.52-20.34.52s-20.35-.23-20.35-.52,9.11-.52,20.35-.52S434.1,405.46,434.1,405.75Z" style="fill:#e0e0e0"></path><path d="M395.7,468.11a6,6,0,0,1-.68-1.64,43.45,43.45,0,0,1-1.27-4.65,59.79,59.79,0,0,1,1.69-31.5,40.31,40.31,0,0,1,1.76-4.49,5.71,5.71,0,0,1,.85-1.55c.16.07-.79,2.39-1.91,6.26a68.91,68.91,0,0,0-1.67,31.14C395.17,465.65,395.87,468.06,395.7,468.11Z" style="fill:#e0e0e0"></path><path d="M407.2,467.79c-.29,0-.79-9.77-1.12-21.83s-.37-21.86-.08-21.87.79,9.77,1.12,21.84S407.49,467.78,407.2,467.79Z" style="fill:#e0e0e0"></path><path d="M418.58,466.53c-.15,0-.35-2.38-.63-6.25s-.67-9.2-1.18-15.09-1.06-11.21-1.46-15.07-.61-6.24-.46-6.26.61,2.33,1.2,6.17,1.24,9.17,1.76,15.07.78,11.26.88,15.14S418.72,466.53,418.58,466.53Z" style="fill:#e0e0e0"></path><path d="M432.17,465c-.15,0-.19-2.35-.35-6.13s-.47-9-1.15-14.72-1.61-10.87-2.36-14.58-1.26-6-1.11-6,.9,2.19,1.83,5.88a121,121,0,0,1,3.53,29.45C432.53,462.68,432.3,465,432.17,465Z" style="fill:#e0e0e0"></path><path d="M441.84,461.35c-.17-.07.78-2.12,1.52-5.62a31.09,31.09,0,0,0-6.25-26.2c-2.25-2.79-4-4.18-3.9-4.32s.52.24,1.33.86a25,25,0,0,1,3.13,3,29.25,29.25,0,0,1,6.41,26.84,23.78,23.78,0,0,1-1.45,4.07C442.2,460.9,441.9,461.38,441.84,461.35Z" style="fill:#e0e0e0"></path><path d="M399.87,407.94c.29,0,.52,2.4.52,5.36s-.23,5.36-.52,5.36-.52-2.4-.52-5.36S399.58,407.94,399.87,407.94Z" style="fill:#e0e0e0"></path><path d="M406.29,408.44c.28,0,.52,2.29.52,5.11s-.24,5.11-.52,5.11-.53-2.29-.53-5.11S406,408.44,406.29,408.44Z" style="fill:#e0e0e0"></path><path d="M414.31,407.84c.28,0,.52,2.33.52,5.21s-.24,5.21-.52,5.21-.52-2.33-.52-5.21S414,407.84,414.31,407.84Z" style="fill:#e0e0e0"></path><path d="M424.13,409.24c.29,0,.52,2,.52,4.46s-.23,4.46-.52,4.46-.52-2-.52-4.46S423.85,409.24,424.13,409.24Z" style="fill:#e0e0e0"></path><path d="M413.29,394.28c.06.32-4.18.78-8.35,3.67s-6.2,6.61-6.47,6.43c-.11-.05.22-1.07,1.16-2.52a17.62,17.62,0,0,1,10.89-7.42C412.21,394.09,413.28,394.16,413.29,394.28Z" style="fill:#e0e0e0"></path><path d="M407.83,404.52c-.26.05-.59-2.86,1.05-5.93s4.2-4.46,4.31-4.21-1.92,1.88-3.38,4.7S408.14,404.54,407.83,404.52Z" style="fill:#e0e0e0"></path><path d="M420.79,403.84c-.31.05-.71-2.64-2.58-5.27s-4.22-4-4.07-4.23,2.9.71,4.92,3.63S421.05,403.88,420.79,403.84Z" style="fill:#e0e0e0"></path><path d="M427.87,404.11c-.27.17-1.9-4-6.24-6.73s-8.77-2.55-8.73-2.87c0-.12,1.06-.37,2.82-.23a14.41,14.41,0,0,1,11.19,7.18C427.77,403,428,404.07,427.87,404.11Z" style="fill:#e0e0e0"></path><path d="M454.59,68.7a1.83,1.83,0,0,1-.32-.23l-.89-.73L450,64.93,437.49,54.51,396.44,20h.34l-.11.09c-15.92,13.7-30.39,26-41,34.84-5.28,4.4-9.58,7.94-12.6,10.32s-4.77,3.62-4.85,3.49a2.43,2.43,0,0,1,.34-.2c.21-.16.53-.37.92-.68.81-.61,2-1.55,3.46-2.76,3-2.44,7.25-6,12.5-10.45,10.5-8.89,24.94-21.25,40.85-34.95l.11-.1.17-.14.17.14,41,34.67L450.1,64.78l3.35,2.88.86.77C454.5,68.6,454.6,68.69,454.59,68.7Z" style="fill:#e0e0e0"></path><rect x="338.26" y="68.7" width="116.33" height="191.32" style="fill:#f5f5f5"></rect><rect x="327.08" y="67.63" width="138.7" height="4.71" rx="1.99" style="fill:#e0e0e0"></rect><path d="M366.62,202.72s18.25,2,23.91-4.34C390.53,198.38,377.76,196,366.62,202.72Z" style="fill:#e0e0e0"></path><path d="M390.12,166.11A25.91,25.91,0,0,0,385.57,184C392.33,178.31,390.12,166.11,390.12,166.11Z" style="fill:#e0e0e0"></path><path d="M402.47,161.62a26,26,0,0,0-2.1-18.37C396.07,151,402.47,161.62,402.47,161.62Z" style="fill:#e0e0e0"></path><path d="M394.1,154.28a26,26,0,0,0-17.68-5.41C381.8,155.9,394.1,154.28,394.1,154.28Z" style="fill:#e0e0e0"></path><path d="M394.48,148.6a20.45,20.45,0,0,0,1.39-14.52C391.28,139.36,394.48,148.6,394.48,148.6Z" style="fill:#e0e0e0"></path><path d="M433.91,150c-15.16-.14-26.12,10-26.12,10C419.85,163.38,433.91,150,433.91,150Z" style="fill:#e0e0e0"></path><path d="M410,148.07c4.93-15-5.2-36.35-5.2-36.35-3,19.52,5.2,36.35,5.2,36.35" style="fill:#e0e0e0"></path><path d="M418.12,112a42.31,42.31,0,0,0-.66,23.27C422.26,126,418.12,112,418.12,112Z" style="fill:#e0e0e0"></path><path d="M415.33,144.46c11.46,1.88,20.57-7.53,20.57-7.53C421.4,137,415.33,144.46,415.33,144.46Z" style="fill:#e0e0e0"></path><path d="M429.1,188.2A26,26,0,0,0,412.53,180C416.7,187.82,429.1,188.2,429.1,188.2Z" style="fill:#e0e0e0"></path><path d="M398.88,185.25A17,17,0,0,0,404,195.73C405,190.47,398.88,185.25,398.88,185.25Z" style="fill:#e0e0e0"></path><path d="M400.77,184a20.45,20.45,0,0,0,12.65,6.05C410.37,184.4,400.77,184,400.77,184Z" style="fill:#e0e0e0"></path><path d="M373.65,183.15c0-6-3.8-12-3.8-12C369.28,179.53,373.65,183.15,373.65,183.15Z" style="fill:#e0e0e0"></path><path d="M363.73,187.67c7.17,2.06,10.89-1.57,10.89-1.57C369.39,185,363.73,187.67,363.73,187.67Z" style="fill:#e0e0e0"></path><path d="M372.62,166.15c1.89,7.15,6.45,9.22,6.45,9.22C377.39,170.29,372.62,166.15,372.62,166.15Z" style="fill:#e0e0e0"></path><path d="M382.28,235.37a1.36,1.36,0,0,1,0-.3l.12-.85c.12-.79.28-1.9.49-3.3s.49-3.18.88-5.2.78-4.33,1.36-6.85c.27-1.26.56-2.59.87-4s.68-2.79,1-4.27c.7-3,1.62-6.09,2.53-9.38,2-6.56,4.33-13.7,7.19-21.07s6-14.22,9-20.38l2.22-4.48c.73-1.45,1.49-2.83,2.19-4.18,1.39-2.7,2.8-5.16,4.06-7.42s2.48-4.26,3.51-6,2-3.27,2.75-4.5l1.77-2.81.48-.73.17-.24s0,.1-.13.27l-.43.75c-.4.69-1,1.65-1.69,2.87S419,136,418,137.83s-2.22,3.79-3.44,6.07-2.62,4.73-4,7.44c-.7,1.35-1.44,2.74-2.16,4.19l-2.2,4.48c-2.95,6.16-6,13-8.9,20.36s-5.25,14.47-7.22,21c-.93,3.29-1.86,6.4-2.57,9.35-.37,1.48-.76,2.89-1.08,4.27s-.61,2.69-.89,3.95c-.61,2.51-1,4.82-1.43,6.83s-.73,3.75-1,5.17-.45,2.5-.59,3.28c-.07.35-.12.63-.16.85A1.09,1.09,0,0,1,382.28,235.37Z" style="fill:#e0e0e0"></path><path d="M418.74,176.34c0,.13-5.19,2.06-11.7,4.3s-11.81,4-11.86,3.81,5.19-2.06,11.69-4.3S418.69,176.2,418.74,176.34Z" style="fill:#e0e0e0"></path><path d="M391.08,197.15c-.09.11-5.89-4.27-13-9.79s-12.73-10.09-12.64-10.2,5.89,4.27,13,9.79S391.17,197,391.08,197.15Z" style="fill:#e0e0e0"></path><path d="M385.67,192.92a22.65,22.65,0,0,1-1-3.32c-.55-2.06-1.29-4.92-2.07-8.09s-1.46-6-1.92-8.13A22.18,22.18,0,0,1,380,170a23.18,23.18,0,0,1,1,3.32c.55,2.06,1.29,4.93,2.07,8.09s1.45,6.05,1.92,8.13A23.82,23.82,0,0,1,385.67,192.92Z" style="fill:#e0e0e0"></path><path d="M402.82,165.7a4.14,4.14,0,0,1-.65-.84c-.39-.56-.94-1.37-1.61-2.39-1.34-2-3.15-4.88-5.09-8s-3.66-6.08-4.84-8.21c-.59-1.06-1.06-1.93-1.36-2.54a4.26,4.26,0,0,1-.43-1,4.16,4.16,0,0,1,.6.87L391,146c1.33,2.18,3.05,5,5,8.11s3.62,5.94,5,8.12c.57,1,1.06,1.8,1.47,2.48A4.24,4.24,0,0,1,402.82,165.7Z" style="fill:#e0e0e0"></path><path d="M353,166.79s4.37,11.1,15,12.15A21.49,21.49,0,0,0,353,166.79Z" style="fill:#e0e0e0"></path><path d="M435,173.06s-11.44-3.39-18.8,4.32A21.48,21.48,0,0,0,435,173.06Z" style="fill:#e0e0e0"></path><path d="M420.58,164.12s-11.21,4.09-12.52,14.67A21.48,21.48,0,0,0,420.58,164.12Z" style="fill:#e0e0e0"></path><path d="M375,154.2s-2.64,11.64,5.54,18.48A21.48,21.48,0,0,0,375,154.2Z" style="fill:#e0e0e0"></path><path d="M380.13,127.26s.15,13.89,11.25,19.44A25,25,0,0,0,380.13,127.26Z" style="fill:#e0e0e0"></path><path d="M440.83,110.62s-17.32,5.52-20,21.54A32.74,32.74,0,0,0,440.83,110.62Z" style="fill:#e0e0e0"></path><rect x="327.08" y="257.05" width="138.7" height="4.71" rx="1.99" style="fill:#e0e0e0"></rect></g><g id="freepik--Plant--inject-36"><path d="M79.8,371.43c5.35-2.76,11.64-3.11,17.57-2.13,3.18.52,6.51,1.48,8.67,3.87s2.58,6.6.09,8.66c-1.48,1.23-3.55,1.41-5.47,1.39-4.64-.06-9.79-.87-13.5,1.92-2.12,1.59-3.53,4.24-6.06,5s-5.26-.7-6.58-2.93a10.23,10.23,0,0,1-.74-7.54A11.52,11.52,0,0,1,79.8,371.43Z" style="fill:#FF7010"></path><path d="M67.57,347.8c3.26,4.67,9.61,3.13,12.56.28s4.18-7,5.32-10.91c2.58-9,5.19-18.43,3.27-27.59a15.39,15.39,0,0,0-3.52-7.5,8,8,0,0,0-7.59-2.52c-3.2.84-5.19,4-6.63,7a65.69,65.69,0,0,0-6.5,28.22c0,4.55.52,9.31,3.09,13.06" style="fill:#FF7010"></path><path d="M58.6,354.5c3.54-4.21,4.22-10.35,2.64-15.62s-5.15-9.76-9.26-13.43a49.82,49.82,0,0,0-16.56-9.77A17.77,17.77,0,0,0,28,314.41a7.83,7.83,0,0,0-6.25,3.79c-1.74,3.32-.07,7.36,1.74,10.65a126.79,126.79,0,0,0,10.88,16.57c3.26,4.2,7,8.35,12,10.25s10.13,1.68,12.77-1.77" style="fill:#FF7010"></path><path d="M67.34,418.18a8.8,8.8,0,0,0,.3-2.12c.15-1.54.34-3.48.56-5.78a85.08,85.08,0,0,1,1.3-8.49,65.65,65.65,0,0,1,3.09-10,37,37,0,0,1,5.11-9.06,19.05,19.05,0,0,1,6.47-5.37,17.92,17.92,0,0,1,5.45-1.7,10.08,10.08,0,0,0,2.11-.31,9.92,9.92,0,0,0-2.15,0,16.39,16.39,0,0,0-5.68,1.48,19,19,0,0,0-6.82,5.42,36.11,36.11,0,0,0-5.3,9.25,61.59,61.59,0,0,0-3.07,10.18,71.34,71.34,0,0,0-1.12,8.59c-.19,2.46-.26,4.45-.29,5.82A11.1,11.1,0,0,0,67.34,418.18Z" style="fill:#263238"></path><path d="M67.74,413.73a4.17,4.17,0,0,0,.06-1c0-.74,0-1.67,0-2.82,0-2.44,0-6,.13-10.33.21-8.73,1-18.12,2.42-31.36,1.37-12.44,3.21-26.93,5.16-36.35.42-2.14.84-4.07,1.23-5.76s.7-3.15,1-4.33.49-2,.66-2.73a4.1,4.1,0,0,0,.17-1,4.41,4.41,0,0,0-.34.92c-.21.71-.48,1.6-.81,2.69s-.74,2.62-1.16,4.31-.91,3.6-1.36,5.74a317,317,0,0,0-5.43,33.73c-1.46,13.27-2.11,25.35-2.17,34.1,0,4.37,0,7.91.15,10.35.07,1.14.13,2.07.17,2.81A4.31,4.31,0,0,0,67.74,413.73Z" style="fill:#263238"></path><path d="M67.8,390.43a18.86,18.86,0,0,0,0-2.94c-.11-1.88-.37-4.61-.9-8a104.2,104.2,0,0,0-2.59-11.6,93.53,93.53,0,0,0-4.85-13.72A73.16,73.16,0,0,0,45.2,332a38.26,38.26,0,0,0-3.35-3.12c-.52-.43-1-.86-1.43-1.21l-1.3-.89a19.87,19.87,0,0,0-2.48-1.59c-.14.19,3.51,2.34,8.11,7.24a77,77,0,0,1,13.89,22.1,108.94,108.94,0,0,1,4.88,13.6c1.27,4.26,2.11,8.18,2.75,11.48s1,6,1.17,7.88A19.47,19.47,0,0,0,67.8,390.43Z" style="fill:#263238"></path><polygon points="49.85 431.04 52.19 463.02 93.27 463.02 95.61 431.04 49.85 431.04" style="fill:#263238"></polygon><rect x="45.88" y="418.44" width="54.63" height="12.61" style="fill:#263238"></rect><polygon points="45.88 461.8 45.88 465.3 48.45 465.3 99.61 465.3 99.61 461.8 45.88 461.8" style="fill:#455a64"></polygon><polygon points="50.97 471.44 48.45 465.3 97.65 465.3 94.71 471.44 50.97 471.44" style="fill:#455a64"></polygon><path d="M94.84,441.5a1.37,1.37,0,0,1-.19.29l-.61.81-2.4,3.07-.1.13-.11-.14-5.88-8.13h.34l-5.79,8.19-.18.26-.2-.24-6.87-8.17h.4l-.38.47-6.14,7.7-.2.25-.19-.26-5.79-8.2.33,0-7.13,8.12-.13.15-.09-.16-2.24-3.76-.57-1a1.41,1.41,0,0,1-.18-.35s.1.1.24.32l.64,1,2.34,3.68-.22,0,7-8.22.18-.21.16.22,5.84,8.16h-.39l6.12-7.71.38-.47L73,437l.2.24c2.41,2.87,4.72,5.64,6.85,8.19h-.38l5.84-8.15.17-.24.17.24c2.32,3.3,4.29,6.11,5.76,8.22h-.21c1-1.26,1.88-2.26,2.49-3l.67-.78Q94.83,441.49,94.84,441.5Z" style="fill:#e0e0e0"></path><path d="M96.18,430.83c0,.14-10.3.26-23,.26s-23-.12-23-.26,10.29-.25,23-.25S96.18,430.69,96.18,430.83Z" style="fill:#455a64"></path><path d="M98.25,465.64c0,.14-11.19.26-25,.26s-25-.12-25-.26,11.18-.26,25-.26S98.25,465.5,98.25,465.64Z" style="fill:#263238"></path></g><g id="freepik--Character--inject-36"><path d="M192.25,156.77c-3.51-2.53-8.61-2-12.18.44s-5.79,6.46-7.1,10.59-1.81,8.45-2.68,12.69-2.19,8.51-4.84,11.93A23.65,23.65,0,0,0,194.26,158" style="fill:#263238"></path><path d="M179.28,183.66c-.07-.07,1.06-1.11,2.67-3a40.53,40.53,0,0,0,5.31-8,41,41,0,0,0,3.22-9c.54-2.4.69-3.93.78-3.92a3.9,3.9,0,0,1,0,1.08,24.7,24.7,0,0,1-.4,2.92,35.63,35.63,0,0,1-3.12,9.18,35,35,0,0,1-5.5,8,25.61,25.61,0,0,1-2.09,2.06A4.9,4.9,0,0,1,179.28,183.66Z" style="fill:#455a64"></path><path d="M167.78,161.39c10.13,1.67,21.22-.62,28.91-7.43-3.08-5.33-15.33-12.34-21.44-13.14s-12.31.49-18.17,2.39-11.51,4.41-17.42,6.15C139,149,157.3,159.66,167.78,161.39Z" style="fill:#263238"></path><path d="M139.66,149.36a2.19,2.19,0,0,1,.51.21l1.41.7,5.18,2.58a115.64,115.64,0,0,0,17.61,7.22,32.21,32.21,0,0,0,10.27,1.58,33.27,33.27,0,0,0,8.41-1.29c2.34-.66,4.19-1.36,5.47-1.84L190,158a2.18,2.18,0,0,1,.52-.16,1.79,1.79,0,0,1-.48.26l-1.44.64a53,53,0,0,1-5.45,2,32.45,32.45,0,0,1-8.5,1.41,31.83,31.83,0,0,1-10.42-1.56,104.43,104.43,0,0,1-17.64-7.39c-2.17-1.12-3.91-2.07-5.1-2.73l-1.37-.79A1.9,1.9,0,0,1,139.66,149.36Z" style="fill:#455a64"></path><path d="M166.44,150.11a3.24,3.24,0,0,1,.89-.45,16.84,16.84,0,0,1,2.61-.86,21.35,21.35,0,0,1,9-.31,21.59,21.59,0,0,1,8.35,3.44,19.09,19.09,0,0,1,2.14,1.72,4.17,4.17,0,0,1,.68.74c-.07.07-1.1-.92-3-2.15A22.65,22.65,0,0,0,170,149.16C167.79,149.63,166.47,150.2,166.44,150.11Z" style="fill:#455a64"></path><path d="M207.5,147.69a12.86,12.86,0,0,0-6.83-3.84,7.9,7.9,0,0,0-5.41,1.1c-2.4,1.1-4,4.54-4.43,7.15a15.1,15.1,0,0,0,1.24,7.74c.82,2,2,4.08,4.06,4.87,2.51,1,5.28-.29,7.66-1.54,3.09-1.63,6.49-3.68,7.2-7.1C211.63,153,209.76,149.9,207.5,147.69Z" style="fill:#263238"></path><path d="M198,165.06a2.69,2.69,0,0,1-1-.12,7.52,7.52,0,0,1-2.46-1.05,11.06,11.06,0,0,1-4.58-7.38A12.46,12.46,0,0,1,191.8,148a9.36,9.36,0,0,1,1.78-2,3.12,3.12,0,0,1,.82-.53,15,15,0,0,0-2.28,2.73,12.73,12.73,0,0,0-1.64,8.24,11.1,11.1,0,0,0,4.28,7.15A12.2,12.2,0,0,0,198,165.06Z" style="fill:#455a64"></path><path d="M201.52,149.49c0,.09-.86,0-2.21.28a10.85,10.85,0,0,0-8.06,6.21c-.58,1.23-.74,2.08-.83,2.06a5.19,5.19,0,0,1,.49-2.21,10.23,10.23,0,0,1,8.35-6.43A5.27,5.27,0,0,1,201.52,149.49Z" style="fill:#455a64"></path><path d="M204.32,160.3a5.09,5.09,0,0,1-2.09,0,12.24,12.24,0,0,1-8.28-5.37,4.91,4.91,0,0,1-.87-1.89,20.19,20.19,0,0,1,1.18,1.68,13.71,13.71,0,0,0,8,5.21A19.89,19.89,0,0,1,204.32,160.3Z" style="fill:#455a64"></path><path d="M225,100.57c-7-.53-14,2.06-19.77,6s-10.63,9.16-15.25,14.44a11.37,11.37,0,0,0-2.49,3.76,4,4,0,0,0,.85,4.2c1.14,1,3.29.7,3.79-.73-1.64,1.87-3.36,3.9-3.64,6.37s1.61,5.34,4.08,5c1.62-.2,2.78-1.59,3.81-2.85,9-11,20.6-20.12,34-24.95s28.57-5.18,41.71.26c6.92,2.87,13.31,7.29,20.68,8.56,1.35.23,2.91.29,3.91-.64a3.34,3.34,0,0,0,.63-3.55,10,10,0,0,0-2.15-3.13c1.94,1.21,4.62,2.36,6.28.79,1.3-1.23,1-3.51-.21-4.88a13.28,13.28,0,0,0-4.5-2.87c-1.61-.79-3.26-1.8-4-3.44,1.42,1.14,3,2.34,4.82,2.34s3.66-2,2.82-3.59a4,4,0,0,0-1.7-1.46,100.14,100.14,0,0,0-51.27-12.76c-4.84.13-9.81.64-14.11,2.85s-7.85,6.45-8,11.29" style="fill:#455a64"></path><path d="M206.29,150.38l4.79,96.21c1.4,16.48,17.07,39.07,43,35.66h0c22.31-4.65,25.89-24.81,24.56-40.19-.63-7.3-3.48-14.25-3.49-15,0,0,20.36-3.24,20.06-27.82-.14-11.88-2.43-36.32-4.75-58.41a45.79,45.79,0,0,0-46.66-41l-2.37.06C215.93,102.05,203.47,124.92,206.29,150.38Z" style="fill:#ffd5be"></path><path d="M275.18,227.06s-22.23,4.74-39-5.23c0,0,8.67,20.29,41.17,12.72Z" style="fill:#ffb194"></path><path d="M286.69,151.71c-.43.43-3.74.44-8,2s-7.15,3.67-7.68,3.59c-.26,0,.12-.66,1.36-1.62a22.93,22.93,0,0,1,6.07-3.18,20.15,20.15,0,0,1,6.46-1.26C286.33,151.23,286.9,151.51,286.69,151.71Z" style="fill:#263238"></path><path d="M250.59,159.1c-.64.14-3.62-1.92-8.4-3.13s-8.68-.95-9.11-1.36c-.21-.19.52-.55,2.22-.7a22.9,22.9,0,0,1,7.41.74,20.56,20.56,0,0,1,6.57,2.84C250.57,158.41,250.9,159,250.59,159.1Z" style="fill:#263238"></path><path d="M244.09,165.77a2.69,2.69,0,0,1-2.55,2.79,2.59,2.59,0,0,1-2.85-2.37,2.72,2.72,0,0,1,2.55-2.8A2.59,2.59,0,0,1,244.09,165.77Z" style="fill:#263238"></path><path d="M280.05,164.85a2.71,2.71,0,0,1-2.54,2.8,2.58,2.58,0,0,1-2.85-2.37,2.7,2.7,0,0,1,2.54-2.8A2.58,2.58,0,0,1,280.05,164.85Z" style="fill:#263238"></path><path d="M262.79,182.3c0-.22,2.32-.68,6.11-1.26,1-.12,1.87-.33,2-1a4.94,4.94,0,0,0-.71-2.84l-3-7.27c-4.21-10.36-7.29-18.88-6.87-19.05s4.17,8.09,8.39,18.45c1,2.56,2,5,2.91,7.32.39,1.09,1,2.32.59,3.77a2.41,2.41,0,0,1-1.55,1.45,6.27,6.27,0,0,1-1.63.27C265.18,182.44,262.81,182.51,262.79,182.3Z" style="fill:#263238"></path><path d="M245.5,144.66c-.3,1-3.64.59-7.53,1.17s-7,1.76-7.57.93c-.24-.39.29-1.29,1.54-2.23a12.48,12.48,0,0,1,5.57-2.17,12.2,12.2,0,0,1,5.93.58C244.89,143.5,245.63,144.22,245.5,144.66Z" style="fill:#455a64"></path><path d="M286.08,143.49c-.36.78-3.62.27-7.5.53s-7,1.06-7.51.33c-.22-.35.36-1.08,1.65-1.79a13.37,13.37,0,0,1,5.62-1.5,14.05,14.05,0,0,1,5.81.84C285.55,142.46,286.23,143.12,286.08,143.49Z" style="fill:#455a64"></path><path d="M208.74,168.52c-.43-.17-17-4.58-16.06,12.2s17.6,12.38,17.6,11.89S208.74,168.52,208.74,168.52Z" style="fill:#ffd5be"></path><path d="M204.8,186.54c-.08,0-.28.23-.76.48a2.92,2.92,0,0,1-2.19.17c-1.81-.55-3.46-3.28-3.71-6.3a9.74,9.74,0,0,1,.58-4.24,3.42,3.42,0,0,1,2.07-2.37,1.52,1.52,0,0,1,1.78.71c.25.46.16.8.25.82s.34-.3.17-1a1.88,1.88,0,0,0-.72-1,2.19,2.19,0,0,0-1.64-.34,4.11,4.11,0,0,0-2.91,2.78A10,10,0,0,0,197,181c.3,3.38,2.21,6.45,4.68,7a3.14,3.14,0,0,0,2.64-.59C204.79,187,204.86,186.57,204.8,186.54Z" style="fill:#ffb194"></path><path d="M290.23,117.94c-2.31-4.77-6.3-8.54-10.61-11.63a54.77,54.77,0,0,0-32-10.58c-11.43.11-22.9,4.48-31,12.58a47,47,0,0,0-12.35,24.06,69.09,69.09,0,0,0,.5,27.25c.8,3.94,2,8,4.82,10.85,1.78,1.77,4.78,2.89,6.73,1.31,1.15-.93,1.54-2.48,1.87-3.92,2.91-13,5.76-27.06.71-39.43a38.7,38.7,0,0,1,11.31-10.92c4.56-2.66,10.13-3.89,15.21-2.46,7.55,2.13,12.34,9.3,18.44,14.22,8.72,7,15.34,11.15,26.09,8Z" style="fill:#455a64"></path><path d="M260,194.26c.14-.44-3.23-1.1-5.84-3.95a18.84,18.84,0,0,1-2.74-4.14c-.6-1.17-1.05-1.89-1.22-1.82s0,.89.35,2.18a12.44,12.44,0,0,0,2.63,4.68,10.17,10.17,0,0,0,4.59,2.86C259.08,194.46,260,194.41,260,194.26Z" style="fill:#263238"></path><path d="M289.3,116.66c-53.86-33.24-88.08,11.9-88.08,11.9-1.49,6.19-2.85,14.9,3.57,32.22,33.8-38.78,85.78-18.54,85.78-18.54Z" style="fill:#263238"></path><path d="M205,161.77a18.37,18.37,0,0,1-1.27-3,69,69,0,0,1-2.27-7.55,52.32,52.32,0,0,1-1.27-7.79c-.08-1-.12-1.82-.12-2.39a3.27,3.27,0,0,1,0-.88,28,28,0,0,1,.44,3.23,76.25,76.25,0,0,0,1.4,7.71c.71,3,1.52,5.63,2.12,7.55A23.43,23.43,0,0,1,205,161.77Z" style="fill:#455a64"></path><path d="M202.14,122.43A36.5,36.5,0,0,0,197,135.94c-.22,1.34-.29,2.92.73,3.82,1.48,1.31,3.88,0,4.94-1.66s1.64-3.76,3.25-4.91c-1.64,1.88-.29,5.21,2.09,6s5.05-.41,6.7-2.29a19.24,19.24,0,0,0,3.29-6.7c-.91,1.34.27,3.36,1.86,3.64a4.21,4.21,0,0,0,4-2.14,13.19,13.19,0,0,0,1.49-4.58c.91-4.49,2.13-9,4.55-12.88s6.93-8.2,11.42-9.07c-7.38-3-16.69-1.8-24,1.37a30.4,30.4,0,0,0-16.07,16.82" style="fill:#455a64"></path><path d="M250.68,127.58a11.79,11.79,0,0,1,2.1-2.54,8.32,8.32,0,0,1,2.88-1.7,8.65,8.65,0,0,1,2.67-.41,9.17,9.17,0,0,1,1.45.12l-.1-1.21-.32,0c-.56,0-1.37-.16-2.35-.23a13.94,13.94,0,0,0-1.59,0,8.64,8.64,0,0,0-1.77.27,6.7,6.7,0,0,0-1.77.77,9.14,9.14,0,0,0-1.62,1.35q-.39.39-.75.81c-.24.27-.46.55-.69.83-.44.56-.83,1.12-1.2,1.66-.74,1.08-1.35,2.11-1.87,3l-.43.72,3.87-.31c.09-.22.18-.46.29-.72A16.88,16.88,0,0,1,250.68,127.58Z" style="fill:#FF7010"></path><path d="M245,115.77c-.44.52-.81,1.06-1.17,1.57s-.69,1-1,1.44l-.56.78.23,2.88.43-.71c.34-.56.71-1.16,1.15-1.77a12.88,12.88,0,0,1,1.55-1.83c.15-.15.32-.28.48-.43l.26-.2.26-.19a7.1,7.1,0,0,1,1.16-.69,9.69,9.69,0,0,1,2.48-.8,12.4,12.4,0,0,1,2.38-.22,18,18,0,0,1,4,.45,20.59,20.59,0,0,1,2.56.74l.08,0-.19-2.35s0,0,0-.08l-.26-.06c-.58-.15-1.4-.41-2.42-.69a24.36,24.36,0,0,0-2.69-.59l-5.65.46a7.41,7.41,0,0,0-1.55.83A7.23,7.23,0,0,0,245,115.77Z" style="fill:#FF7010"></path><path d="M248.1,120a9.92,9.92,0,0,1,1.16-.61,9.68,9.68,0,0,1,1.2-.44,11.91,11.91,0,0,1,2.34-.42,14.31,14.31,0,0,1,4,.28,16.07,16.07,0,0,1,2.54.74l.19.08-.19-2.38-.23,0c-.61-.09-1.5-.24-2.59-.38a22,22,0,0,0-3.8-.21,14,14,0,0,0-2.2.26,9.65,9.65,0,0,0-2.22.74,6.25,6.25,0,0,0-1,.59l-.24.17-.22.17-.43.37a13.37,13.37,0,0,0-1.48,1.65c-.44.56-.83,1.14-1.2,1.67s-.72,1-1.06,1.49l0,0,.21,2.6a19.91,19.91,0,0,1,1.72-3A12.3,12.3,0,0,1,248.1,120Z" style="fill:#FF7010"></path><path d="M255.45,126.71a7,7,0,0,1,1.86-1.19,5.76,5.76,0,0,1,1.73-.45,4.4,4.4,0,0,1,.91,0l-.13-1.53c-.38,0-.87.07-1.44.15a9.7,9.7,0,0,0-2.38.59,8.31,8.31,0,0,0-2.49,1.56,13.36,13.36,0,0,0-2,2.28c-.55.77-1,1.51-1.36,2.13l-.18.3,3.13-.25c0-.12.08-.26.14-.4a8.55,8.55,0,0,1,2.19-3.21Z" style="fill:#FF7010"></path><path d="M259.19,125.84a7.76,7.76,0,0,0-1.45.59,8.75,8.75,0,0,0-1.56,1.1,13.49,13.49,0,0,0-2.22,2.72l4.52-.37a1.85,1.85,0,0,0,1.7-2l-.19-2.26A8.08,8.08,0,0,0,259.19,125.84Z" style="fill:#FF7010"></path><path d="M242.19,118.36c.27-.47.56-1,.89-1.51a20.07,20.07,0,0,1,1.13-1.71,9,9,0,0,1,1.35-1.43l-1.89.16a1.85,1.85,0,0,0-1.7,2l.21,2.52Z" style="fill:#FF7010"></path><path d="M256.63,112.9a23.74,23.74,0,0,1,2.32,1,1.85,1.85,0,0,0-1.86-1.15l-.67.06Z" style="fill:#FF7010"></path><path d="M244.58,131c.14-.33.3-.69.49-1.09a30.11,30.11,0,0,1,1.7-3.15,19.94,19.94,0,0,1,2.7-3.52,9.31,9.31,0,0,1,1.85-1.49,7,7,0,0,1,2.09-.84,9.36,9.36,0,0,1,2-.2,12.51,12.51,0,0,1,1.71.15,15.36,15.36,0,0,1,2.35.58l.2.07-.12-1.47-.34,0c-.6-.1-1.47-.26-2.55-.38a16.44,16.44,0,0,0-3.74,0,10.34,10.34,0,0,0-4.23,1.39,12.63,12.63,0,0,0-3.3,3.06,25.27,25.27,0,0,0-2.05,3.18l-.37.68.12,1.45A1.86,1.86,0,0,0,244.58,131Z" style="fill:#FF7010"></path><path d="M210.79,240.81s23.5,15.93,37.55,15.25,30-16.9,30-16.9l19.5,20.65-47.24,75.24-27.66-5.39s-32-67.81-31-68.83S210.79,240.81,210.79,240.81Z" style="fill:#fff"></path><path d="M251.22,298.07l-41.33-58.91-6.77,7.2-42.77,25.55,17.94,159.62s-10.87,9.39-10.37,13.34,4,10.86,4,10.86l-4,14.33H344.74l3-160.52,7.9-51.86-68.34-16L279,236.16Z" style="fill:#263238"></path><path d="M349.11,276.43c.14,0-.51,20.89-1.47,46.64s-1.84,46.63-2,46.63.51-20.89,1.46-46.65S349,276.43,349.11,276.43Z" style="fill:#455a64"></path><path d="M345.66,420.15s-.14-.14-.4-.43-.64-.74-1.12-1.29l-4.27-5c-3.68-4.39-8.94-10.8-15.34-18.8-12.79-16-30.09-38.39-48.8-63.41s-35.37-47.92-47.24-64.6c-5.94-8.35-10.69-15.14-13.9-19.89s-4.87-7.45-4.7-7.54a.77.77,0,0,1,.06.14,3.77,3.77,0,0,0,.2.38c.2.34.5.83.91,1.46.82,1.26,2.07,3.1,3.7,5.45,3.26,4.7,8.05,11.47,14,19.78,12,16.63,28.63,39.48,47.36,64.51s36,47.45,48.67,63.49c6.36,8,11.58,14.47,15.21,18.9l4.19,5.09c.47.57.83,1,1.08,1.33S345.66,420.15,345.66,420.15Z" style="fill:#455a64"></path><path d="M345,440.32s-.17-.12-.49-.39l-1.39-1.2-5.29-4.65c-4.58-4.06-11.21-9.94-19.15-17.48a332.3,332.3,0,0,1-26.41-28c-9.32-11.09-18.82-23.88-28.47-37.51S245,324.5,237,312.45c-4-6-7.71-11.83-11.07-17.32s-6.35-10.7-8.93-15.53a245.28,245.28,0,0,1-11.22-23.37c-1.21-2.81-2-5.05-2.59-6.56-.28-.74-.49-1.31-.64-1.72s-.21-.59-.21-.59.1.19.26.58l.69,1.69c.61,1.49,1.43,3.72,2.68,6.52a255,255,0,0,0,11.36,23.27c2.59,4.82,5.64,10,9,15.48s7.08,11.26,11.1,17.28c8,12,17.25,25,26.88,38.66s19.12,26.41,28.41,37.5a336.91,336.91,0,0,0,26.29,28c7.9,7.57,14.5,13.49,19,17.6l5.23,4.72,1.36,1.24Z" style="fill:#455a64"></path><path d="M289,242.12a5,5,0,0,1-.11.76q-.17.81-.42,2.16c-.36,1.87-1,4.56-1.79,7.86s-1.91,7.22-3.24,11.52-3,9-4.87,13.82-3.9,9.38-5.82,13.46-3.79,7.67-5.44,10.65-3,5.38-4,7l-1.16,1.87a5.31,5.31,0,0,1-.43.63,3.49,3.49,0,0,1,.34-.69c.27-.48.63-1.11,1.07-1.91,1-1.65,2.28-4.06,3.88-7.06s3.42-6.62,5.33-10.69,3.86-8.61,5.77-13.44,3.5-9.5,4.89-13.78,2.48-8.17,3.34-11.46,1.53-6,1.95-7.82q.33-1.32.51-2.13A4.44,4.44,0,0,1,289,242.12Z" style="fill:#455a64"></path><path d="M295.13,421.14a4.69,4.69,0,0,1-.77-.28l-2.19-.92-1.57-.67c-.58-.23-1.23-.44-1.91-.69-1.38-.48-2.92-1.11-4.7-1.57l-2.77-.81c-1-.27-2-.46-3-.71-2.09-.53-4.38-.86-6.77-1.25a85.31,85.31,0,0,0-31.36,1.39c-2.35.6-4.6,1.13-6.63,1.84-1,.34-2,.62-3,1l-2.68,1.05c-1.74.62-3.21,1.38-4.55,2-.66.31-1.28.58-1.84.86l-1.51.81-2.09,1.1a5.71,5.71,0,0,1-.75.36,4.3,4.3,0,0,1,.7-.45l2.05-1.19,1.49-.85c.55-.29,1.17-.58,1.83-.9,1.32-.62,2.8-1.41,4.53-2l2.68-1.09c.94-.37,1.95-.66,3-1,2.05-.74,4.3-1.28,6.66-1.9a83.72,83.72,0,0,1,31.54-1.4c2.4.41,4.7.76,6.8,1.31,1.05.26,2.08.46,3.05.75l2.77.84c1.78.49,3.32,1.14,4.69,1.64.68.27,1.33.49,1.9.74l1.56.72,2.15,1A6.31,6.31,0,0,1,295.13,421.14Z" style="fill:#455a64"></path><path d="M355.6,257.68s14,6.11,23.7,17.39,52.11,50.16,57.55,62.22,11.67,28.39,6.22,41.22-8.94,14.39-27.22,10.5-72-41.25-72-41.25l5.23-63.25Z" style="fill:#263238"></path><path d="M160.35,271.91s-15.29,10.69-21.86,32.81c-4.4,14.81-28.07,79.21-27.41,88.13s1.21,41.4,17.74,48.67,43.76,1.17,49.47-10S160.35,271.91,160.35,271.91Z" style="fill:#263238"></path><path d="M163.62,381.47a12.45,12.45,0,0,1-.81-1.58c-.24-.52-.55-1.15-1-1.85s-.81-1.54-1.39-2.38l-.87-1.34c-.3-.47-.67-.92-1-1.41-.69-1-1.54-1.94-2.41-3a44.29,44.29,0,0,0-13.92-10.46c-1.24-.54-2.39-1.1-3.53-1.48-.56-.2-1.1-.43-1.63-.59l-1.54-.46c-1-.32-1.88-.48-2.66-.67a19.42,19.42,0,0,0-2-.41,10.18,10.18,0,0,1-1.74-.34,11.56,11.56,0,0,1,1.77.14,19,19,0,0,1,2.07.32,26.44,26.44,0,0,1,2.71.61l1.56.43c.54.15,1.09.37,1.66.56,1.15.37,2.33.92,3.58,1.46a45.68,45.68,0,0,1,7.6,4.55,46.82,46.82,0,0,1,6.48,6c.87,1.05,1.72,2,2.4,3,.34.5.71,1,1,1.43l.85,1.38a25.92,25.92,0,0,1,1.34,2.43,17.38,17.38,0,0,1,.88,1.9A10.38,10.38,0,0,1,163.62,381.47Z" style="fill:#455a64"></path><path d="M158.23,304.72a1.77,1.77,0,0,1,.07.33c0,.25.08.57.14,1,.12.9.28,2.17.49,3.78.4,3.32,1,8.06,1.67,13.91,1.38,11.76,3.22,28,5.11,46s3.45,34.24,4.44,46c.48,5.9.86,10.67,1.07,14,.1,1.63.18,2.9.23,3.81,0,.41,0,.73.05,1a1.37,1.37,0,0,1,0,.33,2.13,2.13,0,0,1-.05-.33c0-.25-.06-.58-.1-1-.08-.9-.19-2.17-.33-3.79-.3-3.33-.72-8.09-1.24-14-1.08-11.78-2.7-28.05-4.59-46s-3.68-34.17-4.95-46c-.64-5.86-1.15-10.61-1.51-13.94-.17-1.62-.3-2.89-.39-3.79l-.09-1A1.75,1.75,0,0,1,158.23,304.72Z" style="fill:#455a64"></path><path d="M132.76,440.32s-8.57-3.63-8.57-16.44,3.42-18.67,8.93-23.41c9.22-7.93,27.46-9.59,27.46-9.59l12.55-6.36,21.09,24.19s-15.29,25.89-24.8,30.68S140.53,444.43,132.76,440.32Z" style="fill:#ffd5be"></path><polygon points="282.09 406.69 123.29 369.71 124.45 364.56 282.94 400.08 282.09 406.69" style="fill:#e0e0e0"></polygon><path d="M149.1,375.5s-1.1,4.15,3.7,6,14.42,4.35,14.42,4.35l-5,4.21s4.3,13.63,12.77,17.52,18.5,2.34,18.5,2.34l10.25-7.59s5.8,2.9,10.15.45c0,0,7.63,2.23,12,.63S238,396.48,238,396.48l-13.16-3.11s1.86-12.35-4.32-11a17.51,17.51,0,0,0-9.61,6.18s-1.83-3.53-5.26-4.05-9.84,2-9.84,2l-23.39-5.71Z" style="fill:#ffd5be"></path><path d="M173.72,412.66a5,5,0,0,1-1-.63,22.21,22.21,0,0,1-2.56-2.06,22.84,22.84,0,0,1-3.23-3.7,15.38,15.38,0,0,1-2.45-5.5,18.43,18.43,0,0,1,0-6A29.83,29.83,0,0,1,165.5,390a29,29,0,0,1,1.15-3.09,4.36,4.36,0,0,1,.57-1.06c.08,0-.64,1.59-1.37,4.25a35.21,35.21,0,0,0-1,4.74,18.87,18.87,0,0,0,.06,5.85,15.49,15.49,0,0,0,2.34,5.33,24.49,24.49,0,0,0,3.08,3.7C172.34,411.63,173.78,412.58,173.72,412.66Z" style="fill:#ffb194"></path><path d="M222.9,395.06a19.11,19.11,0,0,1-2.51,2.1c-1.61,1.22-3.79,2.94-6.34,4.72a9.64,9.64,0,0,1-4.08,1.68,10.1,10.1,0,0,1-3.59-.29,20.18,20.18,0,0,1-2.29-.74,3.16,3.16,0,0,1-.8-.37c0-.09,1.22.33,3.17.75a10.35,10.35,0,0,0,3.45.17,9.46,9.46,0,0,0,3.86-1.63c2.5-1.75,4.74-3.45,6.4-4.59A22.68,22.68,0,0,1,222.9,395.06Z" style="fill:#ffb194"></path><path d="M210.61,390.39a11.09,11.09,0,0,1-1.75,5.22,11.41,11.41,0,0,1-3.65,4.13,45.18,45.18,0,0,0,3.2-4.39A45.3,45.3,0,0,0,210.61,390.39Z" style="fill:#ffb194"></path><path d="M202.14,400.11a2.46,2.46,0,0,1-1.71.66,5.53,5.53,0,0,1-4.11-1.55,10.65,10.65,0,0,1-2.39-3.69,5.78,5.78,0,0,1-.55-1.73,7,7,0,0,1,.89,1.57,12.44,12.44,0,0,0,2.4,3.47,5.73,5.73,0,0,0,3.75,1.57A8.36,8.36,0,0,0,202.14,400.11Z" style="fill:#ffb194"></path><path d="M191.89,409.72a2.42,2.42,0,0,1-.82.24,9.93,9.93,0,0,1-2.3.13,15.48,15.48,0,0,1-7.19-2.38,30.33,30.33,0,0,1-5.8-4.87,16.18,16.18,0,0,1-2.06-2.36,20.81,20.81,0,0,1,2.32,2.1,36.86,36.86,0,0,0,5.81,4.68,16.4,16.4,0,0,0,7,2.46A28.1,28.1,0,0,0,191.89,409.72Z" style="fill:#ffb194"></path><path d="M173.5,360.2a3.06,3.06,0,0,0,1.53-.32,1.06,1.06,0,0,0,.45-1.36c-.29-.48-1-.48-1.53-.43a5.13,5.13,0,0,0,1.31-1.4.57.57,0,0,0,.12-.46c-.09-.26-.46-.25-.71-.16a3,3,0,0,0-.86.44l.11-.38c.48-1.73.93-3.69,0-5.24s-2.88-2.12-4.65-2.51Q162.87,347,156.37,346c-2.27-1.15-5.41,0-7,2.11a9.52,9.52,0,0,0-1.23,2.2,1.5,1.5,0,0,0-.39-.48.83.83,0,0,0-1.21.15c-.22.43.14.93.48,1.28a1.12,1.12,0,0,0-.24,2.05,2.26,2.26,0,0,0-.94.44.8.8,0,0,0-.23.94c.21.36.72.39,1.13.32l.3-.09c-.07.51-.13,1-.19,1.55-.23,2-.68,3.7-.91,5.72a6.4,6.4,0,0,0-2.88.69,1,1,0,0,0-.56.55c-.13.49.46.86,1,.89a3.11,3.11,0,0,1,1.47.17,4.92,4.92,0,0,0-1.44,1.7.59.59,0,0,0-.06.54c.11.19.37.2.59.18a5,5,0,0,0,1.88-.63c0,.15,0,.3,0,.44a2.58,2.58,0,0,0-.74.81c-.27.63.4,1.34,1.09,1.39a1.6,1.6,0,0,0,.44,0l0,0a4.53,4.53,0,0,0,1.51,1.24,1.3,1.3,0,0,0,.35.31,1.36,1.36,0,0,0,.74.16c.51.19,1,.34,1.54.48l12.18,3.32c1.68.46,3.65.86,5-.2a5.71,5.71,0,0,0,1.69-3.19q1.33-4.86,2.69-9.73a7.81,7.81,0,0,0,1.19.77,1.46,1.46,0,0,0,.59.19.54.54,0,0,0,.52-.29.69.69,0,0,0-.07-.56A2.72,2.72,0,0,0,173.5,360.2Z" style="fill:#fff"></path><path d="M235.34,381.55q1.13-5.21,2.26-10.43a18.47,18.47,0,0,0,.73-3.94c.12-2.15-2.45-4.69-5.09-5-3.73-.75-4.53-.56-7.89-1.72s-7.46-1.66-10.14.67-2.77,6.18-3.34,9.6c-.61,3.6-1.88,7.39-.49,10.76,1.66,4,6.35,5.69,10.52,6.92,3.49,1,7.68,1.94,10.46-.42C234.21,386.46,234.83,383.92,235.34,381.55Z" style="fill:#455a64"></path><path d="M227.2,362.84a20.8,20.8,0,0,0-5.27-1.48,7.16,7.16,0,0,0-5.2,1.29c-1.79,1.44-2.46,3.86-2.7,6.14s-.16,4.64-.9,6.82a4.32,4.32,0,0,0-.4,1.79c.06.61.6,1.24,1.21,1.12a2.68,2.68,0,0,0,1.85,4c.86,1.55,2.24,3,4,3.14,1.17.1,2.44-.39,3.48.17a5.47,5.47,0,0,1,1.18,1.08,2,2,0,0,0,1.37.72c.54,0,1.07-.53.89-1a3.51,3.51,0,0,0,1.19.91,1.17,1.17,0,0,0,1.36-.3c.3-.41,0-1.13-.46-1.13a3.21,3.21,0,0,0,2.63-.91,7.42,7.42,0,0,0,1.58-2.4,47.54,47.54,0,0,0,3.18-11.71,6.75,6.75,0,0,0,.09-3.06,2.31,2.31,0,0,0-2.22-1.78.87.87,0,0,0,.86-.94,1.18,1.18,0,0,0-1-1,1.86,1.86,0,0,0-1.38.32.74.74,0,0,0,.11-1.18,1.14,1.14,0,0,0-1.32,0,2.66,2.66,0,0,0-.87,1.09,3.87,3.87,0,0,0-1.14-2.06,1.36,1.36,0,0,0-2,.33" style="fill:#fff"></path><path d="M231.17,373.68a5.6,5.6,0,0,0-1.36-4.06,6.43,6.43,0,0,0-3.28-1.81,4.69,4.69,0,0,0-.62-.1,6.14,6.14,0,0,0-3.18.24h0a5.81,5.81,0,0,0-2.38,1.56,6.2,6.2,0,0,0-.59,7.26,6.33,6.33,0,0,0,6.82,2.62A6.47,6.47,0,0,0,231.17,373.68Z" style="fill:#FF7010"></path><path d="M217.69,377.76a1.49,1.49,0,0,1-1.26-.42,1.79,1.79,0,0,1-.63-1.4,2,2,0,0,1,1-1.66.14.14,0,0,1,.19.06.14.14,0,0,1-.05.19,1.06,1.06,0,0,1-1.44-.49,1.66,1.66,0,0,1,.18-1.62,4.75,4.75,0,0,1,1-1.05l.08.27a1.24,1.24,0,1,1,.63-2.37h0a.11.11,0,0,1,.06.15.11.11,0,0,1-.14.06,1.15,1.15,0,0,1-.81-.8.71.71,0,0,1,.33-.79c.45-.27.73,0,.69,0a.6.6,0,0,0-.62.09.58.58,0,0,0-.22.64,1,1,0,0,0,.69.62l-.07.22a1,1,0,0,0-1.25.55,1,1,0,0,0,.75,1.3.16.16,0,0,1,.13.17.17.17,0,0,1-.06.1,4.51,4.51,0,0,0-1,1,1.39,1.39,0,0,0-.18,1.32.79.79,0,0,0,1,.37l.14.26A1.73,1.73,0,0,0,216,376a1.62,1.62,0,0,0,.51,1.26A2.27,2.27,0,0,0,217.69,377.76Z" style="fill:#263238"></path><path d="M232.76,372.34s0,.08.13.11a.27.27,0,0,0,.36-.18,2.39,2.39,0,0,0,0-.82,1.39,1.39,0,0,0-.34-.93.15.15,0,0,1,0-.21.14.14,0,0,1,.15,0,.89.89,0,0,0,.63.05c.16-.07.18-.31.06-.5s-.61-.31-1-.32a.15.15,0,0,1-.15-.15.15.15,0,0,1,.06-.11,4.09,4.09,0,0,0,.82-.87c.06-.11,0-.17-.16-.2a1.46,1.46,0,0,0-.42,0,5.12,5.12,0,0,0-.8.34s.18-.33.75-.52a1.4,1.4,0,0,1,.49-.08.51.51,0,0,1,.31.12.35.35,0,0,1,.06.4,3.5,3.5,0,0,1-.86,1l-.09-.27a1.41,1.41,0,0,1,1.22.45.79.79,0,0,1,.13.5.55.55,0,0,1-.31.44,1.07,1.07,0,0,1-.87-.05l.15-.24a1.63,1.63,0,0,1,.39,1.12,2.6,2.6,0,0,1-.1.91.44.44,0,0,1-.3.25.38.38,0,0,1-.27,0C232.71,372.44,232.75,372.32,232.76,372.34Z" style="fill:#263238"></path><path d="M213.26,374.49c0,.14-.6.37-1.22.86s-1,1-1.15,1,.09-.81.83-1.37S213.24,374.35,213.26,374.49Z" style="fill:#263238"></path><path d="M217.45,361.94c-.15,0-.19-.44-.38-.87s-.44-.75-.35-.88.58.09.83.68S217.59,362,217.45,361.94Z" style="fill:#263238"></path><path d="M224.2,362.16c-.13-.07,0-.51-.16-1s-.37-.87-.27-1,.63.18.78.88S224.32,362.24,224.2,362.16Z" style="fill:#263238"></path><path d="M237.21,365.59c.1.11-.24.55-.86.76s-1.16.09-1.15-.05.46-.25,1-.44S237.12,365.48,237.21,365.59Z" style="fill:#263238"></path><path d="M236.94,374.66c0,.14-.27.29-.63.21s-.56-.36-.48-.47.34-.1.6,0S236.92,374.51,236.94,374.66Z" style="fill:#263238"></path><path d="M233.69,384.76c-.15,0-.15-.53-.38-1.06s-.56-.91-.48-1,.68.12,1,.83S233.82,384.81,233.69,384.76Z" style="fill:#263238"></path><path d="M229.86,388.91c-.11-.1.4-.76.56-1.73s-.07-1.75.07-1.81.65.76.45,1.9S229.94,389,229.86,388.91Z" style="fill:#263238"></path><path d="M220.86,387.33c-.11-.09,0-.41.08-.78s.08-.72.22-.77.39.34.29.86S221,387.43,220.86,387.33Z" style="fill:#263238"></path><path d="M214.93,385.34c-.13.05-.42-.62-.15-1.43s.89-1.19,1-1.07-.27.57-.48,1.23S215.08,385.31,214.93,385.34Z" style="fill:#263238"></path><path d="M182.25,374.06a1.08,1.08,0,1,0,.59,1.5,3,3,0,0,0-.05,1.48,1.25,1.25,0,0,0,1,.95.81.81,0,0,0,.85-.95,1.1,1.1,0,0,0,2.2.09,2.62,2.62,0,0,0,1.07,1.61c.59.3,1.52-.16,1.35-.8a1.24,1.24,0,0,0,2.27.92,2.89,2.89,0,0,0,1.3,1.33c.59.22,1.42-.17,1.38-.8.29.52.65,1.09,1.23,1.22s1.26-.6.86-1a3.24,3.24,0,0,0,3.48.68,4.13,4.13,0,0,0,1.07.68.8.8,0,0,0,.62-1.48l-2-.93" style="fill:#fff"></path><path d="M196,353.41a19.71,19.71,0,0,0-6.9-2.47c-2.45-.23-5.17.65-6.43,2.76a9.79,9.79,0,0,0-1,4q-.57,5.06-1.13,10.09a8.94,8.94,0,0,0,.32,4.74c1,2.25,3.61,3.23,6,4q4.83,1.49,9.74,2.71c1.46.37,3.08.7,4.42,0,1.7-.87,2.25-3,2.62-4.88.62-3.15,1.2-6.3,1.76-9.46.36-2,.7-4.16-.08-6.06-.92-2.26-3.22-3.65-5.52-4.49s-4.75-1.28-6.89-2.47" style="fill:#455a64"></path><path d="M207.17,352.06l-.08-.07a15.72,15.72,0,0,0-3.07-2.16c-6.49-3.42-14.5-4.77-19.91-3.3-3.83,1-8.49,5.19-7,9.06a1.84,1.84,0,0,0,.53.78,3.12,3.12,0,0,0,3.49-.14c1.06-.66,1.89-1.63,2.92-2.33a9.07,9.07,0,0,1,6.44-1.16,26.27,26.27,0,0,1,6.35,2.09c3.3,1.4,6.73,2.88,9.11,5.58,1.22,1.39,2.4,3.22,4.25,3.29a3.36,3.36,0,0,0,3.11-2.45c.19-.59-.29-1.66-.93-2.78A25.56,25.56,0,0,0,207.17,352.06Z" style="fill:#FF7010"></path><path d="M205.8,362.46a3.86,3.86,0,0,1-.83.59,23.79,23.79,0,0,1-2.44,1.35,35.12,35.12,0,0,1-17.85,3.51,22.66,22.66,0,0,1-2.77-.33,3.39,3.39,0,0,1-1-.23c0-.09,1.45.12,3.77.19a39.75,39.75,0,0,0,17.69-3.47C204.5,363.12,205.76,362.38,205.8,362.46Z" style="fill:#263238"></path><path d="M204.31,371.66a3.44,3.44,0,0,1-.86.4,24.56,24.56,0,0,1-2.44.81,34,34,0,0,1-8.37,1.25,34.59,34.59,0,0,1-8.43-.83c-1.06-.25-1.9-.49-2.48-.69a3.54,3.54,0,0,1-.87-.36c0-.08,1.31.29,3.42.68a40.46,40.46,0,0,0,8.34.68,39.89,39.89,0,0,0,8.3-1.09C203,372,204.28,371.58,204.31,371.66Z" style="fill:#263238"></path><path d="M200.43,356.16a10.39,10.39,0,0,1-2.32,1.63,28.5,28.5,0,0,1-6.31,2.66A28.09,28.09,0,0,1,185,361.5a10.47,10.47,0,0,1-2.83-.15,23.46,23.46,0,0,1,2.81-.21,35.25,35.25,0,0,0,6.65-1.19,34.67,34.67,0,0,0,6.27-2.49A27.71,27.71,0,0,1,200.43,356.16Z" style="fill:#263238"></path><path d="M184.61,353.37c0,.07-.41.18-1.1.09a4.52,4.52,0,0,1-3.76-3.45c-.15-.67-.07-1.1,0-1.1a5.59,5.59,0,0,0,4.87,4.46Z" style="fill:#fff"></path><path d="M188.26,346c.05.06-.22.36-.52.91a6.18,6.18,0,0,0-.7,2.33,17.6,17.6,0,0,0,0,2.5c0,.65,0,1.06,0,1.07s-.2-.38-.32-1a9,9,0,0,1-.14-2.6,5.06,5.06,0,0,1,.91-2.47C187.84,346.17,188.22,346,188.26,346Z" style="fill:#fff"></path><path d="M197.08,347.35a24.62,24.62,0,0,0-2.34,2.64,25.63,25.63,0,0,0-1.51,3.2,5.26,5.26,0,0,1,1.07-3.49A5.19,5.19,0,0,1,197.08,347.35Z" style="fill:#fff"></path><path d="M205,350.74a7.37,7.37,0,0,1-2.1,3.32,7.52,7.52,0,0,1-3.23,2.23c-.08-.13,1.39-1.06,2.85-2.59S204.89,350.67,205,350.74Z" style="fill:#fff"></path><path d="M211,356.85c.06,0,0,.4-.42.91a5,5,0,0,1-1.85,1.55,5.18,5.18,0,0,1-2.35.55c-.62,0-1-.14-1-.21a7.74,7.74,0,0,0,5.59-2.8Z" style="fill:#fff"></path><g style="opacity:0.30000000000000004"><path d="M185.92,351.8c2.19-.62,8.87-.11,15.77,3.68s8.56,8.22,8.56,8.22c-1.85-.07-3-1.9-4.25-3.29-2.38-2.7-5.81-4.18-9.11-5.58a26.27,26.27,0,0,0-6.35-2.09,9.07,9.07,0,0,0-6.44,1.16c-1,.7-1.86,1.67-2.92,2.33a3.12,3.12,0,0,1-3.49.14S180.2,353.39,185.92,351.8Z"></path></g><path d="M184.08,354.13c-.67.69.12,1.95,1.07,2.05a3.9,3.9,0,0,0,2.59-1.08,1.72,1.72,0,0,0,3.31.85,3.77,3.77,0,0,0,1.71,1.85c.79.32,1.93-.17,1.91-1a4,4,0,0,0,1.64,1.48,1.37,1.37,0,0,0,1.84-.75,2.24,2.24,0,0,0,3.47,1,3.09,3.09,0,0,0,1.23,1.41c.58.26,1.43,0,1.5-.65s-.35-.87-.72-1.18a25.1,25.1,0,0,0-16.55-5.65,5,5,0,0,0-3.78,1.34" style="fill:#fff"></path><path d="M245.25,389.45a1.08,1.08,0,1,0,.59,1.5,3.09,3.09,0,0,0-.05,1.48,1.26,1.26,0,0,0,1,.95.81.81,0,0,0,.85-.95,1.1,1.1,0,0,0,2.2.09,2.62,2.62,0,0,0,1.07,1.61c.59.3,1.52-.16,1.35-.8a1.24,1.24,0,0,0,2.27.92,2.89,2.89,0,0,0,1.3,1.33c.59.22,1.43-.17,1.38-.8.29.52.65,1.09,1.23,1.22s1.26-.6.86-1a3.24,3.24,0,0,0,3.48.68,4.13,4.13,0,0,0,1.07.68.8.8,0,0,0,.62-1.48l-2-.93" style="fill:#fff"></path><path d="M259,368.8a19.71,19.71,0,0,0-6.9-2.47c-2.45-.23-5.17.65-6.43,2.76a9.79,9.79,0,0,0-1,4q-.57,5.06-1.13,10.09a8.94,8.94,0,0,0,.32,4.74c1,2.25,3.62,3.23,6,3.95q4.83,1.49,9.74,2.71c1.46.37,3.08.7,4.42,0,1.7-.87,2.26-3,2.62-4.88q.93-4.72,1.77-9.46c.35-2,.69-4.16-.09-6.06-.92-2.26-3.22-3.65-5.52-4.49s-4.75-1.28-6.89-2.47" style="fill:#455a64"></path><path d="M270.17,367.45l-.07-.07a16.09,16.09,0,0,0-3.08-2.16c-6.49-3.42-14.49-4.77-19.91-3.3-3.83,1-8.49,5.19-7,9.06a1.94,1.94,0,0,0,.53.78,3.12,3.12,0,0,0,3.49-.14c1.06-.66,1.89-1.63,2.92-2.33a9.07,9.07,0,0,1,6.44-1.16,26.27,26.27,0,0,1,6.35,2.09c3.31,1.4,6.73,2.88,9.11,5.58,1.22,1.39,2.4,3.22,4.25,3.29a3.36,3.36,0,0,0,3.11-2.45c.19-.59-.29-1.66-.93-2.79A25.69,25.69,0,0,0,270.17,367.45Z" style="fill:#FF7010"></path><path d="M268.8,377.85a3.86,3.86,0,0,1-.83.59,24.56,24.56,0,0,1-2.43,1.35,35.58,35.58,0,0,1-8.7,2.93,35.22,35.22,0,0,1-9.16.58,22.66,22.66,0,0,1-2.77-.33,3.39,3.39,0,0,1-1-.23c0-.09,1.45.12,3.78.19a39.74,39.74,0,0,0,17.68-3.47C267.51,378.51,268.76,377.77,268.8,377.85Z" style="fill:#263238"></path><path d="M267.31,387.05a3.44,3.44,0,0,1-.86.4,25.13,25.13,0,0,1-2.43.81,34.17,34.17,0,0,1-8.38,1.25,34.65,34.65,0,0,1-8.43-.83c-1.06-.25-1.9-.49-2.47-.69a3.52,3.52,0,0,1-.88-.36c0-.08,1.31.29,3.42.68a40.5,40.5,0,0,0,8.35.68,39.88,39.88,0,0,0,8.29-1.09C266,387.41,267.28,387,267.31,387.05Z" style="fill:#263238"></path><path d="M263.43,371.55a10.39,10.39,0,0,1-2.32,1.63,28.5,28.5,0,0,1-6.31,2.66,28.09,28.09,0,0,1-6.77,1.05,10.47,10.47,0,0,1-2.83-.15,23.46,23.46,0,0,1,2.81-.21,35.25,35.25,0,0,0,6.65-1.19,34.67,34.67,0,0,0,6.27-2.49C262.47,372.06,263.39,371.48,263.43,371.55Z" style="fill:#263238"></path><path d="M247.62,368.76c0,.07-.42.18-1.1.09a4.51,4.51,0,0,1-3.77-3.45c-.14-.67-.07-1.1,0-1.1a5.59,5.59,0,0,0,4.88,4.46Z" style="fill:#fff"></path><path d="M251.26,361.4c.05.06-.22.36-.52.91a6.37,6.37,0,0,0-.7,2.33,17.6,17.6,0,0,0,0,2.5c0,.65,0,1.06,0,1.07s-.2-.38-.32-1a9,9,0,0,1-.14-2.6,5.06,5.06,0,0,1,.91-2.47C250.84,361.56,251.22,361.35,251.26,361.4Z" style="fill:#fff"></path><path d="M260.08,362.74a26,26,0,0,0-2.34,2.64,23.19,23.19,0,0,0-1.5,3.2,6.43,6.43,0,0,1,3.84-5.84Z" style="fill:#fff"></path><path d="M268,366.13a9.88,9.88,0,0,1-5.34,5.55c-.08-.13,1.39-1.06,2.86-2.59S267.89,366.06,268,366.13Z" style="fill:#fff"></path><path d="M274,372.24c.06,0-.05.4-.41.91a5.25,5.25,0,0,1-4.2,2.1c-.63,0-1-.14-1-.21a7.74,7.74,0,0,0,5.59-2.8Z" style="fill:#fff"></path><g style="opacity:0.30000000000000004"><path d="M248.92,367.19c2.19-.62,8.87-.11,15.77,3.68s8.56,8.22,8.56,8.22c-1.85-.07-3-1.9-4.25-3.29-2.38-2.7-5.8-4.18-9.11-5.58a26.27,26.27,0,0,0-6.35-2.09,9.07,9.07,0,0,0-6.44,1.16c-1,.7-1.86,1.67-2.92,2.33a3.12,3.12,0,0,1-3.49.14S243.2,368.78,248.92,367.19Z"></path></g><path d="M247.08,369.52c-.67.69.12,2,1.07,2.05a4,4,0,0,0,2.6-1.08,1.71,1.71,0,0,0,3.3.85,3.77,3.77,0,0,0,1.71,1.85c.79.32,1.93-.17,1.91-1a4,4,0,0,0,1.64,1.48,1.39,1.39,0,0,0,1.85-.75,2.23,2.23,0,0,0,3.46,1,3.05,3.05,0,0,0,1.24,1.41c.57.26,1.42,0,1.49-.65,0-.48-.35-.87-.72-1.18a25.1,25.1,0,0,0-16.55-5.65,5,5,0,0,0-3.78,1.34" style="fill:#fff"></path><path d="M227.46,379a3.9,3.9,0,0,0-1.79-.38,7,7,0,0,1-2.13-.12,2.09,2.09,0,0,1-1.11-.76,3.24,3.24,0,0,1-.57-1.3c-.18-.93-.18-1.76-.37-2.5a4.22,4.22,0,0,0-.81-1.77,3.92,3.92,0,0,0-1.5-1c0-.06.87-.14,1.77.78a4.34,4.34,0,0,1,1,1.91c.22.77.24,1.67.41,2.5a2.08,2.08,0,0,0,1.32,1.72,8.33,8.33,0,0,0,2,.21,3,3,0,0,1,1.4.37C227.38,378.83,227.48,379,227.46,379Z" style="fill:#fff"></path><path d="M230,376.88c0,.06-.76.08-1.51-.75a3.82,3.82,0,0,1-.85-1.67,13.75,13.75,0,0,1-.28-2.21,7.54,7.54,0,0,0-.39-2.08,5,5,0,0,0-.89-1.45c-.66-.73-1.25-1-1.21-1.08a2.57,2.57,0,0,1,1.47.82,4.66,4.66,0,0,1,1.07,1.53,6.91,6.91,0,0,1,.47,2.22,16.14,16.14,0,0,0,.23,2.14,3.82,3.82,0,0,0,.66,1.55A4.17,4.17,0,0,0,230,376.88Z" style="fill:#fff"></path><g style="opacity:0.30000000000000004"><path d="M219.92,375c-.06,0-.29-.48-.32-1.36a5.32,5.32,0,0,1,3.71-5.21,2.27,2.27,0,0,1,1.38-.15c0,.09-.51.17-1.25.49A5.7,5.7,0,0,0,220,373.6,12.54,12.54,0,0,1,219.92,375Z" style="fill:#fff"></path></g><g style="opacity:0.30000000000000004"><path d="M191.9,347.84c0,.08-.86-.15-2.21-.27a15,15,0,0,0-10.05,2.7c-1.11.79-1.72,1.4-1.78,1.34a6.05,6.05,0,0,1,1.56-1.63,13.32,13.32,0,0,1,4.87-2.46,13.6,13.6,0,0,1,5.44-.32A6.07,6.07,0,0,1,191.9,347.84Z" style="fill:#fff"></path></g><g style="opacity:0.30000000000000004"><path d="M251.5,363.19a15.72,15.72,0,0,0-10.34,4.31,4.16,4.16,0,0,1,1.08-1.33,11.7,11.7,0,0,1,7.55-3.15A4,4,0,0,1,251.5,363.19Z" style="fill:#fff"></path></g><polygon points="170.5 368.47 145.57 362.24 147.03 354.96 172.47 361.35 170.5 368.47" style="fill:#455a64"></polygon><path d="M172.33,361.43c0,.08-1.5-.07-3.91-.23s-5.74-.28-9.42-.16-7,.48-9.39.8a38.77,38.77,0,0,1-3.88.5,4.08,4.08,0,0,1,1-.29c.66-.17,1.62-.36,2.82-.57a70.29,70.29,0,0,1,9.42-1,71.9,71.9,0,0,1,9.47.31c1.21.13,2.18.26,2.85.37A4.72,4.72,0,0,1,172.33,361.43Z" style="fill:#263238"></path><path d="M171.43,365.47a8.6,8.6,0,0,1-6.74,1.39c0-.15,1.56-.11,3.41-.5S171.36,365.34,171.43,365.47Z" style="fill:#263238"></path><path d="M151,356.13a13.35,13.35,0,0,1-2.19.66,12.24,12.24,0,0,1-2.15.75c-.09-.1.73-.84,2-1.24A3.4,3.4,0,0,1,151,356.13Z" style="fill:#263238"></path><path d="M156.2,345.8c-1.6,3.2-3.21,6.46-3.79,10s0,7.43,2.4,10.1,6.8,3.6,9.65,1.44c1.88-1.42,2.75-3.8,3.28-6.09s.83-4.69,1.93-6.77c.71-1.35,1.78-2.63,1.76-4.15A5,5,0,0,0,169,346.6a12.2,12.2,0,0,0-13-.5" style="fill:#FF7010"></path><path d="M166.78,364.61a4.53,4.53,0,0,0-1.5-1.91,6.21,6.21,0,0,0-2.46-1,16.52,16.52,0,0,0-3.32,0,14.39,14.39,0,0,1-3.43-.11,6,6,0,0,1-2.57-1.19,3.44,3.44,0,0,1-1.11-1.56,1.31,1.31,0,0,1-.1-.69,4.5,4.5,0,0,0,1.44,2,5.74,5.74,0,0,0,2.44,1,15,15,0,0,0,3.31.07,14.85,14.85,0,0,1,3.42.09,5.88,5.88,0,0,1,2.6,1.14,3.55,3.55,0,0,1,1.16,1.51A1.36,1.36,0,0,1,166.78,364.61Z" style="fill:#fff"></path><path d="M167.87,358.82a5.28,5.28,0,0,0-1.32-2.05,6.64,6.64,0,0,0-2.29-1.29,19.09,19.09,0,0,0-3.25-.64,13.75,13.75,0,0,1-3.33-.76,6.06,6.06,0,0,1-2.32-1.61,3.59,3.59,0,0,1-.86-1.69,1.3,1.3,0,0,1,0-.69,4.87,4.87,0,0,0,1.15,2.14,6.19,6.19,0,0,0,2.21,1.41,16.09,16.09,0,0,0,3.23.69,16,16,0,0,1,3.33.7,6.39,6.39,0,0,1,2.4,1.48,3.91,3.91,0,0,1,1,1.62A1.32,1.32,0,0,1,167.87,358.82Z" style="fill:#fff"></path><path d="M170,353.19s0-.21,0-.55a2.09,2.09,0,0,0-.74-1.22,3.94,3.94,0,0,0-2-.81,12.79,12.79,0,0,1-2.79-.65,9.41,9.41,0,0,1-4.17-3.1,4.68,4.68,0,0,1-1-1.91c.08,0,.45.7,1.29,1.68a10.29,10.29,0,0,0,4.07,2.84,14,14,0,0,0,2.7.67,4.11,4.11,0,0,1,2.17,1,2.15,2.15,0,0,1,.69,1.47C170.19,353,170.06,353.2,170,353.19Z" style="fill:#fff"></path><g style="opacity:0.30000000000000004"><path d="M157,364.79s-.31,0-.78-.25a4.29,4.29,0,0,1-1.61-1.54,6.7,6.7,0,0,1-.93-3.18,20.73,20.73,0,0,1,.28-4,30.11,30.11,0,0,1,1.92-7,11.52,11.52,0,0,1,1.36-2.67c.07,0-.4,1.08-1,2.81a37.46,37.46,0,0,0-1.75,6.93,22.76,22.76,0,0,0-.31,3.9,6.48,6.48,0,0,0,.77,3A5,5,0,0,0,157,364.79Z" style="fill:#fff"></path></g><g style="opacity:0.30000000000000004"><path d="M161.54,366.82c0,.13-.76.4-1.74.16s-1.58-.82-1.48-.93.74.23,1.6.43S161.52,366.67,161.54,366.82Z" style="fill:#fff"></path></g><path d="M352.76,298.87,385.19,313l21.91,8.06s17.14,5.3,21.59,11.25c10.09,13.5,24,30.71,16.11,42s-16.11,11.55-25.84,9.42-25.31-8.88-32.31-16.18-58.19-45.61-58.19-45.61Z" style="fill:#ffd5be"></path><path d="M333.6,313.18l3.55,14.56a6.14,6.14,0,0,1-4,7.28l-66.66,22.31a3,3,0,0,1-3.48-1.18l-1.4-2L257,355.42c-1.7-.61-3.12-3.13-4.08-5.67l-12.7,3.19L239.4,351l12.16-5.11s-1.43-6.34-.41-7.94l4.42-1.57s-.11-3.44.94-4.62l17.09-6.18,49.74-17.93A7.83,7.83,0,0,1,333.6,313.18Z" style="fill:#FF7010"></path><path d="M261.6,354.1l-.11-.16-.28-.48c-.25-.41-.59-1-1-1.79a44.5,44.5,0,0,1-4.33-12.75c-.15-.85-.25-1.55-.3-2l-.06-.55c0-.13,0-.19,0-.19s0,.06.05.19.07.35.1.54c.08.48.2,1.17.37,2a50.36,50.36,0,0,0,1.73,6.5,53.82,53.82,0,0,0,2.58,6.21c.38.77.69,1.4.92,1.82l.25.5C261.58,354,261.61,354.09,261.6,354.1Z" style="fill:#263238"></path><g style="opacity:0.30000000000000004"><path d="M255.74,336l-.12-.16a38.83,38.83,0,0,0,6,18.23Q258.66,345.07,255.74,336Z"></path></g><path d="M256,339c0,.07-1.2,0-2.63.38a23.72,23.72,0,0,0-2.52.86,2.59,2.59,0,0,1,.67-.42,8.9,8.9,0,0,1,1.8-.65,8.65,8.65,0,0,1,1.89-.23A2.48,2.48,0,0,1,256,339Z" style="fill:#263238"></path><path d="M256.41,341.86c0,.07-1.2,0-2.63.38a23.72,23.72,0,0,0-2.52.86,2.56,2.56,0,0,1,.68-.42,8.57,8.57,0,0,1,1.79-.65,8.66,8.66,0,0,1,1.9-.23A2.33,2.33,0,0,1,256.41,341.86Z" style="fill:#263238"></path><path d="M257.17,344.52a19.47,19.47,0,0,0-2.78.47c-1.51.4-2.63,1-2.66.95a2.47,2.47,0,0,1,.71-.44,10.61,10.61,0,0,1,1.9-.72A6.5,6.5,0,0,1,257.17,344.52Z" style="fill:#263238"></path><path d="M258,347a5.91,5.91,0,0,1-.83.1,12.88,12.88,0,0,0-2,.44c-1.5.47-2.63,1.09-2.66,1a2.61,2.61,0,0,1,.71-.45,11.68,11.68,0,0,1,1.89-.78A6.17,6.17,0,0,1,258,347Z" style="fill:#263238"></path><path d="M259.07,349.59a3,3,0,0,1-.74.47,9.77,9.77,0,0,1-2,.71,8.8,8.8,0,0,1-2.11.23,2.5,2.5,0,0,1-.87-.1,18.55,18.55,0,0,0,2.93-.33A19.7,19.7,0,0,0,259.07,349.59Z" style="fill:#263238"></path><path d="M260.2,351.89a2.4,2.4,0,0,1-.6.58,6.67,6.67,0,0,1-1.79,1,7,7,0,0,1-2,.41,2.17,2.17,0,0,1-.84-.06,11.57,11.57,0,0,0,2.78-.55A12.25,12.25,0,0,0,260.2,351.89Z" style="fill:#263238"></path><g style="opacity:0.30000000000000004"><path d="M251.56,345.91a2.1,2.1,0,0,0-.28,2,2.86,2.86,0,0,0,1.63,1.8A24.16,24.16,0,0,1,251.56,345.91Z"></path></g><g style="opacity:0.30000000000000004"><path d="M325.58,331c-.82-1.84-2-3.68-1.81-5.69.23-2.71,2.89-5,2.34-7.69a4.51,4.51,0,0,0-2.42-2.93,11.54,11.54,0,0,0-3.76-1c-16.14-2.28-30.38,4.93-46.33,12,.1,3.81-.38,8-.28,11.78a20.59,20.59,0,0,0,.64,5.43,6.84,6.84,0,0,0,3.27,4.23c2.69,1.33,5.95,0,8.39-1.7a7.76,7.76,0,0,0,5.86,2.82,16.3,16.3,0,0,0,6.55-1.3,3.54,3.54,0,0,0,2-1.47,3.28,3.28,0,0,0-.62-3.14,6.63,6.63,0,0,1-1.51-2.94c1,2.66,4.05,4.15,6.91,4.2s5.6-1.06,8.19-2.28,5.16-2.57,8-3.08c1.55-.28,3.3-.36,4.39-1.49C326.8,335.21,326.4,332.81,325.58,331Z"></path></g><path d="M292.17,302.68l-15.08,14-4.43,10.77s.7,13.83,3.12,14.85,3,1.15,3.93-.48,2.08-11.95,2.08-11.95l3.3,13,13.46,7.57s2.42-3-1.32-7.89a59.26,59.26,0,0,1-4.12-5.67l-2.27-9.15,6.45-10.49-2.48,9.1a5.65,5.65,0,0,0,.89,4.39l10.16,14.59L318,347.78s.74-2.37-1.44-5.42l6.62,1.5s6-4,1.42-7.52L320,332.8l-2.35-7.36L319,316s-.6,1.5,3.87.25c0,0,10.28,4.94,15.64,5.93s12.26-6.77,12.26-6.77l2-16.52-55.71.8Z" style="fill:#ffd5be"></path><path d="M311.57,311.84A6.83,6.83,0,0,1,311,313c-.4.76-1,1.85-1.67,3.23a22.36,22.36,0,0,0-1.73,5.05,14.51,14.51,0,0,0,.2,6.46c1.16,4.52,3.86,8,5.77,10.32,1,1.18,1.8,2.12,2.36,2.77a6.14,6.14,0,0,1,.83,1.06,8.36,8.36,0,0,1-1-.92c-.6-.61-1.47-1.51-2.49-2.67A37.9,37.9,0,0,1,310,334a20.93,20.93,0,0,1-2.7-6.11,14.42,14.42,0,0,1-.17-6.67A20.76,20.76,0,0,1,309,316.1c.7-1.38,1.37-2.44,1.83-3.17A5.85,5.85,0,0,1,311.57,311.84Z" style="fill:#ffb194"></path><path d="M355,310.77a2.88,2.88,0,0,1-.13.92,9.63,9.63,0,0,1-.27,1.05,12.36,12.36,0,0,1-.47,1.36,18.79,18.79,0,0,1-1.69,3.35,22.2,22.2,0,0,1-2.86,3.6,22.43,22.43,0,0,1-3.59,2.88,19.65,19.65,0,0,1-3.34,1.71c-.49.21-1,.34-1.36.47a7.77,7.77,0,0,1-1.05.27,2.74,2.74,0,0,1-.92.14c0-.1,1.27-.38,3.19-1.22a23.26,23.26,0,0,0,3.22-1.77,23.82,23.82,0,0,0,3.48-2.85,24.22,24.22,0,0,0,2.83-3.49,21.52,21.52,0,0,0,1.75-3.23C354.6,312,354.87,310.75,355,310.77Z" style="fill:#ffb194"></path><path d="M289.46,309.87c.06.08-1,.79-2.37,2.29a20.42,20.42,0,0,0-2.15,2.82,26.37,26.37,0,0,0-2,3.87,25.87,25.87,0,0,0-1.2,4.17,19.61,19.61,0,0,0-.29,3.54c0,2,.41,3.25.31,3.27a2.74,2.74,0,0,1-.3-.84,5.74,5.74,0,0,1-.22-1,10.46,10.46,0,0,1-.16-1.39,17.41,17.41,0,0,1,.19-3.63,22.29,22.29,0,0,1,1.19-4.28,22.73,22.73,0,0,1,2.05-3.94,17.61,17.61,0,0,1,2.29-2.82,10.46,10.46,0,0,1,1-.94,6.26,6.26,0,0,1,.84-.64A2.92,2.92,0,0,1,289.46,309.87Z" style="fill:#ffb194"></path></g><g id="freepik--Bowls--inject-36"><path d="M439.08,401.13h2a0,0,0,0,1,0,0v54.71a.81.81,0,0,1-.81.81h-.37a.81.81,0,0,1-.81-.81V401.13A0,0,0,0,1,439.08,401.13Z" transform="translate(685.16 992.4) rotate(-157.77)" style="fill:#FF7010"></path><path d="M446.81,402.67h2a0,0,0,0,1,0,0v54.71a.81.81,0,0,1-.81.81h-.37a.81.81,0,0,1-.81-.81V402.67A0,0,0,0,1,446.81,402.67Z" transform="translate(620.4 1027.1) rotate(-150)" style="fill:#FF7010"></path><path d="M454.53,446.43a24,24,0,1,1-48-.08Z" style="fill:#455a64"></path><path d="M444,458.75c-.14,0,.42-2.63.88-5.86s.66-5.89.81-5.88a22.15,22.15,0,0,1-.3,5.95A21.77,21.77,0,0,1,444,458.75Z" style="fill:#e0e0e0"></path><path d="M437.37,459.24a52.39,52.39,0,0,1,.32-6.06,49.32,49.32,0,0,1,.54-6.05,27.79,27.79,0,0,1,0,6.08A28.11,28.11,0,0,1,437.37,459.24Z" style="fill:#e0e0e0"></path><path d="M428.89,447.86a47.44,47.44,0,0,1,0,9.92,47.44,47.44,0,0,1,0-9.92Z" style="fill:#e0e0e0"></path><path d="M421.76,448.1c.15,0,.11,2.18.28,4.84a48.07,48.07,0,0,1,.3,4.84,15.35,15.35,0,0,1-.82-4.81A14.94,14.94,0,0,1,421.76,448.1Z" style="fill:#e0e0e0"></path><path d="M415,457.28a15.19,15.19,0,0,1-1.12-4.83,14.91,14.91,0,0,1,0-5c.15,0,.21,2.21.52,4.9S415.19,457.24,415,457.28Z" style="fill:#e0e0e0"></path><path d="M388.95,402.87h.36a.81.81,0,0,1,.81.81v54.44a0,0,0,0,1,0,0h-2a0,0,0,0,1,0,0V403.69A.81.81,0,0,1,388.95,402.87Z" transform="translate(-133.96 179.25) rotate(-22.23)" style="fill:#263238"></path><path d="M381.25,404.41h.36a.81.81,0,0,1,.81.81v54.44a0,0,0,0,1,0,0h-2a0,0,0,0,1,0,0V405.22A.81.81,0,0,1,381.25,404.41Z" transform="translate(-164.92 248.6) rotate(-30)" style="fill:#263238"></path><path d="M347.38,426.89a43.51,43.51,0,0,0,87,0Z" style="fill:#FF7010"></path><path d="M431.49,442.45a10.73,10.73,0,0,1-1.72,1.07,14.92,14.92,0,0,1-5.58,1.56,14.53,14.53,0,0,1-8.85-2.12,7.24,7.24,0,0,1-3.43-4.55,5.17,5.17,0,0,1,.44-3.15,3.75,3.75,0,0,1,2.62-2.07,4.4,4.4,0,0,1,3.41.84,5.42,5.42,0,0,1,1.93,3.12,8.16,8.16,0,0,1-2.1,7.26,11.17,11.17,0,0,1-7.33,3.62,16.73,16.73,0,0,1-8.55-1.74,23.68,23.68,0,0,1-3.92-2.33,7.26,7.26,0,0,1-2.87-3.73,4.53,4.53,0,0,1,0-2.45,3.29,3.29,0,0,1,1.49-2,3.05,3.05,0,0,1,2.52-.23,4.47,4.47,0,0,1,2.07,1.46,4.24,4.24,0,0,1,.9,2.39,6.16,6.16,0,0,1-.38,2.52,10.46,10.46,0,0,1-2.93,4.12,14.2,14.2,0,0,1-9.49,3.56,13.22,13.22,0,0,1-5.09-1,10.07,10.07,0,0,1-4.17-3,6.39,6.39,0,0,1-1.15-2.32,5.49,5.49,0,0,1,0-2.58,4.41,4.41,0,0,1,1.3-2.22,3.76,3.76,0,0,1,2.38-1,5.09,5.09,0,0,1,4.28,2.31,5.5,5.5,0,0,1,.39,4.77,7.6,7.6,0,0,1-2.87,3.72,10.93,10.93,0,0,1-4.26,1.71,20.75,20.75,0,0,1-16.16-3.88c-2.08-1.63-3.83-3.85-4.13-6.41a5.4,5.4,0,0,1,.11-1.88,4.78,4.78,0,0,1,.82-1.66,5,5,0,0,1,3-1.91,3.28,3.28,0,0,1,3.14,1.07,4.37,4.37,0,0,1,1,3,5.63,5.63,0,0,1-1,2.84,8.56,8.56,0,0,1-1.92,2,10.93,10.93,0,0,1-4.53,2.12,12.33,12.33,0,0,1-4.2.16,11.44,11.44,0,0,1-5.37-2.14l-.68-.55c-.19-.17-.33-.33-.45-.45s-.35-.38-.35-.38.14.11.39.34l.46.43.69.53a11.58,11.58,0,0,0,5.33,2,12.24,12.24,0,0,0,4.13-.2,10.7,10.7,0,0,0,4.4-2.11,6.69,6.69,0,0,0,2.76-4.67,4.07,4.07,0,0,0-.92-2.78,3,3,0,0,0-2.82-.94,4.58,4.58,0,0,0-3.55,5,9.67,9.67,0,0,0,4,6.11,20.35,20.35,0,0,0,15.8,3.75,10.62,10.62,0,0,0,4.07-1.64,7.11,7.11,0,0,0,2.68-3.49,5,5,0,0,0-.34-4.32,4.58,4.58,0,0,0-3.84-2.08,3.21,3.21,0,0,0-2.06.83,3.93,3.93,0,0,0-1.14,2,5.14,5.14,0,0,0,1,4.46,9.55,9.55,0,0,0,4,2.84,12.53,12.53,0,0,0,4.89.95,13.76,13.76,0,0,0,9.15-3.42,10,10,0,0,0,2.78-3.92,4.49,4.49,0,0,0-.43-4.41,3.17,3.17,0,0,0-3.94-1.12,3.49,3.49,0,0,0-1.29,3.9,6.86,6.86,0,0,0,2.68,3.46,23.79,23.79,0,0,0,3.83,2.29,16.34,16.34,0,0,0,8.31,1.71,10.72,10.72,0,0,0,7.05-3.45,7.74,7.74,0,0,0,2-6.88,5,5,0,0,0-1.78-2.9,4,4,0,0,0-3.1-.79,3.37,3.37,0,0,0-2.37,1.87,4.69,4.69,0,0,0-.43,2.93,7,7,0,0,0,3.25,4.37,14.52,14.52,0,0,0,8.68,2.16,15.34,15.34,0,0,0,5.55-1.45c.59-.3,1-.54,1.32-.72S431.49,442.45,431.49,442.45Z" style="fill:#fff"></path></g><g id="freepik--Table--inject-36"><path d="M467.93,470.39c0,.14-97.58.26-217.92.26s-217.94-.12-217.94-.26,97.56-.26,217.94-.26S467.93,470.25,467.93,470.39Z" style="fill:#263238"></path></g></svg>