<svg width="32" height="32" viewBox="0 0 32 32" fill="none" xmlns="http://www.w3.org/2000/svg">
<g clip-path="url(#clip0_606_4877)">
<path d="M31.9996 16.3154C31.9996 16.3094 31.9993 16.3034 31.9992 16.2975C31.9904 15.8964 31.6684 15.5769 31.2625 15.5769H31.0691L28.0818 9.80139C27.9558 9.55752 27.7044 9.40567 27.4269 9.40559L22.3268 9.40453L22.5214 7.86224C22.5769 7.24589 22.3864 6.66393 21.9847 6.22345C21.5839 5.78388 21.0242 5.54175 20.4087 5.54175H4.57974C4.18175 5.54175 3.84366 5.84969 3.80571 6.2467L3.64705 7.51741H12.6656C13.2512 7.51741 13.7135 7.99212 13.6982 8.57772C13.6828 9.16331 13.1957 9.63803 12.6101 9.63803H9.6019C9.60243 9.63954 9.60296 9.64106 9.60349 9.6425H0.769744C0.355617 9.6425 0.0110918 9.97816 0.000261538 10.3923C-0.0105688 10.8064 0.31631 11.1421 0.730436 11.1421H12.4254C12.9682 11.2257 13.3738 11.6952 13.3589 12.2636C13.3425 12.8878 12.8258 13.3939 12.2026 13.3992H4.13986C3.72157 13.3992 3.37364 13.7382 3.36266 14.1565C3.35167 14.5748 3.68188 14.9139 4.10018 14.9139H12.068C12.6188 14.9906 13.0325 15.4639 13.0175 16.0378C13.001 16.6652 12.479 17.1739 11.8516 17.1739H2.71079V17.1747H1.94275C1.52446 17.1747 1.17652 17.5138 1.16554 17.9321C1.15456 18.3504 1.4847 18.6894 1.90306 18.6894H2.56591L2.30666 21.4022C2.25107 22.0184 2.44163 22.6004 2.84333 23.0409C3.24413 23.4805 3.8039 23.7226 4.41941 23.7226H4.99122C5.26372 25.2808 6.61182 26.4581 8.26083 26.4581C9.90984 26.4581 11.3196 25.2808 11.6735 23.7227H18.8093C19.3863 23.7227 19.9325 23.502 20.3609 23.1408C20.7526 23.5168 21.2718 23.7227 21.8388 23.7227H21.9562C22.2286 25.2808 23.5767 26.4581 25.2258 26.4581C26.8748 26.4581 28.2846 25.2808 28.6385 23.7227H29.1095C30.3365 23.7227 31.4247 22.7251 31.5352 21.499L31.9968 16.3864C31.9974 16.3795 31.9971 16.3727 31.9975 16.3657C31.9983 16.3552 31.9997 16.3449 32 16.3343C32.0002 16.3279 31.9996 16.3218 31.9996 16.3154ZM8.30052 24.9434C7.25649 24.9434 6.4293 24.0941 6.45664 23.05C6.48398 22.0059 7.35563 21.1566 8.39966 21.1566C9.44368 21.1566 10.2708 22.0059 10.2435 23.05C10.2161 24.0941 9.34454 24.9434 8.30052 24.9434ZM25.2655 24.9434C24.2214 24.9434 23.3943 24.0941 23.4216 23.05C23.4489 22.0059 24.3206 21.1566 25.3646 21.1566C26.4086 21.1566 27.2358 22.0059 27.2084 23.05C27.1811 24.0941 26.3095 24.9434 25.2655 24.9434ZM30.0263 21.4022C29.9869 21.8389 29.5853 22.2079 29.1492 22.2079H28.6398C28.3024 20.7346 26.9929 19.6418 25.4042 19.6418C23.8155 19.6418 22.4488 20.7346 22.0344 22.2079H21.8785C21.6859 22.2079 21.5142 22.1357 21.3946 22.0046C21.2742 21.8726 21.2176 21.6931 21.2351 21.499L22.19 10.9193L24.3833 10.9197L24.0357 14.7711C23.98 15.3873 24.1705 15.9693 24.5721 16.4098C24.9729 16.8495 25.5328 17.0917 26.1484 17.0917H30.4152L30.0263 21.4022Z" fill="#FF7010"/>
</g>
<defs>
<clipPath id="clip0_606_4877">
<rect width="32" height="32" fill="white"/>
</clipPath>
</defs>
</svg>
