<svg width="32" height="32" viewBox="0 0 32 32" fill="none" xmlns="http://www.w3.org/2000/svg">
<path d="M17.1053 6.51327V3.68142L23.0988 2.25693C23.6491 2.12614 23.9815 1.56538 23.832 1.01987L23.8069 0.928159C23.665 0.40989 23.1388 0.096457 22.6155 0.218419L15.6679 1.83755C15.2151 1.94305 14.8948 2.3466 14.8948 2.81145V6.51327H7.66675C7.11446 6.51327 6.66675 6.96099 6.66675 7.51327V11.115H25.3334V7.51327C25.3334 6.96099 24.8857 6.51327 24.3334 6.51327H17.1053Z" fill="#FF7010"/>
<path d="M6.75269 12.8849L9.29479 30.1593C9.44216 31.2212 10.4001 32 11.4685 32H20.4211C21.5264 32 22.4474 31.2212 22.5948 30.1593L25.1369 12.8849H6.75269Z" fill="#FF7010"/>
</svg>
