<svg width="32" height="32" viewBox="0 0 32 32" fill="none" xmlns="http://www.w3.org/2000/svg">
<g clip-path="url(#clip0_110_1044)">
<path d="M27.9316 18.7356C27.5651 13.9632 25.3431 10.9725 23.3828 8.33338C21.5677 5.89013 20 3.78026 20 0.667885C20 0.417885 19.86 0.189385 19.638 0.0748223C19.4153 -0.0404276 19.1477 -0.0215527 18.9453 0.125572C16.0013 2.2322 13.5449 5.78276 12.6869 9.17051C12.0912 11.5291 12.0124 14.1806 12.0013 15.9318C9.28256 15.3511 8.66669 11.2843 8.66019 11.24C8.62956 11.0291 8.50069 10.8455 8.31319 10.7453C8.12375 10.6463 7.90106 10.6391 7.709 10.7342C7.56644 10.8032 4.20962 12.5088 4.01431 19.3189C4.00062 19.5454 4 19.7727 4 19.9999C4 26.6159 9.38344 31.9991 16 31.9991C16.0091 31.9997 16.0189 32.001 16.0267 31.9991C16.0293 31.9991 16.0319 31.9991 16.0351 31.9991C22.6354 31.9801 28 26.6042 28 19.9999C28 19.6672 27.9316 18.7356 27.9316 18.7356ZM16 30.6658C13.7942 30.6658 12 28.7545 12 26.4051C12 26.325 11.9994 26.2442 12.0052 26.1453C12.0319 25.1545 12.2201 24.4781 12.4264 24.0282C12.8132 24.8589 13.5046 25.6226 14.6276 25.6226C14.9961 25.6226 15.2943 25.3244 15.2943 24.9559C15.2943 24.0068 15.3139 22.9118 15.5502 21.9236C15.7605 21.0473 16.2631 20.1151 16.8998 19.3678C17.183 20.3377 17.7351 21.1228 18.2742 21.8891C19.0457 22.9853 19.8432 24.1187 19.9832 26.0516C19.9916 26.1661 20.0001 26.2814 20.0001 26.4051C20 28.7544 18.2057 30.6658 16 30.6658Z" fill="#E23535"/>
</g>
<defs>
<clipPath id="clip0_110_1044">
<rect width="32" height="32" fill="white"/>
</clipPath>
</defs>
</svg>
