<svg width="33" height="32" viewBox="0 0 33 32" fill="none" xmlns="http://www.w3.org/2000/svg">
<g clip-path="url(#clip0_735_2737)">
<path d="M10.6295 30.7792L8.45623 27.0656L4.33445 26.1561C3.95974 26.0803 3.65998 25.8845 3.43515 25.5687C3.21033 25.2529 3.1229 24.9056 3.17286 24.5266L3.58504 20.2445L0.774732 16.9856C0.524927 16.7077 0.400024 16.3793 0.400024 16.0003C0.400024 15.6214 0.524927 15.293 0.774732 15.0151L3.58504 11.7561L3.17286 7.47402C3.1229 7.09508 3.21033 6.74771 3.43515 6.43192C3.65998 6.11613 3.95974 5.92034 4.33445 5.84455L8.45623 4.93508L10.6295 1.22141C10.8294 0.892987 11.1042 0.671935 11.4539 0.558251C11.8036 0.444567 12.1533 0.463514 12.5031 0.615093L16.4 2.28246L20.297 0.615093C20.6467 0.463514 20.9964 0.444567 21.3462 0.558251C21.6959 0.671935 21.9707 0.892987 22.1705 1.22141L24.3438 4.93508L28.4656 5.84455C28.8403 5.92034 29.1401 6.11613 29.3649 6.43192C29.5897 6.74771 29.6772 7.09508 29.6272 7.47402L29.215 11.7561L32.0253 15.0151C32.2751 15.293 32.4 15.6214 32.4 16.0003C32.4 16.3793 32.2751 16.7077 32.0253 16.9856L29.215 20.2445L29.6272 24.5266C29.6772 24.9056 29.5897 25.2529 29.3649 25.5687C29.1401 25.8845 28.8403 26.0803 28.4656 26.1561L24.3438 27.0656L22.1705 30.7792C21.9707 31.1077 21.6959 31.3287 21.3462 31.4424C20.9964 31.5561 20.6467 31.5371 20.297 31.3856L16.4 29.7182L12.5031 31.3856C12.1533 31.5371 11.8036 31.5561 11.4539 31.4424C11.1042 31.3287 10.8294 31.1077 10.6295 30.7792ZM16.4 23.5793C16.8247 23.5793 17.1807 23.434 17.4679 23.1435C17.7552 22.8529 17.8989 22.4929 17.8989 22.0635C17.8989 21.634 17.7552 21.274 17.4679 20.9835C17.1807 20.6929 16.8247 20.5477 16.4 20.5477C15.9754 20.5477 15.6194 20.6929 15.3321 20.9835C15.0448 21.274 14.9012 21.634 14.9012 22.0635C14.9012 22.4929 15.0448 22.8529 15.3321 23.1435C15.6194 23.434 15.9754 23.5793 16.4 23.5793ZM16.4 17.5161C16.8247 17.5161 17.1807 17.3708 17.4679 17.0803C17.7552 16.7898 17.8989 16.4298 17.8989 16.0003V9.93718C17.8989 9.5077 17.7552 9.14771 17.4679 8.85718C17.1807 8.56665 16.8247 8.42139 16.4 8.42139C15.9754 8.42139 15.6194 8.56665 15.3321 8.85718C15.0448 9.14771 14.9012 9.5077 14.9012 9.93718V16.0003C14.9012 16.4298 15.0448 16.7898 15.3321 17.0803C15.6194 17.3708 15.9754 17.5161 16.4 17.5161Z" fill="#FF7010"/>
</g>
<defs>
<clipPath id="clip0_735_2737">
<rect width="32" height="32" fill="white" transform="translate(0.400024 0.000305176)"/>
</clipPath>
</defs>
</svg>
