<svg width="33" height="32" viewBox="0 0 33 32" fill="none" xmlns="http://www.w3.org/2000/svg">
<g clip-path="url(#clip0_110_1050)">
<path d="M26.5551 23.0051C26.6383 23.8688 26.3348 24.7163 25.7215 25.3302C25.1082 25.944 24.2629 26.2474 23.398 26.1649C22.6805 26.0955 21.9949 26.4908 21.6957 27.1487C21.3359 27.9389 20.6492 28.5207 19.8117 28.7453C18.9734 28.9697 18.0887 28.8098 17.3832 28.3056C17.2632 28.22 17.1334 28.1564 17 28.1056V32C22.4467 31.7977 27.204 28.8586 29.9395 24.5178L26.5736 22.5727C26.5508 22.7138 26.541 22.8582 26.5551 23.0051Z" fill="#FF7010"/>
<path d="M13.7396 28.8446C13.4889 28.8446 13.2365 28.812 12.9881 28.7453C12.1506 28.5209 11.4639 27.9391 11.1041 27.1491C10.8045 26.4906 10.1182 26.0961 9.40137 26.1649C8.53574 26.2467 7.69121 25.9438 7.07832 25.3302C6.46504 24.7163 6.16152 23.8688 6.24473 23.0049C6.25884 22.858 6.24897 22.7137 6.22617 22.5727L2.86035 24.5178C5.59585 28.8586 10.3531 31.7977 15.7998 32V28.1056C15.6664 28.1564 15.5366 28.22 15.4166 28.3056C14.9201 28.6603 14.3346 28.8446 13.7396 28.8446Z" fill="#FF7010"/>
<path d="M13.2987 4.41478C12.8084 4.54635 12.4069 4.88671 12.1963 5.34907C11.6846 6.47377 10.5084 7.15019 9.28657 7.03074C8.78071 6.98206 8.28579 7.15977 7.9272 7.5191C7.56821 7.87823 7.39048 8.37421 7.43931 8.87976C7.47822 9.28423 7.42388 9.67952 7.30347 10.0498L15.7999 14.9599V5.13944C15.4193 5.05868 15.0501 4.90817 14.7198 4.67225C14.3069 4.37705 13.7885 4.28379 13.2987 4.41478ZM13.4668 10.915C12.5612 11.4384 11.4031 11.1278 10.8802 10.2213C10.3574 9.31475 10.6676 8.15559 11.5733 7.63222C12.479 7.10884 13.637 7.41944 14.1599 8.32594C14.6828 9.23247 14.3725 10.3916 13.4668 10.915Z" fill="#FF7010"/>
<path d="M5.26162 21.3004C4.47256 20.9408 3.89131 20.2537 3.6667 19.4154C3.44209 18.5769 3.60225 17.6907 4.10615 16.9841C4.52568 16.3955 4.52568 15.6045 4.10615 15.0161C3.60225 14.3093 3.44209 13.4231 3.6667 12.5846C3.89131 11.7463 4.47256 11.0592 5.26162 10.6995C5.3958 10.6383 5.51572 10.5576 5.62627 10.4674L2.25791 8.5208C1.07378 10.7549 0.399902 13.2997 0.399902 16C0.399902 18.7003 1.07378 21.2451 2.25791 23.4792L5.62637 21.5326C5.51577 21.4423 5.3958 21.3616 5.26162 21.3004Z" fill="#FF7010"/>
<path d="M19.8117 3.25468C20.6492 3.47911 21.3359 4.06091 21.6957 4.85092C21.9949 5.50936 22.6805 5.90466 23.3984 5.83506C24.2613 5.75198 25.1086 6.05617 25.7215 6.66984C26.3348 7.2837 26.6383 8.13119 26.5551 8.9951C26.541 9.14196 26.5508 9.28629 26.5736 9.42729L29.9395 7.48218C27.204 3.14139 22.4467 0.202316 17 0V3.89438C17.1334 3.84364 17.2632 3.78003 17.3832 3.69436C18.0887 3.19017 18.9734 3.02966 19.8117 3.25468Z" fill="#FF7010"/>
<path d="M4.82562 19.1043C4.95687 19.5948 5.2971 19.997 5.75921 20.2073C6.1285 20.3758 6.44329 20.6206 6.7035 20.9101L15.2 16L6.70345 11.0899C6.44329 11.3794 6.12845 11.6241 5.75921 11.7925C5.2971 12.003 4.95687 12.4052 4.82562 12.8957C4.69437 13.3862 4.78812 13.9048 5.08265 14.3183C5.80023 15.3242 5.80023 16.6758 5.08265 17.6819C4.78812 18.0952 4.69437 18.6138 4.82562 19.1043ZM8.64026 14.1047C9.68602 14.1047 10.5338 14.9532 10.5338 16C10.5338 17.0467 9.68602 17.8953 8.64026 17.8953C7.59446 17.8953 6.74671 17.0467 6.74671 16C6.74671 14.9532 7.59446 14.1047 8.64026 14.1047Z" fill="#FF7010"/>
<path d="M2.86035 7.48218L6.22617 9.42727C6.24902 9.28622 6.25884 9.14184 6.24473 8.9949C6.16152 8.13119 6.46504 7.28371 7.07832 6.66984C7.6916 6.05598 8.53691 5.75237 9.40176 5.83506C10.117 5.90564 10.8049 5.50897 11.1041 4.85132C11.4639 4.06111 12.1506 3.47931 12.9881 3.25468C13.826 3.03005 14.7107 3.19017 15.4166 3.69436C15.5366 3.78003 15.6664 3.84364 15.7998 3.89438V0C10.3531 0.202316 5.59585 3.14139 2.86035 7.48218Z" fill="#FF7010"/>
<path d="M30.5418 8.5208L27.1733 10.4674C27.2839 10.5577 27.4039 10.6384 27.5381 10.6997C28.3271 11.0592 28.9084 11.7463 29.133 12.5846C29.3576 13.4231 29.1975 14.3093 28.6936 15.0159C28.274 15.6045 28.274 16.3955 28.6936 16.9839C29.1975 17.6907 29.3576 18.5769 29.133 19.4154C28.9084 20.2537 28.3271 20.9408 27.5381 21.3005C27.4039 21.3617 27.284 21.4424 27.1734 21.5326L30.5418 23.4792C31.7259 21.2451 32.3998 18.7003 32.3998 16C32.3998 13.2997 31.7259 10.7549 30.5418 8.5208Z" fill="#FF7010"/>
<path d="M7.43931 23.12C7.39048 23.6258 7.56821 24.1218 7.9272 24.4809C8.28579 24.84 8.78501 25.0164 9.28618 24.9693C10.519 24.8496 11.685 25.5268 12.1963 26.6509C12.4069 27.1131 12.8084 27.4537 13.2987 27.5852C13.7881 27.7166 14.3069 27.623 14.7198 27.3277C15.0501 27.0919 15.4193 26.9413 15.7999 26.8605V17.0401L7.30347 21.9502C7.42388 22.3204 7.47822 22.7157 7.43931 23.12ZM10.8802 21.7787C11.4031 20.8722 12.5612 20.5616 13.4668 21.085C14.3725 21.6084 14.6828 22.7675 14.1599 23.674C13.637 24.5806 12.479 24.8912 11.5733 24.3678C10.6676 23.8444 10.3574 22.6852 10.8802 21.7787Z" fill="#FF7010"/>
<path d="M19.5012 27.5852C19.9914 27.4537 20.393 27.1133 20.6035 26.6509C21.1152 25.5264 22.2914 24.8518 23.5133 24.9693C24.0176 25.016 24.5141 24.8398 24.8727 24.4809C25.2316 24.1218 25.4094 23.6258 25.3605 23.1202C25.3216 22.7158 25.376 22.3205 25.4964 21.9502L17 17.0401V26.8605C17.3806 26.9412 17.7497 27.0918 18.0801 27.3277C18.4934 27.6231 19.0121 27.7168 19.5012 27.5852ZM19.333 21.085C20.2387 20.5616 21.3968 20.8722 21.9196 21.7787C22.4425 22.6852 22.1322 23.8444 21.2266 24.3678C20.3209 24.8912 19.1628 24.5806 18.6399 23.674C18.1171 22.7675 18.4274 21.6084 19.333 21.085Z" fill="#FF7010"/>
<path d="M27.9742 12.8957C27.843 12.4052 27.5027 12.003 27.0406 11.7927C26.6713 11.6242 26.3565 11.3795 26.0963 11.0899L17.5999 16L26.0964 20.9101C26.3565 20.6206 26.6713 20.3759 27.0406 20.2075C27.5027 19.997 27.843 19.5948 27.9742 19.1043C28.1055 18.6138 28.0117 18.0952 27.7172 17.6817C26.9996 16.6758 26.9996 15.3242 27.7172 14.3181C28.0117 13.9049 28.1055 13.3862 27.9742 12.8957ZM24.1596 17.8953C23.1138 17.8953 22.2661 17.0468 22.2661 16C22.2661 14.9532 23.1138 14.1047 24.1596 14.1047C25.2054 14.1047 26.0531 14.9532 26.0531 16C26.0531 17.0468 25.2054 17.8953 24.1596 17.8953Z" fill="#FF7010"/>
<path d="M25.3605 8.87995C25.4094 8.3742 25.2316 7.87822 24.8727 7.51909C24.5141 7.15996 24.0145 6.98245 23.5137 7.03074C22.2813 7.14901 21.1148 6.47337 20.6035 5.34906C20.393 4.8869 19.9914 4.54634 19.5012 4.41477C19.0117 4.28359 18.4934 4.37704 18.0801 4.67224C17.7497 4.90816 17.3806 5.05867 17 5.13944V14.9599L25.4964 10.0498C25.376 9.67959 25.3216 9.28434 25.3605 8.87995ZM21.9196 10.2213C21.3968 11.1278 20.2387 11.4384 19.333 10.915C18.4274 10.3916 18.1171 9.23246 18.6399 8.32594C19.1628 7.41944 20.3209 7.10884 21.2266 7.63221C22.1322 8.15558 22.4425 9.31474 21.9196 10.2213Z" fill="#FF7010"/>
</g>
<defs>
<clipPath id="clip0_110_1050">
<rect width="32" height="32" fill="white" transform="translate(0.399902)"/>
</clipPath>
</defs>
</svg>
