<svg width="416" height="300" viewBox="0 0 416 300" fill="none" xmlns="http://www.w3.org/2000/svg">
<rect y="0.000244141" width="416" height="300" rx="12" fill="#FFEEE2"/>
<path d="M193.245 103.042C193.245 106.009 194.401 108.802 196.503 110.902C196.974 111.372 197.592 111.609 198.21 111.609C198.828 111.609 199.446 111.372 199.916 110.902C200.86 109.958 200.86 108.432 199.916 107.488C198.729 106.301 198.072 104.722 198.072 103.042C198.072 101.362 198.726 99.7836 199.916 98.596C204.249 94.2633 204.249 87.2102 199.916 82.8774C198.972 81.9336 197.447 81.9336 196.503 82.8774C195.559 83.8212 195.559 85.3467 196.503 86.2905C198.953 88.7429 198.953 92.7305 196.503 95.1829C194.401 97.2853 193.245 100.076 193.245 103.042Z" fill="#FF7010"/>
<path d="M166.966 103.042C166.966 106.009 168.122 108.802 170.224 110.902C170.695 111.372 171.313 111.609 171.931 111.609C172.549 111.609 173.167 111.372 173.637 110.902C174.581 109.958 174.581 108.432 173.637 107.488C172.447 106.301 171.793 104.722 171.793 103.042C171.793 101.362 172.447 99.7836 173.637 98.596C177.97 94.2633 177.97 87.2102 173.637 82.8774C172.694 81.9336 171.168 81.9336 170.224 82.8774C169.28 83.8212 169.28 85.3467 170.224 86.2905C172.674 88.7429 172.674 92.7305 170.224 95.1829C168.122 97.2853 166.966 100.076 166.966 103.042Z" fill="#FF7010"/>
<path d="M181.176 95.8009C181.176 98.7674 182.332 101.56 184.434 103.66C184.905 104.131 185.523 104.367 186.141 104.367C186.759 104.367 187.377 104.131 187.847 103.66C188.791 102.716 188.791 101.191 187.847 100.247C186.66 99.0595 186.003 97.4809 186.003 95.8009C186.003 94.1209 186.657 92.5423 187.847 91.3547C192.18 87.0219 192.18 79.9688 187.847 75.6361C186.903 74.6923 185.378 74.6923 184.434 75.6361C183.49 76.5799 183.49 78.1054 184.434 79.0492C186.884 81.5016 186.884 85.4892 184.434 87.9416C182.332 90.044 181.176 92.8343 181.176 95.8009Z" fill="#FF7010"/>
<path d="M171.793 144.931C166.379 144.931 162.138 148.11 162.138 152.173C162.138 156.235 166.379 159.414 171.793 159.414C177.207 159.414 181.448 156.235 181.448 152.173C181.448 148.11 177.207 144.931 171.793 144.931ZM171.793 154.586C168.846 154.586 166.966 153.157 166.966 152.173C166.966 151.188 168.846 149.759 171.793 149.759C174.74 149.759 176.621 151.188 176.621 152.173C176.621 153.157 174.74 154.586 171.793 154.586Z" fill="#FF7010"/>
<path d="M179.034 125.621C173.62 125.621 169.379 128.8 169.379 132.862C169.379 136.925 173.62 140.104 179.034 140.104C184.449 140.104 188.69 136.925 188.69 132.862C188.69 128.8 184.449 125.621 179.034 125.621ZM179.034 135.276C176.087 135.276 174.207 133.847 174.207 132.862C174.207 131.877 176.087 130.448 179.034 130.448C181.982 130.448 183.862 131.877 183.862 132.862C183.862 133.847 181.982 135.276 179.034 135.276Z" fill="#FF7010"/>
<path d="M203.172 135.276C208.587 135.276 212.828 132.097 212.828 128.035C212.828 123.972 208.587 120.793 203.172 120.793C197.758 120.793 193.517 123.972 193.517 128.035C193.517 132.097 197.758 135.276 203.172 135.276ZM203.172 125.621C206.12 125.621 208 127.05 208 128.035C208 129.02 206.12 130.449 203.172 130.449C200.225 130.449 198.345 129.02 198.345 128.035C198.345 127.05 200.225 125.621 203.172 125.621Z" fill="#FF7010"/>
<path d="M227.31 137.69C232.724 137.69 236.965 134.511 236.965 130.448C236.965 126.386 232.724 123.207 227.31 123.207C221.896 123.207 217.655 126.386 217.655 130.448C217.655 134.511 221.896 137.69 227.31 137.69ZM227.31 128.035C230.258 128.035 232.138 129.464 232.138 130.448C232.138 131.433 230.258 132.862 227.31 132.862C224.363 132.862 222.483 131.433 222.483 130.448C222.483 129.464 224.363 128.035 227.31 128.035Z" fill="#FF7010"/>
<path d="M258.69 140.104C258.69 136.041 254.449 132.862 249.034 132.862C243.62 132.862 239.379 136.041 239.379 140.104C239.379 144.166 243.62 147.345 249.034 147.345C254.449 147.345 258.69 144.166 258.69 140.104ZM249.034 142.517C246.087 142.517 244.207 141.089 244.207 140.104C244.207 139.119 246.087 137.69 249.034 137.69C251.982 137.69 253.862 139.119 253.862 140.104C253.862 141.089 251.982 142.517 249.034 142.517Z" fill="#FF7010"/>
<path d="M234.552 147.345C229.138 147.345 224.897 150.524 224.897 154.586C224.897 158.649 229.138 161.828 234.552 161.828C239.966 161.828 244.207 158.649 244.207 154.586C244.207 150.524 239.966 147.345 234.552 147.345ZM234.552 157C231.605 157 229.724 155.571 229.724 154.586C229.724 153.602 231.605 152.173 234.552 152.173C237.499 152.173 239.379 153.602 239.379 154.586C239.379 155.571 237.499 157 234.552 157Z" fill="#FF7010"/>
<path d="M208 152.173C202.586 152.173 198.345 155.352 198.345 159.414C198.345 163.476 202.586 166.655 208 166.655C213.414 166.655 217.655 163.476 217.655 159.414C217.655 155.352 213.414 152.173 208 152.173ZM208 161.828C205.053 161.828 203.172 160.399 203.172 159.414C203.172 158.429 205.053 157 208 157C210.947 157 212.828 158.429 212.828 159.414C212.828 160.399 210.947 161.828 208 161.828Z" fill="#FF7010"/>
<path d="M196.428 145.578C195.453 145.368 194.492 145.786 193.954 146.556C192.54 146.582 191.248 147.408 190.628 148.675C188.938 148.743 187.442 149.947 187.077 151.675C186.802 152.981 187.637 154.261 188.943 154.536C189.11 154.572 189.276 154.586 189.443 154.586C190.237 154.586 190.973 154.193 191.417 153.556C192.832 153.529 194.123 152.704 194.743 151.436C196.433 151.369 197.93 150.164 198.294 148.436C198.567 147.13 197.732 145.851 196.428 145.578Z" fill="#FF7010"/>
<path d="M219.755 146.256C219.053 145.03 217.711 144.378 216.301 144.354C215.953 143.775 215.456 143.297 214.843 142.969C213.95 142.488 212.924 142.382 211.959 142.682C210.682 143.068 209.96 144.415 210.349 145.689C210.636 146.645 211.461 147.287 212.393 147.391C212.741 148.002 213.255 148.506 213.89 148.846C214.5 149.175 215.181 149.303 215.847 149.295C216.195 149.875 216.692 150.353 217.303 150.681C217.86 150.98 218.471 151.135 219.087 151.135C219.456 151.135 219.825 151.082 220.187 150.971C221.464 150.584 222.186 149.237 221.797 147.963C221.51 147.002 220.684 146.36 219.755 146.256Z" fill="#FF7010"/>
<path d="M203.438 139.015C202.735 137.789 201.415 137.115 199.984 137.113C199.636 136.534 199.139 136.056 198.526 135.727C197.633 135.249 196.607 135.143 195.641 135.44C194.364 135.826 193.643 137.173 194.031 138.448C194.319 139.404 195.144 140.046 196.076 140.149C196.423 140.76 196.938 141.265 197.572 141.605C198.183 141.933 198.866 142.061 199.53 142.054C199.878 142.633 200.375 143.111 200.985 143.439C201.543 143.739 202.154 143.893 202.769 143.893C203.139 143.893 203.508 143.84 203.87 143.729C205.147 143.343 205.869 141.996 205.48 140.722C205.195 139.761 204.37 139.119 203.438 139.015Z" fill="#FF7010"/>
<path d="M277.628 165.673C277.66 165.289 277.655 164.903 277.563 164.517L258.847 116.308L270.689 68.2667C270.708 68.1847 270.681 68.1026 270.693 68.0205C270.708 67.9095 270.759 67.8081 270.759 67.6898V60.4485C270.759 59.1136 269.68 58.0347 268.345 58.0347H147.655C146.323 58.0347 145.241 59.1136 145.241 60.4485V67.6898C145.241 69.0247 146.323 70.1036 147.655 70.1036H148.015L158.146 114.677C157.726 115.102 157.373 115.599 157.194 116.202L138.536 164.198L138.437 164.519C138.331 164.971 138.331 165.422 138.391 165.866C138.164 166.288 138 166.752 138 167.266V182.13C138 184.245 139.721 185.966 141.836 185.966H274.164C276.279 185.966 278 184.245 278 182.13V166.964C278 166.489 277.846 166.064 277.628 165.673ZM221.104 164.242H221.03C219.297 164.242 217.81 165.451 217.409 167.186C217.337 167.5 217.216 167.792 217.105 168.092C217.042 168.263 217.001 168.444 216.926 168.611C216.82 168.845 216.675 169.057 216.547 169.279C216.429 169.484 216.328 169.702 216.19 169.897C216.091 170.037 215.966 170.158 215.859 170.291C215.654 170.544 215.459 170.807 215.224 171.039C215.167 171.094 215.099 171.14 215.039 171.196C213.631 172.516 211.761 173.445 209.67 173.769C209.127 173.853 208.567 173.897 208 173.897C207.433 173.897 206.873 173.853 206.33 173.769C204.215 173.443 202.32 172.497 200.911 171.152C200.87 171.111 200.819 171.08 200.778 171.039C200.532 170.793 200.322 170.52 200.107 170.249C200.01 170.129 199.897 170.02 199.81 169.895C199.656 169.675 199.542 169.436 199.412 169.204C199.301 169.006 199.168 168.818 199.074 168.611C198.98 168.405 198.927 168.181 198.852 167.968C198.76 167.708 198.649 167.454 198.589 167.184C198.19 165.451 196.703 164.242 194.97 164.242H194.896H164.004C156.779 159.568 152.483 150.85 152.483 144.931C152.483 130.538 177.907 118.379 208 118.379C238.093 118.379 263.517 130.538 263.517 144.931C263.517 150.85 259.221 159.568 251.996 164.242H221.104ZM161.527 118.379H175.433C168.595 120.619 162.727 123.557 158.17 127.018L161.527 118.379ZM257.83 127.016C253.273 123.555 247.405 120.619 240.567 118.379H254.473L257.83 127.016ZM267.276 151.313L272.301 164.242H259.503C263.298 160.379 265.931 155.702 267.276 151.313ZM150.069 62.8623H265.931V65.276H217.486C216.731 65.276 216.019 65.6285 215.56 66.2319C215.104 66.8354 214.957 67.6174 215.162 68.3464C215.215 68.5347 215.241 68.7133 215.241 68.8967C215.241 70.6105 212.762 72.5174 209.207 72.5174C205.651 72.5174 203.172 70.6105 203.172 68.8967C203.172 68.7133 203.199 68.5347 203.252 68.3464C203.457 67.6174 203.31 66.8354 202.854 66.2319C202.398 65.6285 201.686 65.276 200.928 65.276H150.069V62.8623ZM198.449 70.1036C199.18 74.2505 203.643 77.345 209.207 77.345C214.771 77.345 219.231 74.2505 219.965 70.1036H265.265L254.555 113.552H162.843L152.966 70.1036H198.449ZM148.724 151.311C150.069 155.702 152.702 160.379 156.499 164.242H143.699L148.724 151.311ZM273.172 181.138H142.828V169.069H162.64H194.097C195.808 174.79 201.415 178.724 208.002 178.724C214.59 178.724 220.197 174.79 221.908 169.069H253.365H273.172V181.138Z" fill="#FF7010"/>
<path d="M25.2642 241V226.455H34.9162V228.99H28.3395V231.831H30.7045C31.8551 231.831 32.8471 232.018 33.6804 232.392C34.5185 232.762 35.1648 233.285 35.6193 233.962C36.0739 234.639 36.3011 235.437 36.3011 236.355C36.3011 237.269 36.0739 238.076 35.6193 238.777C35.1648 239.473 34.5185 240.018 33.6804 240.411C32.8471 240.804 31.8551 241 30.7045 241H25.2642ZM28.3395 238.529H30.7045C31.2538 238.529 31.7178 238.429 32.0966 238.23C32.4754 238.027 32.7618 237.759 32.956 237.428C33.1548 237.092 33.2543 236.725 33.2543 236.327C33.2543 235.749 33.0341 235.262 32.5938 234.864C32.1581 234.461 31.5284 234.26 30.7045 234.26H28.3395V238.529ZM43.5063 241.213C42.3842 241.213 41.4183 240.986 40.6086 240.531C39.8037 240.072 39.1834 239.424 38.7478 238.585C38.3122 237.743 38.0944 236.746 38.0944 235.595C38.0944 234.473 38.3122 233.488 38.7478 232.641C39.1834 231.793 39.7966 231.133 40.5873 230.659C41.3827 230.186 42.3155 229.949 43.3856 229.949C44.1053 229.949 44.7753 230.065 45.3955 230.297C46.0205 230.524 46.565 230.868 47.029 231.327C47.4978 231.786 47.8624 232.364 48.1228 233.06C48.3832 233.751 48.5134 234.561 48.5134 235.489V236.32H39.3018V234.445H45.6654C45.6654 234.009 45.5707 233.623 45.3813 233.287C45.1919 232.951 44.9291 232.688 44.593 232.499C44.2615 232.305 43.8756 232.208 43.4353 232.208C42.976 232.208 42.5688 232.314 42.2137 232.527C41.8633 232.736 41.5887 233.017 41.3898 233.372C41.191 233.723 41.0892 234.113 41.0844 234.544V236.327C41.0844 236.867 41.1839 237.333 41.3827 237.726C41.5863 238.119 41.8728 238.422 42.2421 238.635C42.6114 238.848 43.0494 238.955 43.556 238.955C43.8922 238.955 44.2 238.907 44.4793 238.813C44.7587 238.718 44.9978 238.576 45.1967 238.387C45.3955 238.197 45.547 237.965 45.6512 237.691L48.4495 237.875C48.3075 238.548 48.0163 239.135 47.5759 239.637C47.1403 240.134 46.5769 240.522 45.8856 240.801C45.199 241.076 44.4059 241.213 43.5063 241.213ZM55.7168 241.213C54.5994 241.213 53.6382 240.977 52.8333 240.503C52.0331 240.025 51.4176 239.362 50.9867 238.514C50.5606 237.667 50.3475 236.692 50.3475 235.588C50.3475 234.471 50.563 233.491 50.9938 232.648C51.4294 231.8 52.0473 231.14 52.8475 230.666C53.6477 230.188 54.5994 229.949 55.7026 229.949C56.6543 229.949 57.4877 230.122 58.2026 230.468C58.9176 230.813 59.4834 231.299 59.9001 231.924C60.3167 232.549 60.5464 233.282 60.589 234.125H57.7339C57.6534 233.581 57.4403 233.143 57.0947 232.811C56.7538 232.475 56.3063 232.307 55.7523 232.307C55.2836 232.307 54.874 232.435 54.5237 232.691C54.178 232.942 53.9081 233.308 53.714 233.791C53.5199 234.274 53.4228 234.859 53.4228 235.546C53.4228 236.242 53.5175 236.834 53.7069 237.321C53.901 237.809 54.1733 238.181 54.5237 238.436C54.874 238.692 55.2836 238.82 55.7523 238.82C56.098 238.82 56.4081 238.749 56.6827 238.607C56.9621 238.465 57.1917 238.259 57.3717 237.989C57.5563 237.714 57.6771 237.385 57.7339 237.002H60.589C60.5416 237.835 60.3144 238.569 59.9072 239.203C59.5047 239.833 58.9484 240.326 58.2381 240.681C57.5279 241.036 56.6875 241.213 55.7168 241.213ZM62.8261 241V230.091H72.3645V241H69.4739V232.47H65.6813V241H62.8261ZM74.4401 241L74.4259 238.6H74.7881C75.0438 238.6 75.2639 238.538 75.4486 238.415C75.638 238.287 75.7942 238.081 75.9173 237.797C76.0404 237.513 76.1375 237.137 76.2085 236.668C76.2795 236.194 76.3269 235.612 76.3506 234.921L76.5281 230.091H84.8236V241H81.9401V232.47H79.2483L79.0778 235.801C79.0352 236.715 78.924 237.501 78.744 238.159C78.5688 238.817 78.325 239.357 78.0125 239.779C77.7 240.195 77.3236 240.503 76.8832 240.702C76.4429 240.901 75.9315 241 75.3491 241H74.4401ZM90.5799 241.206C89.8839 241.206 89.2636 241.085 88.7191 240.844C88.1746 240.598 87.7437 240.236 87.4265 239.757C87.114 239.274 86.9577 238.673 86.9577 237.953C86.9577 237.347 87.069 236.838 87.2915 236.426C87.5141 236.014 87.8171 235.683 88.2006 235.432C88.5842 235.181 89.0198 234.992 89.5075 234.864C89.9999 234.736 90.516 234.646 91.0558 234.594C91.6902 234.528 92.2016 234.466 92.5898 234.409C92.9781 234.348 93.2598 234.258 93.435 234.139C93.6102 234.021 93.6978 233.846 93.6978 233.614V233.571C93.6978 233.121 93.5558 232.773 93.2717 232.527C92.9923 232.281 92.5946 232.158 92.0785 232.158C91.534 232.158 91.1007 232.279 90.7788 232.52C90.4568 232.757 90.2437 233.055 90.1396 233.415L87.3413 233.188C87.4833 232.525 87.7627 231.952 88.1793 231.469C88.596 230.981 89.1334 230.607 89.7915 230.347C90.4544 230.082 91.2215 229.949 92.0927 229.949C92.6987 229.949 93.2788 230.02 93.8327 230.162C94.3915 230.304 94.8862 230.524 95.3171 230.823C95.7527 231.121 96.096 231.505 96.3469 231.973C96.5979 232.437 96.7234 232.994 96.7234 233.642V241H93.854V239.487H93.7688C93.5936 239.828 93.3593 240.129 93.0657 240.389C92.7721 240.645 92.4194 240.846 92.0075 240.993C91.5955 241.135 91.1197 241.206 90.5799 241.206ZM91.4464 239.118C91.8915 239.118 92.2844 239.031 92.6254 238.855C92.9663 238.675 93.2338 238.434 93.4279 238.131C93.622 237.828 93.7191 237.485 93.7191 237.101V235.943C93.6244 236.005 93.4942 236.062 93.3285 236.114C93.1675 236.161 92.9852 236.206 92.7816 236.249C92.578 236.287 92.3744 236.322 92.1708 236.355C91.9672 236.384 91.7826 236.41 91.6168 236.433C91.2617 236.486 90.9516 236.568 90.6864 236.682C90.4213 236.796 90.2153 236.95 90.0685 237.144C89.9218 237.333 89.8484 237.57 89.8484 237.854C89.8484 238.266 89.9975 238.581 90.2958 238.799C90.5988 239.012 90.9824 239.118 91.4464 239.118ZM98.2751 232.47V230.091H108.162V232.47H104.646V241H101.762V232.47H98.2751ZM117.888 234.338V236.718H112.192V234.338H117.888ZM113.186 230.091V241H110.296V230.091H113.186ZM119.784 230.091V241H116.915V230.091H119.784ZM125.542 241.206C124.846 241.206 124.226 241.085 123.682 240.844C123.137 240.598 122.706 240.236 122.389 239.757C122.076 239.274 121.92 238.673 121.92 237.953C121.92 237.347 122.032 236.838 122.254 236.426C122.477 236.014 122.78 235.683 123.163 235.432C123.547 235.181 123.982 234.992 124.47 234.864C124.962 234.736 125.478 234.646 126.018 234.594C126.653 234.528 127.164 234.466 127.552 234.409C127.941 234.348 128.222 234.258 128.398 234.139C128.573 234.021 128.66 233.846 128.66 233.614V233.571C128.66 233.121 128.518 232.773 128.234 232.527C127.955 232.281 127.557 232.158 127.041 232.158C126.496 232.158 126.063 232.279 125.741 232.52C125.419 232.757 125.206 233.055 125.102 233.415L122.304 233.188C122.446 232.525 122.725 231.952 123.142 231.469C123.559 230.981 124.096 230.607 124.754 230.347C125.417 230.082 126.184 229.949 127.055 229.949C127.661 229.949 128.241 230.02 128.795 230.162C129.354 230.304 129.849 230.524 130.28 230.823C130.715 231.121 131.059 231.505 131.309 231.973C131.56 232.437 131.686 232.994 131.686 233.642V241H128.817V239.487H128.731C128.556 239.828 128.322 240.129 128.028 240.389C127.735 240.645 127.382 240.846 126.97 240.993C126.558 241.135 126.082 241.206 125.542 241.206ZM126.409 239.118C126.854 239.118 127.247 239.031 127.588 238.855C127.929 238.675 128.196 238.434 128.39 238.131C128.585 237.828 128.682 237.485 128.682 237.101V235.943C128.587 236.005 128.457 236.062 128.291 236.114C128.13 236.161 127.948 236.206 127.744 236.249C127.541 236.287 127.337 236.322 127.133 236.355C126.93 236.384 126.745 236.41 126.579 236.433C126.224 236.486 125.914 236.568 125.649 236.682C125.384 236.796 125.178 236.95 125.031 237.144C124.884 237.333 124.811 237.57 124.811 237.854C124.811 238.266 124.96 238.581 125.258 238.799C125.561 239.012 125.945 239.118 126.409 239.118ZM140.725 241V232.463H138.68C138.126 232.463 137.704 232.591 137.416 232.847C137.127 233.103 136.985 233.406 136.989 233.756C136.985 234.111 137.122 234.412 137.401 234.658C137.685 234.899 138.102 235.02 138.651 235.02H141.734V237.066H138.651C137.719 237.066 136.911 236.924 136.229 236.639C135.548 236.355 135.022 235.96 134.653 235.453C134.283 234.942 134.101 234.348 134.106 233.671C134.101 232.96 134.283 232.338 134.653 231.803C135.022 231.263 135.55 230.844 136.237 230.546C136.928 230.243 137.742 230.091 138.68 230.091H143.545V241H140.725ZM133.793 241L136.826 235.318H139.717L136.691 241H133.793ZM150.272 244.196V238.6H151.11C151.352 238.448 151.546 238.207 151.693 237.875C151.844 237.544 151.967 237.153 152.062 236.703C152.162 236.254 152.237 235.768 152.289 235.247C152.346 234.722 152.396 234.192 152.438 233.656L152.723 230.091H161.089V238.6H162.779V244.196H159.896V241H153.227V244.196H150.272ZM154.122 238.6H158.234V232.421H155.294L155.18 233.656C155.099 234.821 154.983 235.811 154.832 236.625C154.68 237.435 154.444 238.093 154.122 238.6ZM169.772 241.213C168.668 241.213 167.714 240.979 166.909 240.51C166.109 240.037 165.491 239.379 165.056 238.536C164.62 237.688 164.402 236.706 164.402 235.588C164.402 234.461 164.62 233.477 165.056 232.634C165.491 231.786 166.109 231.128 166.909 230.659C167.714 230.186 168.668 229.949 169.772 229.949C170.875 229.949 171.826 230.186 172.627 230.659C173.432 231.128 174.052 231.786 174.487 232.634C174.923 233.477 175.141 234.461 175.141 235.588C175.141 236.706 174.923 237.688 174.487 238.536C174.052 239.379 173.432 240.037 172.627 240.51C171.826 240.979 170.875 241.213 169.772 241.213ZM169.786 238.87C170.288 238.87 170.707 238.728 171.043 238.443C171.379 238.155 171.632 237.762 171.803 237.264C171.978 236.767 172.066 236.201 172.066 235.567C172.066 234.933 171.978 234.367 171.803 233.87C171.632 233.372 171.379 232.979 171.043 232.691C170.707 232.402 170.288 232.257 169.786 232.257C169.279 232.257 168.853 232.402 168.507 232.691C168.166 232.979 167.908 233.372 167.733 233.87C167.563 234.367 167.477 234.933 167.477 235.567C167.477 236.201 167.563 236.767 167.733 237.264C167.908 237.762 168.166 238.155 168.507 238.443C168.853 238.728 169.279 238.87 169.786 238.87ZM182.337 241.213C181.22 241.213 180.259 240.977 179.454 240.503C178.653 240.025 178.038 239.362 177.607 238.514C177.181 237.667 176.968 236.692 176.968 235.588C176.968 234.471 177.183 233.491 177.614 232.648C178.05 231.8 178.668 231.14 179.468 230.666C180.268 230.188 181.22 229.949 182.323 229.949C183.275 229.949 184.108 230.122 184.823 230.468C185.538 230.813 186.104 231.299 186.52 231.924C186.937 232.549 187.167 233.282 187.209 234.125H184.354C184.274 233.581 184.061 233.143 183.715 232.811C183.374 232.475 182.927 232.307 182.373 232.307C181.904 232.307 181.494 232.435 181.144 232.691C180.798 232.942 180.528 233.308 180.334 233.791C180.14 234.274 180.043 234.859 180.043 235.546C180.043 236.242 180.138 236.834 180.327 237.321C180.521 237.809 180.794 238.181 181.144 238.436C181.494 238.692 181.904 238.82 182.373 238.82C182.718 238.82 183.028 238.749 183.303 238.607C183.582 238.465 183.812 238.259 183.992 237.989C184.177 237.714 184.297 237.385 184.354 237.002H187.209C187.162 237.835 186.935 238.569 186.527 239.203C186.125 239.833 185.569 240.326 184.858 240.681C184.148 241.036 183.308 241.213 182.337 241.213ZM188.702 232.47V230.091H198.589V232.47H195.073V241H192.19V232.47H188.702ZM203.443 241.206C202.747 241.206 202.127 241.085 201.582 240.844C201.038 240.598 200.607 240.236 200.29 239.757C199.977 239.274 199.821 238.673 199.821 237.953C199.821 237.347 199.932 236.838 200.155 236.426C200.377 236.014 200.68 235.683 201.064 235.432C201.447 235.181 201.883 234.992 202.371 234.864C202.863 234.736 203.379 234.646 203.919 234.594C204.554 234.528 205.065 234.466 205.453 234.409C205.841 234.348 206.123 234.258 206.298 234.139C206.473 234.021 206.561 233.846 206.561 233.614V233.571C206.561 233.121 206.419 232.773 206.135 232.527C205.856 232.281 205.458 232.158 204.942 232.158C204.397 232.158 203.964 232.279 203.642 232.52C203.32 232.757 203.107 233.055 203.003 233.415L200.205 233.188C200.347 232.525 200.626 231.952 201.043 231.469C201.459 230.981 201.997 230.607 202.655 230.347C203.318 230.082 204.085 229.949 204.956 229.949C205.562 229.949 206.142 230.02 206.696 230.162C207.255 230.304 207.75 230.524 208.18 230.823C208.616 231.121 208.959 231.505 209.21 231.973C209.461 232.437 209.587 232.994 209.587 233.642V241H206.717V239.487H206.632C206.457 239.828 206.223 240.129 205.929 240.389C205.635 240.645 205.283 240.846 204.871 240.993C204.459 241.135 203.983 241.206 203.443 241.206ZM204.31 239.118C204.755 239.118 205.148 239.031 205.489 238.855C205.83 238.675 206.097 238.434 206.291 238.131C206.485 237.828 206.582 237.485 206.582 237.101V235.943C206.488 236.005 206.357 236.062 206.192 236.114C206.031 236.161 205.848 236.206 205.645 236.249C205.441 236.287 205.238 236.322 205.034 236.355C204.83 236.384 204.646 236.41 204.48 236.433C204.125 236.486 203.815 236.568 203.55 236.682C203.285 236.796 203.079 236.95 202.932 237.144C202.785 237.333 202.712 237.57 202.712 237.854C202.712 238.266 202.861 238.581 203.159 238.799C203.462 239.012 203.846 239.118 204.31 239.118ZM212.234 241V230.091H216.886C218.231 230.091 219.294 230.347 220.075 230.858C220.856 231.37 221.247 232.096 221.247 233.039C221.247 233.63 221.027 234.123 220.586 234.516C220.146 234.909 219.535 235.174 218.754 235.311C219.407 235.359 219.964 235.508 220.423 235.759C220.887 236.005 221.24 236.325 221.481 236.718C221.727 237.111 221.85 237.546 221.85 238.024C221.85 238.645 221.685 239.177 221.353 239.622C221.027 240.067 220.546 240.408 219.912 240.645C219.282 240.882 218.512 241 217.603 241H212.234ZM215.054 238.735H217.603C218.025 238.735 218.354 238.635 218.59 238.436C218.832 238.233 218.953 237.956 218.953 237.605C218.953 237.217 218.832 236.912 218.59 236.689C218.354 236.467 218.025 236.355 217.603 236.355H215.054V238.735ZM215.054 234.58H216.95C217.253 234.58 217.511 234.537 217.724 234.452C217.942 234.362 218.108 234.234 218.221 234.068C218.34 233.903 218.399 233.706 218.399 233.479C218.399 233.143 218.264 232.88 217.994 232.691C217.724 232.501 217.355 232.406 216.886 232.406H215.054V234.58ZM224.057 241V230.091H227.083V234.324H227.935L230.904 230.091H234.455L230.599 235.503L234.498 241H230.904L228.212 237.13H227.083V241H224.057ZM239.187 241.206C238.491 241.206 237.871 241.085 237.326 240.844C236.782 240.598 236.351 240.236 236.034 239.757C235.721 239.274 235.565 238.673 235.565 237.953C235.565 237.347 235.676 236.838 235.899 236.426C236.121 236.014 236.424 235.683 236.808 235.432C237.191 235.181 237.627 234.992 238.114 234.864C238.607 234.736 239.123 234.646 239.663 234.594C240.297 234.528 240.809 234.466 241.197 234.409C241.585 234.348 241.867 234.258 242.042 234.139C242.217 234.021 242.305 233.846 242.305 233.614V233.571C242.305 233.121 242.163 232.773 241.879 232.527C241.599 232.281 241.202 232.158 240.686 232.158C240.141 232.158 239.708 232.279 239.386 232.52C239.064 232.757 238.851 233.055 238.747 233.415L235.948 233.188C236.09 232.525 236.37 231.952 236.786 231.469C237.203 230.981 237.74 230.607 238.399 230.347C239.061 230.082 239.828 229.949 240.7 229.949C241.306 229.949 241.886 230.02 242.44 230.162C242.998 230.304 243.493 230.524 243.924 230.823C244.36 231.121 244.703 231.505 244.954 231.973C245.205 232.437 245.33 232.994 245.33 233.642V241H242.461V239.487H242.376C242.201 239.828 241.966 240.129 241.673 240.389C241.379 240.645 241.026 240.846 240.614 240.993C240.203 241.135 239.727 241.206 239.187 241.206ZM240.053 239.118C240.498 239.118 240.891 239.031 241.232 238.855C241.573 238.675 241.841 238.434 242.035 238.131C242.229 237.828 242.326 237.485 242.326 237.101V235.943C242.231 236.005 242.101 236.062 241.936 236.114C241.775 236.161 241.592 236.206 241.389 236.249C241.185 236.287 240.981 236.322 240.778 236.355C240.574 236.384 240.39 236.41 240.224 236.433C239.869 236.486 239.559 236.568 239.293 236.682C239.028 236.796 238.822 236.95 238.676 237.144C238.529 237.333 238.455 237.57 238.455 237.854C238.455 238.266 238.605 238.581 238.903 238.799C239.206 239.012 239.589 239.118 240.053 239.118ZM252.907 241V230.091H262.445V241H259.554V232.47H255.762V241H252.907ZM265.16 245.091V230.091H268.143V231.924H268.278C268.41 231.63 268.602 231.332 268.853 231.029C269.109 230.721 269.44 230.465 269.847 230.262C270.259 230.053 270.771 229.949 271.381 229.949C272.177 229.949 272.911 230.157 273.583 230.574C274.255 230.986 274.793 231.609 275.195 232.442C275.598 233.271 275.799 234.31 275.799 235.56C275.799 236.777 275.602 237.804 275.209 238.642C274.821 239.476 274.291 240.108 273.619 240.539C272.951 240.965 272.203 241.178 271.374 241.178C270.787 241.178 270.288 241.081 269.876 240.887C269.468 240.692 269.135 240.449 268.874 240.155C268.614 239.857 268.415 239.556 268.278 239.253H268.185V245.091H265.16ZM268.121 235.546C268.121 236.194 268.211 236.76 268.391 237.243C268.571 237.726 268.832 238.103 269.173 238.372C269.513 238.638 269.928 238.77 270.415 238.77C270.908 238.77 271.325 238.635 271.665 238.365C272.006 238.091 272.264 237.712 272.44 237.229C272.619 236.741 272.709 236.18 272.709 235.546C272.709 234.916 272.622 234.362 272.447 233.884C272.271 233.406 272.013 233.031 271.673 232.762C271.332 232.492 270.913 232.357 270.415 232.357C269.923 232.357 269.506 232.487 269.165 232.747C268.829 233.008 268.571 233.377 268.391 233.855C268.211 234.334 268.121 234.897 268.121 235.546ZM281.007 237.009L284.934 230.091H287.917V241H285.034V234.061L281.12 241H278.116V230.091H281.007V237.009ZM295.01 237.911H297.944C297.958 238.271 298.119 238.555 298.427 238.763C298.734 238.971 299.132 239.076 299.62 239.076C300.112 239.076 300.526 238.962 300.863 238.735C301.199 238.503 301.367 238.171 301.367 237.74C301.367 237.475 301.301 237.246 301.168 237.051C301.035 236.853 300.851 236.696 300.614 236.583C300.377 236.469 300.103 236.412 299.79 236.412H298.221V234.431H299.79C300.259 234.431 300.619 234.322 300.87 234.104C301.125 233.886 301.253 233.614 301.253 233.287C301.253 232.918 301.121 232.622 300.856 232.399C300.595 232.172 300.242 232.058 299.797 232.058C299.348 232.058 298.973 232.16 298.675 232.364C298.382 232.563 298.23 232.823 298.221 233.145H295.302C295.311 232.492 295.508 231.926 295.891 231.448C296.279 230.969 296.8 230.6 297.454 230.34C298.112 230.079 298.848 229.949 299.662 229.949C300.553 229.949 301.32 230.075 301.964 230.326C302.612 230.572 303.109 230.924 303.455 231.384C303.805 231.843 303.981 232.39 303.981 233.024C303.981 233.602 303.791 234.085 303.412 234.473C303.034 234.862 302.503 235.139 301.821 235.304V235.418C302.271 235.446 302.678 235.567 303.043 235.78C303.408 235.993 303.699 236.287 303.917 236.661C304.134 237.03 304.243 237.468 304.243 237.975C304.243 238.652 304.044 239.232 303.647 239.715C303.254 240.198 302.709 240.569 302.013 240.83C301.322 241.085 300.529 241.213 299.634 241.213C298.763 241.213 297.981 241.088 297.29 240.837C296.604 240.581 296.057 240.207 295.65 239.715C295.247 239.222 295.034 238.621 295.01 237.911ZM309.51 241.206C308.814 241.206 308.193 241.085 307.649 240.844C307.104 240.598 306.673 240.236 306.356 239.757C306.044 239.274 305.887 238.673 305.887 237.953C305.887 237.347 305.999 236.838 306.221 236.426C306.444 236.014 306.747 235.683 307.13 235.432C307.514 235.181 307.949 234.992 308.437 234.864C308.93 234.736 309.446 234.646 309.985 234.594C310.62 234.528 311.131 234.466 311.52 234.409C311.908 234.348 312.19 234.258 312.365 234.139C312.54 234.021 312.627 233.846 312.627 233.614V233.571C312.627 233.121 312.485 232.773 312.201 232.527C311.922 232.281 311.524 232.158 311.008 232.158C310.464 232.158 310.03 232.279 309.708 232.52C309.386 232.757 309.173 233.055 309.069 233.415L306.271 233.188C306.413 232.525 306.692 231.952 307.109 231.469C307.526 230.981 308.063 230.607 308.721 230.347C309.384 230.082 310.151 229.949 311.022 229.949C311.628 229.949 312.208 230.02 312.762 230.162C313.321 230.304 313.816 230.524 314.247 230.823C314.682 231.121 315.026 231.505 315.277 231.973C315.528 232.437 315.653 232.994 315.653 233.642V241H312.784V239.487H312.699C312.523 239.828 312.289 240.129 311.995 240.389C311.702 240.645 311.349 240.846 310.937 240.993C310.525 241.135 310.049 241.206 309.51 241.206ZM310.376 239.118C310.821 239.118 311.214 239.031 311.555 238.855C311.896 238.675 312.163 238.434 312.358 238.131C312.552 237.828 312.649 237.485 312.649 237.101V235.943C312.554 236.005 312.424 236.062 312.258 236.114C312.097 236.161 311.915 236.206 311.711 236.249C311.508 236.287 311.304 236.322 311.1 236.355C310.897 236.384 310.712 236.41 310.547 236.433C310.191 236.486 309.881 236.568 309.616 236.682C309.351 236.796 309.145 236.95 308.998 237.144C308.851 237.333 308.778 237.57 308.778 237.854C308.778 238.266 308.927 238.581 309.225 238.799C309.529 239.012 309.912 239.118 310.376 239.118ZM318.3 241V230.091H321.326V234.324H322.178L325.147 230.091H328.698L324.842 235.503L328.741 241H325.147L322.455 237.13H321.326V241H318.3ZM333.43 241.206C332.734 241.206 332.114 241.085 331.569 240.844C331.025 240.598 330.594 240.236 330.276 239.757C329.964 239.274 329.808 238.673 329.808 237.953C329.808 237.347 329.919 236.838 330.142 236.426C330.364 236.014 330.667 235.683 331.051 235.432C331.434 235.181 331.87 234.992 332.357 234.864C332.85 234.736 333.366 234.646 333.906 234.594C334.54 234.528 335.052 234.466 335.44 234.409C335.828 234.348 336.11 234.258 336.285 234.139C336.46 234.021 336.548 233.846 336.548 233.614V233.571C336.548 233.121 336.406 232.773 336.122 232.527C335.842 232.281 335.445 232.158 334.928 232.158C334.384 232.158 333.951 232.279 333.629 232.52C333.307 232.757 333.094 233.055 332.99 233.415L330.191 233.188C330.333 232.525 330.613 231.952 331.029 231.469C331.446 230.981 331.983 230.607 332.642 230.347C333.304 230.082 334.071 229.949 334.943 229.949C335.549 229.949 336.129 230.02 336.683 230.162C337.241 230.304 337.736 230.524 338.167 230.823C338.603 231.121 338.946 231.505 339.197 231.973C339.448 232.437 339.573 232.994 339.573 233.642V241H336.704V239.487H336.619C336.444 239.828 336.209 240.129 335.916 240.389C335.622 240.645 335.269 240.846 334.857 240.993C334.446 241.135 333.97 241.206 333.43 241.206ZM334.296 239.118C334.741 239.118 335.134 239.031 335.475 238.855C335.816 238.675 336.084 238.434 336.278 238.131C336.472 237.828 336.569 237.485 336.569 237.101V235.943C336.474 236.005 336.344 236.062 336.178 236.114C336.018 236.161 335.835 236.206 335.632 236.249C335.428 236.287 335.224 236.322 335.021 236.355C334.817 236.384 334.633 236.41 334.467 236.433C334.112 236.486 333.802 236.568 333.536 236.682C333.271 236.796 333.065 236.95 332.919 237.144C332.772 237.333 332.698 237.57 332.698 237.854C332.698 238.266 332.848 238.581 333.146 238.799C333.449 239.012 333.832 239.118 334.296 239.118ZM341.66 237.911H344.593C344.607 238.271 344.768 238.555 345.076 238.763C345.384 238.971 345.781 239.076 346.269 239.076C346.761 239.076 347.176 238.962 347.512 238.735C347.848 238.503 348.016 238.171 348.016 237.74C348.016 237.475 347.95 237.246 347.817 237.051C347.685 236.853 347.5 236.696 347.263 236.583C347.027 236.469 346.752 236.412 346.439 236.412H344.87V234.431H346.439C346.908 234.431 347.268 234.322 347.519 234.104C347.775 233.886 347.902 233.614 347.902 233.287C347.902 232.918 347.77 232.622 347.505 232.399C347.244 232.172 346.892 232.058 346.447 232.058C345.997 232.058 345.623 232.16 345.324 232.364C345.031 232.563 344.879 232.823 344.87 233.145H341.951C341.96 232.492 342.157 231.926 342.54 231.448C342.929 230.969 343.449 230.6 344.103 230.34C344.761 230.079 345.497 229.949 346.312 229.949C347.202 229.949 347.969 230.075 348.613 230.326C349.261 230.572 349.759 230.924 350.104 231.384C350.455 231.843 350.63 232.39 350.63 233.024C350.63 233.602 350.44 234.085 350.062 234.473C349.683 234.862 349.152 235.139 348.471 235.304V235.418C348.92 235.446 349.328 235.567 349.692 235.78C350.057 235.993 350.348 236.287 350.566 236.661C350.784 237.03 350.893 237.468 350.893 237.975C350.893 238.652 350.694 239.232 350.296 239.715C349.903 240.198 349.358 240.569 348.662 240.83C347.971 241.085 347.178 241.213 346.283 241.213C345.412 241.213 344.631 241.088 343.939 240.837C343.253 240.581 342.706 240.207 342.299 239.715C341.896 239.222 341.683 238.621 341.66 237.911ZM358.02 241.213C356.897 241.213 355.932 240.986 355.122 240.531C354.317 240.072 353.697 239.424 353.261 238.585C352.825 237.743 352.608 236.746 352.608 235.595C352.608 234.473 352.825 233.488 353.261 232.641C353.697 231.793 354.31 231.133 355.101 230.659C355.896 230.186 356.829 229.949 357.899 229.949C358.619 229.949 359.289 230.065 359.909 230.297C360.534 230.524 361.078 230.868 361.542 231.327C362.011 231.786 362.376 232.364 362.636 233.06C362.897 233.751 363.027 234.561 363.027 235.489V236.32H353.815V234.445H360.179C360.179 234.009 360.084 233.623 359.895 233.287C359.705 232.951 359.442 232.688 359.106 232.499C358.775 232.305 358.389 232.208 357.949 232.208C357.489 232.208 357.082 232.314 356.727 232.527C356.377 232.736 356.102 233.017 355.903 233.372C355.704 233.723 355.602 234.113 355.598 234.544V236.327C355.598 236.867 355.697 237.333 355.896 237.726C356.1 238.119 356.386 238.422 356.755 238.635C357.125 238.848 357.563 238.955 358.069 238.955C358.406 238.955 358.713 238.907 358.993 238.813C359.272 238.718 359.511 238.576 359.71 238.387C359.909 238.197 360.06 237.965 360.165 237.691L362.963 237.875C362.821 238.548 362.53 239.135 362.089 239.637C361.654 240.134 361.09 240.522 360.399 240.801C359.712 241.076 358.919 241.213 358.02 241.213ZM30.1364 269.213C29.0331 269.213 28.0791 268.979 27.2741 268.51C26.474 268.037 25.8561 267.379 25.4205 266.536C24.9848 265.688 24.767 264.706 24.767 263.588C24.767 262.461 24.9848 261.477 25.4205 260.634C25.8561 259.786 26.474 259.128 27.2741 258.659C28.0791 258.186 29.0331 257.949 30.1364 257.949C31.2396 257.949 32.1913 258.186 32.9915 258.659C33.7964 259.128 34.4167 259.786 34.8523 260.634C35.2879 261.477 35.5057 262.461 35.5057 263.588C35.5057 264.706 35.2879 265.688 34.8523 266.536C34.4167 267.379 33.7964 268.037 32.9915 268.51C32.1913 268.979 31.2396 269.213 30.1364 269.213ZM30.1506 266.87C30.6525 266.87 31.0715 266.728 31.4077 266.443C31.7438 266.155 31.9972 265.762 32.1676 265.264C32.3428 264.767 32.4304 264.201 32.4304 263.567C32.4304 262.933 32.3428 262.367 32.1676 261.87C31.9972 261.372 31.7438 260.979 31.4077 260.691C31.0715 260.402 30.6525 260.257 30.1506 260.257C29.6439 260.257 29.2178 260.402 28.8722 260.691C28.5313 260.979 28.2732 261.372 28.098 261.87C27.9276 262.367 27.8423 262.933 27.8423 263.567C27.8423 264.201 27.9276 264.767 28.098 265.264C28.2732 265.762 28.5313 266.155 28.8722 266.443C29.2178 266.728 29.6439 266.87 30.1506 266.87ZM36.7165 260.47V258.091H46.6029V260.47H43.0873V269H40.2038V260.47H36.7165ZM54.2129 269L60.2427 257.068V256.969H53.2185V254.455H63.4245V257.005L57.3876 269H54.2129ZM71.2227 269.32C70.0011 269.315 68.95 269.014 68.0693 268.418C67.1934 267.821 66.5187 266.957 66.0452 265.826C65.5764 264.694 65.3444 263.333 65.3491 261.742C65.3491 260.156 65.5835 258.804 66.0523 257.686C66.5258 256.569 67.2005 255.719 68.0764 255.137C68.9571 254.549 70.0059 254.256 71.2227 254.256C72.4396 254.256 73.486 254.549 74.3619 255.137C75.2426 255.724 75.9197 256.576 76.3932 257.693C76.8667 258.806 77.101 260.156 77.0963 261.742C77.0963 263.337 76.8596 264.701 76.3861 265.833C75.9173 266.964 75.245 267.828 74.369 268.425C73.4931 269.022 72.4443 269.32 71.2227 269.32ZM71.2227 266.77C72.0561 266.77 72.7213 266.351 73.2185 265.513C73.7156 264.675 73.9618 263.418 73.9571 261.742C73.9571 260.639 73.8435 259.72 73.6162 258.986C73.3937 258.252 73.0764 257.701 72.6645 257.331C72.2573 256.962 71.7767 256.777 71.2227 256.777C70.3941 256.777 69.7313 257.192 69.2341 258.02C68.7369 258.849 68.486 260.089 68.4813 261.742C68.4813 262.859 68.5925 263.792 68.8151 264.54C69.0423 265.283 69.3619 265.842 69.7739 266.216C70.1858 266.585 70.6688 266.77 71.2227 266.77ZM85.2923 269.32C84.0707 269.315 83.0195 269.014 82.1388 268.418C81.2629 267.821 80.5882 266.957 80.1147 265.826C79.646 264.694 79.4139 263.333 79.4187 261.742C79.4187 260.156 79.6531 258.804 80.1218 257.686C80.5953 256.569 81.27 255.719 82.146 255.137C83.0266 254.549 84.0754 254.256 85.2923 254.256C86.5091 254.256 87.5555 254.549 88.4315 255.137C89.3121 255.724 89.9892 256.576 90.4627 257.693C90.9362 258.806 91.1706 260.156 91.1658 261.742C91.1658 263.337 90.9291 264.701 90.4556 265.833C89.9869 266.964 89.3145 267.828 88.4386 268.425C87.5626 269.022 86.5138 269.32 85.2923 269.32ZM85.2923 266.77C86.1256 266.77 86.7908 266.351 87.288 265.513C87.7852 264.675 88.0314 263.418 88.0266 261.742C88.0266 260.639 87.913 259.72 87.6857 258.986C87.4632 258.252 87.146 257.701 86.734 257.331C86.3268 256.962 85.8462 256.777 85.2923 256.777C84.4637 256.777 83.8008 257.192 83.3036 258.02C82.8065 258.849 82.5555 260.089 82.5508 261.742C82.5508 262.859 82.6621 263.792 82.8846 264.54C83.1119 265.283 83.4315 265.842 83.8434 266.216C84.2553 266.585 84.7383 266.77 85.2923 266.77ZM98.616 273.091V258.091H101.599V259.924H101.734C101.866 259.63 102.058 259.332 102.309 259.029C102.565 258.721 102.896 258.465 103.303 258.262C103.715 258.053 104.227 257.949 104.838 257.949C105.633 257.949 106.367 258.157 107.039 258.574C107.712 258.986 108.249 259.609 108.651 260.442C109.054 261.271 109.255 262.31 109.255 263.56C109.255 264.777 109.059 265.804 108.666 266.642C108.277 267.476 107.747 268.108 107.075 268.539C106.407 268.965 105.659 269.178 104.83 269.178C104.243 269.178 103.744 269.081 103.332 268.887C102.925 268.692 102.591 268.449 102.33 268.155C102.07 267.857 101.871 267.556 101.734 267.253H101.642V273.091H98.616ZM101.578 263.546C101.578 264.194 101.668 264.76 101.848 265.243C102.027 265.726 102.288 266.103 102.629 266.372C102.97 266.638 103.384 266.77 103.872 266.77C104.364 266.77 104.781 266.635 105.122 266.365C105.463 266.091 105.721 265.712 105.896 265.229C106.076 264.741 106.166 264.18 106.166 263.546C106.166 262.916 106.078 262.362 105.903 261.884C105.728 261.406 105.47 261.031 105.129 260.762C104.788 260.492 104.369 260.357 103.872 260.357C103.379 260.357 102.963 260.487 102.622 260.747C102.285 261.008 102.027 261.377 101.848 261.855C101.668 262.334 101.578 262.897 101.578 263.546ZM113.089 273.091C112.705 273.091 112.345 273.06 112.009 272.999C111.678 272.942 111.403 272.869 111.185 272.779L111.867 270.52C112.222 270.629 112.542 270.688 112.826 270.698C113.115 270.707 113.363 270.641 113.572 270.499C113.785 270.357 113.957 270.115 114.09 269.774L114.268 269.313L110.354 258.091H113.536L115.795 266.103H115.908L118.188 258.091H121.391L117.151 270.179C116.947 270.766 116.67 271.278 116.32 271.713C115.974 272.154 115.536 272.492 115.006 272.729C114.476 272.97 113.837 273.091 113.089 273.091ZM132.309 254.085L133.232 256.06C132.925 256.316 132.584 256.505 132.21 256.628C131.836 256.746 131.388 256.825 130.867 256.862C130.351 256.9 129.721 256.926 128.978 256.941C128.135 256.95 127.449 257.085 126.918 257.345C126.388 257.606 125.986 258.015 125.711 258.574C125.436 259.128 125.256 259.853 125.171 260.747H125.278C125.604 260.08 126.064 259.564 126.656 259.199C127.252 258.835 127.988 258.652 128.864 258.652C129.792 258.652 130.604 258.856 131.3 259.263C132.001 259.67 132.546 260.255 132.934 261.017C133.322 261.78 133.516 262.693 133.516 263.759C133.516 264.867 133.299 265.83 132.863 266.649C132.432 267.464 131.819 268.096 131.024 268.546C130.228 268.991 129.281 269.213 128.183 269.213C127.079 269.213 126.128 268.981 125.327 268.517C124.532 268.053 123.916 267.369 123.481 266.465C123.05 265.56 122.835 264.448 122.835 263.127V262.232C122.835 259.604 123.346 257.656 124.369 256.387C125.391 255.118 126.895 254.474 128.879 254.455C129.418 254.445 129.906 254.443 130.342 254.448C130.777 254.452 131.158 254.431 131.485 254.384C131.817 254.336 132.091 254.237 132.309 254.085ZM128.197 266.87C128.661 266.87 129.059 266.749 129.39 266.507C129.726 266.266 129.984 265.92 130.164 265.47C130.349 265.021 130.441 264.483 130.441 263.858C130.441 263.238 130.349 262.712 130.164 262.281C129.984 261.846 129.726 261.514 129.39 261.287C129.054 261.06 128.651 260.946 128.183 260.946C127.832 260.946 127.517 261.01 127.238 261.138C126.959 261.266 126.72 261.455 126.521 261.706C126.327 261.952 126.175 262.258 126.066 262.622C125.962 262.982 125.91 263.394 125.91 263.858C125.91 264.791 126.111 265.527 126.514 266.067C126.921 266.602 127.482 266.87 128.197 266.87ZM135.185 269L135.171 266.6H135.533C135.789 266.6 136.009 266.538 136.194 266.415C136.383 266.287 136.54 266.081 136.663 265.797C136.786 265.513 136.883 265.137 136.954 264.668C137.025 264.194 137.072 263.612 137.096 262.921L137.273 258.091H145.569V269H142.685V260.47H139.994L139.823 263.801C139.781 264.715 139.669 265.501 139.489 266.159C139.314 266.817 139.07 267.357 138.758 267.779C138.445 268.195 138.069 268.503 137.629 268.702C137.188 268.901 136.677 269 136.094 269H135.185ZM153.186 269.213C152.064 269.213 151.098 268.986 150.288 268.531C149.483 268.072 148.863 267.424 148.427 266.585C147.992 265.743 147.774 264.746 147.774 263.595C147.774 262.473 147.992 261.488 148.427 260.641C148.863 259.793 149.476 259.133 150.267 258.659C151.062 258.186 151.995 257.949 153.065 257.949C153.785 257.949 154.455 258.065 155.075 258.297C155.7 258.524 156.245 258.868 156.709 259.327C157.177 259.786 157.542 260.364 157.802 261.06C158.063 261.751 158.193 262.561 158.193 263.489V264.32H148.981V262.445H155.345C155.345 262.009 155.25 261.623 155.061 261.287C154.872 260.951 154.609 260.688 154.273 260.499C153.941 260.305 153.555 260.208 153.115 260.208C152.656 260.208 152.249 260.314 151.893 260.527C151.543 260.736 151.268 261.017 151.07 261.372C150.871 261.723 150.769 262.113 150.764 262.544V264.327C150.764 264.867 150.864 265.333 151.062 265.726C151.266 266.119 151.552 266.422 151.922 266.635C152.291 266.848 152.729 266.955 153.236 266.955C153.572 266.955 153.88 266.907 154.159 266.813C154.438 266.718 154.677 266.576 154.876 266.387C155.075 266.197 155.227 265.965 155.331 265.691L158.129 265.875C157.987 266.548 157.696 267.135 157.256 267.637C156.82 268.134 156.257 268.522 155.565 268.801C154.879 269.076 154.086 269.213 153.186 269.213ZM163.358 265.009L167.286 258.091H170.269V269H167.385V262.061L163.472 269H160.468V258.091H163.358V265.009ZM166.767 254.284H168.877C168.872 255.146 168.552 255.84 167.918 256.365C167.288 256.891 166.436 257.154 165.361 257.154C164.281 257.154 163.427 256.891 162.797 256.365C162.167 255.84 161.852 255.146 161.852 254.284H163.948C163.943 254.611 164.047 254.905 164.26 255.165C164.478 255.425 164.845 255.556 165.361 255.556C165.863 255.556 166.223 255.428 166.441 255.172C166.658 254.916 166.767 254.621 166.767 254.284Z" fill="#FF7010"/>
</svg>
