<svg width="416" height="300" viewBox="0 0 416 300" fill="none" xmlns="http://www.w3.org/2000/svg">
<rect y="0.000244141" width="416" height="300" rx="12" fill="#FFEEE2"/>
<g clip-path="url(#clip0_485_4511)">
<path d="M181.602 70.6092C181.625 70.6569 181.648 70.7048 181.675 70.7513C181.703 70.7996 181.734 70.8448 181.764 70.8904L206.065 112.985C206.465 113.676 207.202 114.102 208 114.102C208.798 114.102 209.536 113.676 209.935 112.985L238.749 63.0829C239.366 62.0144 239 60.6481 237.932 60.0309C228.833 54.7773 218.502 52.0002 208.054 52.0002C197.545 52.0002 187.177 54.7731 178.07 60.0187C177.556 60.3148 177.181 60.8027 177.028 61.3752C176.874 61.9477 176.954 62.558 177.25 63.0713L181.602 70.6092ZM208 107.4L186.701 70.5047C200.041 63.659 215.984 63.6619 229.3 70.513L208 107.4ZM208.054 56.4683C216.977 56.4683 225.811 58.6592 233.741 62.8222L231.537 66.6395C216.839 58.9985 199.187 58.9952 184.464 66.6308L182.261 62.8136C190.203 58.6562 199.073 56.4683 208.054 56.4683Z" fill="#FF7010"/>
<path d="M208 93.5311C209.234 93.5311 210.234 92.531 210.234 91.2973C210.234 90.0637 209.234 89.0636 208 89.0636C206.766 89.0636 205.766 90.0637 205.766 91.2973C205.766 92.531 206.766 93.5311 208 93.5311Z" fill="#FF7010"/>
<path d="M215.418 75.6257C214.887 73.6442 213.617 71.988 211.84 70.9622C210.673 70.2884 209.347 69.9321 208.005 69.9321C205.267 69.9321 202.717 71.4036 201.349 73.7726C200.323 75.5491 200.051 77.6187 200.582 79.6002C201.112 81.5816 202.383 83.2378 204.16 84.2637C205.326 84.9374 206.653 85.2937 207.995 85.2937C210.732 85.2937 213.283 83.8222 214.651 81.4532C215.677 79.677 215.949 77.6074 215.418 75.6257ZM210.781 79.2192C210.209 80.2102 209.141 80.8259 207.995 80.8259C207.436 80.8259 206.882 80.677 206.394 80.3946C205.651 79.9657 205.12 79.2728 204.897 78.4444C204.675 77.6157 204.79 76.7501 205.219 76.0072C205.791 75.0162 206.858 74.4005 208.005 74.4005C208.564 74.4005 209.117 74.5494 209.606 74.8318C210.349 75.2608 210.88 75.9536 211.102 76.782C211.325 77.6107 211.211 78.476 210.781 79.2192Z" fill="#FF7010"/>
<path d="M141.591 119.166L150.293 119.166C150.347 119.17 150.4 119.174 150.455 119.174C150.512 119.174 150.567 119.17 150.621 119.166L199.226 119.168C200.024 119.168 200.761 118.743 201.161 118.051C201.56 117.36 201.56 116.508 201.161 115.817L172.351 65.9118C172.054 65.3986 171.566 65.0242 170.994 64.8708C170.422 64.7174 169.812 64.7975 169.299 65.0939C160.038 70.4401 152.375 78.1597 147.14 87.4179C142.059 96.4035 139.368 106.608 139.357 116.93C139.357 117.522 139.592 118.091 140.011 118.511C140.43 118.93 140.998 119.166 141.591 119.166V119.166ZM169.621 70.1199L171.824 73.9359C168.153 76.2775 164.792 79.0834 161.817 82.307C160.98 83.2134 161.037 84.6271 161.943 85.4639C162.373 85.8603 162.916 86.0563 163.458 86.0563C164.06 86.0563 164.66 85.8145 165.1 85.3376C167.769 82.4461 170.779 79.9249 174.061 77.8112L195.356 114.701L152.754 114.699C153.149 106.71 155.599 98.9429 159.911 92.1088C160.569 91.0653 160.257 89.6856 159.214 89.0273C158.17 88.3687 156.79 88.6812 156.132 89.7246C151.369 97.2736 148.678 105.865 148.28 114.698L143.873 114.698C144.628 96.5635 154.301 79.8153 169.621 70.1199V70.1199Z" fill="#FF7010"/>
<path d="M159.674 111.191C160.907 111.191 161.908 110.191 161.908 108.957C161.908 107.724 160.907 106.724 159.674 106.724C158.44 106.724 157.44 107.724 157.44 108.957C157.44 110.191 158.44 111.191 159.674 111.191Z" fill="#FF7010"/>
<path d="M179.185 110.893C180.419 110.893 181.419 109.893 181.419 108.659C181.419 107.426 180.419 106.426 179.185 106.426C177.952 106.426 176.952 107.426 176.952 108.659C176.952 109.893 177.952 110.893 179.185 110.893Z" fill="#FF7010"/>
<path d="M176.856 170.275L201.16 128.183C201.559 127.492 201.559 126.64 201.16 125.949C200.761 125.258 200.024 124.832 199.226 124.832L141.601 124.829C141.009 124.829 140.44 125.065 140.021 125.484C139.603 125.903 139.367 126.471 139.367 127.063C139.367 137.757 142.221 148.252 147.621 157.416C152.862 166.309 160.354 173.742 169.287 178.911C169.63 179.11 170.017 179.211 170.406 179.211C170.599 179.211 170.793 179.186 170.983 179.136C171.556 178.983 172.045 178.608 172.341 178.095L176.713 170.523C176.735 170.489 176.76 170.458 176.78 170.423C176.808 170.374 176.832 170.325 176.856 170.275V170.275ZM174.053 166.194C161.454 158.063 153.486 144.256 152.761 129.298L195.356 129.3L174.053 166.194V166.194ZM169.612 173.885C154.285 164.164 144.617 147.412 143.88 129.298L148.288 129.298C149.019 145.847 157.842 161.135 171.816 170.068L169.612 173.885Z" fill="#FF7010"/>
<path d="M182.611 142.333C183.845 142.333 184.845 141.333 184.845 140.099C184.845 138.865 183.845 137.865 182.611 137.865C181.377 137.865 180.377 138.865 180.377 140.099C180.377 141.333 181.377 142.333 182.611 142.333Z" fill="#FF7010"/>
<path d="M234.398 173.391C234.375 173.344 234.352 173.296 234.325 173.249C234.297 173.201 234.266 173.155 234.235 173.11L209.935 131.015C209.536 130.324 208.798 129.898 208 129.898C207.202 129.898 206.464 130.324 206.065 131.015L177.251 180.918C176.634 181.986 177 183.352 178.068 183.97C187.166 189.223 197.498 192 207.946 192C218.456 192 228.824 189.227 237.93 183.982C238.444 183.686 238.819 183.198 238.973 182.625C239.126 182.053 239.046 181.442 238.75 180.929L234.398 173.391V173.391ZM207.949 187.532C199.023 187.532 190.189 185.341 182.26 181.178L184.462 177.363C190.328 180.418 196.664 182.276 203.333 182.885C203.402 182.891 203.471 182.894 203.539 182.894C204.681 182.894 205.655 182.022 205.761 180.863C205.873 179.634 204.968 178.547 203.739 178.435C197.72 177.886 191.998 176.223 186.698 173.491L208 136.6L229.302 173.5C223.999 176.226 218.281 177.886 212.269 178.435C211.04 178.547 210.135 179.634 210.247 180.863C210.353 182.023 211.327 182.894 212.469 182.894C212.538 182.894 212.606 182.891 212.675 182.884C219.336 182.276 225.67 180.421 231.537 177.372L233.739 181.187C225.797 185.344 216.928 187.532 207.949 187.532V187.532Z" fill="#FF7010"/>
<path d="M206.66 152.703C207.893 152.703 208.893 151.703 208.893 150.469C208.893 149.235 207.893 148.235 206.66 148.235C205.426 148.235 204.426 149.235 204.426 150.469C204.426 151.703 205.426 152.703 206.66 152.703Z" fill="#FF7010"/>
<path d="M275.989 125.49C275.57 125.07 275.002 124.835 274.409 124.835L265.707 124.835C265.653 124.831 265.6 124.826 265.545 124.826C265.488 124.826 265.433 124.831 265.379 124.835L216.774 124.832C215.976 124.832 215.239 125.258 214.839 125.949C214.44 126.641 214.44 127.492 214.839 128.183L243.649 178.089C243.945 178.602 244.433 178.977 245.006 179.13C245.196 179.181 245.39 179.206 245.584 179.206C245.972 179.206 246.358 179.105 246.701 178.907C255.962 173.561 263.624 165.841 268.86 156.583C273.941 147.598 276.632 137.393 276.642 127.072C276.643 126.478 276.408 125.91 275.989 125.49V125.49ZM246.379 173.881L244.178 170.067C252.907 164.49 259.851 156.228 263.859 146.588C264.333 145.449 263.794 144.142 262.655 143.668C261.515 143.194 260.208 143.734 259.734 144.873C256.1 153.611 249.827 161.106 241.941 166.192L220.644 129.3L263.249 129.302C263.124 131.785 262.799 134.273 262.273 136.725C262.014 137.931 262.783 139.119 263.989 139.378C264.147 139.411 264.305 139.428 264.46 139.428C265.491 139.428 266.417 138.71 266.642 137.661C267.233 134.901 267.592 132.098 267.72 129.302L272.127 129.302C271.372 147.437 261.699 164.185 246.379 173.881Z" fill="#FF7010"/>
<path d="M232.928 138.941C234.162 138.941 235.162 137.941 235.162 136.707C235.162 135.474 234.162 134.474 232.928 134.474C231.694 134.474 230.694 135.474 230.694 136.707C230.694 137.941 231.694 138.941 232.928 138.941Z" fill="#FF7010"/>
<path d="M243.475 159.405C244.709 159.405 245.709 158.405 245.709 157.171C245.709 155.938 244.709 154.938 243.475 154.938C242.242 154.938 241.242 155.938 241.242 157.171C241.242 158.405 242.242 159.405 243.475 159.405Z" fill="#FF7010"/>
<path d="M243.475 88.879C244.709 88.879 245.709 87.8788 245.709 86.6449C245.709 85.4111 244.709 84.4109 243.475 84.4109C242.242 84.4109 241.241 85.4111 241.241 86.6449C241.241 87.8788 242.242 88.879 243.475 88.879Z" fill="#FF7010"/>
<path d="M239.144 73.7256L214.84 115.817C214.441 116.509 214.441 117.36 214.84 118.051C215.239 118.743 215.976 119.168 216.774 119.168L274.399 119.171C274.992 119.171 275.56 118.936 275.979 118.517C276.398 118.098 276.633 117.53 276.633 116.937C276.634 106.244 273.78 95.7481 268.38 86.585C263.139 77.6917 255.646 70.2586 246.713 65.0893C246.199 64.7924 245.589 64.7119 245.017 64.8647C244.444 65.0179 243.956 65.3923 243.659 65.9058L239.307 73.4426C239.278 73.4867 239.247 73.5304 239.22 73.5772C239.192 73.6261 239.168 73.6758 239.144 73.7256V73.7256ZM241.947 77.8067C254.546 85.9371 262.514 99.745 263.239 114.703L220.644 114.701L241.947 77.8067V77.8067ZM246.388 70.1159C261.715 79.8367 271.383 96.5882 272.12 114.703L267.712 114.703C266.981 98.1538 258.158 82.8652 244.184 73.9329L246.388 70.1159V70.1159Z" fill="#FF7010"/>
<path d="M169.565 107.487C170.907 107.487 172.233 107.131 173.399 106.458C175.176 105.432 176.447 103.776 176.978 101.794C177.509 99.813 177.236 97.7434 176.211 95.9669C174.843 93.5976 172.293 92.1255 169.555 92.1255C168.213 92.1255 166.887 92.4814 165.72 93.1552C163.944 94.1808 162.672 95.8367 162.141 97.8184C161.61 99.7999 161.883 101.869 162.908 103.646C164.276 106.016 166.827 107.487 169.565 107.487V107.487ZM166.457 98.9754C166.679 98.1467 167.211 97.4541 167.954 97.0252C168.442 96.7431 168.996 96.5942 169.555 96.5942C170.701 96.5942 171.769 97.2099 172.341 98.2012C172.77 98.9441 172.884 99.8097 172.662 100.638C172.44 101.467 171.908 102.16 171.165 102.589C170.677 102.871 170.123 103.02 169.565 103.02C168.418 103.02 167.35 102.404 166.778 101.413C166.349 100.669 166.235 99.8037 166.457 98.9754V98.9754Z" fill="#FF7010"/>
<path d="M164.129 149.624C165.579 151.075 167.508 151.874 169.559 151.874C173.794 151.874 177.239 148.429 177.239 144.194C177.239 142.143 176.441 140.215 174.99 138.764C173.54 137.313 171.611 136.514 169.56 136.514C165.325 136.514 161.88 139.959 161.88 144.194C161.88 146.245 162.678 148.173 164.129 149.624V149.624ZM169.56 140.982C170.418 140.982 171.224 141.316 171.831 141.923C172.438 142.53 172.772 143.336 172.772 144.194C172.772 145.965 171.331 147.406 169.56 147.406L169.56 149.64V147.406C168.702 147.406 167.895 147.072 167.289 146.465C166.682 145.858 166.348 145.051 166.348 144.194C166.348 142.423 167.789 140.982 169.56 140.982Z" fill="#FF7010"/>
<path d="M214.651 170.228C215.677 168.451 215.949 166.381 215.419 164.4C214.888 162.419 213.617 160.762 211.841 159.736C210.674 159.063 209.347 158.706 208.005 158.706C205.268 158.706 202.717 160.178 201.349 162.547C200.324 164.323 200.051 166.393 200.582 168.374C201.113 170.356 202.383 172.012 204.16 173.038C205.327 173.712 206.653 174.068 207.995 174.068C210.732 174.068 213.283 172.597 214.651 170.228V170.228ZM210.781 167.993C210.209 168.985 209.141 169.6 207.995 169.6C207.436 169.6 206.882 169.451 206.394 169.169C205.651 168.74 205.12 168.047 204.897 167.219C204.675 166.39 204.79 165.524 205.219 164.782C205.791 163.791 206.858 163.175 208.005 163.175C208.564 163.175 209.117 163.324 209.606 163.606C210.349 164.035 210.88 164.728 211.102 165.556C211.325 166.385 211.211 167.25 210.781 167.993Z" fill="#FF7010"/>
<path d="M246.435 136.513C245.093 136.513 243.767 136.869 242.601 137.543C240.824 138.569 239.553 140.224 239.022 142.206C238.491 144.188 238.764 146.257 239.789 148.034C241.157 150.403 243.707 151.875 246.446 151.875C247.787 151.875 249.113 151.519 250.28 150.845C252.057 149.82 253.328 148.164 253.859 146.182C254.39 144.201 254.117 142.131 253.092 140.355C251.724 137.985 249.173 136.513 246.435 136.513V136.513ZM249.543 145.025C249.321 145.854 248.789 146.546 248.046 146.975C247.558 147.257 247.004 147.406 246.446 147.406C245.299 147.406 244.231 146.791 243.659 145.799C243.23 145.056 243.116 144.191 243.338 143.362C243.56 142.533 244.092 141.841 244.835 141.412C245.323 141.13 245.877 140.981 246.435 140.981C247.582 140.981 248.65 141.597 249.222 142.588C249.651 143.331 249.765 144.197 249.543 145.025Z" fill="#FF7010"/>
<path d="M251.871 94.3764C250.421 92.9258 248.492 92.1269 246.44 92.1266C242.206 92.1266 238.761 95.5715 238.761 99.806C238.761 101.857 239.559 103.786 241.01 105.237C242.46 106.687 244.389 107.486 246.44 107.486C250.675 107.486 254.12 104.041 254.12 99.8066C254.12 97.7555 253.322 95.8271 251.871 94.3764ZM246.44 103.018L246.44 105.252L246.44 103.018C245.582 103.018 244.776 102.684 244.169 102.078C243.563 101.471 243.228 100.665 243.229 99.8063C243.229 98.0355 244.67 96.5947 246.441 96.5947C247.299 96.5947 248.105 96.9289 248.712 97.5356C249.318 98.1424 249.652 98.9491 249.652 99.8069C249.652 101.578 248.211 103.018 246.44 103.018V103.018Z" fill="#FF7010"/>
</g>
<path d="M30.5554 241.199C29.4948 241.199 28.5502 241.017 27.7216 240.652C26.8977 240.283 26.2467 239.776 25.7685 239.132C25.295 238.484 25.0511 237.736 25.0369 236.888H28.1335C28.1525 237.243 28.2685 237.556 28.4815 237.826C28.6993 238.091 28.9882 238.297 29.348 238.443C29.7079 238.59 30.1127 238.664 30.5625 238.664C31.0312 238.664 31.4455 238.581 31.8054 238.415C32.1652 238.249 32.447 238.02 32.6506 237.726C32.8542 237.433 32.956 237.094 32.956 236.71C32.956 236.322 32.8471 235.979 32.6293 235.681C32.4162 235.378 32.1084 235.141 31.706 234.97C31.3082 234.8 30.8348 234.715 30.2855 234.715H28.929V232.456H30.2855C30.7495 232.456 31.1591 232.376 31.5142 232.215C31.8741 232.054 32.1534 231.831 32.3523 231.547C32.5511 231.258 32.6506 230.922 32.6506 230.539C32.6506 230.174 32.563 229.854 32.3878 229.58C32.2173 229.3 31.9759 229.083 31.6634 228.926C31.3556 228.77 30.9957 228.692 30.5838 228.692C30.1671 228.692 29.786 228.768 29.4403 228.919C29.0947 229.066 28.8177 229.277 28.6094 229.551C28.401 229.826 28.2898 230.148 28.2756 230.517H25.3281C25.3423 229.679 25.5814 228.941 26.0455 228.301C26.5095 227.662 27.1345 227.163 27.9205 226.803C28.7112 226.438 29.6037 226.256 30.598 226.256C31.6018 226.256 32.4801 226.438 33.233 226.803C33.9858 227.167 34.5705 227.66 34.9872 228.28C35.4086 228.896 35.617 229.587 35.6122 230.354C35.617 231.168 35.3636 231.848 34.8523 232.392C34.3456 232.937 33.6851 233.282 32.8707 233.429V233.543C33.9408 233.68 34.7552 234.052 35.3139 234.658C35.8774 235.259 36.1567 236.012 36.152 236.916C36.1567 237.745 35.9176 238.481 35.4347 239.125C34.9564 239.769 34.2959 240.276 33.4531 240.645C32.6103 241.014 31.6444 241.199 30.5554 241.199ZM56.0418 226.455V241H53.002V228.955H47.1213V241H44.0815V226.455H56.0418ZM62.1035 237.009L66.031 230.091H69.014V241H66.1305V234.061L62.2171 241H59.2129V230.091H62.1035V237.009ZM81.2778 230.091V238.912H83.0178V244.509H80.0775V241H71.7394V230.091H74.63V238.621H78.4227V230.091H81.2778ZM94.7223 230.091V238.912H96.4624V244.509H93.522V241H85.1839V230.091H88.0746V238.621H91.8672V230.091H94.7223ZM100.525 233.443H103.785C105.229 233.443 106.356 233.789 107.165 234.48C107.975 235.167 108.38 236.085 108.38 237.236C108.38 237.984 108.198 238.642 107.833 239.21C107.468 239.774 106.943 240.214 106.256 240.531C105.57 240.844 104.746 241 103.785 241H98.6285V230.091H101.519V238.621H103.785C104.291 238.621 104.708 238.493 105.035 238.237C105.361 237.982 105.527 237.655 105.532 237.257C105.527 236.836 105.361 236.493 105.035 236.228C104.708 235.958 104.291 235.823 103.785 235.823H100.525V233.443ZM109.552 241V230.091H112.577V241H109.552ZM127.817 234.338V236.718H122.121V234.338H127.817ZM123.115 230.091V241H120.225V230.091H123.115ZM129.713 230.091V241H126.844V230.091H129.713ZM135.471 241.206C134.775 241.206 134.155 241.085 133.611 240.844C133.066 240.598 132.635 240.236 132.318 239.757C132.005 239.274 131.849 238.673 131.849 237.953C131.849 237.347 131.96 236.838 132.183 236.426C132.405 236.014 132.709 235.683 133.092 235.432C133.476 235.181 133.911 234.992 134.399 234.864C134.891 234.736 135.407 234.646 135.947 234.594C136.582 234.528 137.093 234.466 137.481 234.409C137.87 234.348 138.151 234.258 138.326 234.139C138.502 234.021 138.589 233.846 138.589 233.614V233.571C138.589 233.121 138.447 232.773 138.163 232.527C137.884 232.281 137.486 232.158 136.97 232.158C136.425 232.158 135.992 232.279 135.67 232.52C135.348 232.757 135.135 233.055 135.031 233.415L132.233 233.188C132.375 232.525 132.654 231.952 133.071 231.469C133.487 230.981 134.025 230.607 134.683 230.347C135.346 230.082 136.113 229.949 136.984 229.949C137.59 229.949 138.17 230.02 138.724 230.162C139.283 230.304 139.778 230.524 140.209 230.823C140.644 231.121 140.987 231.505 141.238 231.973C141.489 232.437 141.615 232.994 141.615 233.642V241H138.745V239.487H138.66C138.485 239.828 138.251 240.129 137.957 240.389C137.664 240.645 137.311 240.846 136.899 240.993C136.487 241.135 136.011 241.206 135.471 241.206ZM136.338 239.118C136.783 239.118 137.176 239.031 137.517 238.855C137.858 238.675 138.125 238.434 138.319 238.131C138.513 237.828 138.611 237.485 138.611 237.101V235.943C138.516 236.005 138.386 236.062 138.22 236.114C138.059 236.161 137.877 236.206 137.673 236.249C137.469 236.287 137.266 236.322 137.062 236.355C136.859 236.384 136.674 236.41 136.508 236.433C136.153 236.486 135.843 236.568 135.578 236.682C135.313 236.796 135.107 236.95 134.96 237.144C134.813 237.333 134.74 237.57 134.74 237.854C134.74 238.266 134.889 238.581 135.187 238.799C135.49 239.012 135.874 239.118 136.338 239.118ZM148.623 232.47V230.091H158.509V232.47H154.994V241H152.11V232.47H148.623ZM165.182 241.213C164.078 241.213 163.124 240.979 162.319 240.51C161.519 240.037 160.901 239.379 160.466 238.536C160.03 237.688 159.812 236.706 159.812 235.588C159.812 234.461 160.03 233.477 160.466 232.634C160.901 231.786 161.519 231.128 162.319 230.659C163.124 230.186 164.078 229.949 165.182 229.949C166.285 229.949 167.237 230.186 168.037 230.659C168.842 231.128 169.462 231.786 169.898 232.634C170.333 233.477 170.551 234.461 170.551 235.588C170.551 236.706 170.333 237.688 169.898 238.536C169.462 239.379 168.842 240.037 168.037 240.51C167.237 240.979 166.285 241.213 165.182 241.213ZM165.196 238.87C165.698 238.87 166.117 238.728 166.453 238.443C166.789 238.155 167.042 237.762 167.213 237.264C167.388 236.767 167.476 236.201 167.476 235.567C167.476 234.933 167.388 234.367 167.213 233.87C167.042 233.372 166.789 232.979 166.453 232.691C166.117 232.402 165.698 232.257 165.196 232.257C164.689 232.257 164.263 232.402 163.917 232.691C163.577 232.979 163.319 233.372 163.143 233.87C162.973 234.367 162.888 234.933 162.888 235.567C162.888 236.201 162.973 236.767 163.143 237.264C163.319 237.762 163.577 238.155 163.917 238.443C164.263 238.728 164.689 238.87 165.196 238.87ZM180.411 234.338V236.718H174.715V234.338H180.411ZM175.709 230.091V241H172.818V230.091H175.709ZM182.307 230.091V241H179.438V230.091H182.307ZM184.954 241V230.091H187.98V234.324H188.832L191.801 230.091H195.352L191.495 235.503L195.395 241H191.801L189.109 237.13H187.98V241H184.954ZM201.453 241.213C200.35 241.213 199.395 240.979 198.591 240.51C197.79 240.037 197.172 239.379 196.737 238.536C196.301 237.688 196.083 236.706 196.083 235.588C196.083 234.461 196.301 233.477 196.737 232.634C197.172 231.786 197.79 231.128 198.591 230.659C199.395 230.186 200.35 229.949 201.453 229.949C202.556 229.949 203.508 230.186 204.308 230.659C205.113 231.128 205.733 231.786 206.169 232.634C206.604 233.477 206.822 234.461 206.822 235.588C206.822 236.706 206.604 237.688 206.169 238.536C205.733 239.379 205.113 240.037 204.308 240.51C203.508 240.979 202.556 241.213 201.453 241.213ZM201.467 238.87C201.969 238.87 202.388 238.728 202.724 238.443C203.06 238.155 203.314 237.762 203.484 237.264C203.659 236.767 203.747 236.201 203.747 235.567C203.747 234.933 203.659 234.367 203.484 233.87C203.314 233.372 203.06 232.979 202.724 232.691C202.388 232.402 201.969 232.257 201.467 232.257C200.96 232.257 200.534 232.402 200.189 232.691C199.848 232.979 199.59 233.372 199.414 233.87C199.244 234.367 199.159 234.933 199.159 235.567C199.159 236.201 199.244 236.767 199.414 237.264C199.59 237.762 199.848 238.155 200.189 238.443C200.534 238.728 200.96 238.87 201.467 238.87ZM215.538 237.655L218.493 230.091H220.794L216.54 241H214.53L210.375 230.091H212.669L215.538 237.655ZM211.98 230.091V241H209.089V230.091H211.98ZM219.246 241V230.091H222.101V241H219.246ZM229.102 232.47V230.091H238.988V232.47H235.472V241H232.589V232.47H229.102ZM245.703 241.213C244.581 241.213 243.615 240.986 242.805 240.531C242.001 240.072 241.38 239.424 240.945 238.585C240.509 237.743 240.291 236.746 240.291 235.595C240.291 234.473 240.509 233.488 240.945 232.641C241.38 231.793 241.993 231.133 242.784 230.659C243.58 230.186 244.512 229.949 245.582 229.949C246.302 229.949 246.972 230.065 247.592 230.297C248.217 230.524 248.762 230.868 249.226 231.327C249.695 231.786 250.059 232.364 250.32 233.06C250.58 233.751 250.71 234.561 250.71 235.489V236.32H241.499V234.445H247.862C247.862 234.009 247.768 233.623 247.578 233.287C247.389 232.951 247.126 232.688 246.79 232.499C246.458 232.305 246.073 232.208 245.632 232.208C245.173 232.208 244.766 232.314 244.411 232.527C244.06 232.736 243.786 233.017 243.587 233.372C243.388 233.723 243.286 234.113 243.281 234.544V236.327C243.281 236.867 243.381 237.333 243.58 237.726C243.783 238.119 244.07 238.422 244.439 238.635C244.808 238.848 245.246 238.955 245.753 238.955C246.089 238.955 246.397 238.907 246.676 238.813C246.956 238.718 247.195 238.576 247.394 238.387C247.592 238.197 247.744 237.965 247.848 237.691L250.646 237.875C250.504 238.548 250.213 239.135 249.773 239.637C249.337 240.134 248.774 240.522 248.082 240.801C247.396 241.076 246.603 241.213 245.703 241.213ZM257.914 241.213C256.796 241.213 255.835 240.977 255.03 240.503C254.23 240.025 253.614 239.362 253.184 238.514C252.757 237.667 252.544 236.692 252.544 235.588C252.544 234.471 252.76 233.491 253.191 232.648C253.626 231.8 254.244 231.14 255.044 230.666C255.845 230.188 256.796 229.949 257.9 229.949C258.851 229.949 259.685 230.122 260.4 230.468C261.114 230.813 261.68 231.299 262.097 231.924C262.514 232.549 262.743 233.282 262.786 234.125H259.931C259.85 233.581 259.637 233.143 259.292 232.811C258.951 232.475 258.503 232.307 257.949 232.307C257.48 232.307 257.071 232.435 256.721 232.691C256.375 232.942 256.105 233.308 255.911 233.791C255.717 234.274 255.62 234.859 255.62 235.546C255.62 236.242 255.714 236.834 255.904 237.321C256.098 237.809 256.37 238.181 256.721 238.436C257.071 238.692 257.48 238.82 257.949 238.82C258.295 238.82 258.605 238.749 258.88 238.607C259.159 238.465 259.389 238.259 259.569 237.989C259.753 237.714 259.874 237.385 259.931 237.002H262.786C262.739 237.835 262.511 238.569 262.104 239.203C261.702 239.833 261.145 240.326 260.435 240.681C259.725 241.036 258.884 241.213 257.914 241.213ZM264.279 232.47V230.091H274.165V232.47H270.65V241H267.766V232.47H264.279ZM280.881 241.213C279.758 241.213 278.792 240.986 277.983 240.531C277.178 240.072 276.558 239.424 276.122 238.585C275.686 237.743 275.469 236.746 275.469 235.595C275.469 234.473 275.686 233.488 276.122 232.641C276.558 231.793 277.171 231.133 277.962 230.659C278.757 230.186 279.69 229.949 280.76 229.949C281.48 229.949 282.149 230.065 282.77 230.297C283.395 230.524 283.939 230.868 284.403 231.327C284.872 231.786 285.237 232.364 285.497 233.06C285.757 233.751 285.888 234.561 285.888 235.489V236.32H276.676V234.445H283.04C283.04 234.009 282.945 233.623 282.756 233.287C282.566 232.951 282.303 232.688 281.967 232.499C281.636 232.305 281.25 232.208 280.81 232.208C280.35 232.208 279.943 232.314 279.588 232.527C279.238 232.736 278.963 233.017 278.764 233.372C278.565 233.723 278.463 234.113 278.459 234.544V236.327C278.459 236.867 278.558 237.333 278.757 237.726C278.961 238.119 279.247 238.422 279.616 238.635C279.986 238.848 280.424 238.955 280.93 238.955C281.266 238.955 281.574 238.907 281.854 238.813C282.133 238.718 282.372 238.576 282.571 238.387C282.77 238.197 282.921 237.965 283.025 237.691L285.824 237.875C285.682 238.548 285.39 239.135 284.95 239.637C284.515 240.134 283.951 240.522 283.26 240.801C282.573 241.076 281.78 241.213 280.881 241.213ZM24.6463 265.911H27.5795C27.5938 266.271 27.7547 266.555 28.0625 266.763C28.3703 266.971 28.768 267.076 29.2557 267.076C29.7481 267.076 30.1624 266.962 30.4986 266.735C30.8348 266.503 31.0028 266.171 31.0028 265.74C31.0028 265.475 30.9366 265.246 30.804 265.051C30.6714 264.853 30.4867 264.696 30.25 264.583C30.0133 264.469 29.7386 264.412 29.4261 264.412H27.8565V262.431H29.4261C29.8949 262.431 30.2547 262.322 30.5057 262.104C30.7614 261.886 30.8892 261.614 30.8892 261.287C30.8892 260.918 30.7566 260.622 30.4915 260.399C30.2311 260.172 29.8783 260.058 29.4332 260.058C28.9834 260.058 28.6094 260.16 28.3111 260.364C28.0175 260.563 27.866 260.823 27.8565 261.145H24.9375C24.947 260.492 25.1435 259.926 25.527 259.448C25.9152 258.969 26.4361 258.6 27.0895 258.34C27.7476 258.079 28.4839 257.949 29.2983 257.949C30.1884 257.949 30.9555 258.075 31.5994 258.326C32.2481 258.572 32.7453 258.924 33.0909 259.384C33.4413 259.843 33.6165 260.39 33.6165 261.024C33.6165 261.602 33.4271 262.085 33.0483 262.473C32.6695 262.862 32.1392 263.139 31.4574 263.304V263.418C31.9072 263.446 32.3144 263.567 32.679 263.78C33.0436 263.993 33.3348 264.287 33.5526 264.661C33.7704 265.03 33.8793 265.468 33.8793 265.975C33.8793 266.652 33.6804 267.232 33.2827 267.715C32.8897 268.198 32.3452 268.569 31.6491 268.83C30.9579 269.085 30.1648 269.213 29.2699 269.213C28.3987 269.213 27.6174 269.088 26.9261 268.837C26.2396 268.581 25.6927 268.207 25.2855 267.715C24.883 267.222 24.67 266.621 24.6463 265.911ZM39.1455 269.206C38.4495 269.206 37.8292 269.085 37.2847 268.844C36.7402 268.598 36.3094 268.236 35.9921 267.757C35.6796 267.274 35.5234 266.673 35.5234 265.953C35.5234 265.347 35.6346 264.838 35.8572 264.426C36.0797 264.014 36.3827 263.683 36.7663 263.432C37.1498 263.181 37.5854 262.992 38.0731 262.864C38.5655 262.736 39.0816 262.646 39.6214 262.594C40.2558 262.528 40.7672 262.466 41.1555 262.409C41.5437 262.348 41.8255 262.258 42.0006 262.139C42.1758 262.021 42.2634 261.846 42.2634 261.614V261.571C42.2634 261.121 42.1214 260.773 41.8373 260.527C41.5579 260.281 41.1602 260.158 40.6441 260.158C40.0996 260.158 39.6664 260.279 39.3444 260.52C39.0224 260.757 38.8094 261.055 38.7052 261.415L35.9069 261.188C36.0489 260.525 36.3283 259.952 36.745 259.469C37.1616 258.981 37.699 258.607 38.3572 258.347C39.0201 258.082 39.7871 257.949 40.6583 257.949C41.2644 257.949 41.8444 258.02 42.3984 258.162C42.9571 258.304 43.4519 258.524 43.8827 258.823C44.3183 259.121 44.6616 259.505 44.9126 259.973C45.1635 260.437 45.289 260.994 45.289 261.642V269H42.4197V267.487H42.3344C42.1593 267.828 41.9249 268.129 41.6313 268.389C41.3378 268.645 40.985 268.846 40.5731 268.993C40.1612 269.135 39.6853 269.206 39.1455 269.206ZM40.012 267.118C40.4571 267.118 40.8501 267.031 41.191 266.855C41.5319 266.675 41.7994 266.434 41.9935 266.131C42.1877 265.828 42.2847 265.485 42.2847 265.101V263.943C42.19 264.005 42.0598 264.062 41.8941 264.114C41.7331 264.161 41.5508 264.206 41.3472 264.249C41.1436 264.287 40.94 264.322 40.7364 264.355C40.5328 264.384 40.3482 264.41 40.1825 264.433C39.8273 264.486 39.5172 264.568 39.2521 264.682C38.9869 264.796 38.7809 264.95 38.6342 265.144C38.4874 265.333 38.414 265.57 38.414 265.854C38.414 266.266 38.5631 266.581 38.8614 266.799C39.1645 267.012 39.548 267.118 40.012 267.118ZM59.1649 254.455V269H56.0896V257.374H56.0044L52.6734 259.462V256.735L56.2743 254.455H59.1649ZM69.2501 254.455V269H66.1748V257.374H66.0896L62.7586 259.462V256.735L66.3594 254.455H69.2501ZM78.2699 254.256C79.018 254.256 79.7377 254.381 80.429 254.632C81.125 254.883 81.7453 255.283 82.2898 255.833C82.839 256.382 83.2723 257.111 83.5895 258.02C83.9115 258.924 84.0748 260.035 84.0795 261.351C84.0795 262.587 83.9399 263.69 83.6605 264.661C83.3859 265.627 82.9905 266.448 82.4744 267.125C81.9583 267.802 81.3357 268.318 80.6065 268.674C79.8774 269.024 79.063 269.199 78.1634 269.199C77.1927 269.199 76.3357 269.012 75.5923 268.638C74.849 268.259 74.25 267.746 73.7955 267.097C73.3456 266.443 73.0734 265.71 72.9787 264.895H76.0114C76.1297 265.425 76.3783 265.837 76.7571 266.131C77.1359 266.42 77.6046 266.564 78.1634 266.564C79.1103 266.564 79.83 266.152 80.3224 265.328C80.8149 264.5 81.0634 263.366 81.0682 261.926H80.9688C80.7509 262.353 80.4574 262.719 80.0881 263.027C79.7188 263.33 79.295 263.565 78.8168 263.73C78.3433 263.896 77.839 263.979 77.304 263.979C76.447 263.979 75.6823 263.778 75.0099 263.375C74.3376 262.973 73.8073 262.419 73.419 261.713C73.0308 261.008 72.8366 260.203 72.8366 259.299C72.8319 258.323 73.0568 257.454 73.5114 256.692C73.9659 255.93 74.6004 255.333 75.4148 254.902C76.2339 254.467 77.1856 254.251 78.2699 254.256ZM78.2912 256.671C77.813 256.671 77.3868 256.784 77.0128 257.012C76.6435 257.239 76.3499 257.544 76.1321 257.928C75.919 258.311 75.8149 258.74 75.8196 259.213C75.8196 259.692 75.9238 260.122 76.1321 260.506C76.3452 260.885 76.634 261.188 76.9986 261.415C77.3679 261.638 77.7893 261.749 78.2628 261.749C78.6179 261.749 78.947 261.683 79.25 261.55C79.553 261.417 79.8158 261.235 80.0384 261.003C80.2656 260.766 80.4432 260.494 80.571 260.186C80.6989 259.879 80.7628 259.552 80.7628 259.206C80.758 258.747 80.6491 258.326 80.4361 257.942C80.223 257.558 79.9295 257.251 79.5554 257.019C79.1813 256.787 78.7599 256.671 78.2912 256.671ZM91.773 254.256C92.5211 254.256 93.2408 254.381 93.9321 254.632C94.6281 254.883 95.2484 255.283 95.7929 255.833C96.3421 256.382 96.7754 257.111 97.0926 258.02C97.4146 258.924 97.5779 260.035 97.5827 261.351C97.5827 262.587 97.443 263.69 97.1636 264.661C96.889 265.627 96.4937 266.448 95.9776 267.125C95.4615 267.802 94.8388 268.318 94.1097 268.674C93.3805 269.024 92.5661 269.199 91.6665 269.199C90.6958 269.199 89.8388 269.012 89.0955 268.638C88.3521 268.259 87.7531 267.746 87.2986 267.097C86.8488 266.443 86.5765 265.71 86.4818 264.895H89.5145C89.6329 265.425 89.8814 265.837 90.2602 266.131C90.639 266.42 91.1078 266.564 91.6665 266.564C92.6134 266.564 93.3331 266.152 93.8256 265.328C94.318 264.5 94.5666 263.366 94.5713 261.926H94.4719C94.2541 262.353 93.9605 262.719 93.5912 263.027C93.2219 263.33 92.7981 263.565 92.3199 263.73C91.8464 263.896 91.3421 263.979 90.8071 263.979C89.9501 263.979 89.1854 263.778 88.5131 263.375C87.8407 262.973 87.3104 262.419 86.9222 261.713C86.5339 261.008 86.3398 260.203 86.3398 259.299C86.335 258.323 86.5599 257.454 87.0145 256.692C87.469 255.93 88.1035 255.333 88.9179 254.902C89.737 254.467 90.6887 254.251 91.773 254.256ZM91.7943 256.671C91.3161 256.671 90.89 256.784 90.5159 257.012C90.1466 257.239 89.853 257.544 89.6352 257.928C89.4222 258.311 89.318 258.74 89.3227 259.213C89.3227 259.692 89.4269 260.122 89.6352 260.506C89.8483 260.885 90.1371 261.188 90.5017 261.415C90.871 261.638 91.2924 261.749 91.7659 261.749C92.121 261.749 92.4501 261.683 92.7531 261.55C93.0562 261.417 93.3189 261.235 93.5415 261.003C93.7687 260.766 93.9463 260.494 94.0741 260.186C94.202 259.879 94.2659 259.552 94.2659 259.206C94.2612 258.747 94.1523 258.326 93.9392 257.942C93.7261 257.558 93.4326 257.251 93.0585 257.019C92.6845 256.787 92.2631 256.671 91.7943 256.671ZM104.971 273.091V258.091H107.954V259.924H108.089C108.221 259.63 108.413 259.332 108.664 259.029C108.92 258.721 109.251 258.465 109.658 258.262C110.07 258.053 110.581 257.949 111.192 257.949C111.988 257.949 112.722 258.157 113.394 258.574C114.066 258.986 114.604 259.609 115.006 260.442C115.409 261.271 115.61 262.31 115.61 263.56C115.61 264.777 115.413 265.804 115.02 266.642C114.632 267.476 114.102 268.108 113.429 268.539C112.762 268.965 112.014 269.178 111.185 269.178C110.598 269.178 110.099 269.081 109.687 268.887C109.279 268.692 108.946 268.449 108.685 268.155C108.425 267.857 108.226 267.556 108.089 267.253H107.996V273.091H104.971ZM107.932 263.546C107.932 264.194 108.022 264.76 108.202 265.243C108.382 265.726 108.643 266.103 108.983 266.372C109.324 266.638 109.739 266.77 110.226 266.77C110.719 266.77 111.135 266.635 111.476 266.365C111.817 266.091 112.075 265.712 112.25 265.229C112.43 264.741 112.52 264.18 112.52 263.546C112.52 262.916 112.433 262.362 112.258 261.884C112.082 261.406 111.824 261.031 111.483 260.762C111.143 260.492 110.724 260.357 110.226 260.357C109.734 260.357 109.317 260.487 108.976 260.747C108.64 261.008 108.382 261.377 108.202 261.855C108.022 262.334 107.932 262.897 107.932 263.546ZM119.443 273.091C119.06 273.091 118.7 273.06 118.364 272.999C118.032 272.942 117.758 272.869 117.54 272.779L118.222 270.52C118.577 270.629 118.896 270.688 119.18 270.698C119.469 270.707 119.718 270.641 119.926 270.499C120.139 270.357 120.312 270.115 120.445 269.774L120.622 269.313L116.709 258.091H119.891L122.149 266.103H122.263L124.543 258.091H127.746L123.506 270.179C123.302 270.766 123.025 271.278 122.675 271.713C122.329 272.154 121.891 272.492 121.361 272.729C120.831 272.97 120.191 273.091 119.443 273.091ZM138.664 254.085L139.587 256.06C139.279 256.316 138.938 256.505 138.564 256.628C138.19 256.746 137.743 256.825 137.222 256.862C136.706 256.9 136.076 256.926 135.333 256.941C134.49 256.95 133.803 257.085 133.273 257.345C132.743 257.606 132.34 258.015 132.066 258.574C131.791 259.128 131.611 259.853 131.526 260.747H131.632C131.959 260.08 132.418 259.564 133.01 259.199C133.607 258.835 134.343 258.652 135.219 258.652C136.147 258.652 136.959 258.856 137.655 259.263C138.356 259.67 138.9 260.255 139.289 261.017C139.677 261.78 139.871 262.693 139.871 263.759C139.871 264.867 139.653 265.83 139.218 266.649C138.787 267.464 138.174 268.096 137.378 268.546C136.583 268.991 135.636 269.213 134.537 269.213C133.434 269.213 132.482 268.981 131.682 268.517C130.887 268.053 130.271 267.369 129.836 266.465C129.405 265.56 129.189 264.448 129.189 263.127V262.232C129.189 259.604 129.701 257.656 130.723 256.387C131.746 255.118 133.249 254.474 135.233 254.455C135.773 254.445 136.261 254.443 136.696 254.448C137.132 254.452 137.513 254.431 137.84 254.384C138.171 254.336 138.446 254.237 138.664 254.085ZM134.551 266.87C135.016 266.87 135.413 266.749 135.745 266.507C136.081 266.266 136.339 265.92 136.519 265.47C136.703 265.021 136.796 264.483 136.796 263.858C136.796 263.238 136.703 262.712 136.519 262.281C136.339 261.846 136.081 261.514 135.745 261.287C135.408 261.06 135.006 260.946 134.537 260.946C134.187 260.946 133.872 261.01 133.593 261.138C133.313 261.266 133.074 261.455 132.875 261.706C132.681 261.952 132.53 262.258 132.421 262.622C132.317 262.982 132.265 263.394 132.265 263.858C132.265 264.791 132.466 265.527 132.868 266.067C133.275 266.602 133.837 266.87 134.551 266.87ZM141.54 269L141.526 266.6H141.888C142.144 266.6 142.364 266.538 142.549 266.415C142.738 266.287 142.894 266.081 143.017 265.797C143.14 265.513 143.238 265.137 143.309 264.668C143.38 264.194 143.427 263.612 143.451 262.921L143.628 258.091H151.924V269H149.04V260.47H146.348L146.178 263.801C146.135 264.715 146.024 265.501 145.844 266.159C145.669 266.817 145.425 267.357 145.113 267.779C144.8 268.195 144.424 268.503 143.983 268.702C143.543 268.901 143.032 269 142.449 269H141.54ZM159.541 269.213C158.419 269.213 157.453 268.986 156.643 268.531C155.838 268.072 155.218 267.424 154.782 266.585C154.347 265.743 154.129 264.746 154.129 263.595C154.129 262.473 154.347 261.488 154.782 260.641C155.218 259.793 155.831 259.133 156.622 258.659C157.417 258.186 158.35 257.949 159.42 257.949C160.14 257.949 160.81 258.065 161.43 258.297C162.055 258.524 162.599 258.868 163.063 259.327C163.532 259.786 163.897 260.364 164.157 261.06C164.418 261.751 164.548 262.561 164.548 263.489V264.32H155.336V262.445H161.7C161.7 262.009 161.605 261.623 161.416 261.287C161.226 260.951 160.964 260.688 160.627 260.499C160.296 260.305 159.91 260.208 159.47 260.208C159.01 260.208 158.603 260.314 158.248 260.527C157.898 260.736 157.623 261.017 157.424 261.372C157.225 261.723 157.124 262.113 157.119 262.544V264.327C157.119 264.867 157.218 265.333 157.417 265.726C157.621 266.119 157.907 266.422 158.276 266.635C158.646 266.848 159.084 266.955 159.59 266.955C159.927 266.955 160.234 266.907 160.514 266.813C160.793 266.718 161.032 266.576 161.231 266.387C161.43 266.197 161.581 265.965 161.686 265.691L164.484 265.875C164.342 266.548 164.051 267.135 163.61 267.637C163.175 268.134 162.611 268.522 161.92 268.801C161.233 269.076 160.44 269.213 159.541 269.213ZM169.713 265.009L173.64 258.091H176.623V269H173.74V262.061L169.826 269H166.822V258.091H169.713V265.009ZM173.122 254.284H175.231C175.227 255.146 174.907 255.84 174.273 256.365C173.643 256.891 172.791 257.154 171.716 257.154C170.636 257.154 169.782 256.891 169.152 256.365C168.522 255.84 168.207 255.146 168.207 254.284H170.302C170.298 254.611 170.402 254.905 170.615 255.165C170.833 255.425 171.2 255.556 171.716 255.556C172.218 255.556 172.577 255.428 172.795 255.172C173.013 254.916 173.122 254.621 173.122 254.284Z" fill="#FF7010"/>
<defs>
<clipPath id="clip0_485_4511">
<rect width="140" height="140" fill="white" transform="translate(138 52.0002)"/>
</clipPath>
</defs>
</svg>
