<svg width="33" height="32" viewBox="0 0 33 32" fill="none" xmlns="http://www.w3.org/2000/svg">
<g clip-path="url(#clip0_110_1067)">
<path d="M20.2592 19.3819C16.0035 19.3819 11.9927 20.0078 8.66065 21.1921C7.83813 21.4845 6.9819 21.6328 6.11595 21.6327C5.04807 21.6327 4.01331 21.4049 3.06885 20.9854C3.84464 23.87 6.48707 26 9.6191 26H25.1109C28.275 26 30.9397 23.8261 31.6846 20.8964C31.3829 20.8954 31.0828 20.8536 30.7924 20.7714C27.5796 19.8624 23.9372 19.3819 20.2592 19.3819Z" fill="#FF7010"/>
<path d="M10.8414 18.2524C12.1705 17.929 13.5601 17.6777 14.9872 17.5004C12.205 14.4597 11.9458 9.3412 14.4838 6C12.4403 6.06286 10.4452 6.39693 8.58764 6.97437C7.63589 7.88611 6.96048 9.06045 6.65978 10.3514C5.8469 13.5583 7.74348 17.1184 10.8414 18.2524Z" fill="#FF7010"/>
<path d="M7.90391 19.122C5.12174 17.0409 3.67295 13.4434 4.50939 9.85262C4.61492 9.39959 4.75717 8.95808 4.92989 8.53023C4.19265 8.9417 3.49663 9.39944 2.85087 9.90153C-1.15755 12.9999 1.12487 19.4418 6.1161 19.4297C6.71012 19.4297 7.31371 19.3298 7.90391 19.122Z" fill="#FF7010"/>
<path d="M26.7456 9.22604C25.7725 9.70449 24.9879 10.4897 24.5113 11.4733C23.7099 13.127 23.9105 15.0495 24.9765 16.487C25.1414 16.7092 25.747 17.3774 25.8033 17.529C27.7268 17.774 29.6098 18.147 31.3949 18.6521C31.7658 18.7571 32.1652 18.6611 32.4477 18.399C32.7302 18.1369 32.8551 17.7466 32.7771 17.3696C32.1028 14.1095 29.8905 11.259 26.7456 9.22604Z" fill="#FF7010"/>
<path d="M17.9896 17.2381C19.593 17.1552 21.2196 17.1612 22.838 17.2552C21.6139 15.2415 21.4577 12.7143 22.5239 10.5142C23.0035 9.52422 23.6985 8.67315 24.5499 8.01213C22.4113 7.00794 19.9783 6.33789 17.3857 6.09276C13.877 8.98107 14.2069 14.7691 17.9896 17.2381Z" fill="#FF7010"/>
</g>
<defs>
<clipPath id="clip0_110_1067">
<rect width="32" height="32" fill="white" transform="translate(0.800049)"/>
</clipPath>
</defs>
</svg>
